<svg clip-rule="evenodd" fill-rule="evenodd" height="31286.576" image-rendering="optimizeQuality" shape-rendering="geometricPrecision" text-rendering="geometricPrecision" viewBox="0 0 142736.92 31286.576" width="142736.92" xmlns="http://www.w3.org/2000/svg"><g fill="none" stroke-width="35.27" transform="matrix(0 -1 4.7899576 0 -.259124 31286.602)"><path d="m14 5706c7400 5381 11782 10079 0 19648" stroke="#d9dada"/><path d="m14 5259c8715 6178 14873 10980 0 22209" stroke="#c5c6c6"/><path d="m14 4822c9872 7035 18098 11788 0 24680" stroke="#b2b3b3"/><path d="m14 4364c10423 7658 20594 12173 2400 25421" stroke="#9d9e9e"/><path d="m14 3851c10728 8320 22837 12576 5161 25933" stroke="#898989"/><path d="m14 3249c10845 9095 24962 13088 7883 26535" stroke="#727271"/><path d="m14 2518c10748 10016 26979 13737 10564 27267" stroke="#2b2a29"/><path d="m14 1587c10386 11137 28899 14576 13200 28198" stroke="#2b2a29"/><path d="m14 356c9664 12552 30734 15684 15787 29428" stroke="#5b5b5b"/><path d="m915 10c9048 13248 31136 16296 17416 29774" stroke="#727271"/><path d="m2119 10c8524 13646 31023 16700 18687 29774" stroke="#898989"/><path d="m3367 10c7972 14031 30791 17113 19855 29774" stroke="#9d9e9e"/><path d="m4658 10c7395 14400 30444 17535 20917 29774" stroke="#b2b3b3"/><path d="m5989 10c6797 14752 29987 17962 21870 29774" stroke="#c5c6c6"/><path d="m7360 10c6182 15084 29413 18393 22706 29774" stroke="#d9dada"/></g></svg>