<svg enable-background="new 0 0 800 800" height="800" viewBox="0 0 800 800" width="800" xmlns="http://www.w3.org/2000/svg"><g fill="none" stroke="#000" stroke-miterlimit="10" stroke-width="38"><path d="m687.528 543.822c-2.43-2.971-6.807-3.408-9.776-.979-.358.293-.688.621-.979.979-18.516 21.865-79.349 82.08-79.349 136.938 0 47.609 37.91 86.207 84.639 86.207 46.729 0 84.639-38.793 84.639-86.207-.003-54.856-60.483-115.072-79.174-136.938z"/><path d="m630.926 456.451-408.01-404.748c-24.747-24.833-64.939-24.903-89.772-.156-.053.052-.104.104-.156.156l-9.081 9.08c-24.832 24.747-24.902 64.94-.155 89.772.052.053.104.104.155.156l93.261 93.261 100.509-100.508-269.823 269.434c-19.333 19.229-19.419 50.488-.19 69.822.237.238.477.477.719.709l231.345 222.176c19.199 18.381 49.49 18.303 68.593-.176 66.653-64.537 208.599-201.898 223.41-216.711 10.228-10.227 32.093-12.518 50.607-12.518h.528c6.358.004 11.52-5.146 11.523-11.508.006-3.098-1.244-6.073-3.463-8.241z"/></g></svg>