<svg enable-background="new 0 0 800 800" height="800" viewBox="0 0 800 800" width="800" xmlns="http://www.w3.org/2000/svg"><path d="m410.796 290.689c-60.371-5.962-114.145 38.145-120.107 98.515-5.963 60.37 38.145 114.143 98.515 120.106 60.371 5.963 114.145-38.143 120.106-98.516.709-7.18.709-14.411 0-21.59-5.231-52.087-46.427-93.283-98.514-98.515zm264.48 109.311c-.07 11.939-.947 23.861-2.626 35.682l77.593 60.859c6.978 5.785 8.756 15.762 4.205 23.6l-73.405 127.006c-4.603 7.76-14.118 11.084-22.552 7.877l-77.062-31.029c-8.631-3.438-18.413-2.309-26.035 3.002-11.762 8.1-24.119 15.293-36.969 21.523-8.205 3.986-13.881 11.801-15.139 20.836l-11.551 82.193c-1.563 8.951-9.244 15.545-18.33 15.738h-146.811c-8.925-.154-16.549-6.48-18.347-15.225l-11.534-82.072c-1.315-9.135-7.113-17.006-15.446-20.973-12.834-6.195-25.151-13.41-36.832-21.574-7.598-5.287-17.346-6.389-25.933-2.936l-77.044 31.014c-8.428 3.209-17.945-.107-22.552-7.861l-73.406-127.006c-4.558-7.836-2.779-17.818 4.205-23.598l65.58-51.488c7.3-5.795 11.174-14.887 10.298-24.166-.618-7.156-.996-14.297-.996-21.454s.36-14.194.996-21.196c.78-9.221-3.136-18.215-10.418-23.925l-65.545-51.489c-6.867-5.807-8.581-15.701-4.067-23.479l73.406-127.005c4.602-7.76 14.119-11.084 22.552-7.878l77.062 31.03c8.632 3.437 18.414 2.309 26.036-3.003 11.761-8.099 24.119-15.293 36.969-21.522 8.204-3.987 13.881-11.801 15.138-20.836l11.551-82.193c1.564-8.952 9.245-15.546 18.33-15.738h146.811c8.926.154 16.55 6.48 18.348 15.224l11.533 82.073c1.315 9.135 7.113 17.007 15.447 20.973 12.834 6.195 25.15 13.41 36.832 21.574 7.596 5.286 17.346 6.389 25.933 2.935l77.044-31.014c8.43-3.209 17.945.107 22.553 7.861l73.406 127.006c4.557 7.836 2.777 17.819-4.205 23.599l-65.58 51.488c-7.332 5.776-11.24 14.872-10.384 24.166.563 7.104.941 14.244.941 21.401z" fill="none" stroke="#000" stroke-linecap="round" stroke-linejoin="round" stroke-width="38"/></svg>