<svg enable-background="new 0 0 800 800" height="800" viewBox="0 0 800 800" width="800" xmlns="http://www.w3.org/2000/svg"><g fill="none" stroke="#020202" stroke-miterlimit="10" stroke-width="38"><path d="m496.42 286.614c-4.053-6.546-9.664-9.663-15.271-9.663-5.301 0-10.91 3.116-14.963 9.04l-120.628 192.745c-4.363 6.232-10.598 9.662-16.52 9.662-5.923 0-11.533-2.806-16.208-8.416l-45.507-56.416c-4.364-5.611-10.287-8.416-15.897-8.416-6.232 0-12.155 3.429-16.519 9.661l-92.264 157.147c-8.416 12.468-2.806 22.754 12.156 22.754h490.301c14.961 0 20.572-10.286 12.467-23.066z"/><path d="m325.297 318.096c33.977 0 61.405-27.43 61.405-61.404 0-33.976-27.429-61.405-61.405-61.405-33.975 0-61.403 27.43-61.403 61.405 0 33.974 27.429 61.404 61.403 61.404z"/><path d="m713.256 96.92h-626.513c-30.233 0-54.547 24.312-54.547 54.547v497.066c0 30.233 24.312 54.547 54.547 54.547h626.513c30.234 0 54.549-24.312 54.549-54.547v-497.066c-.002-30.235-24.315-54.547-54.549-54.547z"/></g></svg>