<svg enable-background="new 0 0 800 800" height="800" viewBox="0 0 800 800" width="800" xmlns="http://www.w3.org/2000/svg"><path d="m267.892 267.894c22.216-22.216 58.239-22.214 80.459.006l402.274 402.275c22.221 22.22 22.223 58.242.008 80.459-22.217 22.216-58.24 22.213-80.459-.007l-402.276-402.274c-22.22-22.221-22.222-58.243-.006-80.459z" fill="none" stroke="#000" stroke-miterlimit="10" stroke-width="38"/><path d="m268.06 268.057c-22.307 22.302-22.31 58.464-.008 80.771.003.003.006.005.008.008l80.996 80.996 80.779-80.779-80.996-80.996c-22.302-22.307-58.464-22.31-80.771-.008-.004.003-.006.006-.008.008z"/><g stroke="#000" stroke-linecap="round" stroke-miterlimit="10" stroke-width="38"><path d="m32.708 292.643h86.646"/><path d="m108.848 108.845 61.266 61.266"/><path d="m292.645 32.705v86.646"/><path d="m476.443 108.845-61.266 61.266"/><path d="m170.114 415.175-61.266 61.266"/></g></svg>