<svg enable-background="new 0 0 800 800" height="800" viewBox="0 0 800 800" width="800" xmlns="http://www.w3.org/2000/svg"><path d="m620.672 49.147c-10.602-10.6-24.98-16.554-39.973-16.552h-466.462c-45.08-.01-81.631 36.527-81.642 81.607v.035 571.526c-.01 45.08 36.527 81.631 81.607 81.641h.034 571.527c45.033-.135 81.506-36.607 81.641-81.641v-466.463c.002-14.992-5.949-29.371-16.551-39.973zm-220.672 633.472c-62.435 0-113.047-50.613-113.047-113.047 0-62.436 50.612-113.049 113.047-113.049 62.434 0 113.047 50.613 113.047 113.049.08 62.355-50.406 112.969-112.764 113.047-.095 0-.188 0-.283 0zm84.785-395.666h-339.142c-15.608 0-28.262-12.653-28.262-28.263v-113.047c0-15.608 12.653-28.262 28.262-28.262h339.142c15.609 0 28.262 12.654 28.262 28.262v113.047c0 15.609-12.652 28.263-28.262 28.263z" fill="none" stroke="#000" stroke-linecap="round" stroke-linejoin="round" stroke-width="38"/></svg>