<svg enable-background="new 0 0 800 800" height="800" viewBox="0 0 800 800" width="800" xmlns="http://www.w3.org/2000/svg"><g fill="none" stroke="#000" stroke-linejoin="round" stroke-width="38"><path d="m531.257 413.339v281.989c0 39.869-31.255 72.191-70.469 72.191h-305.254c-39.295 0-70.551-32.322-70.551-72.191v-433.148c.233-39.773 32.418-71.959 72.191-72.191h154.425c10.796.017 21.135 4.367 28.695 12.075l179.084 182.12c7.619 7.791 11.884 18.257 11.879 29.155z"/><path d="m308.12 189.989v177.197c.3 25.247 20.693 45.639 45.939 45.939h177.197" stroke-linecap="round"/><path d="m268.743 189.989v-85.317c.232-39.773 32.418-71.959 72.192-72.191h154.227c10.856.016 21.256 4.362 28.893 12.076l179.084 182.12c7.614 7.708 11.884 18.107 11.88 28.941v282.202c0 39.869-31.257 72.191-70.469 72.191h-100.167"/><path d="m491.88 32.48v177.197c.301 25.247 20.693 45.639 45.939 45.939h177.198" stroke-linecap="round"/></g></svg>