<svg xmlns="http://www.w3.org/2000/svg" viewBox="0 0 24 24" preserveAspectRatio="xMinYMid meet">
    <path d="M4 4C2.9 4 2 4.9 2 6V18C2 19.1 2.9 20 4 20H20C21.1 20 22 19.1 22 18V6C22 4.9 21.1 4 20 4H4ZM4 6H20V8H4V6ZM8 10.75C9.52 10.75 10.75 11.98 10.75 13.5C10.75 15.02 9.52 16.25 8 16.25C6.48 16.25 5.25 15.02 5.25 13.5C5.25 11.98 6.48 10.75 8 10.75ZM14 11H18.5V12.5H14V11ZM14 14H18.5V15.5H14V14ZM4 18V17.4C4 15.57 6.45 14.75 8 14.75C8.37 14.75 8.79 14.8 9.23 14.9C8.86 15.34 8.31 15.62 7.7 15.62C6.59 15.62 5.68 14.72 5.68 13.6C5.68 13.16 5.83 12.75 6.08 12.43C4.85 12.93 4 13.82 4 14.95V18Z"/>
</svg>