<svg enable-background="new 0 0 1000 1000" viewBox="0 0 1000 1000" xmlns="http://www.w3.org/2000/svg"><path d="m364.7 760.3c-122.9-.1-207.3-182.2-210.3-191.2-9.7-28.9-40.1-118.8 5.4-207.3 56.2-109.1 197-155.8 288.6-124.5 62.3 21.2 53.6 62 133.5 100.5 97.6 46.9 153.4 6.8 202.2 50.9 51.1 46.1 50.8 145.2 24.2 210.9-36.3 89.6-76.2 143.2-165.1 160.8-74.6.1-176.7 0-278.5-.1z" fill="#fff4b0"/><g fill="none" stroke-linecap="round" stroke-linejoin="round" stroke-miterlimit="10" stroke-width="6"><g stroke="#4e5a7d"><path d="m237.9 760.5h479.9"/><path d="m744.9 760.5h49.4"/><path d="m183.4 760.5h34.6"/><path d="m811.7 760.5h8.5"/></g><g opacity=".2" stroke="#592d2d"><path d="m455.1 501.9v30.9h-61.8"/><path d="m517 532.8h-61.9v-30.9"/><path d="m424.2 532.8h61.9v30.9h-61.9z"/><path d="m472.7 594.6h-17.6v-30.9h61.9"/><path d="m393.3 563.7h61.8v30.9h-50.1"/><path d="m372.2 532.8h52v30.9h-30.9"/><path d="m530.7 563.7h-44.7v-30.9h21.5"/></g><ellipse cx="329.9" cy="675.9" rx="24" ry="44.3" stroke="#4e5a7d"/></g><path d="m299.1 686.1h-13.7c-6.1 0-11-4.9-11-11v-3.5c0-6.1 4.9-11 11-11h13.7z" fill="#fff"/><path d="m299.1 686.1h-13.7c-6.1 0-11-4.9-11-11v-3.5c0-6.1 4.9-11 11-11h13.7z" style="fill:none;stroke:#4e5a7d;stroke-width:6;stroke-linecap:round;stroke-linejoin:round;stroke-miterlimit:10"/><path d="m322.7 634.4h-19.1c-9.3 0-16.8 17.4-16.8 39 0 21.5 7.5 39 16.8 39 .3 0 .7 0 1-.1h18.1z" fill="#d16f6f"/><path d="m322.7 634.4h-19.1c-9.3 0-16.8 17.4-16.8 39 0 21.5 7.5 39 16.8 39 .3 0 .7 0 1-.1h18.1z" style="fill:none;stroke:#4e5a7d;stroke-width:6;stroke-linecap:round;stroke-linejoin:round;stroke-miterlimit:10"/><g fill="#e08484"><path d="m404.2 586.3h-53.6c-26 0-47.1 39-47.1 87.1s21.1 87.1 47.1 87.1c.9 0 1.9-.1 2.8-.2h50.8z"/><path d="m404.2 586.3h-53.6c-26 0-47.1 39-47.1 87.1s21.1 87.1 47.1 87.1c.9 0 1.9-.1 2.8-.2h50.8z"/><path d="m404.2 586.3h-53.6c-26 0-47.1 39-47.1 87.1s21.1 87.1 47.1 87.1c.9 0 1.9-.1 2.8-.2h50.8z"/></g><path d="m320.9 740.9c8.1 12.2 18.5 19.5 29.7 19.5.9 0 1.9-.1 2.8-.2h50.8v-19.3z" fill="#d87171"/><path d="m320.4 606.5h83.8v-20.3h-53.6c-11.5.1-22.1 7.7-30.2 20.3z" fill="#e99697"/><path d="m404.2 586.3h-53.6c-26 0-47.1 39-47.1 87.1s21.1 87.1 47.1 87.1c.9 0 1.9-.1 2.8-.2h50.8z" style="fill:none;stroke:#4e5a7d;stroke-width:6;stroke-linecap:round;stroke-linejoin:round;stroke-miterlimit:10"/><ellipse cx="405.6" cy="673.4" fill="#d87171" rx="47.1" ry="87.1"/><ellipse cx="405.6" cy="673.4" rx="47.1" ry="87.1" style="fill:none;stroke:#4e5a7d;stroke-width:6;stroke-linecap:round;stroke-linejoin:round;stroke-miterlimit:10"/><ellipse cx="405.6" cy="673.4" fill="#4e5a7d" rx="9.2" ry="20.4"/><ellipse cx="405.6" cy="673.4" fill="#c46565" rx="33.1" ry="70.4"/><ellipse cx="405.6" cy="673.4" fill="#d16f6f" rx="17.2" ry="33.1"/><ellipse cx="405.6" cy="673.4" rx="17.2" ry="33.1" style="fill:none;stroke:#4e5a7d;stroke-width:4;stroke-linecap:round;stroke-linejoin:round;stroke-miterlimit:10"/><ellipse cx="405.6" cy="673.4" rx="9.2" ry="20.4" style="fill:none;stroke:#4e5a7d;stroke-width:6;stroke-linecap:round;stroke-linejoin:round;stroke-miterlimit:10"/><ellipse cx="405.6" cy="673.4" fill="#4e5a7d" rx="9.2" ry="20.4"/><ellipse cx="405.6" cy="673.4" rx="33.1" ry="70.4" style="fill:none;stroke:#4e5a7d;stroke-width:4;stroke-linecap:round;stroke-linejoin:round;stroke-miterlimit:10"/><path d="m404.1 660.7c-1.3 3.4-2.2 7.8-2.2 12.6 0 4.9.9 9.2 2.2 12.6.6.1 1.2.2 1.8.2h174v-25.6h-174c-.7.1-1.2.1-1.8.2z" fill="#fff"/><path d="m404.1 660.7c-1.3 3.4-2.2 7.8-2.2 12.6 0 4.9.9 9.2 2.2 12.6.6.1 1.2.2 1.8.2h174v-25.6h-174c-.7.1-1.2.1-1.8.2z" style="fill:none;stroke:#4e5a7d;stroke-width:6;stroke-linecap:round;stroke-linejoin:round;stroke-miterlimit:10"/><path d="m651 586.3h-53.6c-26 0-47.1 39-47.1 87.1s21.1 87.1 47.1 87.1c.9 0 1.9-.1 2.8-.2h50.8z" fill="#e08484"/><path d="m569.2 740.9c8.1 12.2 18.5 19.5 29.7 19.5.9 0 1.9-.1 2.8-.2h50.8v-19.3z" fill="#d87171"/><path d="m568.6 606.5h83.8v-20.3h-53.6c-11.4.1-22 7.7-30.2 20.3z" fill="#e99697"/><path d="m651 586.3h-53.6c-26 0-47.1 39-47.1 87.1s21.1 87.1 47.1 87.1c.9 0 1.9-.1 2.8-.2h50.8z" style="fill:none;stroke:#4e5a7d;stroke-width:6;stroke-linecap:round;stroke-linejoin:round;stroke-miterlimit:10"/><ellipse cx="652.5" cy="673.4" fill="#e08484" rx="47.1" ry="87.1"/><ellipse cx="652.5" cy="673.4" fill="#d87171" rx="47.1" ry="87.1"/><ellipse cx="652.5" cy="673.4" rx="47.1" ry="87.1" style="fill:none;stroke:#4e5a7d;stroke-width:6;stroke-linecap:round;stroke-linejoin:round;stroke-miterlimit:10"/><ellipse cx="652.5" cy="673.4" fill="#4e5a7d" rx="9.2" ry="20.4"/><ellipse cx="652.5" cy="673.4" fill="#c46565" rx="33.1" ry="73.1"/><ellipse cx="652.5" cy="673.4" rx="33.1" ry="73.1" style="fill:none;stroke:#4e5a7d;stroke-width:4;stroke-linecap:round;stroke-linejoin:round;stroke-miterlimit:10"/><path d="m684.6 639.6h-22c-10.7 0-19.4 15.8-19.4 35.3s8.7 35.3 19.4 35.3c.4 0 .8 0 1.2-.1h20.9v-70.5z" fill="#e08484"/><path d="m682.2 639.6h-20.2c-9.8 0-17.8 15.8-17.8 35.3s8 35.3 17.8 35.3c.4 0 .7 0 1.1-.1h19.2v-70.5z" style="fill:none;stroke:#4e5a7d;stroke-width:6;stroke-linecap:round;stroke-linejoin:round;stroke-miterlimit:10"/><ellipse cx="682.7" cy="674.9" fill="#e08484" rx="16.9" ry="35.3"/><ellipse cx="681.8" cy="674.9" rx="17.8" ry="35.3" style="fill:none;stroke:#4e5a7d;stroke-width:6;stroke-linecap:round;stroke-linejoin:round;stroke-miterlimit:10"/><path d="m691.7 687.7c6.1 0 11-4.9 11-11v-3.5c0-6.1-4.9-11-11-11-5.6 0-10.1 4.5-10.1 10.1v5.4c0 5.5 4.5 10 10.1 10z" fill="#fff"/><g fill="none" stroke="#4e5a7d" stroke-linecap="round" stroke-linejoin="round" stroke-miterlimit="10"><path d="m691.7 687.7c6.1 0 11-4.9 11-11v-3.5c0-6.1-4.9-11-11-11-5.6 0-10.1 4.5-10.1 10.1v5.4c0 5.5 4.5 10 10.1 10z" stroke-width="6"/><path d="m405.1 615.9h-3.8v5.9h2.8-.2c2.2 0 3.9 2.2 3.9 4.9s-1.8 4.9-3.9 4.9c-1.6 0-2.9-1.1-3.5-2.8" stroke-width="2"/></g></svg>