<svg viewBox="0 0 1000 1000" xmlns="http://www.w3.org/2000/svg"><ellipse cx="481.171" cy="743.5" fill="#eae8ea" rx="412.829" ry="64.5"/><path d="m630.084 297h-106.168c-28.672 0-51.916 22.953-51.916 51.268v361.587a34.2 34.2 0 0 0 40.473 33.537 18.1 18.1 0 0 0 3.7-1.062c20.426-8.826 36.779-20.589 60.832-20.589s40.407 11.763 60.833 20.589a18.066 18.066 0 0 0 3.694 1.062 34.2 34.2 0 0 0 40.468-33.537v-361.587c0-28.315-23.244-51.268-51.916-51.268z" fill="#fff"/><path d="m630.083 297h-28c28.673 0 51.917 22.953 51.917 51.268v361.587a34.261 34.261 0 0 1 -19.687 30.909q1.743.795 3.52 1.566a18.066 18.066 0 0 0 3.694 1.062 34.2 34.2 0 0 0 40.473-33.537v-361.587c0-28.315-23.244-51.268-51.917-51.268z" fill="#eae8ea"/><path d="m549 721.741c-22.656 0-38.482 10.435-57.313 19.023a33.535 33.535 0 0 0 20.786 2.628 18.1 18.1 0 0 0 3.7-1.062c16.213-7.006 29.864-15.856 46.832-19.21a71.684 71.684 0 0 0 -14.005-1.379z" fill="#d9cedb"/><path d="m630.084 297h-106.168c-28.672 0-51.916 22.953-51.916 51.268v361.587a34.2 34.2 0 0 0 40.473 33.537 18.1 18.1 0 0 0 3.7-1.062c20.426-8.826 36.779-20.589 60.832-20.589s40.407 11.763 60.833 20.589a18.066 18.066 0 0 0 3.694 1.062 34.2 34.2 0 0 0 40.468-33.537v-361.587c0-28.315-23.244-51.268-51.916-51.268z" fill="none" stroke="#363a5a" stroke-linecap="round" stroke-linejoin="round" stroke-width="6"/><path d="m535.224 283h84v14h-84z" fill="#eae8ea"/><path d="m535.224 283h84v14h-84z" fill="none" stroke="#363a5a" stroke-linecap="round" stroke-linejoin="round" stroke-width="6"/><path d="m620.349 283.333a781.317 781.317 0 0 1 -86.248 0 6 6 0 0 1 -5.653-6q0-17.365 0-34.731c0-11.041 8.826-22.01 19.607-24.4a133.129 133.129 0 0 1 58.3.039c10.8 2.384 19.648 13.344 19.648 24.4q0 17.343 0 34.684a6 6 0 0 1 -5.654 6.008z" fill="#fff"/><path d="m626 242.654c0-11.06-8.847-22.02-19.647-24.4a134.006 134.006 0 0 0 -38.29-2.929 137.554 137.554 0 0 1 20.29 2.929c10.8 2.384 19.647 13.344 19.647 24.4q0 17.343 0 34.684a6 6 0 0 1 -5.651 6q-17.052.942-34.124 1.129 26.068.3 52.124-1.129a6 6 0 0 0 5.651-6q0-17.338 0-34.684z" fill="#eae8ea"/><path d="m620.349 283.333a781.317 781.317 0 0 1 -86.248 0 6 6 0 0 1 -5.653-6q0-17.365 0-34.731c0-11.041 8.826-22.01 19.607-24.4a133.129 133.129 0 0 1 58.3.039c10.8 2.384 19.648 13.344 19.648 24.4q0 17.343 0 34.684a6 6 0 0 1 -5.654 6.008z" fill="none" stroke="#363a5a" stroke-linecap="round" stroke-linejoin="round" stroke-width="6"/><path d="m472 393v316.855a34.2 34.2 0 0 0 40.473 33.537 18.1 18.1 0 0 0 3.7-1.062c20.426-8.826 36.779-20.589 60.832-20.589s40.407 11.763 60.833 20.589a18.066 18.066 0 0 0 3.694 1.062 34.2 34.2 0 0 0 40.468-33.537v-316.855z" fill="#73e1ff"/><path d="m653 393v302.855a34.2 34.2 0 0 1 -40.473 33.537 18.066 18.066 0 0 1 -3.694-1.062c-20.426-8.83-36.779-20.589-60.833-20.589s-40.406 11.759-60.832 20.589a18.1 18.1 0 0 1 -3.695 1.062 34.116 34.116 0 0 1 -4.869.566 34 34 0 0 0 33.869 13.434 18.1 18.1 0 0 0 3.7-1.062c20.426-8.826 36.779-20.589 60.832-20.589s40.407 11.763 60.833 20.589a18.066 18.066 0 0 0 3.694 1.062 34.2 34.2 0 0 0 40.468-33.537v-316.855z" fill="#48d8f9"/><g fill="none" stroke="#363a5a" stroke-linecap="round" stroke-linejoin="round" stroke-width="6"><path d="m472 393v316.855a34.2 34.2 0 0 0 40.473 33.537 18.1 18.1 0 0 0 3.7-1.062c20.426-8.826 36.779-20.589 60.832-20.589s40.407 11.763 60.833 20.589a18.066 18.066 0 0 0 3.694 1.062 34.2 34.2 0 0 0 40.468-33.537v-316.855z"/><path d="m549 258v25"/><path d="m568 258v25"/><path d="m587 258v25"/><path d="m606 258v25"/></g><circle cx="528" cy="481" fill="#abefff" r="12"/><circle cx="600" cy="533" fill="#abefff" r="8"/><circle cx="552" cy="595" fill="#abefff" r="6"/><circle cx="578" cy="459" fill="#abefff" r="6"/><path d="m652 420v146" fill="none" stroke="#363a5a" stroke-linecap="round" stroke-linejoin="round" stroke-width="6"/><path d="m179 447.816a109.194 109.194 0 0 0 -24.949 4.27c-.073 2.865-.069 5.747.084 8.658a108.981 108.981 0 0 0 139.557 98.833c.073-2.865.07-5.747-.084-8.658a109.008 109.008 0 0 0 -114.608-103.103z" fill="#76c526"/><path d="m179 447.816a109.194 109.194 0 0 0 -24.949 4.27c-.073 2.865-.069 5.747.084 8.658a108.981 108.981 0 0 0 139.557 98.833c.073-2.865.07-5.747-.084-8.658a109.008 109.008 0 0 0 -114.608-103.103z" fill="none" stroke="#363a5a" stroke-linecap="round" stroke-linejoin="round" stroke-width="6"/><path d="m373.368 425.722a95.453 95.453 0 0 0 -7.356-20.863c-2.479.36-4.962.788-7.446 1.349a95.246 95.246 0 0 0 -64.566 134.792c2.479-.359 4.962-.787 7.446-1.349a95.268 95.268 0 0 0 71.922-113.929z" fill="#76c526"/><path d="m373.368 425.721a94.551 94.551 0 0 0 -3.283-11.218 95.3 95.3 0 0 1 -74.185 97.148c-2.484.562-4.967.99-7.445 1.349a96.215 96.215 0 0 1 -4.073-9.642 95.585 95.585 0 0 0 9.618 37.642c2.479-.359 4.961-.787 7.446-1.349a95.269 95.269 0 0 0 71.922-113.93z" fill="#5fa412"/><path d="m373.368 425.722a95.453 95.453 0 0 0 -7.356-20.863c-2.479.36-4.962.788-7.446 1.349a95.246 95.246 0 0 0 -64.566 134.792c2.479-.359 4.962-.787 7.446-1.349a95.268 95.268 0 0 0 71.922-113.929z" fill="none" stroke="#363a5a" stroke-linecap="round" stroke-linejoin="round" stroke-width="6"/><path d="m337.733 457s-22.458 29-43.733 84" fill="none" stroke="#363a5a" stroke-linecap="round" stroke-linejoin="round" stroke-width="6"/><path d="m200.733 490s63.908 61.154 92.954 69.577" fill="none" stroke="#363a5a" stroke-linecap="round" stroke-linejoin="round" stroke-width="6"/><path d="m403.262 634.5a112.5 112.5 0 1 1 -224.953-3.362c1.645-58.247 45.923-106.1 105.174-101.019a109.523 109.523 0 0 0 14.389.321c59.55-2.749 105.39 44.286 105.39 104.06z" fill="#ff7d00"/><path d="m375.134 561.34a120.464 120.464 0 0 1 7.276 41.572 122.6 122.6 0 0 1 -169.426 113.039 112.628 112.628 0 0 0 190.278-81.451c0-28.687-10.562-54.436-28.128-73.16z" fill="#ff6c22"/><path d="m352 544c-40 11-66.5 51.118-73 95-4 27 13 92 61.561 96.4a112.5 112.5 0 0 0 62.7-100.9c.001-41.974-17.179-73.916-51.261-90.5z" fill="#ff6c22"/><path d="m403.262 634.5a112.5 112.5 0 1 1 -224.953-3.362c1.645-58.247 45.923-106.1 105.174-101.019a109.523 109.523 0 0 0 14.389.321c59.55-2.749 105.39 44.286 105.39 104.06z" fill="none" stroke="#363a5a" stroke-linecap="round" stroke-linejoin="round" stroke-width="6"/><g fill="#ff9636"><path d="m213 596a5 5 0 0 1 -4.442-7.288c19.008-36.961 56.315-41.507 57.894-41.683a5 5 0 0 1 1.116 9.938c-1.365.159-33.625 4.249-50.118 36.319a5 5 0 0 1 -4.45 2.714z"/><circle cx="216" cy="627" r="4"/><circle cx="246" cy="701" r="4"/><circle cx="218" cy="672" r="6"/><circle cx="262.5" cy="647.5" r="3.5"/></g><circle cx="403.969" cy="639.236" fill="#ff7d00" r="107.764"/><path d="m461.7 548.227a107.768 107.768 0 0 1 -136.987 164.018 107.765 107.765 0 1 0 136.987-164.018z" fill="#ff5b00"/><circle cx="403.969" cy="639.236" fill="#fff" r="96.236"/><path d="m500.145 636q-.013-.416-.032-.831c-.04-.978-.092-1.953-.162-2.923-.008-.1-.012-.2-.019-.3-.08-1.066-.182-2.125-.3-3.181-.027-.248-.056-.495-.085-.743q-.165-1.412-.367-2.811c-.018-.129-.035-.258-.054-.386q-.238-1.59-.531-3.162c-.036-.194-.075-.388-.112-.582q-.27-1.414-.581-2.816c-.028-.125-.053-.251-.082-.375q-.36-1.593-.774-3.164c-.03-.116-.063-.232-.094-.347q-.392-1.466-.826-2.912c-.031-.1-.061-.207-.092-.31q-.487-1.6-1.027-3.175l-.014-.04q-.534-1.552-1.121-3.08l-.083-.219q-1.209-3.132-2.626-6.157c-.019-.042-.038-.084-.058-.125q-1.435-3.055-3.077-5.992l-.029-.051q-1.656-2.96-3.511-5.788a107.839 107.839 0 0 1 -118.258 141.256 95.575 95.575 0 0 0 13.478 4.6l.024.007q1.131.292 2.272.559l.066.016q1.1.257 2.213.486l.149.033c.712.147 1.427.283 2.145.414l.236.046c.7.126 1.406.242 2.112.353l.287.047c.662.1 1.327.193 1.993.282.144.019.286.041.43.06.641.082 1.285.153 1.929.222.169.018.337.041.5.058.614.063 1.229.114 1.846.165.2.017.405.039.608.054.582.045 1.168.078 1.753.112.239.014.477.034.716.046.6.031 1.21.05 1.816.069.222.008.442.02.665.026q1.243.031 2.5.032a96.15 96.15 0 0 0 87.732-56.633q.963-2.132 1.826-4.317 1.293-3.278 2.348-6.67a95.352 95.352 0 0 0 2.824-11.582q.423-2.37.73-4.778a97.214 97.214 0 0 0 .773-12.257c.004-1.084-.02-2.162-.056-3.236z" fill="#eae8ea"/><circle cx="403.969" cy="639.236" fill="none" r="107.764" stroke="#363a5a" stroke-linecap="round" stroke-linejoin="round" stroke-width="6"/><g fill="#ffce43"><path d="m427.659 625.96a26.949 26.949 0 0 0 -3.193-4.519 13.025 13.025 0 0 1 -1.621-15.079l16.564-28.815a12.9 12.9 0 0 1 19.491-3.447 84.882 84.882 0 0 1 24.957 35.417 12.9 12.9 0 0 1 -9.835 17.183l-32.742 5.843a13.029 13.029 0 0 1 -13.621-6.583z"/><path d="m380.279 652.512a27.057 27.057 0 0 0 3.193 4.518 13.025 13.025 0 0 1 1.622 15.08l-16.565 28.815a12.9 12.9 0 0 1 -19.488 3.449 84.876 84.876 0 0 1 -24.956-35.418 12.9 12.9 0 0 1 9.835-17.183l32.742-5.843a13.028 13.028 0 0 1 13.617 6.582z"/><path d="m404.3 612.082a26.911 26.911 0 0 0 -5.509.51 13.025 13.025 0 0 1 -13.874-6.126l-16.693-28.741a12.9 12.9 0 0 1 6.743-18.607 84.88 84.88 0 0 1 43.148-3.934 12.9 12.9 0 0 1 9.976 17.1l-11.291 31.286a13.031 13.031 0 0 1 -12.5 8.512z"/><path d="m403.641 666.39a27.045 27.045 0 0 0 5.509-.51 13.025 13.025 0 0 1 13.874 6.126l16.694 28.741a12.9 12.9 0 0 1 -6.744 18.606 84.868 84.868 0 0 1 -43.148 3.935 12.9 12.9 0 0 1 -9.975-17.1l11.288-31.288a13.029 13.029 0 0 1 12.502-8.51z"/><path d="m380.635 625.344a27 27 0 0 0 -2.319 5.023 13.026 13.026 0 0 1 -12.254 8.936l-33.237.043a12.9 12.9 0 0 1 -12.722-15.16 84.879 84.879 0 0 1 18.218-39.311 12.9 12.9 0 0 1 19.8-.062l21.416 25.446a13.03 13.03 0 0 1 1.098 15.085z"/><path d="m427.3 653.128a27.037 27.037 0 0 0 2.32-5.023 13.026 13.026 0 0 1 12.254-8.937l33.237-.043a12.9 12.9 0 0 1 12.722 15.161 84.884 84.884 0 0 1 -18.215 39.314 12.9 12.9 0 0 1 -19.8.062l-21.418-25.45a13.029 13.029 0 0 1 -1.1-15.084z"/><path d="m424.466 621.441a27.007 27.007 0 0 1 3.193 4.519 13.029 13.029 0 0 0 13.618 6.581l32.742-5.843a12.9 12.9 0 0 0 9.835-17.182 84.879 84.879 0 0 0 -24.954-35.416 12.9 12.9 0 0 0 -19.488 3.449l-16.564 28.815a13.025 13.025 0 0 0 1.618 15.077z"/><path d="m363.205 678a31.488 31.488 0 0 1 14.749 6.53l7.14-12.421a13.026 13.026 0 0 0 -1.621-15.079 27 27 0 0 1 -3.194-4.518 13.029 13.029 0 0 0 -13.617-6.582l-20.862 3.724c1.539 22.06 6.357 26.768 17.405 28.346z"/><path d="m384.914 606.466a13.026 13.026 0 0 0 13.874 6.126 26.911 26.911 0 0 1 5.509-.51 13.031 13.031 0 0 0 12.5-8.512l11.288-31.285a12.9 12.9 0 0 0 -9.976-17.1 84.88 84.88 0 0 0 -43.148 3.934 12.9 12.9 0 0 0 -6.743 18.607z"/><path d="m423.024 672.006a13.025 13.025 0 0 0 -13.874-6.126 27.045 27.045 0 0 1 -5.509.51 13.029 13.029 0 0 0 -12.5 8.512l-5.875 16.282a65.368 65.368 0 0 0 4.939 4.816c5 4 24 6 24 9 0 2.121 3.5 12.238 5.549 17.985a85.057 85.057 0 0 0 13.22-3.632 12.9 12.9 0 0 0 6.744-18.606z"/><path d="m345.205 628c0 4.114.043 7.871.129 11.33l20.728-.027a13.027 13.027 0 0 0 12.254-8.936 26.974 26.974 0 0 1 2.319-5.023 13.03 13.03 0 0 0 -1.1-15.085l-21.416-25.446a12.9 12.9 0 0 0 -19.8.062 84.812 84.812 0 0 0 -10.807 16.708c9.343 1.742 17.693 8.35 17.693 26.417z"/><path d="m475.114 639.125-33.238.043a13.025 13.025 0 0 0 -12.253 8.937 27.037 27.037 0 0 1 -2.32 5.023 13.029 13.029 0 0 0 1.1 15.084l21.416 25.447a12.9 12.9 0 0 0 19.8-.062 84.884 84.884 0 0 0 18.218-39.311 12.9 12.9 0 0 0 -12.723-15.161z"/></g><path d="m324.085 668.956a84.876 84.876 0 0 0 24.956 35.418 12.9 12.9 0 0 0 19.488-3.449l9.425-16.395a31.488 31.488 0 0 0 -14.749-6.53c-11.048-1.578-15.866-6.286-17.408-28.346l-11.877 2.119a12.9 12.9 0 0 0 -9.835 17.183z" fill="#ffb345"/><path d="m390.205 696a65.368 65.368 0 0 1 -4.941-4.816l-5.413 15a12.9 12.9 0 0 0 9.975 17.1 84.8 84.8 0 0 0 29.928-.3c-2.054-5.746-24.549-22.984-29.549-26.984z" fill="#ffb345"/><path d="m332.825 639.346 12.509-.016c-.086-3.459-.129-7.216-.129-11.33 0-18.067-8.35-24.675-17.691-26.417a85 85 0 0 0 -7.411 22.6 12.9 12.9 0 0 0 12.722 15.163z" fill="#ffb345"/></svg>