<svg viewBox="0 0 600 600.399" xmlns="http://www.w3.org/2000/svg"><g fill="#76d1ff" opacity=".47"><path d="m449.658 200.181 103-27.6a22.638 22.638 0 0 0 16.007-27.726 22.638 22.638 0 0 0 -27.726-16.007l-162.293 43.484a22.638 22.638 0 0 1 -27.726-16.008 22.638 22.638 0 0 1 16.006-27.724l73.874-19.8a22.638 22.638 0 0 0 16.01-27.726 22.638 22.638 0 0 0 -27.726-16.007l-375.284 100.553a22.637 22.637 0 0 0 -16.008 27.725 22.638 22.638 0 0 0 27.728 16.012l58.433-15.657a22.639 22.639 0 0 1 27.726 16.008 22.637 22.637 0 0 1 -16.008 27.725l-100.02 26.8a22.639 22.639 0 0 0 -16.008 27.726 22.638 22.638 0 0 0 27.726 16.008l62.42-16.726a22.639 22.639 0 0 1 27.726 16.008 22.637 22.637 0 0 1 -16.008 27.725l-4.429 1.187a22.638 22.638 0 0 0 -16.004 27.739 22.638 22.638 0 0 0 27.726 16.009l4.2-1.125a22.637 22.637 0 0 1 27.725 16.008 22.637 22.637 0 0 1 -16.007 27.726l-62.19 16.663a22.638 22.638 0 0 0 -16.007 27.726 22.638 22.638 0 0 0 27.726 16.007l113.637-30.449a22.638 22.638 0 0 1 27.726 16.008 22.638 22.638 0 0 1 -16.01 27.727l-18.212 4.879a22.639 22.639 0 0 0 -16.007 27.726 22.637 22.637 0 0 0 27.726 16.007l289.35-77.531a22.638 22.638 0 0 0 16.007-27.726 22.638 22.638 0 0 0 -27.726-16.008l-8.512 2.281a22.638 22.638 0 0 1 -27.726-16.003 22.638 22.638 0 0 1 16.011-27.725l55.971-15a22.638 22.638 0 0 0 16.008-27.726 22.638 22.638 0 0 0 -27.726-16.008l-79.364 21.263a22.638 22.638 0 0 1 -27.726-16.008 22.639 22.639 0 0 1 16.009-27.721l56.195-15.057a22.637 22.637 0 0 0 16.007-27.726 22.637 22.637 0 0 0 -27.726-16.017l-6.781 1.817a22.638 22.638 0 0 1 -27.726-16.007 22.638 22.638 0 0 1 16.006-27.729z"/><rect height="45.279999" rx="22.638" transform="matrix(.96592583 -.25881905 .25881905 .96592583 -44.600999 149.949999)" width="51.443001" x="521.46802" y="221.72301"/></g><g fill="#4e4e4e" opacity=".33"><rect height="45.478001" rx="14" stroke="#000" stroke-linecap="round" stroke-linejoin="round" width="260" x="177.95" y="261.845"/><rect height="45.478001" rx="14" width="260" x="177.95" y="261.845"/><path d="m191.95 261.845h232a14 14 0 0 1 14 14v20.438a8.549 8.549 0 0 1 -8.549 8.549h-242.901a8.549 8.549 0 0 1 -8.549-8.549v-20.438a14 14 0 0 1 14-14z" opacity=".17"/><rect height="45.478001" rx="14" stroke="#46505c" stroke-linecap="round" stroke-linejoin="round" stroke-width="4" width="260" x="177.95" y="261.845"/><path d="m290.48001 172.44h34.941002v224h-34.941002z" transform="matrix(0 1 -1 0 592.39 -23.511)"/><path d="m290.48001 172.44h34.941002v224h-34.941002z" stroke="#46505c" stroke-linecap="round" stroke-linejoin="round" transform="matrix(0 1 -1 0 592.39 -23.511)"/><rect height="172" rx="14" width="260" x="177.951" y="307.323"/><rect height="252" rx="10" stroke="#e6f3ff" stroke-miterlimit="10" stroke-width="2" transform="matrix(0 1 -1 0 701.274 85.373)" width="164" x="225.95" y="267.323"/><path d="m291.9 471.5h32.1a4 4 0 0 1 4 4v3.82h-40.1v-3.82a4 4 0 0 1 4-4z"/><rect height="172" rx="14" stroke="#46505c" stroke-linecap="round" stroke-linejoin="round" stroke-width="4" width="260" x="177.951" y="307.323"/><rect height="92" rx="3" width="230" x="192.95" y="320.74301"/><g stroke="#626c84" stroke-linecap="round" stroke-linejoin="round"><rect height="14" rx="1" width="14" x="224.035" y="390.24301"/><rect height="14" rx="1" width="14" x="202.396" y="390.24301"/><rect height="14" rx="1" width="100.554" x="245.673" y="390.24301"/><rect height="14" rx="1" width="14" x="353.866" y="390.24301"/><rect height="6.125" rx="1" width="10" x="389.505" y="398.11801"/><rect height="6.125" rx="1" width="10" x="389.505" y="390.24301"/><rect height="6.125" rx="1" width="10" x="403.505" y="398.11801"/><rect height="6.125" rx="1" width="10" x="375.505" y="398.11801"/><rect height="14" rx="1" width="33.639" x="202.396" y="370.323"/><rect height="14" rx="1" width="14" x="243.854" y="370.323"/><rect height="14" rx="1" width="14" x="265.49301" y="370.323"/><rect height="14" rx="1" width="14" x="287.13101" y="370.323"/><rect height="14" rx="1" width="14" x="308.76999" y="370.323"/><rect height="14" rx="1" width="14" x="330.40799" y="370.323"/><rect height="14" rx="1" width="14" x="352.047" y="370.323"/><rect height="14" rx="1" width="38" x="375.505" y="370.323"/><rect height="14" rx="1" width="14" x="236.035" y="349.84299"/><rect height="14" rx="1" width="26" x="202.396" y="349.84299"/><rect height="14" rx="1" width="14" x="257.673" y="349.84299"/><rect height="14" rx="1" width="14" x="279.31201" y="349.84299"/><rect height="14" rx="1" width="14" x="300.95001" y="349.84299"/><rect height="14" rx="1" width="14" x="322.58899" y="349.84299"/><rect height="14" rx="1" width="14" x="344.228" y="349.84299"/><rect height="14" rx="1" width="14" x="365.866" y="349.84299"/><rect height="14" rx="1" width="26" x="387.505" y="349.84299"/><rect height="14" rx="1" width="14" x="224.297" y="330.24301"/><rect height="14" rx="1" width="14" x="202.396" y="330.24301"/><rect height="14" rx="1" width="14" x="246.198" y="330.24301"/><rect height="14" rx="1" width="14" x="268.099" y="330.24301"/><rect height="14" rx="1" width="14" x="290" y="330.24301"/><rect height="14" rx="1" width="14" x="311.901" y="330.24301"/><rect height="14" rx="1" width="14" x="333.802" y="330.24301"/><rect height="14" rx="1" width="14" x="355.703" y="330.24301"/><rect height="14" rx="1" width="14" x="377.604" y="330.24301"/><rect height="14" rx="1" width="14" x="399.505" y="330.24301"/></g><rect height="14" rx="1" width="14" x="224.035" y="390.24301"/><rect height="14" rx="1" width="14" x="202.396" y="390.24301"/><rect height="14" rx="1" width="100.554" x="245.673" y="390.24301"/><rect height="14" rx="1" width="14" x="353.866" y="390.24301"/><rect height="6.125" rx="1" width="10" x="389.505" y="398.11801"/><rect height="6.125" rx="1" width="10" x="389.505" y="390.24301"/><rect height="6.125" rx="1" width="10" x="403.505" y="398.11801"/><rect height="6.125" rx="1" width="10" x="375.505" y="398.11801"/><rect height="14" rx="1" width="33.639" x="202.396" y="370.323"/><rect height="14" rx="1" width="14" x="243.854" y="370.323"/><rect height="14" rx="1" width="14" x="265.49301" y="370.323"/><rect height="14" rx="1" width="14" x="287.13101" y="370.323"/><rect height="14" rx="1" width="14" x="308.76999" y="370.323"/><rect height="14" rx="1" width="14" x="330.40799" y="370.323"/><rect height="14" rx="1" width="14" x="352.047" y="370.323"/><rect height="14" rx="1" width="38" x="375.505" y="370.323"/><rect height="14" rx="1" width="14" x="236.035" y="349.84299"/><rect height="14" rx="1" width="26" x="202.396" y="349.84299"/><rect height="14" rx="1" width="14" x="257.673" y="349.84299"/><rect height="14" rx="1" width="14" x="279.31201" y="349.84299"/><rect height="14" rx="1" width="14" x="300.95001" y="349.84299"/><rect height="14" rx="1" width="14" x="322.58899" y="349.84299"/><rect height="14" rx="1" width="14" x="344.228" y="349.84299"/><rect height="14" rx="1" width="14" x="365.866" y="349.84299"/><rect height="14" rx="1" width="26" x="387.505" y="349.84299"/><rect height="14" rx="1" width="14" x="224.297" y="330.24301"/><rect height="14" rx="1" width="14" x="202.396" y="330.24301"/><rect height="14" rx="1" width="14" x="246.198" y="330.24301"/><rect height="14" rx="1" width="14" x="268.099" y="330.24301"/><rect height="14" rx="1" width="14" x="290" y="330.24301"/><rect height="14" rx="1" width="14" x="311.901" y="330.24301"/><rect height="14" rx="1" width="14" x="333.802" y="330.24301"/><rect height="14" rx="1" width="14" x="355.703" y="330.24301"/><rect height="14" rx="1" width="14" x="377.604" y="330.24301"/><rect height="14" rx="1" width="14" x="399.505" y="330.24301"/><path d="m222.95 298.339h170v13.446a4 4 0 0 1 -4 4h-162a4 4 0 0 1 -4-4z"/><path d="m388.95 311.784h-162a4 4 0 0 1 -4-4v4a4 4 0 0 0 4 4h162a4 4 0 0 0 4-4v-4a4 4 0 0 1 -4 4z" opacity=".25"/><path d="m222.95 298.339h170v13.446a4 4 0 0 1 -4 4h-162a4 4 0 0 1 -4-4z" stroke="#46505c" stroke-linecap="round" stroke-linejoin="round" stroke-width="2"/><rect height="51" rx="2" width="74" x="270.95099" y="417.74301"/><rect height="51" rx="2" stroke="#626c84" stroke-linecap="round" stroke-linejoin="round" width="74" x="270.95099" y="417.74301"/></g><g style="opacity:.33;fill:#4e4e4e;stroke:#46505c;stroke-width:4;stroke-linecap:round;stroke-linejoin:round"><path d="m90.15 401.363h13.466a.692.692 0 0 1 .692.692v9.616a.692.692 0 0 1 -.692.692h-13.466a5 5 0 0 1 -5-5v-1a5 5 0 0 1 5-5z" transform="matrix(.573 -.819 .819 .573 -292.917 251.165)"/><path d="m90.15 401.363h13.466a.692.692 0 0 1 .692.692v9.616a.692.692 0 0 1 -.692.692h-13.466a5 5 0 0 1 -5-5v-1a5 5 0 0 1 5-5z" transform="matrix(.573 -.819 .819 .573 -292.917 251.165)"/><circle cx="117.084" cy="374.922" r="32.576"/><circle cx="117.084" cy="374.922" r="32.576"/><circle cx="117.084" cy="374.922" r="25.355"/><circle cx="117.084" cy="374.922" r="25.355"/><path d="m100.509 369.659c.339-.764.706-1.513 1.08-2.246 1.7-3.332 3.733-6.786 6.978-8.827 2.755-1.734 6.608-2.413 9.594-.879 2.59 1.33 4.151 4.065 6.514 5.767a42.738 42.738 0 0 0 4.954 2.605 7.44 7.44 0 0 1 3.813 3.921c.8 2.444-.519 5.052-.532 7.624a7.58 7.58 0 0 0 1.137 4.017 3.909 3.909 0 0 1 .875 1.979 2.6 2.6 0 0 1 -1.715 2.06c-2.626 1.241-5.693.793-8.581.481s-6.086-.378-8.369 1.418a24.329 24.329 0 0 0 -2.589 2.792 4.072 4.072 0 0 1 -6.25.637 26.771 26.771 0 0 1 -5.326-6.041 16.421 16.421 0 0 1 -3.173-6.557c-.519-2.975.346-5.952 1.59-8.751z" opacity=".33"/><circle cx="122.212" cy="392.543" opacity=".33" r="1.574"/><circle cx="118.115" cy="393.12399" opacity=".33" r="1.09"/><circle cx="125.931" cy="391.07901" opacity=".33" r=".988"/><circle cx="114.667" cy="393.53201" opacity=".33" r=".708"/><circle cx="129.052" cy="390.035" opacity=".33" r=".432"/><circle cx="97.408997" cy="368.931" opacity=".33" r="1.014"/><circle cx="125.014" cy="357.133" opacity=".33" r=".954"/><circle cx="131.215" cy="361.83301" opacity=".33" r=".864"/><circle cx="131.924" cy="364.28101" opacity=".33" r=".378"/></g><path d="m80.375912 399.28061 7.721089-11.03136a.692.692 0 0 1 .963735-.17012l7.878025 5.51399a.692.692 0 0 1 .170124.96374l-7.721089 11.03136a5 5 0 0 1 -6.963407 1.22922l-.819262-.57342a5 5 0 0 1 -1.229215-6.96341z" fill="#fff" stroke="#e6f3ff" stroke-miterlimit="10" stroke-width="2"/><path d="m89.06 388.081a.692.692 0 0 0 -.963.171l-3.477 4.966a36.623 36.623 0 0 0 4.269 3.494 37.022 37.022 0 0 0 4.742 2.815l3.477-4.968a.69.69 0 0 0 -.17-.963z" style="opacity:.18;fill:#4e4e4e;stroke:#46505c;stroke-width:4;stroke-linecap:round;stroke-linejoin:round"/><path d="m80.375912 399.28061 7.721089-11.03136a.692.692 0 0 1 .963735-.17012l7.878025 5.51399a.692.692 0 0 1 .170124.96374l-7.721089 11.03136a5 5 0 0 1 -6.963407 1.22922l-.819262-.57342a5 5 0 0 1 -1.229215-6.96341z" fill="none" stroke="#46505c" stroke-linecap="round" stroke-linejoin="round" stroke-width="4"/><circle cx="109.862" cy="366.746" fill="#fff" r="32.576" stroke="#e6f3ff" stroke-miterlimit="10" stroke-width="2"/><circle cx="109.862" cy="366.746" fill="none" r="32.576" stroke="#46505c" stroke-linecap="round" stroke-linejoin="round" stroke-width="4"/><circle cx="109.862" cy="366.746" fill="#845b5b" r="25.355"/><circle cx="109.862" cy="366.746" fill="none" r="25.355" stroke="#46505c" stroke-linecap="round" stroke-linejoin="round" stroke-width="2"/><g fill="#845b5b"><path d="m93.287 361.482c.339-.763.706-1.513 1.08-2.246 1.7-3.331 3.734-6.785 6.978-8.827 2.756-1.734 6.608-2.412 9.594-.879 2.59 1.33 4.151 4.066 6.514 5.767a42.752 42.752 0 0 0 4.955 2.6 7.447 7.447 0 0 1 3.813 3.918c.8 2.445-.519 5.053-.533 7.624a7.58 7.58 0 0 0 1.137 4.017 3.91 3.91 0 0 1 .876 1.979 2.6 2.6 0 0 1 -1.715 2.061c-2.627 1.24-5.694.793-8.582.48s-6.085-.377-8.369 1.418a24.412 24.412 0 0 0 -2.589 2.792 4.073 4.073 0 0 1 -6.25.638 26.8 26.8 0 0 1 -5.326-6.042 16.409 16.409 0 0 1 -3.17-6.552c-.527-2.972.344-5.949 1.587-8.748z" opacity=".33"/><circle cx="114.99" cy="384.366" opacity=".33" r="1.574"/><circle cx="110.893" cy="384.94699" opacity=".33" r="1.09"/><circle cx="118.709" cy="382.90302" opacity=".33" r=".988"/><circle cx="107.445" cy="385.35599" opacity=".33" r=".708"/><circle cx="121.83" cy="381.85901" opacity=".33" r=".432"/><circle cx="90.186996" cy="360.755" opacity=".33" r="1.014"/><circle cx="117.792" cy="348.95599" opacity=".33" r=".954"/><circle cx="123.993" cy="353.65601" opacity=".33" r=".864"/><circle cx="124.702" cy="356.104" opacity=".33" r=".378"/><circle cx="112.084" cy="368.84" r="2"/><circle cx="105.57" cy="361.159" r="3.5"/></g><rect fill="none" height="164" rx="14" stroke="#000" stroke-linecap="round" stroke-linejoin="round" width="260" x="170" y="133.90401"/><rect fill="#626c84" height="164" rx="14" width="260" x="170" y="133.90401"/><rect fill="#626c84" height="164" rx="14" width="260" x="170" y="133.90401"/><rect fill="#626c84" height="155.01601" opacity=".17" rx="14" width="260" x="170" y="133.90401"/><path d="m184 137.9h232a14 14 0 0 1 14 14v132-136a14 14 0 0 0 -14-14h-232a14 14 0 0 0 -14 14v4a14 14 0 0 1 14-14z" fill="#fff" opacity=".1"/><g fill="#fff" opacity=".1"><path d="m384.449 133.904h-16.069l-119.153 164h16.069z"/><path d="m398.664 133.904h-4.945l-119.153 164h4.944z"/></g><rect fill="none" height="164" rx="14" stroke="#46505c" stroke-linecap="round" stroke-linejoin="round" stroke-width="4" width="260" x="170" y="133.90401"/><path d="m152.384-412h126v224h-126z" fill="#fd848e" transform="rotate(90)"/><g fill="#fff" opacity=".06"><path d="m372.022 152.384h-16.069l-91.544 126h16.069z"/><path d="m386.237 152.384h-4.944l-91.545 126h4.945z"/></g><path d="m152.384-412h126v224h-126z" fill="none" stroke="#46505c" stroke-linecap="round" stroke-linejoin="round" transform="rotate(90)"/><rect fill="#e6f3ff" height="172" rx="14" width="260" x="170" y="297.90399"/><rect fill="#fff" height="252" rx="10" stroke="#e6f3ff" stroke-miterlimit="10" stroke-width="2" transform="rotate(90)" width="164" x="301.90399" y="-426"/><path d="m283.949 462.084h32.1a4 4 0 0 1 4 4v3.82h-40.1v-3.82a4 4 0 0 1 4-4z" fill="#e6f3ff"/><rect fill="none" height="172" rx="14" stroke="#46505c" stroke-linecap="round" stroke-linejoin="round" stroke-width="4" width="260" x="170" y="297.90399"/><rect fill="#e6f3ff" height="92" rx="3" width="230" x="185" y="311.323"/><g fill="none" stroke="#626c84" stroke-linecap="round" stroke-linejoin="round"><rect height="14" rx="1" width="14" x="216.084" y="380.823"/><rect height="14" rx="1" width="14" x="194.446" y="380.823"/><rect height="14" rx="1" width="100.554" x="237.72301" y="380.823"/><rect height="14" rx="1" width="14" x="345.91599" y="380.823"/><rect height="6.125" rx="1" width="10" x="381.55399" y="388.698"/><rect height="6.125" rx="1" width="10" x="381.55399" y="380.823"/><rect height="6.125" rx="1" width="10" x="395.55399" y="388.698"/><rect height="6.125" rx="1" width="10" x="367.55399" y="388.698"/><rect height="14" rx="1" width="33.639" x="194.446" y="360.90399"/><rect height="14" rx="1" width="14" x="235.90401" y="360.90399"/><rect height="14" rx="1" width="14" x="257.54199" y="360.90399"/><rect height="14" rx="1" width="14" x="279.181" y="360.90399"/><rect height="14" rx="1" width="14" x="300.819" y="360.90399"/><rect height="14" rx="1" width="14" x="322.45801" y="360.90399"/><rect height="14" rx="1" width="14" x="344.09601" y="360.90399"/><rect height="14" rx="1" width="38" x="367.55399" y="360.90399"/><rect height="14" rx="1" width="14" x="228.084" y="340.42401"/><rect height="14" rx="1" width="26" x="194.446" y="340.42401"/><rect height="14" rx="1" width="14" x="249.72301" y="340.42401"/><rect height="14" rx="1" width="14" x="271.36099" y="340.42401"/><rect height="14" rx="1" width="14" x="293" y="340.42401"/><rect height="14" rx="1" width="14" x="314.63901" y="340.42401"/><rect height="14" rx="1" width="14" x="336.27701" y="340.42401"/><rect height="14" rx="1" width="14" x="357.91599" y="340.42401"/><rect height="14" rx="1" width="26" x="379.55399" y="340.42401"/><rect height="14" rx="1" width="14" x="216.347" y="320.823"/><rect height="14" rx="1" width="14" x="194.446" y="320.823"/><rect height="14" rx="1" width="14" x="238.248" y="320.823"/><rect height="14" rx="1" width="14" x="260.14899" y="320.823"/><rect height="14" rx="1" width="14" x="282.04999" y="320.823"/><rect height="14" rx="1" width="14" x="303.95001" y="320.823"/><rect height="14" rx="1" width="14" x="325.85101" y="320.823"/><rect height="14" rx="1" width="14" x="347.75201" y="320.823"/><rect height="14" rx="1" width="14" x="369.65302" y="320.823"/><rect height="14" rx="1" width="14" x="391.55399" y="320.823"/></g><g fill="#626c84"><rect height="14" rx="1" width="14" x="216.084" y="380.823"/><rect height="14" rx="1" width="14" x="194.446" y="380.823"/><rect height="14" rx="1" width="100.554" x="237.72301" y="380.823"/><rect height="14" rx="1" width="14" x="345.91599" y="380.823"/><rect height="6.125" rx="1" width="10" x="381.55399" y="388.698"/><rect height="6.125" rx="1" width="10" x="381.55399" y="380.823"/><rect height="6.125" rx="1" width="10" x="395.55399" y="388.698"/><rect height="6.125" rx="1" width="10" x="367.55399" y="388.698"/><rect height="14" rx="1" width="33.639" x="194.446" y="360.90399"/><rect height="14" rx="1" width="14" x="235.90401" y="360.90399"/><rect height="14" rx="1" width="14" x="257.54199" y="360.90399"/><rect height="14" rx="1" width="14" x="279.181" y="360.90399"/><rect height="14" rx="1" width="14" x="300.819" y="360.90399"/><rect height="14" rx="1" width="14" x="322.45801" y="360.90399"/><rect height="14" rx="1" width="14" x="344.09601" y="360.90399"/><rect height="14" rx="1" width="38" x="367.55399" y="360.90399"/><rect height="14" rx="1" width="14" x="228.084" y="340.42401"/><rect height="14" rx="1" width="26" x="194.446" y="340.42401"/><rect height="14" rx="1" width="14" x="249.72301" y="340.42401"/><rect height="14" rx="1" width="14" x="271.36099" y="340.42401"/><rect height="14" rx="1" width="14" x="293" y="340.42401"/><rect height="14" rx="1" width="14" x="314.63901" y="340.42401"/><rect height="14" rx="1" width="14" x="336.27701" y="340.42401"/><rect height="14" rx="1" width="14" x="357.91599" y="340.42401"/><rect height="14" rx="1" width="26" x="379.55399" y="340.42401"/><rect height="14" rx="1" width="14" x="216.347" y="320.823"/><rect height="14" rx="1" width="14" x="194.446" y="320.823"/><rect height="14" rx="1" width="14" x="238.248" y="320.823"/><rect height="14" rx="1" width="14" x="260.14899" y="320.823"/><rect height="14" rx="1" width="14" x="282.04999" y="320.823"/><rect height="14" rx="1" width="14" x="303.95001" y="320.823"/><rect height="14" rx="1" width="14" x="325.85101" y="320.823"/><rect height="14" rx="1" width="14" x="347.75201" y="320.823"/><rect height="14" rx="1" width="14" x="369.65302" y="320.823"/><rect height="14" rx="1" width="14" x="391.55399" y="320.823"/><path d="m215 288.92h170v13.446a4 4 0 0 1 -4 4h-162a4 4 0 0 1 -4-4z"/></g><path d="m215 288.92001h170v2h-170z" fill="#fff" opacity=".12"/><path d="m381 302.365h-162a4 4 0 0 1 -4-4v4a4 4 0 0 0 4 4h162a4 4 0 0 0 4-4v-4a4 4 0 0 1 -4 4z" fill="#626c84" opacity=".25"/><path d="m215 288.92h170v13.446a4 4 0 0 1 -4 4h-162a4 4 0 0 1 -4-4z" fill="none" stroke="#46505c" stroke-linecap="round" stroke-linejoin="round" stroke-width="2"/><rect fill="#e6f3ff" height="51" rx="2" width="74" x="263" y="408.323"/><rect fill="none" height="51" rx="2" stroke="#626c84" stroke-linecap="round" stroke-linejoin="round" width="74" x="263" y="408.323"/><circle cx="300" cy="144.052" fill="#fff" opacity=".52" r="3"/><circle cx="300" cy="144.052" fill="none" r="3" stroke="#46505c" stroke-linecap="round" stroke-linejoin="round"/><rect fill="#fff" height="2" rx="1" width="14" x="349.35999" y="165.129"/><rect fill="#fff" height="2" rx="1" width="14" x="375.33401" y="165.129"/><rect fill="#fff" height="2" rx="1" width="14" x="323.38699" y="165.129"/><circle cx="207.233" cy="166.64999" fill="#fff" r="4.837"/><g fill="#fff" opacity=".72"><path d="m249.32401 219.61099h101.234v3.645h-101.234z"/><path d="m262.12701 207.513h75.628998v3.698h-75.628998z"/></g><rect fill="none" height="10.962" rx="5.481" stroke="#fff" stroke-miterlimit="10" width="39.772999" x="283.11301" y="247.94501"/></svg>