<svg viewBox="0 0 1000 1000" xmlns="http://www.w3.org/2000/svg"><ellipse cx="495.92" cy="869.82" fill="#e4e8ec" rx="258.35" ry="45.2"/><path d="m437.45 272.51-75.45 238.49-91.82 62.79 14.38 157.21 158.67-85a100.24 100.24 0 0 0 52.92-88.12l.69-276.5a30.35 30.35 0 0 0 -30.35-30.38 30.35 30.35 0 0 0 -29.04 21.51z" fill="#ffc195"/><path d="m466.49 251a30.33 30.33 0 0 0 -19.38 7 30.35 30.35 0 0 1 29.81 30.42l-.69 276.5a100.24 100.24 0 0 1 -52.92 88.12l-139.07 74.47.32 3.49 158.67-85a100.24 100.24 0 0 0 52.92-88.12l.69-276.5a30.35 30.35 0 0 0 -30.35-30.38z" fill="#ffa688"/><path d="m437.45 272.51-75.45 238.49-91.82 62.79 14.38 157.21 158.67-85a100.24 100.24 0 0 0 52.92-88.12l.69-276.5a30.35 30.35 0 0 0 -30.35-30.38 30.35 30.35 0 0 0 -29.04 21.51z" fill="none" stroke="#171819" stroke-linecap="round" stroke-linejoin="round" stroke-width="6"/><path d="m341.34 545.79 23.06 69.56a138.1 138.1 0 0 1 7 46.16l-.92 48.35a24.69 24.69 0 0 1 -14.85 22.14l-153 66.42-53.45-215.3 150.38-57.19a32 32 0 0 1 41.78 19.86z" fill="#ffdc00"/><path d="m364.4 615.35-23.06-69.56a32 32 0 0 0 -24.92-21.46l19.29 58.18a138.25 138.25 0 0 1 7 46.15l-.94 48.34a24.65 24.65 0 0 1 -14.83 22.15l-134.44 58.39 10.16 40.89 153-66.42a24.69 24.69 0 0 0 14.84-22.15l.92-48.35a138.1 138.1 0 0 0 -7.02-46.16z" fill="#ff9770"/><path d="m341.34 545.79 23.06 69.56a138.1 138.1 0 0 1 7 46.16l-.92 48.35a24.69 24.69 0 0 1 -14.85 22.14l-153 66.42-53.45-215.3 150.38-57.19a32 32 0 0 1 41.78 19.86z" fill="none" stroke="#171819" stroke-linecap="round" stroke-linejoin="round" stroke-width="6"/><path d="m472.23 391.85a24 24 0 0 0 -18.57 8.82 24 24 0 0 1 23.08 24v108.33h19.47v-117.17a24 24 0 0 0 -23.98-23.98z" fill="#ffa688"/><path d="m420.81 514.94 28.25-105.29a24 24 0 0 1 23.17-17.8 24 24 0 0 1 24 24v117.15" fill="none" stroke="#171819" stroke-linecap="round" stroke-linejoin="round" stroke-width="6"/><path d="m556.24 272.51 75.45 238.49 91.82 62.79-14.38 157.21-158.67-85a100.24 100.24 0 0 1 -52.92-88.12l-.7-276.5a30.37 30.37 0 0 1 30.36-30.38 30.35 30.35 0 0 1 29.04 21.51z" fill="#ffc195"/><path d="m527.2 251a30.33 30.33 0 0 1 19.38 7 30.36 30.36 0 0 0 -29.82 30.42l.7 276.5a100.24 100.24 0 0 0 52.92 88.12l139.07 74.46-.32 3.49-158.67-85a100.24 100.24 0 0 1 -52.92-88.12l-.7-276.5a30.37 30.37 0 0 1 30.36-30.37z" fill="#ffa688"/><path d="m556.24 272.51 75.45 238.49 91.82 62.79-14.38 157.21-158.67-85a100.24 100.24 0 0 1 -52.92-88.12l-.7-276.5a30.37 30.37 0 0 1 30.36-30.38 30.35 30.35 0 0 1 29.04 21.51z" fill="none" stroke="#171819" stroke-linecap="round" stroke-linejoin="round" stroke-width="6"/><path d="m652.35 545.79-23.06 69.56a138.36 138.36 0 0 0 -7 46.16l.93 48.35a24.69 24.69 0 0 0 14.84 22.14l153 66.42 53.45-215.3-150.41-57.18a32 32 0 0 0 -41.75 19.85z" fill="#ffdc00"/><path d="m629.29 615.35 23.06-69.56a32 32 0 0 1 24.92-21.46l-19.27 58.18a138.25 138.25 0 0 0 -7 46.15l.93 48.35a24.65 24.65 0 0 0 14.83 22.15l134.43 58.38-10.19 40.89-152.94-66.43a24.69 24.69 0 0 1 -14.84-22.15l-.93-48.35a138.36 138.36 0 0 1 7-46.15z" fill="#ff9770"/><path d="m652.35 545.79-23.06 69.56a138.36 138.36 0 0 0 -7 46.16l.93 48.35a24.69 24.69 0 0 0 14.84 22.14l153 66.42 53.45-215.3-150.41-57.18a32 32 0 0 0 -41.75 19.85z" fill="none" stroke="#171819" stroke-linecap="round" stroke-linejoin="round" stroke-width="6"/><path d="m521.46 391.85a24 24 0 0 1 18.54 8.82 24 24 0 0 0 -23.08 24v108.33h-19.44v-117.17a24 24 0 0 1 23.98-23.98z" fill="#ffa688"/><path d="m572.88 514.94-28.25-105.29a24 24 0 0 0 -23.17-17.8 24 24 0 0 0 -24 24v117.15" fill="none" stroke="#171819" stroke-linecap="round" stroke-linejoin="round" stroke-width="6"/></svg>