<svg enable-background="new 0 0 1000 1000" viewBox="0 0 1000 1000" xmlns="http://www.w3.org/2000/svg"><path d="m0 0h1000v1000h-1000z" fill="#fff" opacity=".7"/><ellipse cx="501.8" cy="487.5" fill="#8fe3f9" rx="228" ry="205.8"/><ellipse cx="501.8" cy="487.5" fill="#8fe3f9" rx="228" ry="205.8"/><path d="m507.8 689.3c52.1 0 100.1-15.3 138.5-41l-10.5-24.7c-22-51.9-74.2-85.8-132.1-85.8s-110.1 33.9-132.1 85.8l-8.6 20.4c39.3 28.3 89.8 45.3 144.8 45.3z" fill="#b2ebf9"/><path d="m501.7 470.3-43.6 64 32.9 43.8c5.4 7.2 16.3 7.2 21.7 0l32.6-43.8z" fill="#a4e0ea"/><path d="m501.8 669.3c-121.5 0-220.7-85.7-227.6-193.8-.3 4-.4 8-.4 12 0 113.6 102.1 205.8 228 205.8s228-92.1 228-205.8c0-4-.1-8-.4-12-6.9 108.1-106.2 193.8-227.6 193.8z" fill="#7ad1e5"/><path d="m638.6 628.1c-38.1 25.8-85.5 41.2-136.8 41.2-50 0-96.2-14.5-133.7-39.1l-5 12.3c39.4 29.2 89.8 46.8 144.8 46.8 49.7 0 95.7-14.4 133.2-38.8 1.8-1.2 3.5-2.5 5.3-3.8z" fill="#a4e0ea"/><path d="m268.2 488.2c6.4 13.1 15 25.3 25.8 36.2 52.3 52.3 137.2 52.3 189.5 0 43.8-43.8 50.9-110.3 21.5-161.5" fill="#7ad1e5"/><path d="m729 503.8c-24 36.1-65 59.8-111.6 59.8-74 0-134-60-134-134 0-33 11.9-63.2 31.7-86.6" fill="#7ad1e5"/><ellipse cx="501.8" cy="487.5" rx="228" ry="205.8" style="fill:none;stroke:#413d51;stroke-width:16;stroke-linecap:round;stroke-linejoin:round;stroke-miterlimit:10"/><path d="m501.7 442.3-43.6 64 43.8 58.3 43.5-58.3z" fill="#413d51"/><path d="m501.7 442.3-43.6 64 43.8 58.3 43.5-58.3z" style="fill:none;stroke:#413d51;stroke-width:16;stroke-linecap:round;stroke-linejoin:round;stroke-miterlimit:10"/><path d="m600.7 303.9c-30-14-64.1-21.9-100-21.9s-70 7.9-100 21.9v140.1h200z" fill="#413d51"/><path d="m613.5 317.9 108.7-3.3c-15.7 39.3-17.8 98.4-4.1 163-17.4 36.8-54.4 62.9-97.9 64.2-61.8 1.9-113.5-46.7-115.3-108.6-1.9-61.8 46.7-113.4 108.6-115.3z" fill="#413d51"/><path d="m613.5 317.9 108.7-3.3c-15.7 39.3-17.8 98.4-4.1 163-17.4 36.8-54.4 62.9-97.9 64.2-61.8 1.9-113.5-46.7-115.3-108.6-1.9-61.8 46.7-113.4 108.6-115.3z" style="fill:none;stroke:#413d51;stroke-width:16;stroke-linecap:round;stroke-linejoin:round;stroke-miterlimit:10"/><circle cx="617.4" cy="429.7" fill="#f7e8ad" r="112"/><circle cx="617.4" cy="429.7" fill="#f7e8ad" r="112"/><path d="m696.6 350.5c-21.5-21.5-49.7-32.4-77.9-32.8 21.2 4.1 41.5 14.3 57.9 30.8 43.7 43.7 43.7 114.6 0 158.4-22.2 22.2-51.4 33.1-80.4 32.8 35.3 6.8 73.1-3.5 100.4-30.8 43.7-43.8 43.7-114.7 0-158.4z" fill="#f7d6a1"/><ellipse cx="590.7" cy="429.7" fill="#fff" opacity=".7" rx="84" ry="84.6" transform="matrix(.7071 -.7071 .7071 .7071 -130.8246 543.5441)"/><path d="m711.4 376.6c-3.1-4-9.1-15-12.8-18.7-44-43.4-114.9-43-158.3 1.1-8.6 8.7-15.5 18.5-20.6 29 61.7-21.7 129.3-16.5 191.7-11.4z" fill="#efca92"/><circle cx="617.4" cy="429.7" r="112" style="fill:none;stroke:#413d51;stroke-width:16;stroke-linecap:round;stroke-linejoin:round;stroke-miterlimit:10"/><circle cx="617.4" cy="429.7" r="112" style="fill:none;stroke:#413d51;stroke-width:16;stroke-linecap:round;stroke-linejoin:round;stroke-miterlimit:10"/><path d="m706.7 362.1c-3.1-4-6.4-7.9-10.1-11.6-43.7-43.7-114.6-43.7-158.4 0-8.7 8.7-15.6 18.4-20.8 28.8 62-21.2 126.9-22.8 189.3-17.2z" fill="#413d51"/><circle cx="562.9" cy="438.1" fill="#413d51" r="42"/><circle cx="539.1" cy="438.4" fill="#fff" r="14"/><path d="m388.8 317.9-108.8-3.3c15.7 39.3 17.8 98.4 4.1 163 17.4 36.8 54.4 62.9 97.9 64.2 61.8 1.9 113.5-46.7 115.3-108.6 1.9-61.8-46.7-113.4-108.5-115.3z" fill="#413d51"/><path d="m388.8 317.9-108.8-3.3c15.7 39.3 17.8 98.4 4.1 163 17.4 36.8 54.4 62.9 97.9 64.2 61.8 1.9 113.5-46.7 115.3-108.6 1.9-61.8-46.7-113.4-108.5-115.3z" style="fill:none;stroke:#413d51;stroke-width:16;stroke-linecap:round;stroke-linejoin:round;stroke-miterlimit:10"/><circle cx="384.8" cy="429.7" fill="#f7e8ad" r="112"/><circle cx="384.8" cy="429.7" fill="#f7e8ad" r="112"/><path d="m305.6 350.5c21.5-21.5 49.7-32.4 77.9-32.8-21.2 4.1-41.5 14.3-57.9 30.8-43.7 43.7-43.7 114.6 0 158.4 22.2 22.2 51.4 33.1 80.4 32.8-35.3 6.8-73.1-3.5-100.4-30.8-43.7-43.8-43.7-114.7 0-158.4z" fill="#f7d6a1"/><ellipse cx="411.5" cy="429.7" fill="#fff" opacity=".7" rx="84.6" ry="84" transform="matrix(.7071 -.7071 .7071 .7071 -183.3021 416.8521)"/><path d="m290.9 376.6c3.1-4 9.1-15 12.8-18.7 44-43.4 114.9-43 158.3 1.1 8.6 8.7 15.5 18.5 20.6 29-61.8-21.7-129.4-16.5-191.7-11.4z" fill="#efca92" opacity=".89"/><circle cx="384.8" cy="429.7" r="112" style="fill:none;stroke:#413d51;stroke-width:16;stroke-linecap:round;stroke-linejoin:round;stroke-miterlimit:10"/><circle cx="384.8" cy="429.7" r="112" style="fill:none;stroke:#413d51;stroke-width:16;stroke-linecap:round;stroke-linejoin:round;stroke-miterlimit:10"/><path d="m295.6 362.1c3.1-4 6.4-7.9 10.1-11.6 43.7-43.7 114.6-43.7 158.4 0 8.7 8.7 15.6 18.4 20.8 28.8-62-21.2-127-22.8-189.3-17.2z" fill="#413d51"/><circle cx="439.4" cy="438.1" fill="#413d51" r="42"/><circle cx="463.2" cy="438.4" fill="#fff" r="14"/><g fill="#413d51"><path d="m447.9 718.3c-8.8 0-16-7.2-16-16v-18c0-8.8 7.2-16 16-16s16 7.2 16 16v18c0 8.8-7.1 16-16 16z"/><path d="m415.9 718.3c-8.8 0-16-7.2-16-16v-18c0-8.8 7.2-16 16-16s16 7.2 16 16v18c0 8.8-7.1 16-16 16z"/><path d="m479.7 718.3c-8.8 0-16-7.2-16-16v-18c0-8.8 7.2-16 16-16s16 7.2 16 16v18c0 8.8-7.2 16-16 16z"/><path d="m521.9 718.3c-8.8 0-16-7.2-16-16v-18c0-8.8 7.2-16 16-16s16 7.2 16 16v18c0 8.8-7.2 16-16 16z"/><path d="m553.7 718.3c-8.8 0-16-7.2-16-16v-18c0-8.8 7.2-16 16-16s16 7.2 16 16v18c0 8.8-7.2 16-16 16z"/><path d="m585.7 718.3c-8.8 0-16-7.2-16-16v-18c0-8.8 7.2-16 16-16s16 7.2 16 16v18c0 8.8-7.2 16-16 16z"/></g><g fill="none" stroke-linecap="round" stroke-linejoin="round" stroke-miterlimit="10" stroke-width="8"><path d="m491.9 587.6c0 8.4-6.8 15.2-15.2 15.2s-15.2-6.8-15.2-15.2" stroke="#413d51"/><path d="m538.4 587.6c0 8.4-6.8 15.2-15.2 15.2s-15.2-6.8-15.2-15.2" stroke="#413d51"/><g stroke="#72c8d6"><path d="m323 548.8c-2.2 4.7-7.7 6.8-12.5 4.6s-6.8-7.7-4.6-12.5" opacity=".31"/><path d="m352.8 564.3c-2.2 4.7-7.7 6.8-12.5 4.6-4.7-2.2-6.8-7.7-4.6-12.5" opacity=".31"/><path d="m335.5 576.2c-2.2 4.7-7.7 6.8-12.5 4.6-4.7-2.2-6.8-7.7-4.6-12.5" opacity=".31"/><path d="m361.7 596.1c-2.2 4.7-7.7 6.8-12.5 4.6-4.7-2.2-6.8-7.7-4.6-12.5" opacity=".31"/><path d="m381.7 578.1c-2.2 4.7-7.7 6.8-12.5 4.6-4.7-2.2-6.8-7.7-4.6-12.5" opacity=".31"/><path d="m683.7 550.8c2.2 4.7 7.7 6.8 12.5 4.6s6.8-7.7 4.6-12.5" opacity=".31"/><path d="m654 566.3c2.2 4.7 7.7 6.8 12.5 4.6 4.7-2.2 6.8-7.7 4.6-12.5" opacity=".31"/><path d="m671.2 578.2c2.2 4.7 7.7 6.8 12.5 4.6 4.7-2.2 6.8-7.7 4.6-12.5" opacity=".31"/><path d="m645.1 598.1c2.2 4.7 7.7 6.8 12.5 4.6 4.7-2.2 6.8-7.7 4.6-12.5" opacity=".31"/><path d="m625.1 580.1c2.2 4.7 7.7 6.8 12.5 4.6 4.7-2.2 6.8-7.7 4.6-12.5" opacity=".31"/></g><g stroke="#413d51"><path d="m468.7 624.1c0 8.4-6.8 15.2-15.2 15.2s-15.2-6.8-15.2-15.2"/><path d="m515.2 624.1c0 8.4-6.8 15.2-15.2 15.2s-15.2-6.8-15.2-15.2"/><path d="m561.7 624.1c0 8.4-6.8 15.2-15.2 15.2s-15.2-6.8-15.2-15.2"/></g></g></svg>