<svg height="1000" viewBox="0 0 1000 1000" width="1000" xmlns="http://www.w3.org/2000/svg"><g fill="none"><path d="m455.7 501.5 139 114.2c6.9 5.7 16.9 5.7 23.8 0 9.1-7.5 9.1-21.5 0-28.9l-150-123.2c-7.4-6.1-18.1-6.1-25.6 0l-149.9 123.1c-9.1 7.5-9.1 21.5 0 28.9 6.9 5.7 16.9 5.7 23.8 0z" stroke="#cecece" stroke-linecap="round" stroke-linejoin="round" stroke-miterlimit="10" stroke-width="6"/><path d="m351.4 784.4h208.7l9.8-189.1-114.2-93.8-114.2 93.8z" stroke="#cecece" stroke-linecap="round" stroke-linejoin="round" stroke-miterlimit="10" stroke-width="6"/><path d="m455.7 623.2c-40.7 0-72.6 27.3-71.4 60l3.8 101.2h135.2l3.8-101.2c1.2-32.7-30.7-60-71.4-60z" stroke="#cecece" stroke-linecap="round" stroke-linejoin="round" stroke-miterlimit="10" stroke-width="6"/><path d="m435 590c1.9 4.4 7 6.4 11.4 4.6 2.8-1.1 6-1.8 9.3-1.8s6.5.6 9.3 1.8c4.4 1.8 9.5-.2 11.4-4.6.9-2.1 1.4-4.4 1.4-6.7 0-10.6-9.9-19.1-22.2-19.1s-22.2 8.6-22.2 19.1c.2 2.4.6 4.6 1.6 6.7z" stroke="#cecece" stroke-linecap="round" stroke-linejoin="round" stroke-miterlimit="10" stroke-width="6"/><ellipse cx="429.10001" cy="555.59998" rx="7.8" ry="6.6" stroke="#cecece" stroke-linecap="round" stroke-linejoin="round" stroke-miterlimit="10" stroke-width="6" transform="matrix(.7866 -.6174 .6174 .7866 -251.5098 383.4871)"/><ellipse cx="455.70001" cy="546.59998" rx="10.2" ry="6.9" stroke="#cecece" stroke-linecap="round" stroke-linejoin="round" stroke-miterlimit="10" stroke-width="6"/><ellipse cx="480" cy="558.29999" rx="6.6" ry="7.8" stroke="#cecece" stroke-linecap="round" stroke-linejoin="round" stroke-miterlimit="10" stroke-width="6" transform="matrix(.6174 -.7866 .7866 .6174 -255.5751 591.1545)"/><path d="m188.5 784.20001h11.5" stroke="#00354c" stroke-linecap="round" stroke-linejoin="round" stroke-miterlimit="10" stroke-width="6"/></g><path d="m495.2 625.8c2.9-17.4 9.8-37.4 18-54.1-11.4 18.6-21.7 45.1-25.4 67.5-5.7 34.1-3.8 65.4 4.9 85.3l5.2-18.8c-6.8-19.9-7.9-48.7-2.7-79.9z" fill="#d1d1d1"/><path d="m255.4 454.2c-28.6-2-29.6 31-24.6 53 2 12-11 19-16.9 28.2-2.5 4-4.8 8.7-6 14.7-3.3 15.9 6.1 29.4 7.6 43.9.4 3.6.3 7.3-.6 11.1-1.1 4.1-3.1 8.1-5.1 12.1-16 18-42 39-24 63 3.3 4.2 6.9 7.9 10.8 11.2 31.2 26.8 78.2 24.8 114.2 7.8 13-7 26-17 29-32 2-16-5-31-15.7-41.6-3.2-3.5-6.7-6.8-10.3-9.7-2.6-4-4.2-7.8-5-11.5-1.9-9.2 1-17.8 3.8-26.5 1.4-4.3 2.7-8.7 3.4-13.2 3.8-22.6-18.2-36.6-30.2-52.6-5-7-3-16-1-24 4-19-11-35-28.9-34" fill="#01d392"/><path d="m259.9 548.9c-4.6 21.7-5.6 43-5 64.3.2 5.3 13.9 94 5.1 132.8-.2 5.6-.2 8.9-.2 8.9" style="fill:none;stroke:#00354c;stroke-width:6;stroke-linecap:round;stroke-linejoin:round;stroke-miterlimit:10"/><path d="m274.79999 632.79999-14.9 21.5" style="fill:none;stroke:#00354c;stroke-width:6;stroke-linecap:round;stroke-linejoin:round;stroke-miterlimit:10"/><path d="m283.8 787.2h-46c-.6 0-1.1-.4-1.2-1l-11.8-49.8h72l-11.8 49.9c-.1.5-.6.9-1.2.9z" fill="#f7bf46"/><path d="m232 764h57.60001" fill="none" opacity=".68" stroke="#f7bf46" stroke-miterlimit="10"/><path d="m232.89999 767.59998h55.80002" fill="none" opacity=".68" stroke="#f7bf46" stroke-miterlimit="10"/><path d="m503.39999 773v11" style="fill:none;stroke:#00354c;stroke-width:6;stroke-linecap:round;stroke-linejoin:round;stroke-miterlimit:10"/><ellipse cx="190.3" cy="589.20001" fill="#01d392" rx="10.7" ry="17.4"/><path d="m1035.019-91.2733h13.999866v13.999866h-13.999866z" fill="#01d392" stroke-width=".99999" transform="matrix(.70710678 .70710678 -.70710678 .70710678 0 0)"/><path d="m785.38226-246.4258h8.999913v8.999913h-8.999913z" fill="#01d392" stroke-width=".99999" transform="matrix(.70710678 .70710678 -.70710678 .70710678 0 0)"/><g style="fill:none;stroke:#00354c;stroke-linecap:round;stroke-linejoin:round;stroke-miterlimit:10;stroke-width:3"><path d="m227.10001 256.29999v14.30002"/><path d="m227.10001 288.70001v14.29999"/><path d="m206.8 268 12.4 7.10001"/><path d="m235 284.20001 12.39999 7.09998"/><path d="m206.8 291.29999 12.4-7.09998"/><path d="m235 275.10001 12.39999-7.10001"/><path d="m853.09998 317.39999v9.9"/><path d="m853.09998 339.89999v10"/><path d="m839.09998 325.5 8.60003 5"/><path d="m858.59998 336.79999 8.60003 4.90002"/><path d="m839.09998 341.70001 8.60003-4.90002"/><path d="m858.59998 330.5 8.60003-5"/></g><circle cx="776.5" cy="464.79999" fill="#f7bf46" r="15.1"/><g fill="none" stroke="#00354c" stroke-linecap="round" stroke-linejoin="round" stroke-miterlimit="10"><g stroke-width="3"><path d="m776.5 442.79999v12.1"/><path d="m776.5 474.60001v12.1"/><path d="m757.5 453.79999 10.5 6"/><path d="m785.09998 469.70001 10.5 6"/><path d="m757.5 476.39999 10.5-6.69998"/><path d="m785.09998 459.79999 10.5-6"/></g><path d="m550.5 140.89999v14.70002" stroke-width="4"/><path d="m557.79999 148.2h-14.59998" stroke-width="4"/><path d="m889.70001 655.09998v14.70001" stroke-width="4"/><path d="m897 662.5h-14.70001" stroke-width="4"/><path d="m375.20001 396v9" stroke-width="4"/><path d="m379.70001 400.5h-9" stroke-width="4"/></g><path d="m565.40106 94.0205h9.999904v9.999904h-9.999904z" fill="#f7bf46" stroke-width=".99999" transform="matrix(.70710678 .70710678 -.70710678 .70710678 0 0)"/><path d="m112.1 431.20001h26.4" style="fill:none;stroke:#00354c;stroke-width:4;stroke-linecap:round;stroke-linejoin:round;stroke-miterlimit:10"/><path d="m147.5 431.20001h10.10001" style="fill:none;stroke:#00354c;stroke-width:4;stroke-linecap:round;stroke-linejoin:round;stroke-miterlimit:10"/><path d="m126.8 444h29.2" style="fill:none;stroke:#00354c;stroke-width:4;stroke-linecap:round;stroke-linejoin:round;stroke-miterlimit:10"/><path d="m684.20001 555.09998h26.29999" style="fill:none;stroke:#00354c;stroke-width:4;stroke-linecap:round;stroke-linejoin:round;stroke-miterlimit:10"/><path d="m719.5 555.09998h10.09998" style="fill:none;stroke:#00354c;stroke-width:4;stroke-linecap:round;stroke-linejoin:round;stroke-miterlimit:10"/><path d="m698.79999 565.79999h29.29999" style="fill:none;stroke:#00354c;stroke-width:4;stroke-linecap:round;stroke-linejoin:round;stroke-miterlimit:10"/><path d="m765 784.20001h41.29999" style="fill:none;stroke:#00354c;stroke-width:6;stroke-linecap:round;stroke-linejoin:round;stroke-miterlimit:10"/><path d="m221 784.20001h82.70001" style="fill:none;stroke:#00354c;stroke-width:6;stroke-linecap:round;stroke-linejoin:round;stroke-miterlimit:10"/><circle cx="700.5" cy="192.7" fill="#f7bf46" r="51.700001"/><circle cx="752.20001" cy="151.7" fill="#f7bf46" r="51.700001"/><circle cx="823.90002" cy="170.2" fill="#f7bf46" r="47.200001"/><circle cx="752.20001" cy="222" fill="#f7bf46" r="51.5"/><circle cx="807" cy="222" fill="#f7bf46" r="34.299999"/><path d="m698.8 327.6c0 7.8-2 12.5-9.8 12.5s-14.2-3-14.2-10.8 4.1-14.8 12-14.8 12 5.3 12 13.1z" fill="#f7bf46"/><path d="m726.9 288.7c0 11.8-2.9 18.8-14.7 18.8s-21.2-4.5-21.2-16.3 9.5-21.3 21.3-21.3 14.6 7.1 14.6 18.8z" fill="#f7bf46"/><path d="m717 640.2c.2 2.7.3 5.4.3 8.1 0 55.9-45 101.3-100.5 101.3-46.6 0-85.8-32-97.2-75.4 4.1 52.1 47.4 93.2 100.2 93.2 55.5 0 100.5-45.3 100.5-101.3.1-9-1.1-17.6-3.3-25.9z" fill="#fff"/><path d="m717 640.2c.2 2.7.3 5.4.3 8.1 0 55.9-45 101.3-100.5 101.3-46.6 0-85.8-32-97.2-75.4 4.1 52.1 47.4 93.2 100.2 93.2 55.5 0 100.5-45.3 100.5-101.3.1-9-1.1-17.6-3.3-25.9z" style="fill:none;stroke:#00354c;stroke-width:6;stroke-linecap:round;stroke-linejoin:round;stroke-miterlimit:10"/><path d="m541.3 549.2c-17-7.6-46.6 48.4-53.5 90-5.7 34.1-3.8 65.4 4.9 85.3z" fill="#fff"/><path d="m541.3 549.2c-17-7.6-46.6 48.4-53.5 90-5.7 34.1-3.8 65.4 4.9 85.3z" style="fill:none;stroke:#00354c;stroke-width:6;stroke-linecap:round;stroke-linejoin:round;stroke-miterlimit:10"/><path d="m593.7 549.2c17-7.6 46.6 48.4 53.5 90 5.7 34.1 3.8 65.4-4.9 85.3z" fill="#fff"/><path d="m639.9 625.8c-2.9-17.4-9.8-37.4-18-54.1 11.4 18.6 21.7 45.1 25.4 67.5 5.7 34.1 3.8 65.4-4.9 85.3l-5.2-18.8c6.8-19.9 7.8-48.7 2.7-79.9z" fill="#d1d1d1"/><path d="m593.7 549.2c17-7.6 46.6 48.4 53.5 90 5.7 34.1 3.8 65.4-4.9 85.3z" style="fill:none;stroke:#00354c;stroke-width:6;stroke-linecap:round;stroke-linejoin:round;stroke-miterlimit:10"/><path d="m645.3 732c-1.1-16.6-44.3-196.8-56-205.8h-21.1-21.7c-11.7 9-55 189.1-56 205.8-1.3 20.7-8.1 52.2 31.2 52.2h46.5 46c39.2 0 32.4-31.5 31.1-52.2z" fill="#fff"/><path d="m495.2 706.5s-3.1 26.4 11.7 36.1c11.6 7.7 21.8 10.8 40.9 14.3 10.3 1.9 21.5 2.7 21.5 2.7l1.2 23.7-81.4.6s-1.4-33.3.6-43.3c2-9.9 3-26.5 5.5-34.1z" fill="#d1d1d1"/><path d="m641.4 706.5s3.1 26.4-11.7 36.1c-11.6 7.7-21.8 10.8-40.9 14.3-10.3 1.9-21.5 2.7-21.5 2.7l-1.2 23.7 81.4.6s1.4-33.3-.6-43.3c-2-9.9-3-26.5-5.5-34.1z" fill="#d1d1d1"/><path d="m603.6 562.5c-2.5-.7-4.9-1.1-7-1.1-12.2 0-21.9 6.5-21.9 21.5 0 15.1 21.9 33 34.1 33 3.3 0 6.4-.9 9.2-2.5-4.9-18.4-9.9-36.2-14.4-50.9z" fill="#f7bf46"/><path d="m511.1 692.1c13.5 0 24.5-13.3 24.5-29.7 0-15.7-10.1-28.6-22.9-29.6-5 19.6-9.7 39-13.5 55.5 3.6 2.4 7.6 3.8 11.9 3.8z" fill="#f7bf46"/><path d="m543.4 530.5s7.1 5.7 23.4 5.7c13.2 0 24.8-5.7 24.8-5.7l-1-3.9h-46.5z" fill="#d1d1d1"/><path d="m645.3 732c-1.1-16.6-44.3-196.8-56-205.8h-21.1-21.7c-11.7 9-55 189.1-56 205.8-1.3 20.7-8.1 52.2 31.2 52.2h46.5 46c39.2 0 32.4-31.5 31.1-52.2z" style="fill:none;stroke:#00354c;stroke-width:6;stroke-linecap:round;stroke-linejoin:round;stroke-miterlimit:10"/><path d="m643 454.2c-1.9-19.5-11.5-68.8-22.3-103.3-17.2-55.1-37.4-69.5-49.1-71-1.2-.2-3.8-.2-3.8-.2s-2.5 0-3.8.2c-11.7 1.4-31.8 15.7-49.1 70.9-10.8 34.5-20.3 83.9-22.3 103.5-4.3 44 16.8 68.3 44.2 71.8 7.8 1 23.2 1 31 1 7.7 0 23.1 0 31-1 27.3-3.6 48.5-27.9 44.2-71.9z" fill="#fff"/><ellipse cx="567.79999" cy="479.60001" fill="#d1d1d1" rx="18.9" ry="14.9"/><path d="m550.5 285.5s-9 33.9-27.8 43.7c4.8-10.8 11.3-23.7 11.3-23.7s11.2-18.5 16.5-20z" fill="#d1d1d1"/><path d="m571.6 280s24.4 42 44.7 58.1c0 0-4.6-29.8-9.1-38.8s-26.5-22.1-35.6-19.3z" fill="#d1d1d1"/><path d="m519.8 441.3c39.3-16.9 62.8-50.2 52.4-74.3-7.3-16.9-29.3-24.8-55.3-22.2-.6 1.9-1.3 3.9-1.9 6-10 32-18.9 76.7-21.7 98.6 8.6-1.6 17.6-4.2 26.5-8.1z" fill="#f7bf46"/><path d="m624.1 487.1c-11.2 16.3-35.7 27.3-61.8 27.3-24.2 0-38.7-14.2-47.2-31.9" style="fill:none;stroke:#00354c;stroke-width:6;stroke-linecap:round;stroke-linejoin:round;stroke-miterlimit:10"/><ellipse cx="567.79999" cy="477" fill="#00354c" rx="23.700001" ry="12.2"/><path d="m697.9 777.9c-15.2-14.3-44.4-21.4-72.9-19.2-24.4 1.8-42.5 10.1-49.6 21.1-1.2 1.9.3 4.4 2.6 4.4h115.5c4.5 0 7.2-3.7 4.4-6.3z" fill="#fff"/><path d="m697.1 777.7c-.3.1-.7.2-1.1.2h-115.5c-1.4 0-2.6-.3-3.5-.9-.3.3-.7.6-1 .9-2.8 2.6-.1 6.3 4.5 6.3h115.5c2.3 0 3.8-2.6 2.6-4.4-.5-.8-1-1.5-1.5-2.1z" fill="#d1d1d1"/><path d="m697.9 777.9c-15.2-14.3-44.4-21.4-72.9-19.2-24.4 1.8-42.5 10.1-49.6 21.1-1.2 1.9.3 4.4 2.6 4.4h115.5c4.5 0 7.2-3.7 4.4-6.3z" style="fill:none;stroke:#00354c;stroke-width:6;stroke-linecap:round;stroke-linejoin:round;stroke-miterlimit:10"/><path d="m635.40002 773v11" style="fill:none;stroke:#00354c;stroke-width:6;stroke-linecap:round;stroke-linejoin:round;stroke-miterlimit:10"/><path d="m441 777.9c15.2-14.3 44.4-21.4 72.9-19.2 24.4 1.8 42.5 10.1 49.6 21.1 1.2 1.9-.3 4.4-2.6 4.4h-115.5c-4.5 0-7.2-3.7-4.4-6.3z" fill="#fff"/><path d="m562.1 777.7c-.3.1-.7.2-1.1.2h-115.5c-1.4 0-2.6-.3-3.5-.9-.3.3-.7.6-1 .9-2.8 2.6-.1 6.3 4.5 6.3h115.5c2.3 0 3.8-2.6 2.6-4.4-.5-.8-1-1.5-1.5-2.1z" fill="#d1d1d1"/><path d="m441 777.9c15.2-14.3 44.4-21.4 72.9-19.2 24.4 1.8 42.5 10.1 49.6 21.1 1.2 1.9-.3 4.4-2.6 4.4h-115.5c-4.5 0-7.2-3.7-4.4-6.3z" style="fill:none;stroke:#00354c;stroke-width:6;stroke-linecap:round;stroke-linejoin:round;stroke-miterlimit:10"/><path d="m643 454.2c-1.9-19.5-11.5-68.8-22.3-103.3-17.2-55.1-37.4-69.5-49.1-71-1.2-.2-3.8-.2-3.8-.2s-2.5 0-3.8.2c-11.7 1.4-31.8 15.7-49.1 70.9-10.8 34.5-20.3 83.9-22.3 103.5-4.3 44 16.8 68.3 44.2 71.8 7.8 1 23.2 1 31 1 7.7 0 23.1 0 31-1 27.3-3.6 48.5-27.9 44.2-71.9z" style="fill:none;stroke:#00354c;stroke-width:6;stroke-linecap:round;stroke-linejoin:round;stroke-miterlimit:10"/><path d="m569.8 279.5s34.9-7.4 44.5-2.9c9.9 4.6 27.8 39.7 20.4 53.4-11.3 21-44.5-55-64.9-50.5z" fill="#fff"/><path d="m569.8 279.5s34.9-7.4 44.5-2.9c9.9 4.6 27.8 39.7 20.4 53.4-11.3 21-44.5-55-64.9-50.5z" style="fill:none;stroke:#00354c;stroke-width:6;stroke-linecap:round;stroke-linejoin:round;stroke-miterlimit:10"/><path d="m504.3 285.8 48.3-1.4s-44.8 48.2-65.5 58.6.5-57.3 17.2-57.2z" fill="#fff"/><path d="m504.3 285.8 48.3-1.4s-44.8 48.2-65.5 58.6.5-57.3 17.2-57.2z" style="fill:none;stroke:#00354c;stroke-width:6;stroke-linecap:round;stroke-linejoin:round;stroke-miterlimit:10"/><ellipse cx="548.70001" cy="387.5" fill="#00354c" rx="5" ry="6.5"/><ellipse cx="590.90002" cy="387.5" fill="#00354c" rx="5" ry="6.5"/><path d="m392.29999 784.20001h346.70001" style="fill:none;stroke:#00354c;stroke-width:6;stroke-linecap:round;stroke-linejoin:round;stroke-miterlimit:10"/><path d="m668.2 347c0 5.6-1.4 8.9-7 8.9s-10.1-2.1-10.1-7.7 4.5-10.1 10.1-10.1 7 3.3 7 8.9z" fill="#f7bf46"/><path d="m804.8 188c1.5-1.8 2.4-4.3 2.1-7-.5-4.2-6.2-6.3-8.6-6.8-3.2-.6-9.9 2.3-9.9 7.8 0 1.3-1 2.4-2.3 2.4h-45.5c-1.3 0-2.3-1.1-2.3-2.3s-.2-2.5-.8-3.8c-1.3-3-4.6-3.4-7.5-3.7-5-.6-10.3 1.9-10.3 7.4 0 2.3.8 4.3 2.2 5.9.9 1.1.9 2.7 0 3.8-1.5 1.8-2.4 4.3-2.1 7 .5 4.2 4.5 6 8.3 6.4 5 .6 10.2-2 10.2-7.4 0-1.3 1-2.4 2.3-2.4h45.5c1.3 0 2.3 1.1 2.3 2.3s.2 2.5.8 3.8c1.3 3 6 3.7 7.8 4.1 3.2.6 9.9-2.3 9.9-7.8 0-2.3-.8-4.3-2.2-5.9-.8-1.1-.8-2.7.1-3.8z" fill="#f6f6f4"/></svg>