<svg enable-background="new 0 0 1000 1000" viewBox="0 0 1000 1000" xmlns="http://www.w3.org/2000/svg"><g style="fill:none;stroke:#e5e5e5;stroke-linecap:round;stroke-linejoin:round;stroke-miterlimit:10;stroke-width:6"><path d="m243.9 634.7v30.9h-61.9"/><path d="m305.7 665.6h-61.8v-30.9"/><path d="m212.9 665.6h61.9v30.9h-61.9z"/><path d="m261.4 727.5h-17.5v-31h61.8"/><path d="m182 696.5h61.9v31h-50.2"/><path d="m160.9 665.6h52v30.9h-30.9"/><path d="m319.4 696.5h-44.6v-30.9h21.4"/><path d="m817.6 441.4v30.9h61.9"/><path d="m755.8 472.3h61.8v-30.9"/><path d="m786.7 472.3h61.9v30.9h-61.9z" transform="matrix(-1 0 0 -1 1635.2858 975.629)"/><path d="m800.1 534.2h17.5v-30.9h-61.8"/><path d="m879.5 503.3h-61.9v30.9h50.2"/><path d="m900.6 472.3h-52v31h30.9"/><path d="m742.1 503.3h44.6v-31h-21.4"/><circle cx="587" cy="251.9" r="56"/><path d="m587 201.6v5.4"/><path d="m587 296.7v5.4"/><path d="m637.3 251.9h-5.4"/><path d="m542.2 251.9h-5.5"/></g><circle cx="587" cy="251.9" fill="#e5e5e5" r="4.5"/><g fill="none" stroke-linecap="round" stroke-linejoin="round" stroke-miterlimit="10"><g stroke="#e5e5e5"><path d="m587 251.9 24.2-29.9" stroke-width="4"/><path d="m571.8 236.9 15.2 15" stroke-width="6"/><path d="m135.8 252.9h123.3v125.3h-123.3z" stroke-width="8"/><path d="m154.3 271.2h86.5v88.9h-86.5z" stroke-width="4" transform="matrix(0 1 -1 0 513.0942 118.1157)"/><path d="m289.2 213h108.6v77.8h-108.6z" stroke-width="8"/><path d="m320.6 213.5h45.9v76.7h-45.9z" stroke-width="4" transform="matrix(0 1 -1 0 595.3908 -91.6892)"/><path d="m292.7 352.6h72.6v47.7h-72.6z" stroke-width="4" transform="matrix(0 1 -1 0 705.4474 47.4194)"/><path d="m289.2 324.2h79.6v104.5h-79.6z" stroke-width="8"/></g><path d="m833.8 784.2h7.9" stroke="#a83727" stroke-width="6"/><path d="m802.3 784.2h18.5" stroke="#a83727" stroke-width="6"/><path d="m473 784.2h315.3" stroke="#a83727" stroke-width="6"/><path d="m200 784.2h252" stroke="#a83727" stroke-width="6"/><path d="m156.5 784.2h22" stroke="#a83727" stroke-width="6"/><path d="m126.5 784.2h12" stroke="#a83727" stroke-width="6"/></g><path d="m330.9 674.4c-18.2-11.6-50.3-32-64.2-74.4-9.7-29.6-9.9-66.8.5-70.3 12.1-4 33.2 38.8 40.9 35.1 6.1-2.9-6.6-29.4-8.3-74.3-1.2-30.6 3.2-56.9 17-80.3 6.3-10.7 10.9-18.6 16-18 20.9 2.4 15 144 37.3 146.7 10.5 1.3 18.9-29.2 30.7-26.7 10 2.1 16.7 26.8 18.5 42.8.1.8.2 1.4.2 1.9 5.2 51.9-25.1 89.3-35.3 102-15.3 18.8-25.6 22.6-33.6 22.7-8.4-.1-14.8-4-19.7-7.2z" fill="#6dcca3"/><path d="m325.5 477c3.5 37 24.5 93.3 27.6 141 2 31.1.1 58.5-3 81" style="fill:none;stroke:#465172;stroke-width:6;stroke-linecap:round;stroke-linejoin:round;stroke-miterlimit:10"/><path d="m422 784.2h-155c-15.6-27.6-15-61.5 1.5-88.5l22.8-37.3h106.3l22.1 34.5c16.4 25.5 18.3 57.8 5.2 85.1z" fill="#2359b2"/><path d="m375 561.9s-.4 17-23.8 39.1" style="fill:none;stroke:#465172;stroke-width:6;stroke-linecap:round;stroke-linejoin:round;stroke-miterlimit:10"/><path d="m301.1 601s15.7 32 52.8 32" style="fill:none;stroke:#465172;stroke-width:6;stroke-linecap:round;stroke-linejoin:round;stroke-miterlimit:10"/><path d="m382.3 684.8s23.6 15.4 23.6 52.3" style="opacity:.67;fill:none;stroke:#1e2a54;stroke-width:6;stroke-linecap:round;stroke-linejoin:round;stroke-miterlimit:10"/><path d="m523.6 794c0 29.2 49.9 53 111.4 53 48.2 0 89.2-14.5 104.7-34.9l-116.5 8.4z" fill="#d6d6d6"/><path d="m723.7 791.1c-2.9-.6-6-.3-8.7.8-17.6 6.9-48.4 11.5-83.4 11.5-54.7 0-99-11.2-99-25 0-12.2 34.7-22.4 80.6-24.6l3.2-16.7c-62.9 3.9-110.7 23.4-110.7 46.8 0 26.2 60 47.5 134 47.5 32.4 0 62.1-4.1 85.3-10.9 15-4.5 14.1-26.2-1.3-29.4z" fill="#f78a21"/><path d="m671.1 801.3 48-10.5s12.6 1.3 14.9 8c4 11.4-4.2 18.4-4.2 18.4s-3.1-26.4-58.7-15.9z" fill="#9b463d" opacity=".26"/><path d="m723.7 791.1c-2.9-.6-6-.3-8.7.8-17.6 6.9-48.4 11.5-83.4 11.5-54.7 0-99-11.2-99-25 0-12.2 34.7-22.4 80.6-24.6l3.2-16.7c-62.9 3.9-110.7 23.4-110.7 46.8 0 26.2 60 47.5 134 47.5 32.4 0 62.1-4.1 85.3-10.9 15-4.5 14.1-26.2-1.3-29.4z" style="fill:none;stroke:#a83727;stroke-width:6;stroke-linecap:round;stroke-linejoin:round;stroke-miterlimit:10"/><path d="m714.3 439.9c-16-5.1-33.7-8-52.2-8-18.4 0-35.9 2.8-51.9 7.8-9.7-22.7-22.9-41.2-36.8-52.7-2.2-1.8-5.5-1.2-6.9 1.3-27.7 50.1-40.1 107.4-34.9 169.9 4.8 69.8 31.7 146.5 57.2 225.8h146.8c25.6-79.2 52.2-155.1 57.2-224 5.5-62.9-7.1-120.4-35.6-171-1.4-2.5-4.7-3.1-6.9-1.3-13.6 11.6-26.5 29.8-36 52.2z" fill="#f78a21"/><path d="m674.4 533.9c0 3.7-5.5 6.7-12.4 6.7-6.8 0-12.4-3-12.4-6.7l12.5-2.8z" fill="#9b463d" opacity=".26"/><path d="m713.3 782.6s0-7.9 1.5-14.5c13.2-58.7 4.5-76.8 4.5-76.8l-27.8 91.5z" fill="#9b463d" opacity=".26"/><path d="m608.8 782.6s0-7.9-1.5-14.5c-13.2-58.7-4.5-76.8-4.5-76.8l27.8 91.5z" fill="#9b463d" opacity=".26"/><path d="m714.3 439.9c-16-5.1-33.7-8-52.2-8-18.4 0-35.9 2.8-51.9 7.8-9.7-22.7-22.9-41.2-36.8-52.7-2.2-1.8-5.5-1.2-6.9 1.3-27.7 50.1-40.1 107.4-34.9 169.9 4.8 69.8 31.7 146.5 57.2 225.8h146.8c25.6-79.2 52.2-155.1 57.2-224 5.5-62.9-7.1-120.4-35.6-171-1.4-2.5-4.7-3.1-6.9-1.3-13.6 11.6-26.5 29.8-36 52.2z" style="fill:none;stroke:#a83727;stroke-width:6;stroke-linecap:round;stroke-linejoin:round;stroke-miterlimit:10"/><circle cx="620.6" cy="479.8" fill="#a83727" r="8"/><circle cx="703.6" cy="479.8" fill="#a83727" r="8"/><path d="m668.8 506.7c-4.4-.4-8.8-.4-13.2 0-2.1.2-2.8 2.3-1.2 3.4 1.4.9 2.8 1.8 4.2 2.8 2 1.4 5.3 1.4 7.3 0 1.4-1 2.8-1.9 4.2-2.8 1.5-1.1.7-3.2-1.3-3.4z" fill="#a83727"/><path d="m719.1 694.2c-1.7 29.5-15.4 60.5-24.8 90-9.7 0-32.2 0-32.2 0l.2-83.1" fill="#f78a21"/><path d="m605 694.2c1.7 29.5 18.4 60.5 27.8 90h29.2l-.2-83.1" fill="#f78a21"/><g fill="none" stroke-linecap="round" stroke-linejoin="round" stroke-miterlimit="10"><path d="m680.5 533c-1.8 1-4 1.6-6.2 1.6-6.7 0-12.1-4.9-12.1-10.9" stroke="#a83727" stroke-width="6"/><path d="m643.7 533c1.8 1 4 1.6 6.2 1.6 6.7 0 12.1-4.9 12.1-10.9" stroke="#a83727" stroke-width="6"/><path d="m719.1 694.2c-1.7 29.5-18.4 60.5-27.8 90-9.7 0-29.2 0-29.2 0l.2-83.1" stroke="#a83727" stroke-width="6"/><path d="m605 694.2c1.7 29.5 15.4 60.5 24.8 90h32.2l-.2-83.1" stroke="#a83727" stroke-width="6"/></g><path d="m729.1 451.4c7.4-22.7 18.2-28.5 18.2-28.5s7.8 2.9 7.8 33.8" fill="#9b463d" opacity=".26"/><path d="m595.1 451.4c-7.4-22.7-18.2-28.5-18.2-28.5s-7.8 2.9-7.8 33.8" fill="#9b463d" opacity=".26"/><path d="m644.3 772.2 2.5 11.3" style="fill:none;stroke:#a83727;stroke-width:6;stroke-linecap:round;stroke-linejoin:round;stroke-miterlimit:10"/><path d="m679.9 772.2-2.5 11.3" style="fill:none;stroke:#a83727;stroke-width:6;stroke-linecap:round;stroke-linejoin:round;stroke-miterlimit:10"/><g style="opacity:.24;fill:none;stroke:#a83727;stroke-width:2;stroke-linecap:round;stroke-linejoin:round;stroke-miterlimit:10"><path d="m707 528.7c12.1 3.2 24.6 3.8 36.6 2"/><path d="m703.6 536.3c11 7 22.4 11.8 33.4 14.3"/><path d="m707 517.9c9.9-.7 20.1-3.4 30-8.1"/><path d="m617.2 528.7c-12.1 3.2-24.6 3.8-36.6 2"/><path d="m620.6 536.3c-11 7-22.4 11.8-33.4 14.3"/><path d="m617.2 517.9c-9.9-.7-20.1-3.4-30-8.1"/></g></svg>