<svg enable-background="new 0 0 1000 1000" viewBox="0 0 1000 1000" xmlns="http://www.w3.org/2000/svg"><g opacity=".15"><g style="fill:none;stroke:#474747;stroke-width:6;stroke-linecap:round;stroke-linejoin:round;stroke-miterlimit:10"><path d="m169 748.7h662"/><path d="m732.5 748.7v-325.3"/><path d="m758.6 335.1c24.3 31.5 87.4 232.9-26.1 232.9s-50.3-201.4-26.1-232.9c8.5-11 18.4-15.8 26.1-15.8s17.6 4.8 26.1 15.8z"/><path d="m732.5 473.5 25.2-25.2"/><path d="m732.5 532.2-34.3-34.3"/></g><circle cx="815.7" cy="557.1" fill="#fff" r="49.4"/><g style="fill:none;stroke:#474747;stroke-width:6;stroke-linecap:round;stroke-linejoin:round;stroke-miterlimit:10"><circle cx="815.7" cy="557.1" r="49.4"/><path d="m732.5 640.3 91.4-91.4"/><path d="m825.8 586.1h-39.1"/><path d="m806.3 566.5v-17.6"/><path d="m732.5 699.8-82-82.1"/><ellipse cx="661.6" cy="623.3" rx="42.3" ry="57.5" transform="matrix(.7983 -.6022 .6022 .7983 -241.9206 524.1381)"/><path d="m691.8 659v-26.5"/><path d="m650.5 638h20.3"/><path d="m238.4 689.9h22.3v55.2h-22.3z"/><path d="m469 689.9h22.3v55.2h-22.3z"/><path d="m252.7 546.5h15.6v118.3h-15.6z"/><path d="m461.3 546.5h15.6v118.3h-15.6z"/></g><path d="m201.8 564.5h312.3v33.5h-312.3z" fill="#fff"/><path d="m201.8 564.5h312.3v33.5h-312.3z" style="fill:none;stroke:#474747;stroke-width:6;stroke-linecap:round;stroke-linejoin:round;stroke-miterlimit:10"/><path d="m201.8 598h312.3v33.5h-312.3z" fill="#fff"/><g style="fill:none;stroke:#474747;stroke-width:6;stroke-linecap:round;stroke-linejoin:round;stroke-miterlimit:10"><path d="m201.8 598h312.3v33.5h-312.3z"/><circle cx="469.1" cy="582.5" r="4.5"/><circle cx="469.1" cy="614.7" r="4.5"/><circle cx="260.6" cy="582.5" r="4.5"/><circle cx="260.6" cy="614.7" r="4.5"/><path d="m185.8 664.8h353.5v25.2h-353.5z"/></g></g><path d="m422 712.6 4 28.6c.6 4.3 4.6 7.5 9.4 7.5h128.2c4.8 0 8.8-3.2 9.4-7.5l4-28.6z" fill="#d6d6d4"/><path d="m560.7 748.7 9.3-2.4 6.8-33.7h-154.8l1.5 11h127.8.2c18.3 0 9.2 25.1 9.2 25.1z" fill="#bababa"/><path d="m592.3 702.9 35-279.5h-255.8l35 279.5c.7 5.5 5.5 9.7 11.2 9.7h163.5c5.7 0 10.4-4.1 11.1-9.7z" fill="#5eb173"/><g fill="#60a06c"><path d="m492.3 652.2c-2.5 0-4.4-1.3-5.1-1.8-2.2-1.8-3.5-4.8-3.6-8.4-.2-4.4 1.4-8.7 4.2-11.4.8-.7 3.1-3 6.1-3 .3 0 .6 0 .9.1 2 .3 3.8 1.6 5.2 3.8 2.2 3.3 2.9 7.8 2 11.6-1.1 4.4-4.8 9.1-9.5 9.2zm1-13.8c-.9 2.1-.7 3.4-.4 3.7 0 0 .1 0 .1.1.1-.1.3-.4.5-.9.3-1 .1-2.1-.2-2.9z" opacity=".34"/><path d="m503.9 664.6c-1.3 0-2.6-.4-3.6-1.1-2.2-1.5-2.1-3.5-1.5-10.8.4-4.6 1-11.7 1.5-22.7 0-.6.1-1.1.1-1.7-.1 0-.1 0-.2 0-.2 0-.5 0-.7 0-.8.1-1.6.1-2.4.1-.9 0-1.7.1-2.5.2-.3 0-.6.1-.9.1-.6.1-1.1.1-1.5.1-.9 0-1.6-.3-2.2-.9-2.1-2.1.2-6.6 1.9-8.3 1.4-1.3 3.3-2 5.6-2 1.3 0 2.8.2 4.6.6 1.1-3.2 2.7-5.5 4.7-6.9.8-.6 3-2.1 5.9-2.1.4 0 .8 0 1.2.1.6.1 2.5.4 4.1 1.9 1.5 1.5 1.9 3.5 1.9 4.9.8-.3 1.6-.5 2.6-.5.4 0 .7 0 1.1.1.6.1 2.3.3 3.7 1.8 2.3 2.3 1.7 5.6 1.6 6.2l-.4 1.7c.3-.1.6-.3.8-.5.6-.6 1-1.5 1.1-2.8l.3-4.1 5.1 4.8.2.3c.9 1.8.3 4.1-1.8 6.7-1.5 1.9-4.4 2.8-8.8 2.8-1.3 0-2.8-.1-4.4-.3-.6 4.9-.5 10.3-.5 10.3.1 2 .1 3.9.2 5.5.3 8.9.4 12.5-2.4 14.6-1 .7-2.3 1.1-3.6 1.1-1.2 0-2.3-.3-3.3-1s-1.5-1.4-1.7-2.8c-.4 1.2-1.1 2.1-2.1 2.9-.8 1.2-2.2 1.7-3.7 1.7zm6.8-34.1c-.4 5-.3 9.8-.3 9.8.1 2.3.1 4.4.2 6.3 0 .8.1 1.5.1 2.2.3-3.7.6-8.5.9-14.9 0-1.1.1-2.1.2-3.1-.4-.1-.7-.2-1.1-.3zm12.9-4.9c1.2.2 2.2.4 3 .4.3 0 .6 0 .9-.1l-1.3-.7c-.4-.2-.8-.3-1.1-.3-.1 0-.2 0-.3 0s-.7.2-1.2.7zm-9.8-3.3c.5-1.2 1.2-2.3 1.9-3.1-.1 0-.1 0-.2 0s-.3 0-.4 0c0 0-1 .2-2 1.3-.2.2-.5.6-.8 1.3.2 0 1.2.4 1.5.5z" opacity=".34"/><path d="m526.5 654.7c-2.3 0-4.3-.7-5.6-2-1.9-1.9-2.6-5.4-1.7-9.4.9-4.4 3.8-10.3 9.1-12.5.5-.2 2.3-.9 4.4-.9 1.9 0 3.5.6 4.8 1.6 2.5 2.1 2.9 5.7 2.2 8.2-.7 2.6-2.6 4.3-4.8 5.4.2.3.5.7.5 1.4.2 1.5-.6 3.9-2.3 5.6-1.5 1.6-4 2.6-6.6 2.6zm5.1-16.9c-.3.1-.6.3-1 .6.4-.2.7-.4 1-.6z" opacity=".34"/><path d="m542.6 655.1c-2.3 0-4.6-.8-5.9-2.3-1.9-2-2.5-5.2-1.8-9 1-4.8 4-8.9 7.6-10.4 1.3-.5 2.8-.8 4.2-.8 2.3 0 4.1.7 5.3 2.1 2.2 2.5 1.4 6 1.1 7-.6 2.1-2 3.7-3.7 4.8.3.3.6.8.6 1.5.1 1.4-.6 3.7-2.2 5.1-1.2 1.3-3.1 2-5.2 2z" opacity=".34"/><path d="m469.4 663c-1.6 0-3.1-.2-4.6-.7-5-1.5-9-5.6-11.3-11.5-2.5-6.4-1.7-14.5 1.9-21.8-1.5.3-2.8 1.1-4 1.8-1.3.8-2.4 1.4-3.6 1.4-.7 0-1.3-.2-1.9-.6-1.1-.9-1.7-2.5-1.6-4.5.1-2.4 1.2-5.7 3.9-7.2 1-.6 2.2-.9 3.5-.9 2.6 0 5.6 1.2 8.7 2.6 3-3.4 6.5-5.7 10.1-6.9 2-.6 4-1 5.7-1 2.6 0 4.7.8 6 2.3 3 3.4 1.6 9.5-1.5 13.1-1.5 1.7-4.3 3.8-9.3 4.1-.3 0-.5 0-.8 0-1.9 0-3.5-.4-5.3-1-.5-.1-.9-.3-1.3-.4-1.9 6.7-1 13.9 2.2 16.6 1 .8 2.7 1.7 4.5 1.7.4 0 .8 0 1.1-.1.1 0 2.8-.7 3.3-2.8.3-1 .1-2.3-.5-3-.4-.5-1-.7-1.6-1-.6-.2-2.2-.9-2-2.6.2-1.9 2.6-2.8 4.7-2.8.6 0 1.2.1 1.8.2 4.6 1.2 8 7.7 6.9 13.4-.9 4.8-4.5 7.4-5.7 8.3-2.6 2.3-5.9 3.3-9.3 3.3zm-1.9-37.8c1.2.6 2 .9 2.8.9h.6c1.7-.2 3.7-1.2 4.2-2.8.3-.8.2-1.6 0-1.7 0 0-.3-.2-.8-.2-1.2 0-2.7.5-3.7 1.1l-.1.1c-1.1.6-2.1 1.5-3 2.6z" opacity=".34"/><path d="m371.5 423.4 2.7 22h212.8c8.1 0 14.4 7.1 13.4 15.2l-22.2 230c-.9 8.8-7.5 16-16.2 17.6l-25 4.5h35.6 8.5c5.7 0 10.5-4.1 11.2-9.7l35-279.5h-255.8z"/></g><path d="m422 712.6 4 28.6c.6 4.3 4.6 7.5 9.4 7.5h128.2c4.8 0 8.8-3.2 9.4-7.5l4-28.6z" style="fill:none;stroke:#474747;stroke-width:6;stroke-linecap:round;stroke-linejoin:round;stroke-miterlimit:10"/><path d="m592.3 702.9 35-279.5h-255.8l35 279.5c.7 5.5 5.5 9.7 11.2 9.7h163.5c5.7 0 10.4-4.1 11.1-9.7z" style="fill:none;stroke:#474747;stroke-width:6;stroke-linecap:round;stroke-linejoin:round;stroke-miterlimit:10"/><path d="m632.8 423.4c-88.9 0-177.9 0-266.8 0-8.7.1-7.5-4.6-4.5-13.5 1.8-5.3 1.8-11 0-16.2-3-9-4.2-13.6 4.5-13.5h266.8c8.7-.1 7.5 4.6 4.5 13.5-1.8 5.3-1.8 11 0 16.2 3 8.9 4.2 13.6-4.5 13.5z" fill="#646464"/><path d="m637.3 393.6c1.9-5.8 3.1-9.8 1.4-11.9-.4 1.3-.9 2.8-1.4 4.4-1.3 3.8-1.6 7.9-1.1 11.9.3-1.5.6-2.9 1.1-4.4z" fill="#7c7c7c"/><path d="m362.6 398c.6-4 .3-8-1.1-11.9-.5-1.6-1-3-1.4-4.4-1.7 2.1-.6 6.1 1.4 11.9.5 1.5.9 2.9 1.1 4.4z" fill="#7c7c7c"/><path d="m638.7 414.2c-1 1.1-2.8 1.7-5.9 1.7-88.9 0-177.9 0-266.8 0-3.1 0-4.9-.5-5.9-1.7-1.7 6.1-1.3 9.2 5.9 9.2h266.8c7.2.1 7.6-3.1 5.9-9.2z" fill="#7c7c7c"/><path d="m637.3 409.9c-.2-.5-.3-1-.4-1.5-1.3 4.7-1.2 9.7.3 14.4 3.7-1.5 2.4-5.9.1-12.9z" fill="#646464"/><path d="m362.9 403.5c1-.4 4.9-10.1 10.9-10.1h253.5c7.2 0 8.5 14.6 9.6 15 0-.1.4-14.7.4-14.8 3-9 4.2-13.6-4.5-13.5-88.8 0-177.7 0-266.5 0-9-.2-7.8 4.5-4.8 13.5.1.2 1.3 9.8 1.4 9.9z" fill="#646464"/><path d="m361.7 422.8c1.5-4.7 1.6-9.7.3-14.4-.1.5-.3 1-.4 1.5-2.4 7-3.7 11.4.1 12.9z" fill="#646464"/><path d="m632.8 423.4c-88.9 0-177.9 0-266.8 0-8.7.1-7.5-4.6-4.5-13.5 1.8-5.3 1.8-11 0-16.2-3-9-4.2-13.6 4.5-13.5h266.8c8.7-.1 7.5 4.6 4.5 13.5-1.8 5.3-1.8 11 0 16.2 3 8.9 4.2 13.6-4.5 13.5z" style="fill:none;stroke:#474747;stroke-width:6;stroke-linecap:round;stroke-linejoin:round;stroke-miterlimit:10"/><path d="m625.1 380.1h-251.3l2.5-8.8c3.9-14 17.3-23.7 32.6-23.7h181.1c15.3 0 28.6 9.7 32.6 23.7z" fill="#d6d6d4"/><path d="m625.1 380.1h-251.3l2.5-8.8c3.9-14 17.3-23.7 32.6-23.7h181.1c15.3 0 28.6 9.7 32.6 23.7z" fill="#d6d6d4"/><path d="m426.5 358 171.5-.1c12.4 0 20 8.9 23.5 10-6.1-9.1-19.6-20.3-31.4-20.3h-181.3c-15.3 0-28.6 9.7-32.6 23.7l-2.5 8.8h21.8c5.3-11.6 17.4-22.1 31-22.1z" fill="#fff"/><path d="m625.1 380.1h-251.3l2.5-8.8c3.9-14 17.3-23.7 32.6-23.7h181.1c15.3 0 28.6 9.7 32.6 23.7z" style="fill:none;stroke:#474747;stroke-width:6;stroke-linecap:round;stroke-linejoin:round;stroke-miterlimit:10"/><path d="m575.6 347.6h-68.6v-6.4c0-7.4 6-13.5 13.5-13.5h41.7c7.4 0 13.5 6 13.5 13.5v6.4z" fill="#d6d6d4"/><path d="m575.6 347.6h-68.6v-6.4c0-7.4 6-13.5 13.5-13.5h41.7c7.4 0 13.5 6 13.5 13.5v6.4z" fill="#d6d6d4"/><path d="m507.1 347.4c0-7.1 5.7-12.8 12.8-12.8h43c6.5 0 11.9 4.9 12.7 11.2v-5.2c0-7.1-5.7-12.8-12.8-12.8h-43c-7.1 0-12.8 5.7-12.8 12.8v7h.1z" fill="#fff"/><path d="m491.3 582.4c-10.6 0-29.8-7.5-35.9-27.6-6-16.4-3.4-35.7 6.7-50.2 7.4-10.6 17.5-16.6 27.7-16.6 3.1 0 6.2.6 9.2 1.7l.1.1.1.1c2.1 1.2 3.3 2.6 3.7 4.3.6 2.9-1.3 5.6-3.8 9-5 6.9-11.8 16.3-5.1 33.8 7.8 20.2 7.8 39.4 3 44-1 .9-3 1.4-5.7 1.4z" fill="#60a06c"/><path d="m575.6 347.6h-68.6v-6.4c0-7.4 6-13.5 13.5-13.5h41.7c7.4 0 13.5 6 13.5 13.5v6.4z" style="fill:none;stroke:#474747;stroke-width:6;stroke-linecap:round;stroke-linejoin:round;stroke-miterlimit:10"/><path d="m518.8 582.1c-3.9 0-7.5-1.5-10-4.1-2.1-2.3-3.2-5.2-3-8.3.5-8-2.2-15.6-4.8-23-2.4-6.7-4.7-13.1-4.7-19.7-.1-24.4 16.3-32.1 18.3-32.9 1.3-.8 2.8-1.2 4.4-1.2 6.5 0 14.5 6.4 20.3 16.3 3.9 6.6 15.4 30.3.3 57.5-5.5 9.8-13 15.4-20.8 15.4z" fill="#60a06c"/><g fill="#f6f9e4"><path d="m499.3 488.5c11.8 6.7-18.1 14.9-6.1 46.1 8.2 21.3 7 38.5 3.5 41.8s-30.9-.6-38.5-25.2c-12.4-33.8 14.6-72.6 41.1-62.7z"/><path d="m516.5 492.9s-17.3 6.8-17.2 31.2c0 13.6 10.5 27.3 9.5 42.8-.7 10.8 17.8 18 30.1-4.1 21.5-39-10.5-77.5-22.4-69.9z"/><path d="m488.2 630c-4.6 4.4-4.8 13.5-.7 16.8.3.2 1.8 1.5 4 1.4 3.8-.1 6.7-4.3 7.6-7.7 1.4-5.4-1.5-12.2-5.5-12.9-2.5-.4-4.7 1.7-5.4 2.4zm6.1 9.9c-.1.3-.7 2.1-2.1 2.3-.9.1-1.6-.5-1.7-.6-1.2-1.1-1.1-3.6.1-6.3.8-1.2 1.4-1.5 1.8-1.4 1.4 0 2.9 3.4 1.9 6z"/><path d="m500.4 659.9c-2.1-1.4-.3-4.6.9-31.8.3-7.5 1.9-14.3 5.8-17 .8-.5 3-2.1 5.7-1.7.6.1 1.9.3 2.9 1.4 1.9 1.9 1.3 4.8 1.2 5-.6-.3-1.7-.8-3.1-.6 0 0-1.6.3-3.1 1.9-3.8 4.1-3.4 21.3-3.4 21.3.4 14.3 1.1 19.3-1.7 21.3-1.3 1.1-3.6 1.2-5.2.2z"/><path d="m511.8 659.6c-1.8-1.2-.3-4 .8-27.5.3-6.5 1.7-12.4 5-14.7.7-.5 2.6-1.8 4.9-1.4.5.1 1.6.3 2.6 1.2 1.6 1.6 1.1 4.1 1 4.4-.5-.3-1.5-.7-2.7-.5 0 0-1.4.2-2.7 1.6-3.3 3.6-2.9 18.4-2.9 18.4.3 12.4.9 16.7-1.5 18.4-1.2.9-3.1 1-4.5.1z"/><path d="m528.6 646.4c-.9.2-2.1.2-3-.4-2.1-1.5-1.4-6.8 1.2-9.9.4-.4 2.7-3 4.8-2.3.6.2 1.4.8 1.4 1.5.1 1.7-3.4 3.6-6.5 3.8-1.7.1-3.1-.3-3.9-.6-.9 1.3-.8 2.1-.7 2.4.6 1.9 4.9 1.8 5.5 1.7.4 0 7.9-.5 9.3-5.6.5-1.9.2-4.6-1.6-6.2-2.6-2.2-6.6-.7-7.1-.4-7.1 2.8-10.3 15-6.7 18.6 2.1 2.1 7 1.8 9.4-.5 1.6-1.6 2-4.1 1.5-4.4-.3 0-1.3 1.8-3.6 2.3z"/><path d="m543.7 647.7c-.8.2-1.9.2-2.6-.3-1.9-1.4-1.1-6.1 1.1-8.8.3-.4 2-2.5 3.4-2 .7.2 1.2 1 1.2 1.7-.1 1.6-2.8 2.8-4.8 3-1.5.2-2.8-.2-3.5-.5-.8 1.1-.7 1.9-.6 2.1.5 1.5 3.4 1.7 4.9 1.5 2.6-.2 6.5-1.8 7.5-5.3.1-.4.9-3.3-.7-5.1-1.8-2-5.2-1.6-7.3-.8-5.9 2.4-8.6 12.7-5.2 16.2 2 2 6.4 2.2 8.5.3 1.5-1.3 1.8-3.6 1.4-3.9-.4-.2-1.3 1.4-3.3 1.9z"/><path d="m531.6 620.4c-.1 1.3-.5 2.9-1.7 4.1-6.9 6.6-30.7-11.9-37.4-5.3-1.5 1.4-2.7 4.6-1.9 5.5.4.4 1.1.2 2.9 0 1.6-.2 3.3-.1 4.9-.3 4-.4 10.1 2 16.4 3.4 1.6.3 14.2 2.9 17.2-.9.4-.5 2.3-3 1.5-4.6-.7-.7-1.3-1.3-1.9-1.9z"/><path d="m461.6 622.9c4.3 2.1 5.7 3.5 8.5 3.2 2.2-.3 5.1-1.6 5.9-4.2.3-1 .5-2.8-.4-3.7-1.4-1.5-4.9-.5-6.9.5 0 0-.1.1-.2.1-8.7 4.7-11.4 23.5-4.4 29.4 1.8 1.5 4.6 2.7 7.4 2 .4-.1 3.9-1 4.8-4.2.4-1.6.1-3.5-.9-4.8-1.3-1.5-3.2-1.6-3.1-2.1 0-.5 2.1-1.3 4-.8 3.6.9 6.3 6.4 5.4 11.1-.8 4-3.9 6.3-4.9 7-3.6 2.6-8.3 3.2-12.3 2-6.8-2.1-9.4-8.9-10-10.3-4.9-12.6 4.3-29.8 15.8-33.4.8-.3 7-2.2 9.6.7 2.2 2.5 1 7.6-1.5 10.4-2.8 3.2-6.8 3.4-7.9 3.5-2 .1-3.5-.3-5.5-.9-5.1-1.4-5.4-3-8.2-3.5-5.4-.8-8.8 4.4-10.6 3.1-1.6-1.2-.9-6.7 2.1-8.4 2.9-1.7 7.7.6 13.3 3.3z"/></g><g style="fill:none;stroke:#474747;stroke-width:6;stroke-linecap:round;stroke-linejoin:round;stroke-miterlimit:10"><path d="m576.7 202.4c-7.8 10.9-16.4 13.6-23 26.3-1.8 3.5-7.1 13.7-5.5 26 2.1 16.2 14.3 20.4 15.5 35 .5 6.6-1.3 14.6-8 24"/><path d="m601.7 151.1c6.1 25.3 1.7 40.9-3.5 50.5-9.5 17.5-26.8 24.3-28 41.9-.6 8.3 2.7 15.3 5.4 19.7"/><path d="m544.4 211.1s-12 14-12 26.7"/></g></svg>