<svg height="800" viewBox="0 0 1000 800" width="1000" xmlns="http://www.w3.org/2000/svg"><g transform="matrix(1.3672769 0 0 1.3672769 -181.38671 -292.29958)"><path d="m837.8 666.3h-675.6c-5 0-9-4-9-9s4-9 9-9h675.7c5 0 9 4 9 9-.1 5-4.1 9-9.1 9z" fill="#848484" opacity=".28"/><path d="m808.5 573.9c0-37.2-28.2-67.8-64.7-71.3v-8.4h-21.9v160.7h21.9v-9.7c36.4-3.5 64.7-34.1 64.7-71.3zm-64.8 48.2v-96.3c23.4 3.4 41.8 23.7 41.8 48.2 0 24.4-18.4 44.7-41.8 48.1z" fill="#f09f54"/><path d="m743.7 502.6v-8.4h-21.9v160.7h21.9v-9.7c36.5-3.5 64.7-34 64.7-71.3.1-37.2-28.2-67.8-64.7-71.3zm0 135.2v8.3h-20.5v-144.6h20.5v8.5c32.1 3.1 58 30.5 58 63.9.1 33.4-25.8 60.8-58 63.9z" fill="#f09f54" opacity=".29"/><path d="m808.5 573.9c0-37.2-28.2-67.8-64.7-71.3v-8.4h-21.9v160.7h21.9v-9.7c36.4-3.5 64.7-34.1 64.7-71.3zm-64.8 48.2v-96.3c23.4 3.4 41.8 23.7 41.8 48.2 0 24.4-18.4 44.7-41.8 48.1z" style="fill:none;stroke:#444e59;stroke-width:4;stroke-linecap:round;stroke-linejoin:round;stroke-miterlimit:10"/><path d="m730.59998 638.79999h-8.79999" style="fill:none;stroke:#444e59;stroke-width:3;stroke-linecap:round;stroke-linejoin:round;stroke-miterlimit:10"/><path d="m730.59998 622.79999h-8.79999" style="fill:none;stroke:#444e59;stroke-width:3;stroke-linecap:round;stroke-linejoin:round;stroke-miterlimit:10"/><path d="m730.59998 606.70001h-8.79999" style="fill:none;stroke:#444e59;stroke-width:3;stroke-linecap:round;stroke-linejoin:round;stroke-miterlimit:10"/><path d="m730.59998 590.59998h-8.79999" style="fill:none;stroke:#444e59;stroke-width:3;stroke-linecap:round;stroke-linejoin:round;stroke-miterlimit:10"/><path d="m730.59998 574.59998h-8.79999" style="fill:none;stroke:#444e59;stroke-width:3;stroke-linecap:round;stroke-linejoin:round;stroke-miterlimit:10"/><path d="m730.59998 558.5h-8.79999" style="fill:none;stroke:#444e59;stroke-width:3;stroke-linecap:round;stroke-linejoin:round;stroke-miterlimit:10"/><path d="m730.59998 542.40002h-8.79999" style="fill:none;stroke:#444e59;stroke-width:3;stroke-linecap:round;stroke-linejoin:round;stroke-miterlimit:10"/><path d="m730.59998 526.29999h-8.79999" style="fill:none;stroke:#444e59;stroke-width:3;stroke-linecap:round;stroke-linejoin:round;stroke-miterlimit:10"/><path d="m730.59998 510.29999h-8.79999" style="fill:none;stroke:#444e59;stroke-width:3;stroke-linecap:round;stroke-linejoin:round;stroke-miterlimit:10"/><path d="m673.29999 412.89999h33.099998v241.60001h-33.099998z" fill="#f09f54"/><path d="m673.29999 412.89999h33.099998v241.60001h-33.099998z" fill="#f09f54"/><path d="m692 412.89999h14.4v241.60001h-14.4z" fill="#f09f54" opacity=".29"/><g fill="none" stroke="#444e59" stroke-linecap="round" stroke-linejoin="round" stroke-miterlimit="10"><path d="m673.29999 412.89999h33.099998v241.60001h-33.099998z" stroke-width="4"/><g stroke-width="3"><path d="m684.79999 630.09998h-11.5"/><path d="m680.40002 641.59998h-7.10003"/><path d="m684.79999 607.09998h-11.5"/><path d="m680.40002 618.59998h-7.10003"/><path d="m684.79999 584.09998h-11.5"/><path d="m680.40002 595.59998h-7.10003"/><path d="m684.79999 561h-11.5"/><path d="m680.40002 572.5h-7.10003"/><path d="m684.79999 538h-11.5"/><path d="m680.40002 549.5h-7.10003"/><path d="m684.79999 515h-11.5"/><path d="m680.40002 526.5h-7.10003"/><path d="m684.79999 492h-11.5"/><path d="m680.40002 503.5h-7.10003"/><path d="m684.79999 469h-11.5"/><path d="m680.40002 480.5h-7.10003"/><path d="m684.79999 446h-11.5"/><path d="m680.40002 457.5h-7.10003"/><path d="m684.79999 423h-11.5"/><path d="m680.40002 434.5h-7.10003"/></g></g><path d="m612.09998 471.29999h12.9v34.099998h-12.9z" fill="#848484"/><path d="m612.09998 471.29999h4.8v34.099998h-4.8z" fill="#848484" opacity=".25"/><path d="m612.09998 471.29999h12.9v34.099998h-12.9z" style="fill:none;stroke:#444e59;stroke-width:4;stroke-linecap:round;stroke-linejoin:round;stroke-miterlimit:10"/><path d="m615.59998 505.5h5.9v16.5h-5.9z" fill="#fff"/><path d="m615.59998 505.5h5.9v16.5h-5.9z" style="fill:none;stroke:#444e59;stroke-width:4;stroke-linecap:round;stroke-linejoin:round;stroke-miterlimit:10"/><path d="m578.6 654.4 45.6-116.1-15.6-1.6z" fill="#fff"/><path d="m578.6 654.4 45.6-116.1-15.6-1.6z" style="fill:none;stroke:#444e59;stroke-width:4;stroke-linecap:round;stroke-linejoin:round;stroke-miterlimit:10"/><path d="m658.6 654.4-45.5-116.1 15.5-1.6z" fill="#fff"/><path d="m658.6 654.4-45.5-116.1 15.5-1.6z" style="fill:none;stroke:#444e59;stroke-width:4;stroke-linecap:round;stroke-linejoin:round;stroke-miterlimit:10"/><circle cx="618.59998" cy="539.79999" fill="#71a850" r="20"/><path d="m604.2 539.8c0-10.1 7.5-18.4 17.2-19.8-.9-.1-1.8-.2-2.8-.2-11 0-20 9-20 20s9 20 20 20c.9 0 1.9-.1 2.8-.2-9.7-1.4-17.2-9.7-17.2-19.8z" fill="#71a850" opacity=".4"/><circle cx="618.59998" cy="539.79999" r="20" style="fill:none;stroke:#444e59;stroke-width:4;stroke-linecap:round;stroke-linejoin:round;stroke-miterlimit:10"/><circle cx="618.59998" cy="539.79999" fill="#444e59" r="6.8"/><circle cx="618.59998" cy="539.79999" r="6.8" style="fill:none;stroke:#444e59;stroke-width:4;stroke-linecap:round;stroke-linejoin:round;stroke-miterlimit:10"/><path d="m546.4 654.2h-132c-7.7 0-14-6.3-14-14v-272c0-7.7 6.3-14 14-14h132c7.7 0 14 6.3 14 14v272c0 7.7-6.3 14-14 14z" fill="#848484"/><path d="m546.4 354.2h-8.4c7.7 0 14 6.3 14 14v272c0 7.7-6.3 14-14 14h8.5c7.7 0 14-6.3 14-14v-272c-.1-7.8-6.4-14-14.1-14z" fill="#848484" opacity=".28"/><path d="m408.7 640.2v-272c0-7.7 6.3-14 14-14h-8.3c-7.7 0-14 6.3-14 14v272c0 7.7 6.3 14 14 14h8.3c-7.7 0-14-6.3-14-14z" fill="#848484" opacity=".48"/><path d="m546.4 654.2h-132c-7.7 0-14-6.3-14-14v-272c0-7.7 6.3-14 14-14h132c7.7 0 14 6.3 14 14v272c0 7.7-6.3 14-14 14z" style="fill:none;stroke:#444e59;stroke-width:4;stroke-linecap:round;stroke-linejoin:round;stroke-miterlimit:10"/><path d="m368.39999 423.70001h224v160h-224z" fill="#e9fbff" transform="matrix(0 1 -1 0 984.1191 23.288)"/><path d="m559.6 463.9h-12.5c-6.8 0-12.3-5.5-12.3-12.3v-30.5c0-6.8 5.5-12.3 12.3-12.3h12.5z" fill="#c9c9c9"/><path d="m409.6 587.5h-9.2v-97.3h9.2c6.9 0 12.5 5.6 12.5 12.5v72.3c-.1 6.9-5.6 12.5-12.5 12.5z" fill="#c9c9c9"/><path d="m368.39999 423.70001h224v160h-224z" style="fill:none;stroke:#444e59;stroke-width:4;stroke-linecap:round;stroke-linejoin:round;stroke-miterlimit:10" transform="matrix(0 1 -1 0 984.1191 23.288)"/><path d="m502.39999 374.20001h7" style="fill:none;stroke:#444e59;stroke-width:5;stroke-linecap:round;stroke-linejoin:round;stroke-miterlimit:10"/><path d="m451.39999 374.20001h40" style="fill:none;stroke:#444e59;stroke-width:5;stroke-linecap:round;stroke-linejoin:round;stroke-miterlimit:10"/><circle cx="480.39999" cy="632.59998" fill="#848484" opacity=".29" r="11"/><circle cx="480.39999" cy="632.59998" fill="#444e59" r="8.4"/><g style="opacity:.3;fill:none;stroke:#444e59;stroke-width:2;stroke-linecap:round;stroke-linejoin:round;stroke-dasharray:4.0794 4.0794"><path d="m443.9 588.9h-16c-4.4 0-8-3.6-8-8v-16c0-4.4 3.6-8 8-8h16c4.4 0 8 3.6 8 8v16c0 4.4-3.6 8-8 8z"/><path d="m532.4 588.9h-16c-4.4 0-8-3.6-8-8v-16c0-4.4 3.6-8 8-8h16c4.4 0 8 3.6 8 8v16c0 4.4-3.6 8-8 8z"/><path d="m488.4 588.9h-16c-4.4 0-8-3.6-8-8v-16c0-4.4 3.6-8 8-8h16c4.4 0 8 3.6 8 8v16c0 4.4-3.6 8-8 8z"/><path d="m443.9 540.9h-16c-4.4 0-8-3.6-8-8v-16c0-4.4 3.6-8 8-8h16c4.4 0 8 3.6 8 8v16c0 4.4-3.6 8-8 8z"/><path d="m532.4 540.9h-16c-4.4 0-8-3.6-8-8v-16c0-4.4 3.6-8 8-8h16c4.4 0 8 3.6 8 8v16c0 4.4-3.6 8-8 8z"/><path d="m488.4 540.9h-16c-4.4 0-8-3.6-8-8v-16c0-4.4 3.6-8 8-8h16c4.4 0 8 3.6 8 8v16c0 4.4-3.6 8-8 8z"/><path d="m443.9 492.9h-16c-4.4 0-8-3.6-8-8v-16c0-4.4 3.6-8 8-8h16c4.4 0 8 3.6 8 8v16c0 4.4-3.6 8-8 8z"/><path d="m532.4 492.9h-16c-4.4 0-8-3.6-8-8v-16c0-4.4 3.6-8 8-8h16c4.4 0 8 3.6 8 8v16c0 4.4-3.6 8-8 8z"/><path d="m488.4 492.9h-16c-4.4 0-8-3.6-8-8v-16c0-4.4 3.6-8 8-8h16c4.4 0 8 3.6 8 8v16c0 4.4-3.6 8-8 8z"/><path d="m443.9 444.9h-16c-4.4 0-8-3.6-8-8v-16c0-4.4 3.6-8 8-8h16c4.4 0 8 3.6 8 8v16c0 4.4-3.6 8-8 8z"/><path d="m532.4 444.9h-16c-4.4 0-8-3.6-8-8v-16c0-4.4 3.6-8 8-8h16c4.4 0 8 3.6 8 8v16c0 4.4-3.6 8-8 8z"/><path d="m488.4 444.9h-16c-4.4 0-8-3.6-8-8v-16c0-4.4 3.6-8 8-8h16c4.4 0 8 3.6 8 8v16c0 4.4-3.6 8-8 8z"/></g><path d="m443.9 588.9h-16c-4.4 0-8-3.6-8-8v-16c0-4.4 3.6-8 8-8h16c4.4 0 8 3.6 8 8v16c0 4.4-3.6 8-8 8z" fill="#71a850"/><path d="m443.9 556.9h-16c-3.2 0-6 1.9-7.2 4.6l31.2 5.6v-2.2c0-4.4-3.6-8-8-8z" fill="#5f8c42" opacity=".52"/><path d="m443.9 588.9h-16c-4.4 0-8-3.6-8-8v-16c0-4.4 3.6-8 8-8h16c4.4 0 8 3.6 8 8v16c0 4.4-3.6 8-8 8z" style="fill:none;stroke:#444e59;stroke-width:4;stroke-linecap:round;stroke-linejoin:round;stroke-miterlimit:10"/><path d="m488.4 588.9h-16c-4.4 0-8-3.6-8-8v-16c0-4.4 3.6-8 8-8h16c4.4 0 8 3.6 8 8v16c0 4.4-3.6 8-8 8z" fill="#f09f54"/><path d="m488.4 556.9h-16c-3.2 0-6 1.9-7.2 4.6l31.2 5.6v-2.2c0-4.4-3.6-8-8-8z" fill="#d38444" opacity=".52"/><path d="m488.4 588.9h-16c-4.4 0-8-3.6-8-8v-16c0-4.4 3.6-8 8-8h16c4.4 0 8 3.6 8 8v16c0 4.4-3.6 8-8 8z" style="fill:none;stroke:#444e59;stroke-width:4;stroke-linecap:round;stroke-linejoin:round;stroke-miterlimit:10"/><path d="m532.4 540.9h-16c-4.4 0-8-3.6-8-8v-16c0-4.4 3.6-8 8-8h16c4.4 0 8 3.6 8 8v16c0 4.4-3.6 8-8 8z" fill="#2fa9ed"/><path d="m532.4 508.9h-16c-3.2 0-6 1.9-7.2 4.6l31.2 5.6v-2.2c0-4.4-3.6-8-8-8z" fill="#288fbc" opacity=".52"/><path d="m532.4 540.9h-16c-4.4 0-8-3.6-8-8v-16c0-4.4 3.6-8 8-8h16c4.4 0 8 3.6 8 8v16c0 4.4-3.6 8-8 8z" style="fill:none;stroke:#444e59;stroke-width:4;stroke-linecap:round;stroke-linejoin:round;stroke-miterlimit:10"/><path d="m488.4 492.9h-16c-4.4 0-8-3.6-8-8v-16c0-4.4 3.6-8 8-8h16c4.4 0 8 3.6 8 8v16c0 4.4-3.6 8-8 8z" fill="#e7534e"/><path d="m488.4 460.9h-16c-3.2 0-6 1.9-7.2 4.6l31.2 5.6v-2.2c0-4.4-3.6-8-8-8z" fill="#bf4040" opacity=".52"/><path d="m488.4 492.9h-16c-4.4 0-8-3.6-8-8v-16c0-4.4 3.6-8 8-8h16c4.4 0 8 3.6 8 8v16c0 4.4-3.6 8-8 8z" style="fill:none;stroke:#444e59;stroke-width:4;stroke-linecap:round;stroke-linejoin:round;stroke-miterlimit:10"/><path d="m521.8 517.9 9.2 5.3c1.3.8 1.3 2.7 0 3.4l-9.2 5.3c-1.3.8-3-.2-3-1.7v-10.6c0-1.5 1.7-2.5 3-1.7z" fill="#fff"/><path d="m484.6 566.7h-8.4c-1.8 0-3.2 1.5-3.2 3.2v6.2c0 1.8 1.5 3.2 3.2 3.2h.3l-.7 2.8c-.1.2.2.4.4.2l4.3-3h4.3c1.8 0 3.2-1.5 3.2-3.2v-6.2c-.1-1.8-1.6-3.2-3.4-3.2z" fill="#fff"/><path d="m429.7 572.9 3.7 3.7c.5.5 1.3.5 1.8 0l8.3-8.3" style="fill:none;stroke:#fff;stroke-width:4;stroke-linecap:round;stroke-linejoin:round;stroke-miterlimit:10"/><circle cx="480.39999" cy="476.89999" r="7.5" style="fill:none;stroke:#fff;stroke-width:4;stroke-linecap:round;stroke-linejoin:round;stroke-miterlimit:10"/><path d="m420 437.9-.2-15-10 .1c-.6-1.9-1.3-3.6-2.3-5.3l7-7.2-10.7-10.5-7 7.2c-1.7-.9-3.5-1.6-5.4-2.1l-.1-10-15 .2.1 10c-1.9.6-3.6 1.3-5.3 2.3l-7.2-7-10.5 10.7 7.2 7c-.9 1.7-1.6 3.5-2.1 5.4l-10 .1.2 15 10-.1c.6 1.9 1.3 3.6 2.3 5.3l-7 7.2 10.7 10.5 7-7.2c1.7.9 3.5 1.6 5.4 2.1l.1 10 15-.2-.1-10c1.9-.6 3.6-1.3 5.3-2.3l7.2 7 10.5-10.7-7.2-7c.9-1.7 1.6-3.5 2.1-5.4zm-35.5 4.6c-6.5.1-11.7-5.1-11.8-11.6s5.1-11.7 11.6-11.8 11.7 5.1 11.8 11.6c0 6.5-5.2 11.7-11.6 11.8z" fill="#fff"/><path d="m420 437.9-.2-15-10 .1c-.6-1.9-1.3-3.6-2.3-5.3l7-7.2-10.7-10.5-7 7.2c-1.7-.9-3.5-1.6-5.4-2.1l-.1-10-15 .2.1 10c-1.9.6-3.6 1.3-5.3 2.3l-7.2-7-10.5 10.7 7.2 7c-.9 1.7-1.6 3.5-2.1 5.4l-10 .1.2 15 10-.1c.6 1.9 1.3 3.6 2.3 5.3l-7 7.2 10.7 10.5 7-7.2c1.7.9 3.5 1.6 5.4 2.1l.1 10 15-.2-.1-10c1.9-.6 3.6-1.3 5.3-2.3l7.2 7 10.5-10.7-7.2-7c.9-1.7 1.6-3.5 2.1-5.4zm-35.5 4.6c-6.5.1-11.7-5.1-11.8-11.6s5.1-11.7 11.6-11.8 11.7 5.1 11.8 11.6c0 6.5-5.2 11.7-11.6 11.8z" fill="#f09f54"/><path d="m420 437.9-.2-15-10 .1c-.6-1.9-1.3-3.6-2.3-5.3l7-7.2-10.7-10.5-7 7.2c-1.7-.9-3.5-1.6-5.4-2.1l-.1-10-15 .2.1 10c-1.9.6-3.6 1.3-5.3 2.3l-7.2-7-10.5 10.7 7.2 7c-.9 1.7-1.6 3.5-2.1 5.4l-10 .1.2 15 10-.1c.6 1.9 1.3 3.6 2.3 5.3l-7 7.2 10.7 10.5 7-7.2c1.7.9 3.5 1.6 5.4 2.1l.1 10 15-.2-.1-10c1.9-.6 3.6-1.3 5.3-2.3l7.2 7 10.5-10.7-7.2-7c.9-1.7 1.6-3.5 2.1-5.4zm-35.5 4.6c-6.5.1-11.7-5.1-11.8-11.6s5.1-11.7 11.6-11.8 11.7 5.1 11.8 11.6c0 6.5-5.2 11.7-11.6 11.8z" fill="#f09f54"/><g fill="#f09f54" opacity=".29"><path d="m416.2 423s0 .1 0 0h3.7v-.1z"/><path d="m403.2 407.3 3.9-4-3.2-3.2-5.2 5.3c1.6.5 3.1 1.1 4.5 1.9z"/><path d="m390.5 419.1c-1.1 0-2.1.2-3 .4 4.9 1.4 8.5 5.8 8.5 11.1.1 5.4-3.6 10-8.5 11.4 1 .3 2.2.5 3.3.4 6.5-.1 11.6-5.4 11.6-11.8s-5.4-11.5-11.9-11.5z"/><path d="m375.6 405.6 2 1.9c1.7-.9 3.4-1.7 5.3-2.3l-.1-10 8.6-.1v-.1l-15 .2.1 10c-.2.2-.6.3-.9.4z"/><path d="m383.4 456.5c-1.9-.5-3.7-1.2-5.4-2.1l-1.8 1.9.9.3.1 10 6.3-.1z"/><path d="m355 423.7 10-.1c.5-1.9 1.2-3.7 2.1-5.4l-7.2-7 7.4-7.5-3.2-3.2-10.5 10.7 7.2 7c-.9 1.7-1.6 3.5-2.1 5.4l-10 .1.2 15 6.3-.1z"/><path d="m403.7 454.1c-1.4.8-2.8 1.4-4.3 1.9l5.2 5.1 3.1-3.2z"/><path d="m360.4 451 7-7.2c-.9-1.7-1.7-3.4-2.3-5.3l-6.3.1c.6 1.8 1.3 3.6 2.2 5.2l-7 7.2 10.7 10.5 3.1-3.2z"/></g><path d="m420 437.9-.2-15-10 .1c-.6-1.9-1.3-3.6-2.3-5.3l7-7.2-10.7-10.5-7 7.2c-1.7-.9-3.5-1.6-5.4-2.1l-.1-10-15 .2.1 10c-1.9.6-3.6 1.3-5.3 2.3l-7.2-7-10.5 10.7 7.2 7c-.9 1.7-1.6 3.5-2.1 5.4l-10 .1.2 15 10-.1c.6 1.9 1.3 3.6 2.3 5.3l-7 7.2 10.7 10.5 7-7.2c1.7.9 3.5 1.6 5.4 2.1l.1 10 15-.2-.1-10c1.9-.6 3.6-1.3 5.3-2.3l7.2 7 10.5-10.7-7.2-7c.9-1.7 1.6-3.5 2.1-5.4zm-35.5 4.6c-6.5.1-11.7-5.1-11.8-11.6s5.1-11.7 11.6-11.8 11.7 5.1 11.8 11.6c0 6.5-5.2 11.7-11.6 11.8z" style="fill:none;stroke:#444e59;stroke-width:4;stroke-linecap:round;stroke-linejoin:round;stroke-miterlimit:10"/><path d="m357.5 654.2h-123.7c-4.1 0-7.4-3.3-7.4-7.4v-84.6c0-4.1 3.3-7.4 7.4-7.4h123.8c4.1 0 7.4 3.3 7.4 7.4v84.6c-.1 4.1-3.4 7.4-7.5 7.4z" fill="#444e59"/><path d="m364.9 570.9h-138.5v-8.7c0-4.1 3.3-7.4 7.4-7.4h123.8c4.1 0 7.4 3.3 7.4 7.4v8.7z" fill="#bcbcbc"/><g fill="none" stroke-linecap="round" stroke-linejoin="round" stroke-miterlimit="10" stroke-width="4"><g stroke="#444e59"><path d="m357.5 654.2h-123.7c-4.1 0-7.4-3.3-7.4-7.4v-84.6c0-4.1 3.3-7.4 7.4-7.4h123.8c4.1 0 7.4 3.3 7.4 7.4v84.6c-.1 4.1-3.4 7.4-7.5 7.4z"/><path d="m357.5 654.2h-123.7c-4.1 0-7.4-3.3-7.4-7.4v-84.6c0-4.1 3.3-7.4 7.4-7.4h123.8c4.1 0 7.4 3.3 7.4 7.4v84.6c-.1 4.1-3.4 7.4-7.5 7.4z"/><path d="m364.9 570.9h-138.5v-8.7c0-4.1 3.3-7.4 7.4-7.4h123.8c4.1 0 7.4 3.3 7.4 7.4v8.7z"/></g><g stroke="#fff"><path d="m245.5 641.5h15.60001"/><path d="m234.5 641.5h1.10001"/><path d="m245.5 632.90002h39.5"/><path d="m234.5 632.90002h1.10001"/></g><path d="m303.79999 624.20001h10.80002" stroke="#64bdff"/><path d="m274.39999 624.20001h20" stroke="#fff"/><path d="m245.5 624.20001h19.79999" stroke="#ff5f5f"/><path d="m234.5 624.20001h1.10001" stroke="#fff"/><path d="m278.79999 615.59998h48.20001" stroke="#fff"/><path d="m245.5 615.59998h25.20001" stroke="#64bdff"/><path d="m234.5 615.59998h1.10001" stroke="#fff"/><path d="m278.79999 607h18" stroke="#ff5f5f"/><path d="m245.5 607h25.20001" stroke="#ffbe78"/><path d="m234.5 607h1.10001" stroke="#fff"/><path d="m282.29999 598.40002h4.90002" stroke="#64bdff"/><path d="m263.29999 598.40002h11.1" stroke="#ff5f5f"/><path d="m245.5 598.40002h9.2" stroke="#c383f2"/><path d="m234.5 598.40002h1.10001" stroke="#fff"/><path d="m318.29999 589.70001h8.70001" stroke="#64bdff"/><path d="m273.20001 589.70001h34.09998" stroke="#ff5f5f"/><path d="m245.5 589.70001h20.29999" stroke="#ffbe78"/><path d="m234.5 589.70001h1.10001" stroke="#fff"/><path d="m296.79999 581.09998h17.80002" stroke="#ffbe78"/><path d="m274.39999 581.09998h13.80002" stroke="#6dbf7b"/><path d="m259.39999 581.09998h7.80002" stroke="#ffbe78"/><path d="m245.5 581.09998h6.39999" stroke="#6dbf7b"/><path d="m234.5 581.09998h1.10001" stroke="#fff"/></g><circle cx="240.10001" cy="562.90002" fill="#e7534e" r="2.5"/><circle cx="249.10001" cy="562.90002" fill="#444e59" r="2.5"/><circle cx="258.20001" cy="562.90002" fill="#444e59" r="2.5"/><path d="m406.8 579.7h-89.6c-4.4 0-8-3.6-8-8v-80.9c0-4.4 3.6-8 8-8h89.6c4.4 0 8 3.6 8 8v80.9c0 4.4-3.6 8-8 8z" fill="#fff"/><path d="m406.8 579.7h-89.6c-4.4 0-8-3.6-8-8v-80.9c0-4.4 3.6-8 8-8h89.6c4.4 0 8 3.6 8 8v80.9c0 4.4-3.6 8-8 8z" fill="#fff"/><path d="m406.8 579.7h-89.6c-4.4 0-8-3.6-8-8v-80.9c0-4.4 3.6-8 8-8h89.6c4.4 0 8 3.6 8 8v80.9c0 4.4-3.6 8-8 8z" style="fill:none;stroke:#444e59;stroke-width:4;stroke-linecap:round;stroke-linejoin:round;stroke-miterlimit:10"/><path d="m318.29999 491h86.800003v57.700001h-86.800003z" fill="#9483c4"/><path d="m318.29999 491h86.800003v57.700001h-86.800003z" style="fill:none;stroke:#444e59;stroke-width:4;stroke-linecap:round;stroke-linejoin:round;stroke-miterlimit:10"/><path d="m318.29999 557.90002h54.80002" style="fill:none;stroke:#444e59;stroke-width:4;stroke-linecap:round;stroke-linejoin:round;stroke-miterlimit:10"/><path d="m318.29999 567.09998h32.40002" style="fill:none;stroke:#444e59;stroke-width:4;stroke-linecap:round;stroke-linejoin:round;stroke-miterlimit:10"/><path d="m327 538.4 18.7-18.5 17.4 17.4" style="fill:none;stroke:#444e59;stroke-width:4;stroke-linecap:round;stroke-linejoin:round;stroke-miterlimit:10"/><path d="m395.7 538.4-22.6-29.5-18.1 20.2" style="fill:none;stroke:#444e59;stroke-width:4;stroke-linecap:round;stroke-linejoin:round;stroke-miterlimit:10"/><circle cx="395.5" cy="562.09998" r="4.9" style="fill:none;stroke:#444e59;stroke-width:4;stroke-linecap:round;stroke-linejoin:round;stroke-miterlimit:10"/><circle cx="351.20001" cy="508.89999" fill="#f09f54" r="6.2"/><g fill="none"><circle cx="351.20001" cy="508.89999" r="6.2" stroke="#444e59" stroke-linecap="round" stroke-linejoin="round" stroke-miterlimit="10" stroke-width="4"/><path d="m307.5 454.29999h26.79999" stroke="#444e59" stroke-linecap="round" stroke-linejoin="round" stroke-miterlimit="10" stroke-width="4"/><path d="m293.20001 454.29999h7.09998" stroke="#444e59" stroke-linecap="round" stroke-linejoin="round" stroke-miterlimit="10" stroke-width="4"/><path d="m320.89999 441.89999h13.4" stroke="#444e59" stroke-linecap="round" stroke-linejoin="round" stroke-miterlimit="10" stroke-width="4"/><path d="m310.10001 441.89999h4" stroke="#444e59" stroke-linecap="round" stroke-linejoin="round" stroke-miterlimit="10" stroke-width="4"/><path d="m278.5 532.70001h20.89999" stroke="#444e59" stroke-linecap="round" stroke-linejoin="round" stroke-miterlimit="10" stroke-width="4"/><path d="m267.39999 532.70001h5.5" stroke="#444e59" stroke-linecap="round" stroke-linejoin="round" stroke-miterlimit="10" stroke-width="4"/><path d="m290.89999 520.29999h8.5" stroke="#444e59" stroke-linecap="round" stroke-linejoin="round" stroke-miterlimit="10" stroke-width="4"/><path d="m280.5 520.29999h3.20001" stroke="#444e59" stroke-linecap="round" stroke-linejoin="round" stroke-miterlimit="10" stroke-width="4"/><path d="m611.79999 387.60001h19.79999" stroke="#444e59" stroke-linecap="round" stroke-linejoin="round" stroke-miterlimit="10" stroke-width="4"/><path d="m599.59998 387.60001h5.60003" stroke="#444e59" stroke-linecap="round" stroke-linejoin="round" stroke-miterlimit="10" stroke-width="4"/><path d="m623.09998 375.20001h8.5" stroke="#444e59" stroke-linecap="round" stroke-linejoin="round" stroke-miterlimit="10" stroke-width="4"/><path d="m612.79999 375.20001h3.10003" stroke="#444e59" stroke-linecap="round" stroke-linejoin="round" stroke-miterlimit="10" stroke-width="4"/></g><path d="m627.2 457.5h-78.2c-4.8 0-8.6-3.9-8.6-8.6v-37.9c0-4.8 3.9-8.6 8.6-8.6h78.2c4.8 0 8.6 3.9 8.6 8.6v37.8c0 4.8-3.8 8.7-8.6 8.7z" fill="#2fa9ed"/><path d="m627.2 457.5h-78.2c-4.8 0-8.6-3.9-8.6-8.6v-37.9c0-4.8 3.9-8.6 8.6-8.6h78.2c4.8 0 8.6 3.9 8.6 8.6v37.8c0 4.8-3.8 8.7-8.6 8.7z" style="fill:none;stroke:#444e59;stroke-width:3;stroke-linecap:round;stroke-linejoin:round;stroke-miterlimit:10"/><path d="m588.09998 417.20001h33.80004" style="opacity:.56;fill:none;stroke:#fff;stroke-width:3;stroke-linecap:round;stroke-linejoin:round;stroke-miterlimit:10"/><path d="m588.09998 428.10001h22.40002" style="opacity:.56;fill:none;stroke:#fff;stroke-width:3;stroke-linecap:round;stroke-linejoin:round;stroke-miterlimit:10"/><g opacity=".56"><path d="m605.1 444.4h-13.6c-1.8 0-3.3-1.5-3.3-3.3s1.5-3.3 3.3-3.3h13.6c1.8 0 3.3 1.5 3.3 3.3s-1.4 3.3-3.3 3.3z" fill="#fff"/><path d="m605.1 444.4h-13.6c-1.8 0-3.3-1.5-3.3-3.3s1.5-3.3 3.3-3.3h13.6c1.8 0 3.3 1.5 3.3 3.3s-1.4 3.3-3.3 3.3z" style="fill:none;stroke:#fff;stroke-width:3;stroke-linecap:round;stroke-linejoin:round;stroke-miterlimit:10"/></g><path d="m574 444.9h-17.9c-2.6 0-4.6-2.1-4.6-4.6v-20.9c0-2.6 2.1-4.6 4.6-4.6h17.9c2.6 0 4.6 2.1 4.6 4.6v20.9c0 2.5-2 4.6-4.6 4.6z" style="fill:none;stroke:#fff;stroke-width:3;stroke-linecap:round;stroke-linejoin:round;stroke-miterlimit:10"/><circle cx="565.09998" cy="426.39999" r="4.8" style="fill:none;stroke:#fff;stroke-width:3;stroke-linecap:round;stroke-linejoin:round;stroke-miterlimit:10"/><path d="m556 444.4c0-5 4.1-9.1 9.1-9.1s9.1 4.1 9.1 9.1" style="fill:none;stroke:#fff;stroke-width:3;stroke-linecap:round;stroke-linejoin:round;stroke-miterlimit:10"/></g></svg>