<svg enable-background="new 0 0 128 128" height="128" viewBox="0 0 128 128" width="128" xmlns="http://www.w3.org/2000/svg"><g fill="#fff" opacity=".2"><path d="m97.661 52.354-44.871-18.796c-1.015-.443-2.114-.524-2.842-.524-.731 0-1.828.081-2.842.524l-44.873 18.796c-1.421.566-2.233 1.654-2.233 2.904 0 1.252.812 2.34 2.233 2.904l16 6.695v18.838c0 .602.244 1.168.69 1.609.446.442 1.015.687 1.624.687.163 0 15.35.161 28.589 13.554.447.443 1.016.688 1.623.688h.204c.691-.041 1.299-.404 1.707-.967.174-.229 10.275-17.035 32.404-17.748 1.26-.041 2.232-1.049 2.232-2.299v-16.659l10.479-4.356c1.382-.564 2.232-1.653 2.232-2.904-.121-1.292-.934-2.38-2.356-2.946zm-16.638 23.903c-8.447.728-14.412 2.593-21.844 8.4-3.655 2.864-7.121 6.469-8.665 8.284-11.044-10.164-20.461-11.681-25.333-12.166v-13.201l21.924 9.383c1.016.443 2.111.525 2.842.525.73 0 1.828-.082 2.843-.525l29.021-11.682v10.199zm-30.806-5.878c.624.081.218.16-.269.16s-.894-.082-1.056-.16l-39.426-15.121 39.427-15.902c.161-.081.568-.162 1.055-.162s.893.082 1.056.162l38.637 15.902z"/><path d="m47.511 50.378 22.295 18.108.648 42.514 4.224-12.906 4.59 5.041-.041-39.044z"/></g></svg>