<?xml version="1.0" encoding="utf-8"?>
<!DOCTYPE svg PUBLIC "-//W3C//DTD SVG 1.1//EN" "http://www.w3.org/Graphics/SVG/1.1/DTD/svg11.dtd">
<svg version="1.1" id="Layer_1" xmlns="http://www.w3.org/2000/svg"  x="0px" y="0px"
	 width="128px" height="128px" viewBox="0 0 128 128" enable-background="new 0 0 128 128" xml:space="preserve">
<g opacity="0.2">
	<path fill="#FFFFFF" d="M97.661,52.354L52.79,33.558c-1.015-0.443-2.114-0.524-2.842-0.524c-0.731,0-1.828,0.081-2.842,0.524
		L2.233,52.354C0.812,52.92,0,54.008,0,55.258c0,1.252,0.812,2.34,2.233,2.904l16,6.696v18.837c0,0.602,0.244,1.169,0.69,1.61
		c0.446,0.442,1.015,0.686,1.624,0.686c0.163,0,15.35,0.162,28.589,13.554c0.447,0.443,1.016,0.688,1.623,0.688
		c0.082,0,0.123,0,0.204,0c0.691-0.042,1.299-0.405,1.707-0.967c0.174-0.23,10.275-17.035,32.404-17.749
		c1.26-0.04,2.233-1.048,2.233-2.298V62.56l10.478-4.356c1.382-0.564,2.232-1.653,2.232-2.904
		C99.896,54.008,99.083,52.92,97.661,52.354z M81.023,76.257c-8.447,0.728-14.411,2.593-21.844,8.4
		c-3.655,2.864-7.121,6.469-8.665,8.284C39.47,82.777,30.053,81.26,25.181,80.776V67.574l21.924,9.383
		c1.016,0.443,2.111,0.525,2.842,0.525c0.73,0,1.828-0.081,2.843-0.525l29.02-11.681v10.199L81.023,76.257z M50.217,70.379
		c0.624,0.081,0.218,0.16-0.269,0.16s-0.894-0.082-1.056-0.16L9.466,55.258l39.427-15.902c0.161-0.081,0.568-0.162,1.055-0.162
		s0.893,0.082,1.056,0.162l38.636,15.902L50.217,70.379z"/>
	<polygon fill="#FFFFFF" points="47.511,50.378 69.806,68.486 70.454,111 74.678,98.093 79.267,103.135 79.226,64.091 	"/>
</g>
</svg>
