<svg enable-background="new -0.063 0 128.125 128" height="128" viewBox="-.063 0 128.125 128" width="128.125" xmlns="http://www.w3.org/2000/svg"><g fill="#fff"><g opacity=".2"><path d="m61.389 94.87c0 2.812 2.282 5.092 5.095 5.092 2.811 0 5.092-2.28 5.092-5.092v-8.225h-10.176v8.225z"/><path d="m61.389 5.094v8.224h10.176v-8.224c0-2.812-2.28-5.094-5.092-5.094-2.813 0-5.084 2.282-5.084 5.094z"/><path d="m44.825 5.094v8.224h10.187v-8.224c-.001-2.812-2.282-5.094-5.094-5.094s-5.093 2.282-5.093 5.094z"/><path d="m44.825 94.87c0 2.812 2.281 5.092 5.094 5.092 2.812 0 5.093-2.28 5.093-5.092v-8.225h-10.187z"/><path d="m28.271 5.094v8.224h10.177v-8.224c-.001-2.812-2.282-5.094-5.094-5.094-2.813 0-5.083 2.282-5.083 5.094z"/><path d="m28.271 94.87c0 2.812 2.282 5.092 5.093 5.092 2.812 0 5.094-2.28 5.094-5.092v-8.225h-10.187z"/><path d="m-.063 66.536c0 2.812 2.282 5.094 5.094 5.094h8.224v-10.177h-8.224c-2.812 0-5.094 2.272-5.094 5.083z"/><path d="m94.806 61.453h-8.225v10.177h8.225c2.813 0 5.094-2.282 5.094-5.094s-2.281-5.083-5.094-5.083z"/><path d="m-.063 49.981c0 2.812 2.282 5.094 5.094 5.094h8.224v-10.187h-8.224c-2.812 0-5.094 2.281-5.094 5.093z"/><path d="m94.806 44.888h-8.225v10.188h8.225c2.813 0 5.094-2.281 5.094-5.094s-2.281-5.094-5.094-5.094z"/><path d="m-.063 33.427c0 2.812 2.282 5.094 5.094 5.094h8.224v-10.188h-8.224c-2.812 0-5.094 2.282-5.094 5.094z"/><path d="m94.806 28.333h-8.225v10.177h8.225c2.813 0 5.094-2.282 5.094-5.094-.001-2.812-2.281-5.083-5.094-5.083z"/></g><path d="m18.147 76.446c0 2.929 2.376 5.306 5.306 5.306h52.931c2.929 0 5.306-2.377 5.306-5.306v-52.93c0-2.93-2.377-5.306-5.306-5.306h-52.931c-2.93 0-5.306 2.376-5.306 5.306z" opacity=".4"/></g></svg>