<?xml version="1.0" encoding="utf-8"?>
<!DOCTYPE svg PUBLIC "-//W3C//DTD SVG 1.1//EN" "http://www.w3.org/Graphics/SVG/1.1/DTD/svg11.dtd">
<svg version="1.1" id="Layer_1" xmlns="http://www.w3.org/2000/svg" xmlns:xlink="http://www.w3.org/1999/xlink" x="0px" y="0px"
	 width="128px" height="128px" viewBox="0 0 128 128" enable-background="new 0 0 128 128" xml:space="preserve">
<g opacity="0.2">
	<g id="Group">
		<path id="Shape" fill="#FFFFFF" d="M40.652,25c8.208,0,15.834-0.757,22.223-2.042c1.452-0.505,2.948-0.846,4.471-1.051
			c8.537-2.293,13.957-5.654,13.957-9.406C81.303,5.602,63.105,0,40.652,0C18.199,0,0,5.602,0,12.501C0,19.396,18.199,25,40.652,25
			L40.652,25z"/>
		<path id="Shape_1_" fill="#FFFFFF" d="M40.107,49.99V43.61h6.222c0.76-4.855,2.717-9.283,5.66-12.906
			c-5.579,0.494-9.976,0.546-11.337,0.546C37,31.251,11.608,30.907,0,22.507v14.992C0,44.338,17.906,49.9,40.107,49.99L40.107,49.99
			z"/>
		<path id="Shape_2_" fill="#FFFFFF" d="M40.652,74.998c8.217,0,15.854-0.757,22.248-2.044c-4.771-1.665-9.042-4.845-12.092-9.241
			c-1.618-2.333-2.816-4.905-3.624-7.666c-3.21,0.176-5.592,0.201-6.532,0.201C37,56.248,11.608,55.906,0,47.509v14.989
			C0,69.394,18.199,74.998,40.652,74.998L40.652,74.998z"/>
		<path id="Shape_3_" fill="#FFFFFF" d="M80.432,73.065c-11.951,7.834-36.214,8.183-39.78,8.183c-3.652,0-29.044-0.34-40.652-8.74
			v14.986C0,94.393,18.199,100,40.652,100s40.651-5.607,40.651-12.506V76.036l-0.023-0.033
			C80.67,75.125,80.404,74.084,80.432,73.065L80.432,73.065z"/>
	</g>
	<g id="_x33_0_2_" transform="translate(218.000000, 118.000000)">
		<path id="Shape_4_" fill="#FFFFFF" d="M-118.203-34.946l-9.766-14.079c-0.344-0.487-0.98-0.589-1.434-0.225l-1.162,0.938
			l-0.814-1.171l-1.008-1.454l0.48-0.386c0.311-0.253,0.375-0.729,0.145-1.061l-1.041-1.504c7.383-7.836,8.447-20.519,2.072-29.709
			c-6.969-10.037-20.182-12.094-29.502-4.598c-4.758,3.82-7.57,9.39-8.284,15.26h4.169c0.686-4.512,2.91-8.749,6.584-11.703
			c3.751-3.011,8.282-4.109,12.573-3.442c4.297,0.67,8.35,3.108,11.156,7.144c2.795,4.036,3.811,8.907,3.193,13.531
			c-0.623,4.622-2.889,8.984-6.637,11.999c-3.75,3.014-8.277,4.108-12.572,3.438c-4.296-0.669-8.349-3.101-11.151-7.137
			c-1.445-2.081-2.405-4.386-2.924-6.763h-4.196c0.569,3.31,1.814,6.538,3.812,9.419c6.494,9.361,18.418,11.778,27.557,5.987
			l0.926,1.336l0.078,0.104c0.229,0.337,0.67,0.407,0.982,0.155l0.484-0.386l0.916,1.318l0.902,1.303l-1.164,0.941
			c-0.447,0.363-0.545,1.046-0.207,1.532l9.77,14.084c0.33,0.479,0.975,0.574,1.424,0.222l4.432-3.569
			C-117.957-33.78-117.867-34.464-118.203-34.946L-118.203-34.946z"/>
		<path id="Shape_5_" fill="#FFFFFF" d="M-139.016-80.616c-0.197-0.528-0.662-0.87-1.221-0.87c-0.535,0.013-1.014,0.384-1.188,0.925
			l-3.682,11.162l-1.828-4.239c-0.207-0.485-0.664-0.799-1.215-0.799l0,0c-0.518,0.026-0.965,0.374-1.145,0.888l-3.09,8.715
			l-1.259-4.937c-0.162-0.594-0.667-1.014-1.249-1.014h-19.653v2.764h18.677l2.048,7.998c0.153,0.578,0.621,0.978,1.042,0.99
			l0.191,0.02c0.537,0,1.016-0.36,1.201-0.888l3.408-9.604l1.871,4.342c0.215,0.484,0.668,0.8,1.229,0.8l0,0
			c0.52-0.032,0.969-0.393,1.146-0.92l3.59-10.883l4.262,11.597l1.287-0.266v-3.617L-139.016-80.616L-139.016-80.616z"/>
	</g>
</g>
</svg>
