<svg enable-background="new 0 0 128 128" height="128" viewBox="0 0 128 128" width="128" xmlns="http://www.w3.org/2000/svg"><g fill="#fff" opacity=".2"><path d="m40.652 25c8.208 0 15.834-.757 22.223-2.042 1.452-.505 2.947-.846 4.471-1.051 8.537-2.293 13.957-5.654 13.957-9.406 0-6.899-18.198-12.501-40.651-12.501s-40.652 5.602-40.652 12.501c0 6.895 18.199 12.499 40.652 12.499z"/><path d="m40.107 49.99v-6.38h6.222c.76-4.855 2.717-9.283 5.66-12.906-5.579.494-9.976.546-11.337.546-3.652.001-29.044-.343-40.652-8.743v14.992c0 6.839 17.906 12.401 40.107 12.491z"/><path d="m40.652 74.998c8.217 0 15.854-.757 22.248-2.044-4.771-1.665-9.042-4.845-12.092-9.241-1.618-2.333-2.816-4.905-3.624-7.666-3.21.176-5.592.201-6.532.201-3.652 0-29.044-.342-40.652-8.739v14.989c0 6.897 18.199 12.5 40.652 12.5z"/><path d="m80.432 73.064c-11.951 7.834-36.214 8.184-39.78 8.184-3.652 0-29.044-.34-40.652-8.74v14.986c0 6.899 18.199 12.506 40.652 12.506s40.651-5.607 40.651-12.506v-11.458l-.023-.033c-.61-.878-.876-1.919-.848-2.939z"/><g transform="translate(218 118)"><path d="m-118.203-34.945-9.766-14.08c-.344-.486-.98-.588-1.434-.225l-1.162.938-.814-1.17-1.008-1.455.479-.385c.312-.254.375-.73.146-1.062l-1.041-1.504c7.383-7.836 8.447-20.519 2.072-29.709-6.97-10.037-20.183-12.094-29.502-4.598-4.758 3.82-7.57 9.39-8.284 15.26h4.169c.686-4.512 2.91-8.749 6.584-11.703 3.751-3.011 8.282-4.109 12.573-3.442 4.297.67 8.351 3.108 11.156 7.144 2.795 4.036 3.811 8.907 3.193 13.531-.623 4.622-2.889 8.984-6.637 11.999-3.75 3.013-8.277 4.108-12.572 3.437-4.296-.668-8.349-3.1-11.151-7.136-1.445-2.081-2.405-4.386-2.924-6.763h-4.196c.569 3.31 1.814 6.538 3.812 9.419 6.494 9.361 18.418 11.778 27.557 5.987l.926 1.336.078.104c.229.336.67.406.982.154l.484-.386.916 1.317.901 1.304-1.164.94c-.446.363-.545 1.047-.207 1.532l9.771 14.084c.33.479.975.574 1.424.222l4.432-3.568c.453-.356.543-1.041.207-1.522z"/><path d="m-139.016-80.616c-.197-.528-.662-.87-1.221-.87-.535.013-1.015.384-1.188.925l-3.683 11.162-1.828-4.239c-.207-.485-.664-.799-1.215-.799-.518.026-.965.374-1.145.888l-3.09 8.715-1.259-4.937c-.162-.594-.667-1.014-1.249-1.014h-19.653v2.764h18.677l2.048 7.998c.153.578.621.978 1.042.99l.191.02c.537 0 1.016-.36 1.201-.888l3.408-9.604 1.871 4.342c.215.484.668.8 1.229.8.52-.032.969-.393 1.146-.92l3.59-10.883 4.262 11.597 1.287-.266v-3.617z"/></g></g></svg>