<svg enable-background="new 0 0 128 128" height="128" viewBox="0 0 128 128" width="128" xmlns="http://www.w3.org/2000/svg"><g fill="#fff"><g opacity=".2"><path d="m35.691 14.283c-.825 0-1.505.668-1.505 1.505 0 .825.68 1.506 1.505 1.506.838 0 1.505-.682 1.505-1.506.001-.836-.667-1.505-1.505-1.505z"/><path d="m85.623 17.295c.838 0 1.507-.682 1.507-1.506 0-.837-.669-1.505-1.507-1.505-.837 0-1.505.668-1.505 1.505 0 .824.668 1.506 1.505 1.506z"/><path d="m35.691 81.901c-.825 0-1.505.67-1.505 1.506 0 .825.68 1.506 1.505 1.506.838 0 1.505-.681 1.505-1.506.001-.836-.667-1.506-1.505-1.506z"/><path d="m85.623 84.913c.838 0 1.507-.681 1.507-1.506 0-.836-.669-1.505-1.507-1.505-.837 0-1.505.669-1.505 1.505 0 .825.668 1.506 1.505 1.506z"/><path d="m81.513 0h-41.698c-10.107 0-18.329 8.222-18.329 18.329v62.829c0 10.106 8.222 18.341 18.329 18.341h14.767v-2.763-2.841h4.583v2.841 2.763h5.643v-2.763-2.841h4.582v2.841 2.763h12.122c10.107 0 18.329-8.234 18.329-18.341v-62.829c0-10.107-8.222-18.329-18.328-18.329zm-37.653 84.913v6.729h-4.045c-5.773 0-10.473-4.713-10.473-10.485v-62.828c0-5.773 4.7-10.473 10.473-10.473h41.698c5.772 0 10.473 4.7 10.473 10.473v62.829c0 5.772-4.7 10.485-10.473 10.485h-4.045v-6.729h-33.608z"/></g><g opacity=".4"><path d="m80.95 69.544v-46.096c0-1.793-1.454-3.247-3.248-3.247h-34.09c-1.793 0-3.246 1.454-3.246 3.247v46.096c0 1.794 1.453 3.248 3.246 3.248h34.09c1.794 0 3.248-1.454 3.248-3.248zm-6.978-36.605c0 .393 0 .747-.013 1.074-.014.327-.04.628-.079.904-.039.262-.104.524-.196.746-.092.223-.208.445-.365.641-.367.485-.8.838-1.31 1.061-.499.223-1.114.341-1.82.341h-3.731v-9.518h3.731c.706 0 1.321.104 1.82.327.51.223.942.576 1.31 1.061.157.196.273.419.365.641.092.236.157.485.196.746.039.275.065.577.079.904.013.326.013.679.013 1.072zm-9.583 0c0 .393 0 .747-.013 1.074-.014.327-.04.628-.079.904-.039.262-.105.524-.197.746-.09.223-.208.445-.366.641-.366.485-.798.838-1.309 1.061-.497.223-1.112.341-1.819.341h-3.731v-9.518h3.731c.707 0 1.322.104 1.819.327.511.223.942.576 1.309 1.061.158.196.276.419.366.641.092.236.158.485.197.746.039.275.065.577.079.904.013.326.013.679.013 1.072zm-17.042 3.584 1.305-1.201c.341.301.708.51 1.14.629.431.118.876.17 1.348.17.615 0 1.073-.105 1.388-.302.314-.208.458-.51.458-.889 0-.328-.105-.59-.314-.786-.105-.092-.222-.157-.354-.196-.118-.052-.314-.092-.576-.131l-1.245-.17c-.458-.065-.851-.157-1.166-.288-.327-.131-.602-.289-.837-.497-.498-.433-.732-1.062-.732-1.873 0-.432.079-.812.234-1.165.171-.353.407-.655.721-.917.314-.248.681-.445 1.126-.588.459-.146.955-.223 1.519-.223.72 0 1.335.091 1.873.261.49.156.933.421 1.347.764.038.034.079.054.115.091l-1.266 1.161c-.328-.288-.668-.458-1.047-.537s-.746-.118-1.073-.118c-.55 0-.943.118-1.205.353s-.393.524-.393.851c0 .118.026.249.079.354.039.118.118.236.222.327.105.091.236.17.379.222.157.066.341.105.564.145l1.23.17c.484.065.878.144 1.178.261.314.119.575.275.798.485.289.236.486.522.616.851.131.341.184.72.184 1.151 0 .472-.091.878-.288 1.231s-.458.655-.799.903c-.353.249-.758.432-1.229.562s-.971.197-1.52.197c-.785 0-1.479-.092-2.094-.275-.565-.168-1.08-.473-1.556-.883-.042-.037-.089-.06-.13-.1zm30.355 33.651h-34.09c-.341 0-.628-.29-.628-.63v-25.176h35.349v25.176c-.001.34-.277.63-.631.63z"/><path d="m62.294 31.276c-.026-.196-.066-.354-.118-.484-.053-.13-.131-.262-.235-.367-.327-.392-.839-.589-1.506-.589h-1.51-.003-.032v6.137.038.031h1.545c.667 0 1.179-.196 1.506-.59.104-.104.183-.222.235-.365.052-.131.092-.289.118-.485.026-.184.052-.419.065-.694 0-.275.013-.589.013-.968 0-.38-.013-.693-.013-.969-.013-.276-.039-.498-.065-.695z"/><path d="m71.877 31.276c-.026-.196-.066-.354-.118-.484s-.131-.262-.235-.367c-.328-.392-.838-.589-1.505-.589h-1.51-.006-.03v6.156.019.031h1.546c.667 0 1.177-.196 1.505-.59.104-.104.184-.222.235-.365.052-.131.092-.289.118-.484.025-.184.053-.42.053-.695.013-.275.026-.588.026-.968 0-.379-.013-.693-.026-.969 0-.276-.028-.498-.053-.695z"/><path d="m51.406 48.479h-.031v2.527h18.564v-2.527h-18.419z"/><path d="m63.812 55.148v-.032h-12.437v2.527h12.437v-2.487z"/></g></g></svg>