<svg enable-background="new 0 0 128 128" height="128" viewBox="0 0 128 128" width="128" xmlns="http://www.w3.org/2000/svg"><g fill="#fff"><path d="m49.119.005h51.184v99.625h-51.184z" opacity=".2"/><path d="m58.156 6.603h33.109c.58 0 1.051.471 1.051 1.052v20.333c0 .581-.471 1.051-1.051 1.051h-33.109c-.58 0-1.051-.471-1.051-1.051v-20.334c0-.58.471-1.051 1.051-1.051z" opacity=".4"/><path d="m58.156 38.604h33.109c.58 0 1.051.47 1.051 1.051v20.333c0 .582-.471 1.052-1.051 1.052h-33.109c-.58 0-1.051-.47-1.051-1.052v-20.333c0-.581.471-1.051 1.051-1.051z" opacity=".4"/><path d="m58.156 70.604h33.109c.58 0 1.051.473 1.051 1.052v20.332c0 .583-.471 1.054-1.051 1.054h-33.109c-.58 0-1.051-.471-1.051-1.054v-20.333c0-.579.471-1.051 1.051-1.051z" opacity=".4"/></g></svg>