<svg enable-background="new 0 0 128 128" height="128" viewBox="0 0 128 128" width="128" xmlns="http://www.w3.org/2000/svg"><g fill="#fff"><g opacity=".2"><path d="m50.002 49.099c10.001 0 19.114 3.742 26.027 9.915 4.038-1.521 7.93-2.854 11.481-3.869-9.177-10.38-22.561-16.914-37.508-16.914-27.612 0-50.002 22.391-50.002 50.003 0 1.712.084 3.425.254 5.095h10.952c-.211-1.67-.338-3.36-.338-5.095-.001-21.608 17.527-39.135 39.134-39.135z"/><path d="m94.318 65.062c-2.199 2.96-4.82 6.132-7.696 9.345 1.628 4.292 2.516 8.966 2.516 13.828 0 1.734-.104 3.425-.338 5.095h10.952c.169-1.67.253-3.383.253-5.095 0-8.374-2.05-16.26-5.687-23.173z"/></g><path d="m43.343 78.509c-5.371 3.678-6.724 11.036-3.024 16.406 3.7 5.369 11.036 6.724 16.407 3.024 5.349-3.68 32.222-28.312 33.955-37.677-9.344-1.734-41.968 14.568-47.338 18.247zm9.578 13.933c-2.305 1.584-5.477.992-7.083-1.311-1.607-2.327-1.015-5.498 1.311-7.084 2.325-1.586 5.497-1.015 7.083 1.312 1.606 2.326 1.014 5.495-1.311 7.083z" opacity=".4"/><path d="m17.908 93.329h-9.092c-1.501 0-2.706-1.205-2.706-2.706v-1.078c0-1.502 1.205-2.706 2.706-2.706h9.092c1.501 0 2.706 1.204 2.706 2.706v1.078c0 1.501-1.205 2.706-2.706 2.706zm72.71 0h-9.092c-1.501 0-2.706-1.205-2.706-2.706v-1.078c0-1.502 1.205-2.706 2.706-2.706h9.092c1.501 0 2.706 1.204 2.706 2.706v1.078c0 1.501-1.205 2.706-2.706 2.706zm-43.85-35.9v-9.091c0-1.501 1.206-2.707 2.707-2.707h1.079c1.501 0 2.706 1.205 2.706 2.707v9.091c0 1.502-1.205 2.706-2.706 2.706h-1.079c-1.502 0-2.707-1.204-2.707-2.706zm-21.608 10.761-6.427-6.428c-1.058-1.057-1.058-2.769 0-3.826l.761-.761c1.057-1.058 2.77-1.058 3.828 0l6.427 6.427c1.057 1.057 1.057 2.771 0 3.827l-.762.761c-1.057 1.058-2.77 1.058-3.827 0z" opacity=".4"/></g></svg>