<svg enable-background="new 0 0 128 128" height="128" viewBox="0 0 128 128" width="128" xmlns="http://www.w3.org/2000/svg"><g fill="#fff" opacity=".2"><path d="m94.21 71.884c-2.934-2.95-7.877-5.524-15.67-9.421-3.934-1.965-10.472-5.228-12.05-6.724 6.849-8.152 10.893-17.36 11.033-25.416.095-5.469.214-12.275-2.771-18.343-2.691-5.465-8.805-11.98-22.652-11.98-13.845 0-20.182 6.515-23.064 11.979-3.201 6.067-3.32 12.874-3.416 18.343-.141 8.061 3.583 17.266 10.141 25.415-1.625 1.502-8.279 4.765-12.275 6.726-7.928 3.894-12.967 6.47-16 9.42-6.721 6.543-7.41 17.522-7.481 19.652-.076 2.235.759 4.387 2.312 5.974 1.554 1.593 3.699 2.491 5.956 2.491h84.167c2.256 0 4.426-.898 6.04-2.49 1.611-1.585 2.525-3.74 2.523-5.974.004-2.132-.301-13.109-6.793-19.652zm-85.793 19.793c.118-3.499 1.288-10.366 4.919-13.901 2.099-2.041 7.035-4.544 13.776-7.856 7.982-3.911 12.158-6.125 14.331-8.125l5.766-5.318-4.824-5.998c-5.412-6.722-8.458-14.07-8.351-20.158.084-4.826.18-10.295 2.45-14.587 2.626-4.979 7.688-7.399 15.468-7.399 7.783 0 12.764 2.422 15.22 7.398 2.114 4.297 2.019 9.766 1.935 14.592-.106 6.087-3.404 13.432-9.054 20.159l-5.036 6.003 5.586 5.316c2.093 1.994 6.196 4.201 14.04 8.118 6.628 3.316 11.482 5.818 13.509 7.861 3.514 3.542 4.441 10.399 4.433 13.891z"/><path d="m46.962 74.117s10.499 11.935 12.552 16.812h9.208c4.053-11.661 19.531-39.496 32.55-49.247 2.719-3.388-3.944-4.783-9.385-2.542-8.183 3.381-23.976 29.193-26.954 35.402-4.087 1.06-8.224-6.78-8.224-6.78z"/></g></svg>