<?xml version="1.0" encoding="utf-8"?>
<!DOCTYPE svg PUBLIC "-//W3C//DTD SVG 1.1//EN" "http://www.w3.org/Graphics/SVG/1.1/DTD/svg11.dtd">
<svg version="1.1" id="Layer_1" xmlns="http://www.w3.org/2000/svg"  x="0px" y="0px"
	 width="128px" height="128px" viewBox="0 0 128 128" enable-background="new 0 0 128 128" xml:space="preserve">
<g>
	<path opacity="0.2" fill="#FFFFFF" d="M69.697,78.912c-2.216-2.212-5.921-4.145-11.757-7.064c-2.948-1.475-7.844-3.922-9.034-5.045
		c4.979-6.112,7.861-13.019,7.861-19.061c0-4.102,0-9.207-2.295-13.757C52.404,29.886,47.78,25,37.497,25
		c-10.28,0-14.901,4.886-16.971,8.984c-2.298,4.55-2.298,9.655-2.298,13.757c0,6.046,2.884,12.949,7.859,19.061
		c-1.188,1.127-6.086,3.574-9.028,5.045c-5.836,2.921-9.544,4.853-11.759,7.064c-4.905,4.907-5.274,13.142-5.3,14.74
		c-0.028,1.677,0.621,3.29,1.794,4.479C2.969,99.325,4.574,100,6.25,100h62.498c1.676,0,3.275-0.675,4.453-1.867
		c1.176-1.19,1.825-2.805,1.795-4.48C74.972,92.053,74.603,83.819,69.697,78.912z M6.25,93.756
		c0.043-2.624,0.822-7.772,3.473-10.425c1.532-1.532,5.164-3.408,10.127-5.893c5.876-2.933,8.949-4.593,10.536-6.095l4.212-3.987
		l-3.66-4.499c-4.105-5.041-6.461-10.553-6.461-15.118c0-3.62,0-7.721,1.629-10.941c1.886-3.732,5.613-5.548,11.39-5.548
		c5.78,0,9.51,1.816,11.396,5.548c1.627,3.223,1.627,7.324,1.627,10.944c0,4.565-2.354,10.074-6.462,15.119l-3.663,4.502
		l4.218,3.986c1.58,1.496,4.654,3.151,10.529,6.089c4.964,2.488,8.602,4.364,10.134,5.896c2.654,2.657,3.433,7.799,3.471,10.419
		L6.25,93.756z"/>
	<path opacity="0.2" fill="#FFFFFF" enable-background="new    " d="M94.697,53.912c-2.212-2.212-5.917-4.144-11.757-7.064
		c-2.944-1.474-7.844-3.922-9.031-5.045c4.975-6.112,7.86-13.019,7.86-19.061c0-4.102,0-9.207-2.297-13.757
		C77.404,4.886,72.78,0,62.5,0C52.221,0,47.597,4.886,45.527,8.984c-2.14,4.239-2.286,8.948-2.295,12.891h6.254
		c0.013-3.4,0.122-7.104,1.621-10.074C52.99,8.066,56.72,6.25,62.5,6.25s9.508,1.816,11.394,5.548
		c1.628,3.223,1.628,7.324,1.628,10.944c0,4.566-2.357,10.074-6.459,15.119l-3.666,4.502l4.222,3.986
		c1.578,1.495,4.651,3.152,10.524,6.088c4.968,2.487,8.604,4.364,10.132,5.896c2.659,2.658,3.436,7.8,3.474,10.419H65.626
		l9.373,6.25h18.749c1.676,0,3.278-0.675,4.457-1.868c1.172-1.19,1.821-2.805,1.794-4.479
		C99.975,67.053,99.603,58.819,94.697,53.912z"/>
</g>
</svg>
