<svg enable-background="new 0 0 128 128" height="128" viewBox="0 0 128 128" width="128" xmlns="http://www.w3.org/2000/svg"><g fill="#fff"><path d="m69.697 78.912c-2.217-2.212-5.921-4.145-11.757-7.064-2.948-1.475-7.844-3.922-9.034-5.045 4.979-6.112 7.861-13.019 7.861-19.061 0-4.102 0-9.207-2.295-13.757-2.068-4.099-6.692-8.985-16.975-8.985-10.28 0-14.901 4.886-16.971 8.984-2.298 4.55-2.298 9.655-2.298 13.757 0 6.046 2.884 12.949 7.859 19.062-1.188 1.127-6.086 3.573-9.028 5.045-5.836 2.92-9.544 4.852-11.759 7.063-4.905 4.907-5.274 13.142-5.3 14.739-.028 1.678.621 3.291 1.794 4.479 1.175 1.196 2.78 1.871 4.456 1.871h62.498c1.676 0 3.275-.675 4.453-1.867 1.176-1.189 1.824-2.805 1.795-4.48-.023-1.6-.392-9.835-5.299-14.741zm-63.447 14.844c.043-2.624.822-7.771 3.473-10.425 1.532-1.532 5.164-3.408 10.127-5.894 5.876-2.933 8.949-4.592 10.536-6.094l4.212-3.988-3.66-4.499c-4.105-5.041-6.461-10.553-6.461-15.118 0-3.62 0-7.721 1.629-10.941 1.886-3.732 5.613-5.548 11.39-5.548 5.78 0 9.51 1.816 11.396 5.548 1.627 3.223 1.627 7.324 1.627 10.944 0 4.565-2.354 10.074-6.462 15.119l-3.663 4.502 4.218 3.986c1.58 1.496 4.654 3.15 10.529 6.088 4.964 2.488 8.602 4.365 10.134 5.896 2.654 2.657 3.433 7.799 3.471 10.419z" opacity=".2"/><path d="m94.697 53.912c-2.213-2.212-5.918-4.144-11.758-7.064-2.943-1.474-7.844-3.922-9.03-5.045 4.975-6.112 7.86-13.019 7.86-19.061 0-4.102 0-9.207-2.297-13.757-2.068-4.099-6.693-8.985-16.972-8.985s-14.903 4.886-16.973 8.984c-2.14 4.239-2.286 8.948-2.295 12.891h6.254c.013-3.4.122-7.104 1.621-10.074 1.883-3.735 5.613-5.551 11.393-5.551 5.779 0 9.508 1.816 11.395 5.548 1.627 3.223 1.627 7.324 1.627 10.944 0 4.566-2.356 10.074-6.459 15.119l-3.666 4.502 4.223 3.986c1.578 1.495 4.65 3.152 10.523 6.088 4.969 2.487 8.604 4.364 10.133 5.896 2.658 2.658 3.436 7.8 3.474 10.419h-28.124l9.373 6.25h18.749c1.676 0 3.277-.675 4.457-1.868 1.172-1.19 1.82-2.805 1.794-4.479-.024-1.602-.395-9.836-5.302-14.743z" opacity=".2"/></g></svg>