<?xml version="1.0" encoding="utf-8"?>
<!DOCTYPE svg PUBLIC "-//W3C//DTD SVG 1.1//EN" "http://www.w3.org/Graphics/SVG/1.1/DTD/svg11.dtd">
<svg version="1.1" id="Layer_1" xmlns="http://www.w3.org/2000/svg" xmlns:xlink="http://www.w3.org/1999/xlink" x="0px" y="0px"
	 width="128px" height="128px" viewBox="0 0 128 128" enable-background="new 0 0 128 128" xml:space="preserve">
<g opacity="0.2">
	<path fill="#FFFFFF" d="M94.21,71.884c-2.934-2.95-7.877-5.524-15.67-9.421c-3.934-1.965-10.472-5.228-12.05-6.724
		c6.849-8.152,10.893-17.36,11.033-25.416c0.095-5.469,0.214-12.275-2.771-18.343C72.061,6.515,65.947,0,52.1,0
		C38.255,0,31.918,6.515,29.036,11.979c-3.201,6.067-3.32,12.874-3.416,18.343c-0.141,8.061,3.583,17.266,10.141,25.415
		c-1.625,1.502-8.279,4.765-12.275,6.726c-7.928,3.894-12.967,6.47-16,9.42c-6.721,6.543-7.41,17.522-7.481,19.652
		c-0.076,2.235,0.759,4.387,2.312,5.974C3.871,99.102,6.016,100,8.273,100h84.167c2.256,0,4.426-0.898,6.04-2.49
		c1.611-1.585,2.525-3.74,2.523-5.974C101.007,89.404,100.702,78.427,94.21,71.884z M8.417,91.677
		c0.118-3.499,1.288-10.366,4.919-13.901c2.099-2.041,7.035-4.544,13.776-7.856c7.982-3.911,12.158-6.125,14.331-8.125l5.766-5.318
		l-4.824-5.998c-5.412-6.722-8.458-14.07-8.351-20.158c0.084-4.826,0.18-10.295,2.45-14.587c2.626-4.979,7.688-7.399,15.468-7.399
		c7.783,0,12.764,2.422,15.22,7.398c2.114,4.297,2.019,9.766,1.935,14.592c-0.106,6.087-3.404,13.432-9.054,20.159l-5.036,6.003
		l5.586,5.316c2.093,1.994,6.196,4.201,14.04,8.118c6.628,3.316,11.482,5.818,13.509,7.861c3.514,3.542,4.441,10.399,4.433,13.891
		L8.417,91.677z"/>
	<path id="check" fill="#FFFFFF" d="M46.962,74.117c0,0,10.499,11.935,12.552,16.812h9.208c4.053-11.661,19.531-39.496,32.55-49.247
		c2.719-3.388-3.944-4.783-9.385-2.542c-8.183,3.381-23.976,29.193-26.954,35.402c-4.087,1.06-8.224-6.78-8.224-6.78L46.962,74.117z
		"/>
</g>
</svg>
