<svg enable-background="new 0 0 128 128" height="128" viewBox="0 0 128 128" width="128" xmlns="http://www.w3.org/2000/svg"><g fill="#fff" opacity=".2"><path d="m92.479 71.902c-2.879-2.951-7.732-5.526-15.383-9.424-3.861-1.966-10.278-5.229-11.827-6.725 6.723-8.154 10.691-17.364 10.831-25.422.093-5.471.209-12.278-2.721-18.348-2.644-5.466-8.644-11.983-22.236-11.983-13.59 0-19.811 6.517-22.641 11.981-3.142 6.068-3.259 12.877-3.352 18.347-.139 8.063 3.517 17.271 9.954 25.423-1.595 1.501-8.126 4.766-12.049 6.727-7.782 3.895-12.728 6.473-15.706 9.422-6.598 6.544-7.273 17.525-7.344 19.657-.074 2.233.746 4.388 2.27 5.976 1.525 1.592 3.631 2.49 5.847 2.49h82.618c2.216 0 4.346-.898 5.931-2.489 1.581-1.585 2.479-3.743 2.478-5.976 0-2.131-.297-13.111-6.67-19.656zm-84.216 19.798c.116-3.501 1.265-10.369 4.829-13.906 2.061-2.041 6.906-4.543 13.521-7.855 7.835-3.914 11.935-6.127 14.068-8.126l5.66-5.32-4.735-6c-5.312-6.724-8.302-14.073-8.197-20.164.083-4.827.176-10.296 2.404-14.589 2.578-4.98 7.547-7.401 15.184-7.401 7.64 0 12.53 2.422 14.94 7.4 2.075 4.298 1.982 9.769 1.901 14.596-.104 6.088-3.341 13.435-8.889 20.164l-4.943 6.004 5.484 5.318c2.052 1.994 6.08 4.202 13.78 8.12 6.506 3.316 11.271 5.819 13.261 7.863 3.447 3.542 4.357 10.403 4.352 13.894z"/><path d="m46.099 74.135s10.306 11.939 12.322 16.817h9.039c3.979-11.665 19.172-39.505 31.95-49.26 2.67-3.389-3.871-4.784-9.212-2.542-8.031 3.382-23.534 29.2-26.458 35.41-4.012 1.062-8.073-6.781-8.073-6.781z"/></g></svg>