<?xml version="1.0" encoding="utf-8"?>

<!DOCTYPE svg PUBLIC "-//W3C//DTD SVG 1.1//EN" "http://www.w3.org/Graphics/SVG/1.1/DTD/svg11.dtd">
<svg version="1.1" id="Layer_1" xmlns="http://www.w3.org/2000/svg"  x="0px" y="0px"
	 width="128px" height="128px" viewBox="86 86 128 128" enable-background="new 86 86 128 128" xml:space="preserve">
<circle fill="#B7CE0F" cx="150" cy="150" r="64"/>
<g id="Layer_4">
	<g>
		<path fill="#2E3192" d="M203.03,133.971l-49.935-21.059c-1.13-0.497-2.35-0.588-3.163-0.588c-0.814,0-2.035,0.091-3.164,0.588
			l-49.934,21.059c-1.583,0.632-2.486,1.852-2.486,3.254c0,1.399,0.903,2.62,2.486,3.253l17.803,7.5v21.104
			c0,0.679,0.272,1.31,0.768,1.808c0.499,0.497,1.13,0.769,1.808,0.769c0.18,0,17.082,0.179,31.814,15.184
			c0.497,0.496,1.13,0.768,1.809,0.768c0.09,0,0.133,0,0.225,0c0.767-0.046,1.444-0.452,1.897-1.085
			c0.136-0.181,13.828-19.161,36.061-19.883c1.401-0.047,2.487-1.175,2.487-2.577v-18.662l11.658-4.881
			c1.536-0.632,2.484-1.852,2.484-3.254C205.517,135.822,204.612,134.603,203.03,133.971z M186.265,161.626
			c-9.398,0.812-18.663,4.655-26.933,11.161c-4.066,3.21-7.051,6.372-8.767,8.406c-12.292-11.389-25.396-13.963-30.82-14.506v-16.54
			l27.024,11.388c1.129,0.498,2.349,0.587,3.164,0.587c0.813,0,2.033-0.089,3.163-0.587l33.169-13.963V161.626z M151.107,156.79
			c-0.18,0.091-0.632,0.181-1.174,0.181c-0.543,0-0.996-0.09-1.175-0.181l-46.501-19.565l46.501-19.567
			c0.18-0.092,0.632-0.182,1.175-0.182c0.542,0,0.995,0.09,1.174,0.182l46.5,19.567L151.107,156.79z"/>
		<polygon fill="#4C9C8D" points="147.221,131.756 172.029,152.046 172.754,199.676 177.453,185.214 182.56,190.862 182.514,147.12"/>
	</g>
</g>
</svg>
