<?xml version="1.0" encoding="utf-8"?>
<!DOCTYPE svg PUBLIC "-//W3C//DTD SVG 1.1//EN" "http://www.w3.org/Graphics/SVG/1.1/DTD/svg11.dtd">
<svg version="1.1" id="Layer_1" xmlns="http://www.w3.org/2000/svg" x="0px" y="0px"
	 width="128px" height="128px" viewBox="192 192 128 128" enable-background="new 192 192 128 128" xml:space="preserve">
<g>
	<circle fill="#82D0D8" cx="256" cy="256" r="64"/>
	<path fill="#FFFFFF" d="M289.167,234.58c-1.826,0-3.567,0.343-5.186,0.94c-1.516-12.917-12.491-22.94-25.814-22.94
		c-9.916,0-18.532,5.552-22.918,13.715c-0.024-0.011-0.05-0.021-0.075-0.031c-1.955,3.656-3.066,7.83-3.066,12.265
		c0,1.122,0.079,2.226,0.217,3.31c-0.708-2.312-1.092-4.766-1.092-7.31c0-3.207,0.612-6.268,1.715-9.083
		c-1.831-0.557-3.769-0.866-5.781-0.866c-11.046,0-20,8.987-20,20.033c0,11.045,8.954,20.032,20,20.032c0.429,0,64.271,0,64.271,0
		c7.203-1.25,12.729-7.521,12.729-15.032C304.167,241.328,297.451,234.58,289.167,234.58z"/>
	<g>
		<path fill="#1B7C96" d="M267.413,239.292l0.077,0.205l1.339,3.538c0.304-0.014,0.603-0.046,0.911-0.046
			c0.594,0,1.178,0.039,1.758,0.09l1.386-3.661c0.18-0.474,0.732-0.776,1.229-0.671l4.745,1.343
			c0.478,0.172,0.801,0.722,0.719,1.221l-0.647,3.925c0.749,0.389,1.469,0.818,2.158,1.294l3.041-2.484
			c0.393-0.321,1.023-0.307,1.402,0.03l3.469,3.552c0.328,0.386,0.334,1.022,0.012,1.414l-2.516,3.063
			c0.434,0.667,0.82,1.366,1.172,2.085l3.928-0.644c0.5-0.082,1.043,0.244,1.205,0.723l1.256,4.815
			c0.094,0.497-0.218,1.05-0.692,1.229l-3.728,1.402c0.022,0.39,0.06,0.775,0.06,1.172c0,0.395-0.037,0.781-0.06,1.17l3.728,1.402
			c0.475,0.18,0.786,0.732,0.692,1.23l-1.256,4.815c-0.156,0.462-0.664,0.771-1.148,0.722c-0.002,0.004-0.003,0.007-0.004,0.01
			l-3.98-0.652c-0.352,0.721-0.738,1.42-1.172,2.088l2.516,3.062l0.074,0.091c-0.004,0.006-0.01,0.012-0.015,0.019
			c0.246,0.394,0.229,0.95-0.071,1.304l-3.469,3.553c-0.333,0.296-0.852,0.326-1.241,0.116c-0.01,0.007-0.019,0.016-0.027,0.022
			l-3.175-2.594c-0.689,0.477-1.409,0.906-2.158,1.294c0,0,0.653,4.125,0.642,4.131c-0.02,0.437-0.3,0.867-0.713,1.016l-4.745,1.343
			c-0.42,0.089-0.862-0.113-1.099-0.453c-0.016,0.002-1.516-3.877-1.516-3.877c-0.58,0.05-1.164,0.088-1.758,0.088
			c-0.309,0-0.607-0.031-0.91-0.046c0,0-1.52,3.949-1.531,3.948c-0.221,0.351-0.68,0.57-1.119,0.491l-4.74-1.181
			c-0.447-0.146-0.756-0.562-0.745-0.955c-0.007-0.003,0.656-4.12,0.656-4.12c-0.86-0.399-1.692-0.849-2.481-1.362l-3.206,2.619l0,0
			l-0.034,0.028c-0.003-0.002-0.006-0.005-0.009-0.007c-0.322,0.225-0.862,0.167-1.234-0.148l-3.474-3.371
			c-0.339-0.377-0.409-0.938-0.156-1.246c0.002-0.002,0.005-0.002,0.007-0.004c0-0.001-0.001-0.002-0.001-0.002l2.61-3.178
			c-0.562-0.803-1.056-1.652-1.497-2.535l-4.059,0.664c-0.002-0.004-0.003-0.007-0.004-0.01c-0.014,0.003-0.023,0.014-0.038,0.016
			c-0.411,0.067-0.881-0.27-1.046-0.748l-1.251-4.643c-0.099-0.497,0.155-1.029,0.563-1.183c0.014-0.005,0.041-0.012,0.041-0.016
			l3.777-1.42c-0.037-0.494-0.076-0.989-0.076-1.492s0.039-0.997,0.076-1.491c0,0-3.724-1.406-3.724-1.41
			c-0.014-0.004-0.026,0-0.04-0.005c-0.438-0.165-0.716-0.706-0.618-1.202l1.251-4.645c0.165-0.479,0.709-0.804,1.21-0.722
			l0.058,0.009l3.878,0.635c0.441-0.883,0.935-1.732,1.497-2.535l-2.439-2.969l-0.052-0.064c-0.322-0.391-0.308-1.02,0.032-1.396
			l3.474-3.373c0.387-0.328,1.025-0.333,1.417-0.013l0.105,0.086l2.961,2.418c0.79-0.512,1.62-0.963,2.48-1.362l-0.61-3.711
			l-0.027-0.168c-0.082-0.5,0.245-1.038,0.728-1.195l4.738-1.179C266.679,238.505,267.233,238.819,267.413,239.292z"/>
		<circle fill="#FFFFFF" cx="269.761" cy="262.528" r="11.685"/>
		<circle fill="#FF5F5F" cx="269.761" cy="262.528" r="9"/>
	</g>
	<g>
		<path fill="#004259" d="M248.594,278.392l-2.236,1.905c0.084,0.286,0.17,0.572,0.234,0.868c0.079,0.364,0.134,0.728,0.179,1.09
			l2.798,0.802c0.333,0.096,0.594,0.457,0.581,0.804l-0.33,3.068c-0.062,0.341-0.395,0.642-0.74,0.669l-2.933,0.227
			c-0.218,0.609-0.481,1.198-0.791,1.762l1.796,2.3c0.213,0.272,0.213,0.72,0,0.993l-2.082,2.309c-0.25,0.24-0.695,0.289-0.99,0.107
			l-2.495-1.533c-0.516,0.354-1.065,0.664-1.64,0.938l0.103,2.925c0.012,0.346-0.247,0.719-0.576,0.828c0,0-0.771,0.256-1.491,0.411
			c-0.732,0.159-1.562,0.246-1.562,0.246c-0.345,0.036-0.734-0.196-0.867-0.517l-1.118-2.709c-0.632-0.014-1.258-0.069-1.87-0.179
			l-1.636,2.425c-0.193,0.287-0.619,0.427-0.945,0.311l-2.854-1.249c-0.307-0.161-0.491-0.568-0.41-0.905l0.685-2.839
			c-0.507-0.382-0.982-0.804-1.426-1.262l-2.763,1.006c-0.326,0.118-0.753-0.018-0.951-0.302l-1.573-2.67
			c-0.155-0.309-0.066-0.746,0.198-0.971l2.217-1.89c-0.107-0.343-0.206-0.69-0.283-1.049c-0.063-0.291-0.102-0.581-0.143-0.87
			l-2.826-0.811c-0.333-0.096-0.599-0.456-0.59-0.803l0.283-3.061c0.057-0.342,0.386-0.644,0.731-0.67l2.914-0.226
			c0.218-0.646,0.482-1.271,0.802-1.868l-1.802-2.307c-0.213-0.273-0.216-0.723-0.005-0.997l2.02-2.288
			c0.247-0.244,0.689-0.295,0.985-0.113l2.479,1.523c0.562-0.4,1.169-0.746,1.804-1.048l-0.102-2.924
			c-0.012-0.347,0.247-0.719,0.576-0.827c0,0,0.768-0.256,1.487-0.411c0.707-0.153,1.489-0.237,1.489-0.237
			c0.345-0.037,0.734,0.194,0.867,0.515l1.114,2.7c0.708,0.011,1.406,0.073,2.088,0.204l1.627-2.413
			c0.194-0.287,0.618-0.424,0.943-0.305l2.781,1.239c0.306,0.163,0.489,0.571,0.408,0.908l-0.687,2.844
			c0.547,0.415,1.054,0.88,1.526,1.385l2.747-1c0.326-0.118,0.75,0.021,0.943,0.308l1.519,2.658
			C248.949,277.729,248.857,278.167,248.594,278.392z"/>
		<circle fill="#30A2B5" cx="234.554" cy="283.753" r="7.101"/>
	</g>
</g>
</svg>
