<?xml version="1.0" encoding="utf-8"?>
<!DOCTYPE svg PUBLIC "-//W3C//DTD SVG 1.1//EN" "http://www.w3.org/Graphics/SVG/1.1/DTD/svg11.dtd">
<svg version="1.1" id="Layer_1" xmlns="http://www.w3.org/2000/svg" x="0px" y="0px"
	 width="128px" height="128px" viewBox="0 0 128 128" enable-background="new 0 0 128 128" xml:space="preserve">
<circle fill="#FBD303" cx="64" cy="64" r="64"/>
<g>
	<path fill="#74594E" d="M107.122,101.055v-4.816c0-6.479-5.54-11.762-12.356-11.762H33.236c-6.817,0-12.357,5.283-12.357,11.762
		v4.816H107.122z"/>
	<path fill="#F0BA7A" d="M76.527,94.959c-5.625,9.544-19.516,9.544-25.141,0c0-5.454,0-10.993,0-16.447c8.352,0,16.788,0,25.141,0
		C76.527,83.966,76.527,89.505,76.527,94.959z"/>
	<path fill="#F1F3F7" d="M109.638,101.055c-2.858-2.517-2.858-2.517-6.266-3.625l-23.521-7.072l-5.795,5.369l-20.197,0.084
		l-6.477-5.453L24.63,97.43c-3.409,1.108-3.108,2.311-6.731,4.903l-3.494,2.062C26.078,118.796,43.975,128,64,128
		c20.027,0,37.923-9.204,49.684-23.605L109.638,101.055z"/>
	<g>
		<path fill="#886C60" d="M29.4,117.773c2.897,1.875,6.051,3.578,9.289,4.942V92.402H29.4V117.773z"/>
		<path fill="#886C60" d="M89.396,122.717c3.237-1.363,6.307-3.068,9.289-4.943V92.402h-9.289V122.717z"/>
	</g>
	<path fill="#4B5AA7" d="M66.216,95.896h-4.517l-6.051,5.242l4.942,5.158l-4.772,21.189C58.461,127.83,61.188,128,64,128
		s5.539-0.17,8.182-0.512l-4.857-21.19l4.941-5.157L66.216,95.896z"/>
	<g>
		<polygon fill="#FCFCFD" points="51.473,85.414 63.66,95.896 53.859,104.298 47.382,90.355"/>
		<polygon fill="#FCFCFD" points="76.188,85.414 64,95.896 73.8,104.298 80.277,90.355"/>
	</g>
	<g>
		<path fill="#F2C18F" d="M101.749,41.243c0-20.848-16.9-37.749-37.749-37.749c-20.848,0-37.749,16.901-37.749,37.749
			c0,8.806,3.023,16.9,8.078,23.321c3.5,13.11,15.472,22.794,29.67,22.794c14.196,0,26.167-9.681,29.669-22.788
			C98.724,58.148,101.749,50.052,101.749,41.243z"/>
		<g>
			<path d="M36.748,30.236C36.854,14.264,50.345,7.14,65.562,7.14c15.218,0,29.246,6.583,28.924,22.772
				c0,15.648-14.354,17.268-20.612,21.478c-2.917,1.942-4.103,4.964-4.103,10.036v0.541H55.526v-0.647
				c0.107-14.787,6.152-18.131,11.871-21.154c5.721-3.022,12.304-3.885,12.304-10.361c0-8.309-7.664-10.252-14.353-10.252
				c-6.908,0-14.032,3.885-14.139,10.685H36.748z M71.175,75.024c0,11.331-17.267,11.331-17.267,0
				C53.908,63.585,71.175,63.585,71.175,75.024z"/>
		</g>
	</g>
</g>
</svg>
