<svg enable-background="new 0 0 100.852 128" height="128" viewBox="0 0 100.852 128" width="100.852" xmlns="http://www.w3.org/2000/svg"><path d="m7.834 39.968v79.358c0 4.792 3.803 8.674 8.5 8.674h68.453c4.697 0 8.5-3.882 8.5-8.674v-79.358zm23.206 71.876h-7.653v-56.372h7.653zm15.45 0h-7.654v-56.372h7.654zm15.512 0h-7.652v-56.372h7.652zm15.45 0h-7.654v-56.372h7.654zm14.887-95.883h-13.672v-7.287c0-4.795-3.801-8.674-8.498-8.674h-37.132c-4.697 0-8.5 3.879-8.5 8.674v7.287h-16.024c-4.698 0-8.512 3.88-8.512 8.673v7.092h100.85v-7.092c0-4.78-3.803-8.673-8.512-8.673zm-21.402.054h-38.757v-7.954h38.757z" fill="#9d1818"/></svg>