<?xml version="1.0" encoding="utf-8"?>
<!DOCTYPE svg PUBLIC "-//W3C//DTD SVG 1.1//EN" "http://www.w3.org/Graphics/SVG/1.1/DTD/svg11.dtd">
<svg version="1.1" id="Layer_1" xmlns="http://www.w3.org/2000/svg" xmlns:xlink="http://www.w3.org/1999/xlink" x="0px" y="0px"
	 width="100.852px" height="128px" viewBox="0 0 100.852 128" enable-background="new 0 0 100.852 128" xml:space="preserve">
<g>
	<path fill="#9D1818" d="M7.834,39.968v79.358c0,4.792,3.803,8.674,8.5,8.674h68.453c4.697,0,8.5-3.882,8.5-8.674V39.968H7.834
		L7.834,39.968z M31.04,111.844h-7.653V55.472h7.653V111.844L31.04,111.844z M46.49,111.844h-7.654V55.472h7.654V111.844
		L46.49,111.844z M62.002,111.844H54.35V55.472h7.652V111.844L62.002,111.844z M77.452,111.844h-7.654V55.472h7.654V111.844
		L77.452,111.844z M92.339,15.961H78.667V8.674C78.667,3.879,74.866,0,70.169,0H33.037c-4.697,0-8.5,3.879-8.5,8.674v7.287H8.513
		c-4.698,0-8.512,3.88-8.512,8.673v7.092h100.85v-7.092C100.851,19.854,97.048,15.961,92.339,15.961L92.339,15.961z M70.937,16.015
		H32.18V8.061h38.757V16.015L70.937,16.015z"/>
</g>
</svg>
