<?xml version="1.0" encoding="utf-8"?>

<!DOCTYPE svg PUBLIC "-//W3C//DTD SVG 1.1//EN" "http://www.w3.org/Graphics/SVG/1.1/DTD/svg11.dtd">
<svg version="1.1" id="Layer_1" xmlns="http://www.w3.org/2000/svg" x="0px" y="0px"
	 width="100.852px" height="128px" viewBox="13.568 0 100.852 128" enable-background="new 13.568 0 100.852 128"
	 xml:space="preserve">
<g>
	<path fill="#9D1818" d="M21.401,40.448v77.772c0,4.697,3.802,8.5,8.5,8.5h68.455c4.697,0,8.499-3.803,8.499-8.5V40.448H21.401
		L21.401,40.448z M44.608,110.887h-7.654V55.642h7.654V110.887L44.608,110.887z M60.058,110.887h-7.654V55.642h7.654V110.887
		L60.058,110.887z M75.571,110.887h-7.654V55.642h7.654V110.887L75.571,110.887z M91.021,110.887h-7.655V55.642h7.655V110.887
		L91.021,110.887z M105.907,16.921H92.236V9.779c0-4.698-3.801-8.5-8.498-8.5H46.605c-4.698,0-8.5,3.802-8.5,8.5v7.142H22.08
		c-4.698,0-8.512,3.802-8.512,8.5v6.95H114.42v-6.95C114.42,20.736,110.617,16.921,105.907,16.921L105.907,16.921z M84.506,16.973
		H45.747V9.178h38.759V16.973L84.506,16.973z"/>
</g>
</svg>
