<svg enable-background="new 262.5 393.5 107.006 128" height="128" viewBox="262.5 393.5 107.006 128" width="107.006" xmlns="http://www.w3.org/2000/svg"><path d="m357.675 442.325h-.326c-2.4 0-4.356.691-6.261 1.865-1.657-4.84-5.87-8.309-11.297-8.309-2.4 0-4.683.691-6.574 1.865-1.657-4.827-5.87-8.31-11.297-8.31-2.113 0-4.083.535-5.83 1.461v-12.431c0-6.77-5.127-12.262-11.949-12.262s-12.354 5.492-12.354 12.262v47.612l-7.5-7.475c-4.826-4.787-13.357-4.109-17.467 0-4.109 4.109-6.796 12.379-.913 18.263l34.503 34.268c.717.704 1.5 1.291 2.321 1.8 6.288 5.127 13.502 8.166 28.737 8.166 34.815 0 38.037-18.784 38.037-41.951v-24.523c-.012-6.81-5.008-12.301-11.83-12.301zm5.322 36.798c0 19.606-.092 35.494-31.541 35.494-13.318 0-21.315-2.974-27.381-8.987l-32.65-32.441c-2.896-2.896-2.165-6.588.209-8.948 2.361-2.361 6.705-2.453 8.988-.183 0 0 5.726 5.7 10.67 10.604 3.73 3.718 7.018 6.979 7.018 6.979v-61.896c0-3.209 2.622-5.805 5.857-5.805 3.234 0 5.439 2.596 5.439 5.805v39.368h.065c-.039.209-.065.431-.065.652 0 1.787 1.461 3.222 3.248 3.222 1.8 0 3.248-1.448 3.248-3.222 0-.222-.026-.443-.065-.652h.065v-16.136c0-3.209 2.335-5.805 5.569-5.805 0 0 5.727-.078 5.727 5.805v21.301h.065c-.039.209-.065.431-.065.652 0 1.787 1.461 3.223 3.248 3.223 1.801 0 3.249-1.448 3.249-3.223 0-.222-.026-.43-.065-.652h.065v-14.844c0-3.209 2.295-5.805 5.53-5.805 0 0 5.844.365 5.844 5.805v18.719h.065c-.039.209-.065.431-.065.639 0 1.787 1.461 3.223 3.248 3.223 1.801 0 3.17-1.448 3.17-3.223 0-.222-.026-.43-.065-.639h.065v-12.784c0-3.208 2.413-5.805 5.648-5.805 0 0 5.661-.234 5.661 5.805.001 0 .001 18.537.001 23.754zm-76.022-42.394v-10.84c-1.031-2.309-1.618-4.866-1.618-7.566 0-10.279 8.336-18.614 18.614-18.614 10.279 0 18.614 8.335 18.614 18.614 0 1.409-.169 2.765-.469 4.083 2.334.091 4.447 1.056 5.987 2.622.6-2.14.952-4.37.952-6.705-.014-13.854-11.244-25.084-25.098-25.084s-25.085 11.231-25.085 25.084c.001 7.279 3.132 13.827 8.103 18.406z" fill="#3e4b5b"/></svg>