<?xml version="1.0" encoding="utf-8"?>
<!DOCTYPE svg PUBLIC "-//W3C//DTD SVG 1.1//EN" "http://www.w3.org/Graphics/SVG/1.1/DTD/svg11.dtd">
<svg version="1.1" id="Capa_1" xmlns="http://www.w3.org/2000/svg" xmlns:xlink="http://www.w3.org/1999/xlink" x="0px" y="0px"
	 width="123.82px" height="128px" viewBox="0 0 123.82 128" enable-background="new 0 0 123.82 128" xml:space="preserve">
<g>
	<path fill="#3E4B5B" d="M106.63,81.574v29.24H17.19v-29.24H0v37.835C0,124.152,3.844,128,8.608,128h106.604
		c4.762,0,8.608-3.843,8.608-8.591V81.574H106.63z"/>
	<path fill="#3E4B5B" d="M60.336,78.676l-24.61-29.74c0,0-3.745-3.535,0.315-3.535c4.062,0,13.868,0,13.868,0s0-2.378,0-6.046
		c0-10.457,0-29.487,0-37.245c0,0-0.551-2.109,2.626-2.109c3.202,0,17.229,0,19.521,0c2.289,0,2.237,1.776,2.237,1.776
		c0,7.523,0,27.211,0,37.327c0,3.279,0,5.405,0,5.405s7.865,0,12.802,0c4.927,0,1.217,3.702,1.217,3.702
		S67.373,76.007,64.453,78.923C62.352,81.037,60.336,78.676,60.336,78.676z"/>
</g>
</svg>
