<svg enable-background="new 0 0 123.82 128" height="128" viewBox="0 0 123.82 128" width="123.82" xmlns="http://www.w3.org/2000/svg"><g fill="#3e4b5b"><path d="m106.63 81.574v29.24h-89.44v-29.24h-17.19v37.835c0 4.743 3.844 8.591 8.608 8.591h106.604c4.762 0 8.608-3.843 8.608-8.591v-37.835z"/><path d="m60.336 78.676-24.61-29.74s-3.745-3.535.315-3.535h13.868s0-2.378 0-6.046c0-10.457 0-29.487 0-37.245 0 0-.551-2.109 2.626-2.109h19.521c2.289 0 2.237 1.776 2.237 1.776v37.327 5.405s7.865 0 12.802 0c4.927 0 1.217 3.702 1.217 3.702s-20.939 27.796-23.859 30.712c-2.101 2.114-4.117-.247-4.117-.247z"/></g></svg>