<?xml version="1.0" encoding="utf-8"?>

<!DOCTYPE svg PUBLIC "-//W3C//DTD SVG 1.1//EN" "http://www.w3.org/Graphics/SVG/1.1/DTD/svg11.dtd">
<svg version="1.1" id="Capa_1" xmlns="http://www.w3.org/2000/svg" x="0px" y="0px"
	 width="123.82px" height="128px" viewBox="2.088 0 123.82 128" enable-background="new 2.088 0 123.82 128" xml:space="preserve">
<g>
	<path fill="#3E4B5B" d="M108.718,81.574v29.24H19.278v-29.24H2.088v37.835c0,4.743,3.843,8.591,8.608,8.591H117.3
		c4.761,0,8.608-3.843,8.608-8.591V81.574H108.718z"/>
	<path fill="#3E4B5B" d="M62.424,78.676l-24.611-29.74c0,0-3.745-3.535,0.316-3.535s13.868,0,13.868,0s0-2.378,0-6.046
		c0-10.457,0-29.487,0-37.245c0,0-0.551-2.109,2.626-2.109c3.202,0,17.228,0,19.521,0c2.289,0,2.238,1.776,2.238,1.776
		c0,7.523,0,27.211,0,37.327c0,3.279,0,5.405,0,5.405s7.865,0,12.801,0c4.927,0,1.217,3.702,1.217,3.702
		S69.461,76.007,66.541,78.923C64.44,81.037,62.424,78.676,62.424,78.676z"/>
</g>
</svg>
