<?xml version="1.0" encoding="utf-8"?>
<!DOCTYPE svg PUBLIC "-//W3C//DTD SVG 1.1//EN" "http://www.w3.org/Graphics/SVG/1.1/DTD/svg11.dtd">
<svg version="1.1" id="Capa_1" xmlns="http://www.w3.org/2000/svg" xmlns:xlink="http://www.w3.org/1999/xlink" x="0px" y="0px"
	 width="128px" height="128px" viewBox="0 0 128 128" enable-background="new 0 0 128 128" xml:space="preserve">
<g>
	<g>
		<path fill="#3E4B5B" d="M123.371,38.306c6.172-6.197,6.172-16.241,0-22.435L112.188,4.648c-6.18-6.198-16.198-6.198-22.376,0
			l-6.765,7.005l33.562,33.656L123.371,38.306z"/>
		<path fill="#3E4B5B" d="M32.186,113.879c-4.836,0-11.896,0.627-15.316-2.805c-3.422-3.439-2.789-10.512-2.789-15.361
			c0-0.888-5.802-8.875-5.986-9.096L0,128l41.147-8.108C40.953,119.715,33.131,113.879,32.186,113.879z"/>
		<path fill="#3E4B5B" d="M75.975,17.905l-0.122,0.122l-0.066-0.066L15.092,78.898l35.334,35.327l60.883-60.644l-0.175-0.174
			l0.175-0.175L75.975,17.905z M25.428,79.601l51.27-51.339l6.546,6.541L31.959,86.131L25.428,79.601z M49.774,103.942l-6.612-6.61
			L94.45,46.01l6.614,6.613L49.774,103.942z"/>
	</g>
</g>
</svg>
