<svg enable-background="new 0 0 128 128" height="128" viewBox="0 0 128 128" width="128" xmlns="http://www.w3.org/2000/svg"><g fill="#3e4b5b"><path d="m123.371 38.306c6.172-6.197 6.172-16.241 0-22.435l-11.183-11.223c-6.18-6.198-16.198-6.198-22.376 0l-6.765 7.005 33.562 33.656z"/><path d="m32.186 113.879c-4.836 0-11.896.627-15.316-2.805-3.422-3.439-2.789-10.512-2.789-15.361 0-.888-5.802-8.875-5.986-9.096l-8.095 41.383 41.147-8.108c-.194-.177-8.016-6.013-8.961-6.013z"/><path d="m75.975 17.905-.122.122-.066-.066-60.695 60.937 35.334 35.327 60.883-60.644-.175-.174.175-.175zm-50.547 61.696 51.27-51.339 6.546 6.541-51.285 51.328zm24.346 24.341-6.612-6.61 51.288-51.322 6.614 6.613z"/></g></svg>