<?xml version="1.0" encoding="utf-8"?>

<!DOCTYPE svg PUBLIC "-//W3C//DTD SVG 1.1//EN" "http://www.w3.org/Graphics/SVG/1.1/DTD/svg11.dtd">
<svg version="1.1" id="Capa_1" xmlns="http://www.w3.org/2000/svg" x="0px" y="0px"
	 width="128px" height="128px" viewBox="238.268 238.268 128 128" enable-background="new 238.268 238.268 128 128"
	 xml:space="preserve">
<g>
	<g>
		<path fill="#3E4B5B" d="M361.639,276.573c6.172-6.197,6.172-16.241,0-22.435l-11.184-11.222c-6.18-6.198-16.198-6.198-22.376,0
			l-6.765,7.005l33.562,33.656L361.639,276.573z"/>
		<path fill="#3E4B5B" d="M270.453,352.146c-4.836,0-11.896,0.628-15.317-2.804c-3.421-3.439-2.788-10.512-2.788-15.362
			c0-0.887-5.802-8.874-5.986-9.095l-8.094,41.383l41.147-8.109C279.22,357.982,271.399,352.146,270.453,352.146z"/>
		<path fill="#3E4B5B" d="M314.242,256.173l-0.122,0.122l-0.066-0.067l-60.695,60.938l35.334,35.327l60.883-60.643l-0.175-0.174
			l0.175-0.175L314.242,256.173z M263.695,317.868l51.27-51.339l6.546,6.542l-51.284,51.328L263.695,317.868z M288.042,342.21
			l-6.613-6.611l51.289-51.321l6.614,6.613L288.042,342.21z"/>
	</g>
</g>
</svg>
