<svg enable-background="new 0 0 105 128" height="128" viewBox="0 0 105 128" width="105" xmlns="http://www.w3.org/2000/svg"><path d="m105 32.578v83.109c0 6.789-5.525 12.312-12.316 12.312h-56.194c-6.791 0-12.315-5.522-12.315-12.312v-48.039c1.756.291 3.549.479 5.388.479 1.305 0 3.584-.096 4.85-.245v46.805c0 1.696 1.381 3.078 3.08 3.078h54.19c1.697 0 3.08-1.382 3.08-3.078v-81.109c0-1.697-1.383-3.078-3.08-3.078h-25.479c0-3.211-.479-7.305-1.347-10.233h27.826c6.792-.002 12.317 5.522 12.317 12.311zm-75.951 25.5c-16.018 0-29.049-13.025-29.049-29.039 0-16.013 13.031-29.039 29.049-29.039 16.017 0 29.049 13.026 29.049 29.039 0 16.014-13.033 29.039-29.049 29.039zm0-8.156c12.621 0 20.889-8.264 20.889-20.883s-8.268-20.883-20.889-20.883c-12.623 0-20.891 8.262-20.891 20.883 0 12.619 8.269 20.883 20.891 20.883zm15.183-16.233c1.962 0 3.557-1.592 3.557-3.555s-1.594-3.555-3.557-3.555h-12.562v-11.954c0-1.961-1.592-3.555-3.555-3.555s-3.556 1.592-3.556 3.555v15.51c0 1.962 1.593 3.555 3.556 3.555zm37.446 21.964h-33.356c-1.699 0-3.078 2.017-3.078 4.5 0 2.484 1.379 4.5 3.078 4.5h33.355c1.701 0 3.078-2.015 3.078-4.5.003-2.485-1.376-4.5-3.077-4.5zm0 19.296h-33.356c-1.699 0-3.078 2.016-3.078 4.5s1.379 4.5 3.078 4.5h33.355c1.701 0 3.078-2.016 3.078-4.5.003-2.484-1.376-4.5-3.077-4.5zm0 19.399h-33.356c-1.699 0-3.078 2.016-3.078 4.5 0 2.482 1.379 4.5 3.078 4.5h33.355c1.701 0 3.078-2.018 3.078-4.5.003-2.487-1.376-4.5-3.077-4.5z" fill="#3e4b5b"/></svg>