<?xml version="1.0" encoding="utf-8"?>

<!DOCTYPE svg PUBLIC "-//W3C//DTD SVG 1.1//EN" "http://www.w3.org/Graphics/SVG/1.1/DTD/svg11.dtd">
<svg version="1.1" id="Layer_1" xmlns="http://www.w3.org/2000/svg" xmlns:xlink="http://www.w3.org/1999/xlink" x="0px" y="0px"
	 width="128px" height="128px" viewBox="64 28 128 128" enable-background="new 64 28 128 128" xml:space="preserve">
<g>
	<defs>
		<circle id="SVGID_1_" cx="128" cy="92" r="64"/>
	</defs>
	<use xlink:href="#SVGID_1_"  overflow="visible" fill="#A715B7"/>
	<clipPath id="SVGID_2_">
		<use xlink:href="#SVGID_1_"  overflow="visible"/>
	</clipPath>
	<g clip-path="url(#SVGID_2_)">
		<g>
			<path fill="#ACF0F2" d="M175.519,107.735c0,0,5.941,4.731,10.316,6.19c6.19,2.063,6.19,10.315,6.19,10.315v4.126l-19.441,10.466
				l-25.951-10.466v-4.126c0,0,0-8.252,6.19-10.315c4.378-1.459,10.316-6.19,10.316-6.19"/>
			<path fill="#FFB957" d="M179.646,94.325c0,7.221-4.049,13.41-10.316,13.41c-6.266,0-10.315-6.189-10.315-13.41
				c0-7.222,2.063-11.348,10.315-11.348C177.583,82.977,179.646,87.104,179.646,94.325z"/>
			<path fill="none" stroke="#657889" stroke-miterlimit="10" d="M179.646,94.325c0,7.221-4.049,13.41-10.316,13.41
				c-6.266,0-10.315-6.189-10.315-13.41c0-7.222,2.063-11.348,10.315-11.348C177.583,82.977,179.646,87.104,179.646,94.325z"/>
			<g>
				<path fill="none" stroke="#657889" stroke-linecap="round" stroke-miterlimit="10" d="M175.519,107.735
					c0,0,5.941,4.731,10.316,6.19c6.19,2.063,6.19,10.315,6.19,10.315v4.126l-19.191,11.383l-26.201-11.383v-4.126
					c0,0,0-8.252,6.19-10.315c4.378-1.459,10.316-6.19,10.316-6.19"/>
			</g>
		</g>
		<g>
			<path fill="#ACF0F2" d="M92.99,107.735c0,0,5.94,4.731,10.315,6.19c6.189,2.063,6.189,10.315,6.189,10.315v4.126l-26.161,11.3
				l-19.231-11.3v-4.126c0,0,0-8.252,6.19-10.315c4.376-1.459,10.315-6.19,10.315-6.19"/>
			<path fill="#FFB957" d="M97.116,94.325c0,7.221-4.05,13.41-10.316,13.41s-10.316-6.189-10.316-13.41
				c0-7.222,2.063-11.348,10.316-11.348C95.052,82.977,97.116,87.104,97.116,94.325z"/>
			<path fill="none" stroke="#657889" stroke-miterlimit="10" d="M97.116,94.325c0,7.221-4.05,13.41-10.316,13.41
				s-10.316-6.189-10.316-13.41c0-7.222,2.063-11.348,10.316-11.348C95.052,82.977,97.116,87.104,97.116,94.325z"/>
			<g>
				<path fill="none" stroke="#657889" stroke-linecap="round" stroke-miterlimit="10" d="M92.99,107.735
					c0,0,5.94,4.731,10.315,6.19c6.189,2.063,6.189,10.315,6.189,10.315v4.126l-27.244,12.05l-18.147-12.05v-4.126
					c0,0,0-8.252,6.19-10.315c4.376-1.459,10.315-6.19,10.315-6.19"/>
			</g>
		</g>
		<g>
			<path fill="#67DDE0" d="M144.57,113.926c14.443,8.253,28.885,6.191,28.885,26.823v4.126l-44.372,19.873l-46.41-19.873v-4.126
				c0-20.632,14.443-18.57,28.885-26.823H144.57z"/>
			<polygon fill="#FFFFFF" points="136.317,122.179 128.064,118.053 119.812,122.179 111.558,113.926 115.686,107.735
				117.749,107.735 117.749,99.483 128.064,101.546 138.382,99.483 138.382,107.735 140.444,107.735 144.57,113.926 			"/>
			<path fill="none" stroke="#4D5152" stroke-miterlimit="10" d="M142.507,113.926"/>
			<path fill="none" stroke="#657889" stroke-miterlimit="10" d="M144.57,113.926c14.443,8.253,28.885,6.191,28.885,26.823v4.126
				l-45.872,17.54l-44.91-17.54v-4.126c0-20.632,14.443-18.57,28.885-26.823"/>
			<polygon fill="none" stroke="#657889" stroke-miterlimit="10" points="136.317,122.179 128.064,118.053 119.812,122.179
				111.558,113.926 115.686,107.735 128.064,109.799 140.444,107.735 144.57,113.926 			"/>
			<line fill="none" stroke="#657889" stroke-miterlimit="10" x1="138.382" y1="99.483" x2="138.382" y2="107.735"/>
			<line fill="none" stroke="#657889" stroke-miterlimit="10" x1="117.749" y1="107.735" x2="117.749" y2="99.483"/>
			<line fill="none" stroke="#657889" stroke-miterlimit="10" x1="126.001" y1="136.622" x2="130.128" y2="136.622"/>
			<line fill="none" stroke="#657889" stroke-miterlimit="10" x1="126.001" y1="128.367" x2="130.128" y2="128.367"/>
			<g>
				<path fill="#FFFFFF" d="M146.633,72.661v8.251c-2.062,14.444-8.251,18.571-8.251,18.571c-4.127,2.062-10.318,2.062-10.318,2.062
					s-6.189,0-10.315-2.062c0,0-6.19-4.127-8.254-18.571v-8.251l8.254-4.127l20.633,8.253L146.633,72.661z"/>
				<path fill="#FFB957" d="M109.495,72.661c0-12.535,6.036-18.57,18.569-18.57c12.536,0,18.569,6.035,18.569,18.57l-8.251,4.126
					l-10.318-4.126l-10.315-4.127L109.495,72.661z"/>
				<path fill="none" stroke="#657889" stroke-miterlimit="10" d="M146.633,72.661v8.251c-2.062,14.444-8.251,18.571-8.251,18.571
					c-4.127,2.062-10.318,2.062-10.318,2.062s-6.189,0-10.315-2.062c0,0-6.19-4.127-8.254-18.571v-8.251"/>
				<path fill="none" stroke="#657889" stroke-miterlimit="10" d="M109.495,72.661c0-12.535,6.036-18.57,18.569-18.57
					c12.536,0,18.569,6.035,18.569,18.57"/>
				<polyline fill="none" stroke="#657889" stroke-miterlimit="10" points="109.495,72.661 117.749,68.534 128.064,72.661
					138.382,76.788 146.633,72.661"/>
			</g>
		</g>
	</g>
</g>
</svg>
