<svg enable-background="new 0 0 128 128" height="128" viewBox="0 0 128 128" width="128" xmlns="http://www.w3.org/2000/svg"><path d="m124.568 38.744-57.041-24.055c-1.289-.568-2.685-.671-3.612-.671-.929 0-2.323.103-3.613.671l-57.04 24.055c-1.807.723-2.839 2.116-2.839 3.716 0 1.601 1.032 2.994 2.839 3.717l20.338 8.569v24.107c0 .771.31 1.496.877 2.062.568.566 1.291.877 2.064.877.207 0 19.512.207 36.341 17.346.568.567 1.291.879 2.063.879h.259c.878-.053 1.651-.518 2.168-1.238.222-.295 13.063-21.8 41.192-22.715 1.602-.051 2.84-1.34 2.84-2.941v-21.32l13.318-5.575c1.756-.723 2.838-2.116 2.838-3.717-.152-1.651-1.185-3.044-2.992-3.767zm-21.15 30.59c-10.736.932-18.318 3.318-27.766 10.751-4.646 3.666-9.053 8.278-11.016 10.603-14.041-13.008-26.01-14.952-32.205-15.57v-16.895l27.87 12.007c1.291.567 2.684.672 3.613.672.93 0 2.324-.104 3.613-.672l36.89-14.949.001 13.053zm-39.161-7.522c.794.103.277.205-.342.205s-1.136-.104-1.342-.205l-50.117-19.352 50.117-20.352c.206-.103.723-.207 1.342-.207s1.136.104 1.342.207l49.116 20.352z" fill="#3e4b5b"/><path d="m60.818 36.214 28.339 23.177.825 54.408 5.37-16.52 5.834 6.453-.053-49.967z" fill="#4c9c8d"/></svg>