<?xml version="1.0" encoding="utf-8"?>

<!DOCTYPE svg PUBLIC "-//W3C//DTD SVG 1.1//EN" "http://www.w3.org/Graphics/SVG/1.1/DTD/svg11.dtd">
<svg version="1.1" id="Layer_1" xmlns="http://www.w3.org/2000/svg" x="0px" y="0px"
	 width="128px" height="128px" viewBox="0 0 128 128" enable-background="new 0 0 128 128" xml:space="preserve">
<g>
	<path fill="#3E4B5B" d="M124.568,38.744L67.527,14.689c-1.289-0.568-2.685-0.671-3.612-0.671c-0.929,0-2.323,0.103-3.613,0.671
		L3.262,38.744c-1.807,0.723-2.839,2.116-2.839,3.716c0,1.601,1.032,2.994,2.839,3.717L23.6,54.746v24.107
		c0,0.771,0.31,1.496,0.877,2.062c0.568,0.566,1.291,0.877,2.064,0.877c0.207,0,19.512,0.207,36.341,17.346
		c0.568,0.567,1.291,0.879,2.063,0.879c0.104,0,0.156,0,0.259,0c0.878-0.053,1.651-0.518,2.168-1.238
		c0.222-0.295,13.063-21.8,41.192-22.715c1.602-0.051,2.84-1.34,2.84-2.941v-21.32l13.318-5.575
		c1.756-0.723,2.838-2.116,2.838-3.717C127.408,40.86,126.375,39.467,124.568,38.744z M103.418,69.334
		C92.682,70.266,85.1,72.652,75.652,80.085c-4.646,3.666-9.053,8.278-11.016,10.603C50.595,77.68,38.626,75.736,32.431,75.118
		V58.223l27.87,12.007c1.291,0.567,2.684,0.672,3.613,0.672c0.93,0,2.324-0.104,3.613-0.672l36.89-14.949l0.001,13.053
		L103.418,69.334z M64.257,61.812c0.794,0.103,0.277,0.205-0.342,0.205s-1.136-0.104-1.342-0.205L12.456,42.46l50.117-20.352
		c0.206-0.103,0.723-0.207,1.342-0.207s1.136,0.104,1.342,0.207l49.116,20.352L64.257,61.812z"/>
	<polygon fill="#4C9C8D" points="60.818,36.214 89.157,59.391 89.982,113.799 95.352,97.279 101.186,103.732 101.133,53.765 	"/>
</g>
</svg>
