<?xml version="1.0" encoding="utf-8"?>

<!DOCTYPE svg PUBLIC "-//W3C//DTD SVG 1.1//EN" "http://www.w3.org/Graphics/SVG/1.1/DTD/svg11.dtd">
<svg version="1.1" id="Layer_1" xmlns="http://www.w3.org/2000/svg" x="0px" y="0px"
	 width="128px" height="128px" viewBox="0 0 128 128" enable-background="new 0 0 128 128" xml:space="preserve">
<g>
	<polygon fill="#3E4B5B" points="64.227,107.389 66.048,111.158 70.219,111.762 67.261,114.699 67.943,118.845 64.227,116.887
		60.437,118.845 61.194,114.699 58.161,111.762 62.332,111.158 	"/>
	<g>
		<g>
			<path fill="#3E4B5B" d="M83.412,109.273c-3.26,3.316-7.886,3.996-7.886,3.996s0.682-4.599,3.943-7.841
				c3.261-3.315,7.886-3.993,7.886-3.993S86.673,105.958,83.412,109.273z"/>
			<path fill="#3E4B5B" d="M83.412,118.845c-4.551-0.979-7.582-4.521-7.582-4.521s4.322-1.809,8.796-0.829
				c4.55,0.979,7.583,4.522,7.583,4.522S87.962,119.824,83.412,118.845z"/>
			<path fill="#3E4B5B" d="M95.47,105.656c-2.427,3.24-6.294,4.37-6.294,4.37s0-4.068,2.426-7.31
				c2.427-3.242,6.294-4.371,6.294-4.371S97.896,102.415,95.47,105.656z"/>
			<path fill="#3E4B5B" d="M96.758,113.946c-4.019-0.301-7.051-2.938-7.051-2.938s3.487-2.187,7.507-1.81
				c4.018,0.302,7.051,2.939,7.051,2.939S100.777,114.248,96.758,113.946z"/>
			<path fill="#3E4B5B" d="M104.948,100.079c-1.593,3.315-4.93,4.974-4.93,4.974s-0.607-3.617,0.985-6.934s4.929-4.975,4.929-4.975
				S106.54,96.763,104.948,100.079z"/>
			<path fill="#3E4B5B" d="M107.45,107.314c-3.716,0.376-6.9-1.507-6.9-1.507s2.806-2.487,6.369-2.865
				c3.716-0.377,6.901,1.508,6.901,1.508S111.089,107.013,107.45,107.314z"/>
			<path fill="#3E4B5B" d="M111.696,94.501c-0.909,3.09-3.562,4.974-3.562,4.974s-1.062-2.938-0.152-6.028
				c0.909-3.091,3.563-4.974,3.563-4.974S112.606,91.412,111.696,94.501z"/>
			<path fill="#3E4B5B" d="M114.882,100.305c-3.109,0.829-6.067-0.377-6.067-0.377s1.973-2.562,5.08-3.316
				c3.111-0.753,6.067,0.377,6.067,0.377S117.991,99.552,114.882,100.305z"/>
			<path fill="#3E4B5B" d="M116.853,89c-0.53,2.638-2.577,4.521-2.577,4.521s-1.138-2.562-0.607-5.2s2.578-4.521,2.578-4.521
				S117.461,86.286,116.853,89z"/>
			<path fill="#3E4B5B" d="M120.038,93.748c-2.577,0.904-5.232,0.151-5.232,0.151s1.517-2.262,4.095-3.242
				c2.578-0.903,5.231-0.15,5.231-0.15S122.692,92.768,120.038,93.748z"/>
			<path fill="#3E4B5B" d="M120.417,83.875c-0.151,2.185-1.593,3.993-1.593,3.993s-1.212-1.883-1.06-4.145
				c0.148-2.186,1.591-3.994,1.591-3.994S120.568,81.689,120.417,83.875z"/>
			<path fill="#3E4B5B" d="M123.525,87.417c-1.972,1.056-4.245,0.678-4.245,0.678s0.985-2.109,2.956-3.09
				c1.973-0.979,4.247-0.678,4.247-0.678S125.497,86.438,123.525,87.417z"/>
			<path fill="#3E4B5B" d="M122.692,78.749c0.15,1.96-0.835,3.692-0.835,3.692s-1.289-1.431-1.516-3.465
				c-0.228-1.961,0.834-3.694,0.834-3.694S122.465,76.79,122.692,78.749z"/>
			<path fill="#3E4B5B" d="M125.802,81.387c-1.593,1.206-3.565,1.206-3.565,1.206s0.532-1.884,2.2-3.09
				c1.592-1.13,3.563-1.206,3.563-1.206S127.47,80.182,125.802,81.387z"/>
		</g>
		<g>
			<path fill="#3E4B5B" d="M44.587,109.273c3.261,3.316,7.887,3.996,7.887,3.996s-0.683-4.599-3.943-7.841
				c-3.261-3.315-7.886-3.993-7.886-3.993S41.327,105.958,44.587,109.273z"/>
			<path fill="#3E4B5B" d="M44.587,118.845c4.55-0.979,7.583-4.521,7.583-4.521s-4.322-1.809-8.796-0.829
				c-4.55,0.979-7.583,4.522-7.583,4.522S40.038,119.824,44.587,118.845z"/>
			<path fill="#3E4B5B" d="M32.53,105.656c2.428,3.24,6.294,4.37,6.294,4.37s0-4.068-2.427-7.31
				c-2.427-3.242-6.294-4.371-6.294-4.371S30.104,102.415,32.53,105.656z"/>
			<path fill="#3E4B5B" d="M31.241,113.946c4.019-0.301,7.053-2.938,7.053-2.938s-3.488-2.187-7.507-1.81
				c-4.019,0.302-7.052,2.939-7.052,2.939S27.223,114.248,31.241,113.946z"/>
			<path fill="#3E4B5B" d="M23.052,100.079c1.592,3.315,4.929,4.974,4.929,4.974s0.606-3.617-0.986-6.934s-4.928-4.975-4.928-4.975
				S21.459,96.763,23.052,100.079z"/>
			<path fill="#3E4B5B" d="M20.625,107.314c3.716,0.376,6.9-1.507,6.9-1.507s-2.805-2.487-6.369-2.865
				c-3.716-0.377-6.9,1.508-6.9,1.508S16.91,107.013,20.625,107.314z"/>
			<path fill="#3E4B5B" d="M16.303,94.501c0.91,3.09,3.564,4.974,3.564,4.974s1.062-2.938,0.152-6.028
				c-0.911-3.091-3.564-4.974-3.564-4.974S15.317,91.412,16.303,94.501z"/>
			<path fill="#3E4B5B" d="M13.119,100.305c3.109,0.829,6.066-0.377,6.066-0.377s-1.972-2.562-5.081-3.316
				c-3.108-0.753-6.066,0.377-6.066,0.377S10.085,99.552,13.119,100.305z"/>
			<path fill="#3E4B5B" d="M11.147,89c0.531,2.638,2.579,4.521,2.579,4.521s1.137-2.562,0.606-5.2
				C13.8,85.684,11.753,83.8,11.753,83.8S10.541,86.286,11.147,89z"/>
			<path fill="#3E4B5B" d="M7.962,93.748c2.579,0.904,5.232,0.151,5.232,0.151s-1.517-2.262-4.095-3.242
				c-2.578-0.903-5.232-0.15-5.232-0.15S5.308,92.768,7.962,93.748z"/>
			<path fill="#3E4B5B" d="M7.583,83.875c0.152,2.185,1.593,3.993,1.593,3.993s1.212-1.883,1.062-4.145
				c-0.152-2.186-1.593-3.994-1.593-3.994S7.431,81.689,7.583,83.875z"/>
			<path fill="#3E4B5B" d="M4.474,87.417c1.972,1.056,4.247,0.678,4.247,0.678s-0.985-2.109-2.957-3.09
				c-1.972-0.979-4.247-0.678-4.247-0.678S2.502,86.438,4.474,87.417z"/>
			<path fill="#3E4B5B" d="M5.308,78.749c-0.151,1.96,0.834,3.692,0.834,3.692s1.289-1.431,1.517-3.465
				c0.151-1.961-0.834-3.694-0.834-3.694S5.611,76.79,5.308,78.749z"/>
			<path fill="#3E4B5B" d="M2.199,81.387c1.592,1.206,3.564,1.206,3.564,1.206s-0.531-1.884-2.199-3.09
				C1.896,78.297,0,78.222,0,78.222S0.531,80.182,2.199,81.387z"/>
		</g>
	</g>
	<g>
		<path fill="#3E4B5B" d="M64.062,67.447h-0.484c-15.729,0-28.548-12.739-28.548-28.374V8.864H92.61V39.17
			C92.61,54.805,79.794,67.447,64.062,67.447z M42.562,16.467v20.465c0,13.319,7.616,23.105,21.016,23.105h0.484
			c13.403,0,21.019-9.786,21.019-23.105V16.467H41.443H42.562z"/>
		<polygon fill="#3E4B5B" points="67.271,87.562 67.271,65.422 58.618,65.422 58.618,87.562 48.136,87.562 48.136,95.07
			77.269,95.07 77.269,87.562 		"/>
		<path fill="#3E4B5B" d="M42.879,51.91h-5.631c-8.935,0-16.12-9.266-16.12-20.558V18.805h16.12v5.27H26.422v7.278
			c0,8.976,5.341,15.191,11.848,15.191h2.427v0.868l1.457-0.578L42.879,51.91z"/>
		<path fill="#3E4B5B" d="M90.948,51.91h-5.634l0.531-5.076l1.457,0.578v-0.868h2.427c6.507,0,11.848-6.215,11.848-15.191v-7.278
			H90.656v-5.173h16.215v12.546C106.969,42.742,99.782,51.91,90.948,51.91z"/>
	</g>
</g>
</svg>
