<svg enable-background="new 0 0 128 128" height="128" viewBox="0 0 128 128" width="128" xmlns="http://www.w3.org/2000/svg"><g fill="#3e4b5b"><path d="m64.227 107.389 1.821 3.769 4.171.604-2.958 2.937.682 4.146-3.716-1.958-3.79 1.958.757-4.146-3.033-2.937 4.171-.604z"/><path d="m83.412 109.273c-3.26 3.316-7.886 3.996-7.886 3.996s.682-4.599 3.943-7.841c3.261-3.315 7.886-3.993 7.886-3.993s-.682 4.523-3.943 7.838z"/><path d="m83.412 118.845c-4.551-.979-7.582-4.521-7.582-4.521s4.322-1.809 8.796-.829c4.55.979 7.583 4.522 7.583 4.522s-4.247 1.807-8.797.828z"/><path d="m95.47 105.656c-2.427 3.24-6.294 4.37-6.294 4.37s0-4.068 2.426-7.31c2.427-3.242 6.294-4.371 6.294-4.371s0 4.07-2.426 7.311z"/><path d="m96.758 113.946c-4.019-.301-7.051-2.938-7.051-2.938s3.487-2.187 7.507-1.81c4.018.302 7.051 2.939 7.051 2.939s-3.488 2.111-7.507 1.809z"/><path d="m104.948 100.079c-1.593 3.315-4.93 4.974-4.93 4.974s-.607-3.617.985-6.934 4.929-4.975 4.929-4.975.608 3.619-.984 6.935z"/><path d="m107.45 107.314c-3.716.376-6.9-1.507-6.9-1.507s2.806-2.487 6.369-2.865c3.716-.377 6.901 1.508 6.901 1.508s-2.731 2.563-6.37 2.864z"/><path d="m111.696 94.501c-.909 3.09-3.562 4.974-3.562 4.974s-1.062-2.938-.152-6.028c.909-3.091 3.563-4.974 3.563-4.974s1.061 2.939.151 6.028z"/><path d="m114.882 100.305c-3.109.829-6.067-.377-6.067-.377s1.973-2.562 5.08-3.316c3.111-.753 6.067.377 6.067.377s-1.971 2.563-5.08 3.316z"/><path d="m116.853 89c-.53 2.638-2.577 4.521-2.577 4.521s-1.138-2.562-.607-5.2 2.578-4.521 2.578-4.521 1.214 2.486.606 5.2z"/><path d="m120.038 93.748c-2.577.904-5.232.151-5.232.151s1.517-2.262 4.095-3.242c2.578-.903 5.231-.15 5.231-.15s-1.44 2.261-4.094 3.241z"/><path d="m120.417 83.875c-.151 2.185-1.593 3.993-1.593 3.993s-1.212-1.883-1.06-4.145c.148-2.186 1.591-3.994 1.591-3.994s1.213 1.96 1.062 4.146z"/><path d="m123.525 87.417c-1.972 1.056-4.245.678-4.245.678s.985-2.109 2.956-3.09c1.973-.979 4.247-.678 4.247-.678s-.986 2.111-2.958 3.09z"/><path d="m122.692 78.749c.15 1.96-.835 3.692-.835 3.692s-1.289-1.431-1.516-3.465c-.228-1.961.834-3.694.834-3.694s1.29 1.508 1.517 3.467z"/><path d="m125.802 81.387c-1.593 1.206-3.565 1.206-3.565 1.206s.532-1.884 2.2-3.09c1.592-1.13 3.563-1.206 3.563-1.206s-.53 1.885-2.198 3.09z"/><path d="m44.587 109.273c3.261 3.316 7.887 3.996 7.887 3.996s-.683-4.599-3.943-7.841c-3.261-3.315-7.886-3.993-7.886-3.993s.682 4.523 3.942 7.838z"/><path d="m44.587 118.845c4.55-.979 7.583-4.521 7.583-4.521s-4.322-1.809-8.796-.829c-4.55.979-7.583 4.522-7.583 4.522s4.247 1.807 8.796.828z"/><path d="m32.53 105.656c2.428 3.24 6.294 4.37 6.294 4.37s0-4.068-2.427-7.31-6.294-4.371-6.294-4.371.001 4.07 2.427 7.311z"/><path d="m31.241 113.946c4.019-.301 7.053-2.938 7.053-2.938s-3.488-2.187-7.507-1.81c-4.019.302-7.052 2.939-7.052 2.939s3.488 2.111 7.506 1.809z"/><path d="m23.052 100.079c1.592 3.315 4.929 4.974 4.929 4.974s.606-3.617-.986-6.934-4.928-4.975-4.928-4.975-.608 3.619.985 6.935z"/><path d="m20.625 107.314c3.716.376 6.9-1.507 6.9-1.507s-2.805-2.487-6.369-2.865c-3.716-.377-6.9 1.508-6.9 1.508s2.654 2.563 6.369 2.864z"/><path d="m16.303 94.501c.91 3.09 3.564 4.974 3.564 4.974s1.062-2.938.152-6.028c-.911-3.091-3.564-4.974-3.564-4.974s-1.138 2.939-.152 6.028z"/><path d="m13.119 100.305c3.109.829 6.066-.377 6.066-.377s-1.972-2.562-5.081-3.316c-3.108-.753-6.066.377-6.066.377s2.047 2.563 5.081 3.316z"/><path d="m11.147 89c.531 2.638 2.579 4.521 2.579 4.521s1.137-2.562.606-5.2c-.532-2.637-2.579-4.521-2.579-4.521s-1.212 2.486-.606 5.2z"/><path d="m7.962 93.748c2.579.904 5.232.151 5.232.151s-1.517-2.262-4.095-3.242c-2.578-.903-5.232-.15-5.232-.15s1.441 2.261 4.095 3.241z"/><path d="m7.583 83.875c.152 2.185 1.593 3.993 1.593 3.993s1.212-1.883 1.062-4.145c-.152-2.186-1.593-3.994-1.593-3.994s-1.214 1.96-1.062 4.146z"/><path d="m4.474 87.417c1.972 1.056 4.247.678 4.247.678s-.985-2.109-2.957-3.09c-1.972-.979-4.247-.678-4.247-.678s.985 2.111 2.957 3.09z"/><path d="m5.308 78.749c-.151 1.96.834 3.692.834 3.692s1.289-1.431 1.517-3.465c.151-1.961-.834-3.694-.834-3.694s-1.214 1.508-1.517 3.467z"/><path d="m2.199 81.387c1.592 1.206 3.564 1.206 3.564 1.206s-.531-1.884-2.199-3.09-3.564-1.281-3.564-1.281.531 1.96 2.199 3.165z"/><path d="m64.062 67.447h-.484c-15.729 0-28.548-12.739-28.548-28.374v-30.209h57.58v30.306c0 15.635-12.816 28.277-28.548 28.277zm-21.5-50.98v20.465c0 13.319 7.616 23.105 21.016 23.105h.484c13.403 0 21.019-9.786 21.019-23.105v-20.465h-43.638z"/><path d="m67.271 87.562v-22.14h-8.653v22.14h-10.482v7.508h29.133v-7.508z"/><path d="m42.879 51.91h-5.631c-8.935 0-16.12-9.266-16.12-20.558v-12.547h16.12v5.27h-10.826v7.278c0 8.976 5.341 15.191 11.848 15.191h2.427v.868l1.457-.578z"/><path d="m90.948 51.91h-5.634l.531-5.076 1.457.578v-.868h2.427c6.507 0 11.848-6.215 11.848-15.191v-7.278h-10.921v-5.173h16.215v12.546c.098 11.294-7.089 20.462-15.923 20.462z"/></g></svg>