<?xml version="1.0" encoding="utf-8"?>

<!DOCTYPE svg PUBLIC "-//W3C//DTD SVG 1.1//EN" "http://www.w3.org/Graphics/SVG/1.1/DTD/svg11.dtd">
<svg version="1.1" id="Layer_1" xmlns="http://www.w3.org/2000/svg" x="0px" y="0px"
	 width="128px" height="128px" viewBox="0 0 128 128" enable-background="new 0 0 128 128" xml:space="preserve">
<path id="uniE907" fill="#3E4B5B" d="M122.557,66.678c1.521,0,2.793-0.529,3.817-1.587s1.537-2.313,1.537-3.767V29.293
	c0-4.43-1.552-8.213-4.66-11.354c-3.108-3.142-6.875-4.711-11.306-4.711h-95.89c-4.363,0-8.115,1.569-11.255,4.711
	c-3.14,3.141-4.71,6.924-4.71,11.354v64.061c0,4.43,1.569,8.213,4.71,11.354c3.14,3.142,6.892,4.71,11.255,4.71h42.64
	c1.455,0,2.711-0.514,3.768-1.537c1.059-1.023,1.587-2.297,1.587-3.816c0-1.455-0.528-2.711-1.587-3.77
	c-1.058-1.059-2.313-1.587-3.768-1.587h-42.64c-1.454,0-2.694-0.513-3.719-1.537c-1.025-1.022-1.537-2.297-1.537-3.815V32.27
	l49.68,43.729c0.53,0.463,1.091,0.81,1.686,1.041c0.595,0.231,1.223,0.349,1.884,0.349c0.596,0,1.191-0.117,1.785-0.349
	c0.596-0.231,1.159-0.578,1.686-1.041l49.781-43.729v29.056c0,1.452,0.512,2.709,1.537,3.767
	C119.861,66.15,121.102,66.678,122.557,66.678L122.557,66.678z M17.443,23.938h93.114L64.049,64.895L17.443,23.938L17.443,23.938z"
	/>
<g id="icomoon-ignore">
</g>
<path fill="#3E4B5B" d="M100.679,67.758c-15.089,0-27.321,12.235-27.321,27.321c0,15.089,12.232,27.321,27.321,27.321
	S128,110.168,128,95.079S115.768,67.758,100.679,67.758L100.679,67.758z M100.679,116.461c-11.811,0-21.382-9.574-21.382-21.382
	s9.571-21.382,21.382-21.382s21.382,9.574,21.382,21.382S112.489,116.461,100.679,116.461L100.679,116.461z M102.757,79.637H98.6
	V95.94l10.111,10.111l2.94-2.94l-8.895-8.894V79.637z"/>
</svg>
