<svg enable-background="new 0 0 128 128" height="128" viewBox="0 0 128 128" width="128" xmlns="http://www.w3.org/2000/svg"><path d="m122.557 66.678c1.521 0 2.793-.529 3.817-1.587s1.537-2.313 1.537-3.767v-32.031c0-4.43-1.552-8.213-4.66-11.354-3.108-3.142-6.875-4.711-11.306-4.711h-95.89c-4.363 0-8.115 1.569-11.255 4.711-3.14 3.141-4.71 6.924-4.71 11.354v64.061c0 4.43 1.569 8.213 4.71 11.354 3.14 3.142 6.892 4.71 11.255 4.71h42.64c1.455 0 2.711-.513 3.768-1.537 1.059-1.023 1.587-2.297 1.587-3.816 0-1.455-.528-2.711-1.587-3.77-1.058-1.059-2.313-1.587-3.768-1.587h-42.64c-1.454 0-2.694-.513-3.719-1.537-1.025-1.022-1.537-2.297-1.537-3.815v-61.086l49.68 43.729c.53.463 1.091.81 1.686 1.041s1.223.349 1.884.349c.596 0 1.191-.117 1.785-.349.596-.231 1.159-.578 1.686-1.041l49.781-43.729v29.056c0 1.452.512 2.709 1.537 3.767 1.023 1.057 2.264 1.585 3.719 1.585zm-105.114-42.74h93.114l-46.508 40.957z" fill="#3e4b5b"/><path d="m80.103 87.745c-1.453 0-2.709.512-3.765 1.535-1.058 1.025-1.586 2.264-1.586 3.719 0 1.521.528 2.793 1.586 3.817 1.06 1.024 2.315 1.537 3.769 1.537h29.75l-6.94 6.942c-.99 1.058-1.486 2.312-1.486 3.769 0 1.454.496 2.71 1.486 3.769.528.527 1.123.924 1.784 1.189.66.264 1.322.396 1.981.396.726 0 1.406-.131 2.033-.396.629-.266 1.207-.662 1.735-1.189l15.966-15.965c.528-.529.925-1.109 1.188-1.736.262-.627.396-1.338.396-2.131 0-.729-.134-1.404-.396-2.032-.265-.63-.629-1.175-1.091-1.638-.065-.033-.1-.05-.1-.05v-.05l-15.966-15.965c-1.06-1.057-2.313-1.586-3.771-1.586s-2.709.527-3.769 1.586c-.989.992-1.485 2.232-1.485 3.719s.496 2.76 1.485 3.816l6.941 6.943h-29.745z" fill="#4c9c8d"/></svg>