<svg enable-background="new 0 0 128 128" height="128" viewBox="0 0 128 128" width="128" xmlns="http://www.w3.org/2000/svg"><g fill="#3e4b5b"><path d="m122.557 66.678c1.521 0 2.793-.529 3.817-1.587s1.537-2.313 1.537-3.767v-32.031c0-4.43-1.552-8.213-4.66-11.354-3.108-3.142-6.875-4.711-11.306-4.711h-95.89c-4.363 0-8.115 1.569-11.255 4.711-3.14 3.141-4.71 6.924-4.71 11.354v64.061c0 4.43 1.569 8.213 4.71 11.354 3.14 3.142 6.892 4.71 11.255 4.71h42.64c1.455 0 2.711-.514 3.768-1.537 1.059-1.023 1.587-2.297 1.587-3.816 0-1.455-.528-2.711-1.587-3.77-1.058-1.059-2.313-1.587-3.768-1.587h-42.64c-1.454 0-2.694-.513-3.719-1.537-1.025-1.022-1.537-2.297-1.537-3.815v-61.086l49.68 43.729c.53.463 1.091.81 1.686 1.041s1.223.349 1.884.349c.596 0 1.191-.117 1.785-.349.596-.231 1.159-.578 1.686-1.041l49.781-43.729v29.056c0 1.452.512 2.709 1.537 3.767 1.023 1.057 2.264 1.585 3.719 1.585zm-105.114-42.74h93.114l-46.508 40.957z"/><path d="m100.679 67.758c-15.089 0-27.321 12.235-27.321 27.321 0 15.089 12.232 27.321 27.321 27.321s27.321-12.232 27.321-27.321-12.232-27.321-27.321-27.321zm0 48.703c-11.811 0-21.382-9.574-21.382-21.382s9.571-21.382 21.382-21.382 21.382 9.574 21.382 21.382-9.572 21.382-21.382 21.382zm2.078-36.824h-4.157v16.303l10.111 10.111 2.94-2.94-8.895-8.894v-14.58z"/></g></svg>