<svg enable-background="new 0 0 128 128" height="128" viewBox="0 0 128 128" width="128" xmlns="http://www.w3.org/2000/svg"><g fill="#3e4b5b"><path d="m41.714 92.402 18.847 8.765 32.628-94.087zm28.64-1.726c8.902-2.707 15.386-10.951 15.386-20.708 0-4.604-1.452-8.864-3.914-12.372zm-8.929-42.197c-10.791 1.271-19.165 10.399-19.165 21.489 0 2.759.54 5.392 1.484 7.817z"/><path d="m11.637 69.968c0-28.805 23.444-52.157 52.363-52.157 5.096 0 10.011.738 14.667 2.092l6.159-10.213c-6.7-2.299-13.739-3.472-20.826-3.47-35.348 0-64 28.54-64 63.748 0 21.354 10.553 40.244 26.734 51.812l5.848-10.088c-12.721-9.514-20.945-24.66-20.945-41.724zm84.927-54.875-3.896 11.236c14.266 9.317 23.694 25.378 23.694 43.639 0 17.063-8.229 32.209-20.945 41.726l5.847 10.087c16.182-11.569 26.736-30.456 26.736-51.813 0-23.361-12.622-43.775-31.436-54.875z"/></g></svg>