<?xml version="1.0" encoding="utf-8"?>

<!DOCTYPE svg PUBLIC "-//W3C//DTD SVG 1.1//EN" "http://www.w3.org/Graphics/SVG/1.1/DTD/svg11.dtd">
<svg version="1.1" id="Layer_1" xmlns="http://www.w3.org/2000/svg" x="0px" y="0px"
	 width="128px" height="128px" viewBox="0 0 128 128" enable-background="new 0 0 128 128" xml:space="preserve">
<g>
		<path opacity="0.7" fill="#3E4B5B" d="M11.171,93.938v17.543H26.24V79.055l-10.415,10.31L11.171,93.938z M31.708,111.48h15.07
			V58.615l-15.07,14.883V111.48z M108.393,59.658V36.669L93.324,51.607v4.574C98.675,56.183,103.855,57.457,108.393,59.658z
			 M66.734,111.48H52.189V55.604l14.023,13.84c-4.423,5.734-7.1,12.912-7.1,20.673C59.17,98.223,62.021,105.633,66.734,111.48z"/>
		<path fill="#3E4B5B" d="M87.389,6.501l9.894,9.9l0.058,0.059l-26.531,26.52L50.909,23.004L0,73.844l10.588,10.539L50.909,44.14
			l20.016,19.978l37.119-37.061l9.89,9.844l3.201-33.584L87.389,6.501z M99.898,124.684V96.717H128
			C128,112.176,115.434,124.684,99.898,124.684z M93.266,62.205c-15.477,0-28.102,12.508-28.102,27.967
			c0,15.402,12.566,27.969,28.102,27.969V90.172h28.103C121.367,74.713,108.8,62.205,93.266,62.205z"/>
</g>
</svg>
