<?xml version="1.0" encoding="utf-8"?>
<!DOCTYPE svg PUBLIC "-//W3C//DTD SVG 1.1//EN" "http://www.w3.org/Graphics/SVG/1.1/DTD/svg11.dtd">
<svg version="1.1" id="Layer_1" xmlns="http://www.w3.org/2000/svg" x="0px" y="0px"
	 width="128px" height="128px" viewBox="0 0 128 128" enable-background="new 0 0 128 128" xml:space="preserve">
<g>
	<g id="_x30_4">
		<path fill="#4C9C8D" d="M99.652,108.073l8.232,8.23c1.539,1.541,4.037,1.541,5.578,0l13.381-13.38
			c1.541-1.541,1.541-4.038,0-5.577c-1.541-1.541-4.039-1.541-5.578,0l-10.594,10.592l-5.441-5.443
			c-1.541-1.538-4.039-1.538-5.578,0C98.113,104.036,98.113,106.532,99.652,108.073z"/>
		<path fill="#3E4B5B" d="M84.145,109.478c0,3.346-2.715,6.061-6.061,6.061H6.062c-3.347,0-6.062-2.713-6.062-6.061l0,0
			c0-3.349,2.714-6.062,6.062-6.062h72.02C81.43,103.413,84.145,106.129,84.145,109.478L84.145,109.478z"/>
	</g>
	<g id="_x30_3">
		<path fill="#4C9C8D" d="M99.652,79.288l8.232,8.23c1.538,1.541,4.036,1.541,5.577,0l13.381-13.379
			c1.541-1.541,1.541-4.039,0-5.578c-1.541-1.541-4.038-1.541-5.577,0l-10.595,10.592l-5.44-5.442c-1.541-1.539-4.039-1.539-5.578,0
			C98.113,75.252,98.113,77.747,99.652,79.288z"/>
		<path fill="#3E4B5B" d="M84.145,80.69c0,3.348-2.715,6.062-6.062,6.062H6.062C2.715,86.752,0,84.04,0,80.69l0,0
			c0-3.348,2.714-6.062,6.062-6.062h72.02C81.43,74.628,84.145,77.345,84.145,80.69L84.145,80.69z"/>
	</g>
	<g id="_x30_2">
		<path fill="#4C9C8D" d="M99.652,49.847l8.232,8.231c1.538,1.541,4.036,1.541,5.577,0l13.381-13.38
			c1.541-1.541,1.541-4.038,0-5.578s-4.038-1.54-5.577,0l-10.595,10.593l-5.44-5.442c-1.541-1.541-4.039-1.541-5.578,0
			C98.113,45.811,98.113,48.307,99.652,49.847z"/>
		<path fill="#3E4B5B" d="M84.145,51.25c0,3.347-2.715,6.062-6.062,6.062H6.062C2.715,57.312,0,54.599,0,51.25l0,0
			c0-3.348,2.714-6.062,6.062-6.062h72.02C81.43,45.188,84.145,47.901,84.145,51.25L84.145,51.25z"/>
	</g>
	<g id="a01">
		<path fill="#4C9C8D" d="M99.652,20.422l8.234,8.231c1.536,1.541,4.034,1.541,5.575,0l13.381-13.38
			c1.541-1.541,1.541-4.038,0-5.578c-1.541-1.541-4.038-1.541-5.575,0l-10.597,10.592l-5.438-5.441c-1.541-1.541-4.039-1.541-5.58,0
			C98.113,16.387,98.113,18.882,99.652,20.422z"/>
		<path fill="#3E4B5B" d="M84.145,22.249c0,3.348-2.715,6.062-6.062,6.062H6.062C2.715,28.312,0,25.599,0,22.249l0,0
			c0-3.348,2.714-6.062,6.062-6.062h72.02C81.43,16.188,84.145,18.901,84.145,22.249L84.145,22.249z"/>
	</g>
</g>
</svg>
