<svg enable-background="new 0 0 128 128" height="128" viewBox="0 0 128 128" width="128" xmlns="http://www.w3.org/2000/svg"><path d="m11.171 93.938v17.543h15.069v-32.426l-10.415 10.31zm20.537 17.542h15.07v-52.865l-15.07 14.883zm76.685-51.822v-22.989l-15.069 14.938v4.574c5.351.002 10.531 1.276 15.069 3.477zm-41.659 51.822h-14.545v-55.876l14.023 13.839c-4.423 5.734-7.1 12.912-7.1 20.674.058 8.106 2.909 15.516 7.622 21.363z" fill="#3e4b5b" opacity=".7"/><path d="m87.389 6.501 9.895 9.9.058.059-26.53 26.52-19.903-19.976-50.909 50.84 10.588 10.539 40.321-40.243 20.016 19.978 37.119-37.061 9.89 9.844 3.201-33.584zm5.877 55.704c-15.477 0-28.102 12.508-28.102 27.967 0 15.402 12.566 27.969 28.102 27.969v-27.969h28.104c-.003-15.459-12.57-27.967-28.104-27.967z" fill="#3e4b5b"/><path d="m99.898 124.463v-27.967h28.102c0 15.459-12.566 27.967-28.102 27.967z" fill="#4c9c8d"/></svg>