<svg enable-background="new 0 0 128 128" height="128" viewBox="0 0 128 128" width="128" xmlns="http://www.w3.org/2000/svg"><g fill="#3e4b5b"><path d="m93.282 13.987c-.009 0-.015 0-.022 0h-58.523c-3.018-.006-5.47 2.373-5.477 5.313v.021 23.604c.011 2.938 2.461 5.312 5.477 5.306h58.523c3.016.006 5.467-2.368 5.477-5.306v-23.604c.004-2.938-2.436-5.327-5.455-5.334zm-4.468 24.605h-17.855v-14.963h17.855z"/><path d="m29.683 67.857v44.677h68.635v-44.677zm61.232 38.319h-53.832v-5.934h53.832zm0-13.014h-53.832v-5.934h53.832zm0-13.014h-53.832v-5.935h53.832z"/><path d="m0 0v128h128v-128zm117.988 118.248h-107.98v-108.498h107.98z"/></g></svg>