<svg enable-background="new 0 0 128 128" height="128" viewBox="0 0 128 128" width="128" xmlns="http://www.w3.org/2000/svg"><path d="m108.434 93.699h-8.596v-8.596c0-1.533-1.229-3.068-3.068-3.068-1.842 0-3.069 1.229-3.069 3.068v8.596h-8.595c-1.535 0-3.069 1.229-3.069 3.068 0 1.842 1.229 3.068 3.069 3.068h8.594v8.598c0 1.533 1.229 3.066 3.069 3.066s3.068-1.227 3.068-3.066v-8.596h8.596c1.533 0 3.068-1.229 3.068-3.068.001-1.841-1.534-3.07-3.067-3.07z" fill="#4c9c8d"/><path d="m96.77 65.537c-5.052 0-9.817 1.207-14.041 3.336-3.225-1.693-6.233-3.395-7.304-4.403 7.679-9.428 12.126-20.079 12.126-29.396 0-6.326 0-14.199-3.539-21.217-3.194-6.322-10.324-13.857-26.182-13.857-15.854 0-22.982 7.535-26.173 13.855-3.544 7.018-3.544 14.891-3.544 21.216 0 9.323 4.448 19.97 12.121 29.396-1.832 1.738-9.386 5.51-13.924 7.779-9 4.504-14.72 7.482-18.134 10.896-7.565 7.566-8.134 20.267-8.174 22.729-.042 2.586.957 5.073 2.767 6.91 1.811 1.842 4.286 2.882 6.871 2.882h62.268c5.703 7.495 14.716 12.337 24.862 12.337 17.248 0 31.23-13.982 31.23-31.23 0-17.25-13.982-31.233-31.23-31.233zm-29.834 40.495-57.296.004c.066-4.048 1.268-11.988 5.355-16.078 2.363-2.36 7.966-5.256 15.62-9.087 9.063-4.523 13.801-7.084 16.249-9.398l6.496-6.149-5.644-6.938c-6.332-7.774-9.966-16.274-9.966-23.316 0-5.582 0-11.907 2.514-16.872 2.908-5.758 8.656-8.558 17.565-8.558 8.913 0 14.667 2.801 17.576 8.557 2.509 4.97 2.509 11.295 2.509 16.876 0 7.042-3.63 15.537-9.965 23.317l-5.647 6.943 6.504 6.148c1.18 1.115 2.904 2.291 5.391 3.719-5.359 5.607-8.657 13.199-8.657 21.568-.003 3.226.485 6.337 1.396 9.264zm29.834 13.779c-12.727 0-23.041-10.314-23.041-23.041 0-12.726 10.314-23.041 23.041-23.041 12.726 0 23.041 10.315 23.041 23.041s-10.317 23.041-23.041 23.041z" fill="#3e4b5b"/></svg>