<?xml version="1.0" encoding="utf-8"?>
<!DOCTYPE svg PUBLIC "-//W3C//DTD SVG 1.1//EN" "http://www.w3.org/Graphics/SVG/1.1/DTD/svg11.dtd">
<svg version="1.1" id="Layer_1" xmlns="http://www.w3.org/2000/svg" x="0px" y="0px"
	 width="128px" height="128px" viewBox="0 0 128 128" enable-background="new 0 0 128 128" xml:space="preserve">
<g>
	<path fill="#3E4B5B" d="M124.803,58.622L72.076,36.387c-1.191-0.524-2.482-0.621-3.339-0.621c-0.858,0-2.147,0.097-3.34,0.621
		L12.672,58.622c-1.67,0.668-2.624,1.955-2.624,3.434c0,1.481,0.954,2.767,2.624,3.437l18.8,7.921v22.284
		c0,0.711,0.287,1.381,0.811,1.904c0.525,0.523,1.193,0.811,1.908,0.811c0.191,0,18.036,0.191,33.592,16.036
		c0.524,0.523,1.193,0.813,1.907,0.813c0.096,0,0.145,0,0.24,0c0.811-0.052,1.525-0.48,2.004-1.145
		c0.204-0.272,12.074-20.151,38.075-20.996c1.48-0.048,2.625-1.24,2.625-2.718V70.697l12.312-5.153
		c1.623-0.669,2.623-1.956,2.623-3.436C127.426,60.578,126.473,59.291,124.803,58.622z M105.252,86.898
		c-9.924,0.861-16.933,3.065-25.667,9.937c-4.294,3.389-8.368,7.653-10.183,9.802c-12.98-12.023-24.043-13.82-29.771-14.393V76.628
		l25.762,11.1c1.193,0.521,2.481,0.621,3.34,0.621s2.148-0.096,3.34-0.621l34.101-13.819v12.067L105.252,86.898z M69.053,79.946
		c0.734,0.096,0.256,0.188-0.316,0.188s-1.051-0.096-1.24-0.188l-46.327-17.89l46.327-18.812c0.189-0.096,0.668-0.191,1.24-0.191
		s1.051,0.096,1.24,0.191l45.401,18.812L69.053,79.946z"/>
	<polygon fill="#4C9C8D" points="65.874,56.283 92.069,77.707 92.833,128 97.796,112.73 103.188,118.695 103.14,72.507 	"/>
</g>
<g>
	<path fill="#3E4B5B" d="M40.668,31.124c-1.28-1.277-3.418-2.393-6.787-4.078c-1.702-0.851-4.529-2.264-5.216-2.913
		c2.875-3.529,4.539-7.516,4.539-11.004c0-2.368,0-5.315-1.325-7.942C30.684,2.82,28.015,0,22.079,0
		c-5.935,0-8.603,2.82-9.797,5.187c-1.327,2.627-1.327,5.574-1.327,7.942c0,3.49,1.665,7.476,4.537,11.004
		c-0.685,0.65-3.513,2.063-5.212,2.912c-3.369,1.686-5.51,2.802-6.789,4.079c-2.832,2.833-3.044,7.586-3.06,8.509
		c-0.016,0.968,0.358,1.899,1.036,2.586c0.678,0.69,1.604,1.08,2.572,1.08h36.081c0.967,0,1.891-0.39,2.571-1.079
		c0.678-0.687,1.054-1.619,1.036-2.586C43.713,38.711,43.5,33.957,40.668,31.124z M4.039,39.694
		c0.024-1.515,0.475-4.487,2.005-6.019c0.884-0.884,2.981-1.968,5.846-3.402c3.393-1.693,5.167-2.651,6.083-3.518l2.432-2.302
		l-2.112-2.597c-2.371-2.911-3.731-6.092-3.731-8.729c0-2.089,0-4.458,0.941-6.316c1.089-2.155,3.241-3.203,6.576-3.203
		c3.337,0,5.49,1.048,6.58,3.203c0.939,1.861,0.939,4.228,0.939,6.318c0,2.636-1.358,5.816-3.731,8.728l-2.114,2.6l2.435,2.301
		c0.913,0.864,2.688,1.82,6.08,3.515c2.865,1.437,4.965,2.519,5.85,3.404c1.533,1.534,1.981,4.503,2.003,6.015L4.039,39.694z"/>
</g>
<path fill="#4C9C8D" d="M39.688,20.177c0,1.667,1.348,3.015,3.016,3.015h6.029c1.453,0,6.029,1.815,6.029,6.03v10.812l-5.405-5.406
	c-1.179-1.179-3.085-1.179-4.263,0c-1.18,1.18-1.18,3.084,0,4.264l10.552,10.552c1.179,1.179,3.084,1.179,4.263,0l10.553-10.552
	c0.588-0.588,0.883-1.36,0.883-2.132c0-0.772-0.295-1.544-0.883-2.132c-1.18-1.179-3.084-1.179-4.264,0l-5.406,5.406V29.222
	c0-8.032-7.729-12.06-12.059-12.06h-6.029C41.035,17.163,39.688,18.51,39.688,20.177z"/>
</svg>
