<svg enable-background="new 0 0 128 128" height="128" viewBox="0 0 128 128" width="128" xmlns="http://www.w3.org/2000/svg"><path d="m99.652 108.073 8.232 8.23c1.539 1.541 4.037 1.541 5.578 0l13.381-13.38c1.541-1.541 1.541-4.038 0-5.577-1.541-1.541-4.039-1.541-5.578 0l-10.594 10.592-5.441-5.443c-1.541-1.538-4.039-1.538-5.578 0-1.539 1.541-1.539 4.037 0 5.578z" fill="#4c9c8d"/><path d="m84.145 109.478c0 3.346-2.715 6.061-6.061 6.061h-72.022c-3.347 0-6.062-2.713-6.062-6.061 0-3.349 2.714-6.062 6.062-6.062h72.02c3.348-.003 6.063 2.713 6.063 6.062z" fill="#3e4b5b"/><path d="m99.652 79.288 8.232 8.23c1.538 1.541 4.036 1.541 5.577 0l13.381-13.379c1.541-1.541 1.541-4.039 0-5.578-1.541-1.541-4.038-1.541-5.577 0l-10.595 10.592-5.44-5.442c-1.541-1.539-4.039-1.539-5.578 0-1.539 1.541-1.539 4.036 0 5.577z" fill="#4c9c8d"/><path d="m84.145 80.69c0 3.348-2.715 6.062-6.062 6.062h-72.021c-3.347 0-6.062-2.712-6.062-6.062 0-3.348 2.714-6.062 6.062-6.062h72.02c3.348 0 6.063 2.717 6.063 6.062z" fill="#3e4b5b"/><path d="m99.652 49.847 8.232 8.231c1.538 1.541 4.036 1.541 5.577 0l13.381-13.38c1.541-1.541 1.541-4.038 0-5.578s-4.038-1.54-5.577 0l-10.595 10.593-5.44-5.442c-1.541-1.541-4.039-1.541-5.578 0-1.539 1.54-1.539 4.036 0 5.576z" fill="#4c9c8d"/><path d="m84.145 51.25c0 3.347-2.715 6.062-6.062 6.062h-72.021c-3.347 0-6.062-2.713-6.062-6.062 0-3.348 2.714-6.062 6.062-6.062h72.02c3.348 0 6.063 2.713 6.063 6.062z" fill="#3e4b5b"/><path d="m99.652 20.422 8.234 8.231c1.536 1.541 4.034 1.541 5.575 0l13.381-13.38c1.541-1.541 1.541-4.038 0-5.578-1.541-1.541-4.038-1.541-5.575 0l-10.597 10.592-5.438-5.441c-1.541-1.541-4.039-1.541-5.58 0-1.539 1.541-1.539 4.036 0 5.576z" fill="#4c9c8d"/><path d="m84.145 22.249c0 3.348-2.715 6.062-6.062 6.062h-72.021c-3.347.001-6.062-2.712-6.062-6.062 0-3.348 2.714-6.062 6.062-6.062h72.02c3.348.001 6.063 2.714 6.063 6.062z" fill="#3e4b5b"/></svg>