<?xml version="1.0" encoding="utf-8"?>

<!DOCTYPE svg PUBLIC "-//W3C//DTD SVG 1.1//EN" "http://www.w3.org/Graphics/SVG/1.1/DTD/svg11.dtd">
<svg version="1.1" id="Layer_1" xmlns="http://www.w3.org/2000/svg" x="0px" y="0px"
	 width="128px" height="128px" viewBox="0 0 128 128" enable-background="new 0 0 128 128" xml:space="preserve">
<path fill="#4C9C8D" d="M108.434,93.699h-8.596v-8.596c0-1.533-1.229-3.068-3.068-3.068c-1.842,0-3.069,1.229-3.069,3.068v8.596
	h-8.595c-1.535,0-3.069,1.229-3.069,3.068c0,1.842,1.229,3.068,3.069,3.068H93.7v8.598c0,1.533,1.229,3.066,3.069,3.066
	s3.068-1.227,3.068-3.066v-8.596h8.596c1.533,0,3.068-1.229,3.068-3.068C111.502,94.928,109.967,93.699,108.434,93.699z"/>
<path fill="#3E4B5B" d="M96.77,65.537c-5.052,0-9.817,1.207-14.041,3.336c-3.225-1.693-6.233-3.395-7.304-4.403
	c7.679-9.428,12.126-20.079,12.126-29.396c0-6.326,0-14.199-3.539-21.217C80.818,7.535,73.688,0,57.83,0
	C41.976,0,34.848,7.535,31.657,13.855c-3.544,7.018-3.544,14.891-3.544,21.216c0,9.323,4.448,19.97,12.121,29.396
	c-1.832,1.738-9.386,5.51-13.924,7.779c-9,4.504-14.72,7.482-18.134,10.896c-7.565,7.566-8.134,20.267-8.174,22.729
	c-0.042,2.586,0.957,5.073,2.767,6.91c1.811,1.842,4.286,2.882,6.871,2.882h62.268C77.611,123.158,86.624,128,96.77,128
	c17.248,0,31.23-13.982,31.23-31.23C128,79.52,114.018,65.537,96.77,65.537z M66.936,106.032l-57.296,0.004
	c0.066-4.048,1.268-11.988,5.355-16.078c2.363-2.36,7.966-5.256,15.62-9.087c9.063-4.523,13.801-7.084,16.249-9.398l6.496-6.149
	l-5.644-6.938c-6.332-7.774-9.966-16.274-9.966-23.316c0-5.582,0-11.907,2.514-16.872c2.908-5.758,8.656-8.558,17.565-8.558
	c8.913,0,14.667,2.801,17.576,8.557c2.509,4.97,2.509,11.295,2.509,16.876c0,7.042-3.63,15.537-9.965,23.317l-5.647,6.943
	l6.504,6.148c1.18,1.115,2.904,2.291,5.391,3.719c-5.359,5.607-8.657,13.199-8.657,21.568
	C65.537,99.994,66.025,103.105,66.936,106.032z M96.77,119.811c-12.727,0-23.041-10.314-23.041-23.041
	c0-12.726,10.314-23.041,23.041-23.041c12.726,0,23.041,10.315,23.041,23.041C119.811,109.496,109.494,119.811,96.77,119.811z"/>
</svg>
