<?xml version="1.0" encoding="utf-8"?>
<!DOCTYPE svg PUBLIC "-//W3C//DTD SVG 1.1//EN" "http://www.w3.org/Graphics/SVG/1.1/DTD/svg11.dtd">
<svg version="1.1" id="Layer_1" xmlns="http://www.w3.org/2000/svg" x="0px" y="0px"
	 width="128px" height="128px" viewBox="0 0 128 128" enable-background="new 0 0 128 128" xml:space="preserve">
<path fill="#3E4B5B" d="M93.282,13.987c-0.009,0-0.015,0-0.022,0H34.737c-3.018-0.006-5.47,2.373-5.477,5.313
	c0,0.007,0,0.015,0,0.021v23.604c0.011,2.938,2.461,5.312,5.477,5.306H93.26c3.016,0.006,5.467-2.368,5.477-5.306V19.321
	C98.741,16.383,96.301,13.994,93.282,13.987z M88.814,38.592H70.959V23.629h17.855V38.592z"/>
<path fill="#3E4B5B" d="M29.683,67.857v44.677h68.635V67.857H29.683z M90.915,106.176H37.083v-5.934h53.832V106.176z M90.915,93.162
	H37.083v-5.934h53.832V93.162z M90.915,80.148H37.083v-5.935h53.832V80.148z"/>
<path fill="#3E4B5B" d="M0,0v128h128V0H0z M117.988,118.248H10.008V9.75h107.98V118.248z"/>
</svg>
