<svg enable-background="new 0 0 128 128" height="128" viewBox="0 0 128 128" width="128" xmlns="http://www.w3.org/2000/svg"><path d="m124.803 58.622-52.727-22.235c-1.191-.524-2.482-.621-3.339-.621-.858 0-2.147.097-3.34.621l-52.725 22.235c-1.67.668-2.624 1.955-2.624 3.434 0 1.481.954 2.767 2.624 3.437l18.8 7.921v22.284c0 .711.287 1.381.811 1.904.525.523 1.193.811 1.908.811.191 0 18.036.191 33.592 16.036.524.523 1.193.813 1.907.813h.24c.811-.052 1.525-.48 2.004-1.145.204-.272 12.074-20.151 38.075-20.996 1.48-.048 2.625-1.24 2.625-2.718v-19.706l12.312-5.153c1.623-.669 2.623-1.956 2.623-3.436-.143-1.53-1.096-2.817-2.766-3.486zm-19.551 28.276c-9.924.861-16.933 3.065-25.667 9.937-4.294 3.389-8.368 7.653-10.183 9.802-12.98-12.023-24.043-13.82-29.771-14.393v-15.616l25.762 11.1c1.193.521 2.481.621 3.34.621s2.148-.096 3.34-.621l34.101-13.819v12.067zm-36.199-6.952c.734.096.256.188-.316.188s-1.051-.096-1.24-.188l-46.327-17.89 46.327-18.812c.189-.096.668-.191 1.24-.191s1.051.096 1.24.191l45.401 18.812z" fill="#3e4b5b"/><path d="m65.874 56.283 26.195 21.424.764 50.293 4.963-15.27 5.392 5.965-.048-46.188z" fill="#4c9c8d"/><path d="m40.668 31.124c-1.28-1.277-3.418-2.393-6.787-4.078-1.702-.851-4.529-2.264-5.216-2.913 2.875-3.529 4.539-7.516 4.539-11.004 0-2.368 0-5.315-1.325-7.942-1.195-2.367-3.864-5.187-9.8-5.187-5.935 0-8.603 2.82-9.797 5.187-1.327 2.627-1.327 5.574-1.327 7.942 0 3.49 1.665 7.476 4.537 11.004-.685.65-3.513 2.063-5.212 2.912-3.369 1.686-5.51 2.802-6.789 4.079-2.832 2.833-3.044 7.586-3.06 8.509-.016.968.358 1.899 1.036 2.586.678.69 1.604 1.08 2.572 1.08h36.081c.967 0 1.891-.39 2.571-1.079.678-.687 1.054-1.619 1.036-2.586-.014-.923-.227-5.677-3.059-8.51zm-36.629 8.57c.024-1.515.475-4.487 2.005-6.019.884-.884 2.981-1.968 5.846-3.402 3.393-1.693 5.167-2.651 6.083-3.518l2.432-2.302-2.112-2.597c-2.371-2.911-3.731-6.092-3.731-8.729 0-2.089 0-4.458.941-6.316 1.089-2.155 3.241-3.203 6.576-3.203 3.337 0 5.49 1.048 6.58 3.203.939 1.861.939 4.228.939 6.318 0 2.636-1.358 5.816-3.731 8.728l-2.114 2.6 2.435 2.301c.913.864 2.688 1.82 6.08 3.515 2.865 1.437 4.965 2.519 5.85 3.404 1.533 1.534 1.981 4.503 2.003 6.015z" fill="#3e4b5b"/><path d="m39.688 20.177c0 1.667 1.348 3.015 3.016 3.015h6.029c1.453 0 6.029 1.815 6.029 6.03v10.812l-5.405-5.406c-1.179-1.179-3.085-1.179-4.263 0-1.18 1.18-1.18 3.084 0 4.264l10.552 10.552c1.179 1.179 3.084 1.179 4.263 0l10.553-10.552c.588-.588.883-1.36.883-2.132s-.295-1.544-.883-2.132c-1.18-1.179-3.084-1.179-4.264 0l-5.406 5.406v-10.812c0-8.032-7.729-12.06-12.059-12.06h-6.029c-1.669.001-3.016 1.348-3.016 3.015z" fill="#4c9c8d"/></svg>