<svg enable-background="new 0 0 128 128" height="128" viewBox="0 0 128 128" width="128" xmlns="http://www.w3.org/2000/svg"><path d="m118.955 92.012c-3.783-3.777-10.105-7.072-20.066-12.059-5.029-2.516-13.388-6.691-15.42-8.607 8.498-10.434 13.42-22.221 13.42-32.532 0-7 0-15.713-3.918-23.479-3.532-6.996-11.424-15.335-28.974-15.335-17.545 0-25.432 8.339-28.964 15.333-3.922 7.766-3.922 16.479-3.922 23.479 0 10.318 4.922 22.1 13.414 32.532-2.027 1.922-10.387 6.098-15.409 8.607-9.96 4.984-16.29 8.281-20.068 12.058-8.372 8.375-9.002 22.429-9.046 25.155-.047 2.861 1.059 5.615 3.062 7.646 2.004 2.04 4.743 3.19 7.603 3.19h106.667c2.859 0 5.59-1.15 7.6-3.188 2.008-2.029 3.117-4.787 3.064-7.646-.042-2.728-.671-16.779-9.043-25.154zm-108.289 25.334c.073-4.479 1.403-13.268 5.927-17.793 2.615-2.613 8.815-5.816 17.286-10.057 10.029-5.006 15.273-7.84 17.982-10.4l7.189-6.807-6.246-7.678c-7.007-8.604-11.029-18.009-11.029-25.802 0-6.177 0-13.177 2.782-18.672 3.219-6.372 9.579-9.471 19.439-9.471 9.863 0 16.23 3.1 19.451 9.47 2.775 5.5 2.775 12.5 2.775 18.677 0 7.792-4.018 17.193-11.027 25.803l-6.25 7.684 7.197 6.806c2.696 2.551 7.944 5.377 17.973 10.391 8.473 4.245 14.681 7.447 17.295 10.062 4.531 4.535 5.857 13.312 5.923 17.78z" fill="#3e4b5b"/><path d="m82.152 110.006 2.589 2.589 2.717-2.716-4.583-4.584c-.864-.863-.864-2.262 0-3.124.861-.862 2.259-.862 3.124 0l4.581 4.584 1.901-1.901c1.502-1.501 1.502-3.933 0-5.434l-4.366-4.367 12.532-12.533 2.17 2.172c3.555 3.551 9.315 3.551 12.869 0l9.648-9.652c3.554-3.551 3.554-9.312 0-12.864l-11.579-11.58c-3.554-3.555-9.314-3.553-12.866 0l-9.65 9.649c-3.553 3.555-3.553 9.314 0 12.868l2.346 2.345-15.249 15.248-9.142 9.144-3.275 3.275c-1.501 1.502-1.501 3.934 0 5.434l3.275 3.276 5.438 5.438c1.501 1.5 3.934 1.5 5.433 0l1.553-1.553-2.589-2.589c-.861-.862-.861-2.26 0-3.123.863-.862 2.261-.862 3.123-.002zm31.044-39.351-7.921-7.919c-.885-.886-.885-2.324 0-3.211l1.445-1.444c.887-.887 2.325-.887 3.212.001l7.919 7.917c.888.887.888 2.325 0 3.211l-1.445 1.445c-.886.888-2.325.888-3.21 0z" fill="#4c9c8d"/></svg>