<svg enable-background="new 0 0 128 128" height="128" viewBox="0 0 128 128" width="128" xmlns="http://www.w3.org/2000/svg"><path d="m118.955 92.012c-3.783-3.777-10.105-7.072-20.066-12.059-5.029-2.516-13.388-6.691-15.42-8.607 8.498-10.434 13.42-22.221 13.42-32.532 0-7 0-15.713-3.918-23.479-3.532-6.996-11.424-15.335-28.974-15.335-17.545 0-25.432 8.339-28.964 15.333-3.922 7.766-3.922 16.479-3.922 23.479 0 10.318 4.922 22.1 13.414 32.531-2.027 1.923-10.387 6.099-15.409 8.608-9.96 4.984-16.29 8.281-20.068 12.058-8.372 8.375-9.002 22.429-9.046 25.155-.047 2.861 1.059 5.615 3.062 7.646 2.004 2.04 4.743 3.19 7.603 3.19h106.667c2.859 0 5.59-1.15 7.6-3.188 2.008-2.029 3.117-4.787 3.064-7.646-.042-2.728-.671-16.78-9.043-25.154zm-108.289 25.334c.073-4.479 1.403-13.268 5.927-17.793 2.615-2.613 8.815-5.816 17.286-10.057 10.029-5.006 15.273-7.84 17.982-10.4l7.189-6.807-6.246-7.678c-7.007-8.604-11.029-18.009-11.029-25.802 0-6.177 0-13.177 2.782-18.672 3.219-6.372 9.579-9.471 19.439-9.471 9.863 0 16.23 3.1 19.451 9.47 2.775 5.5 2.775 12.5 2.775 18.677 0 7.792-4.017 17.193-11.027 25.803l-6.25 7.684 7.197 6.806c2.697 2.551 7.945 5.377 17.973 10.39 8.473 4.245 14.681 7.448 17.295 10.062 4.531 4.535 5.857 13.312 5.923 17.781z" fill="#3e4b5b"/><path d="m59.126 94.87s13.569 15.276 16.28 21.519h11.669c4.877-14.926 23.878-50.555 40.161-63.036 3.371-4.337-5.103-6.122-11.949-3.254-10.296 4.328-29.738 37.368-33.376 45.315-5.156 1.355-10.574-8.68-10.574-8.68z" fill="#4c9c8d"/></svg>