<svg enable-background="new 0 0 128 128" height="128" viewBox="0 0 128 128" width="128" xmlns="http://www.w3.org/2000/svg"><path d="m114.606 94.859c-3.483-3.478-9.306-6.512-18.479-11.104-4.63-2.317-12.328-6.162-14.2-7.927 7.826-9.608 12.358-20.462 12.358-29.958 0-6.446 0-14.47-3.608-21.621-3.251-6.442-10.52-14.122-26.681-14.122-16.156 0-23.419 7.679-26.672 14.12-3.611 7.152-3.611 15.175-3.611 21.621 0 9.501 4.532 20.351 12.353 29.957-1.867 1.771-9.565 5.616-14.189 7.928-9.172 4.59-15.001 7.625-18.48 11.104-7.71 7.712-8.29 20.653-8.33 23.164-.043 2.635.975 5.171 2.819 7.041 1.846 1.878 4.367 2.938 7.002 2.938h98.226c2.633 0 5.147-1.06 6.998-2.936 1.85-1.868 2.871-4.408 2.822-7.041-.039-2.512-.618-15.453-8.328-23.164zm-99.719 23.33c.067-4.125 1.292-12.219 5.458-16.386 2.409-2.406 8.118-5.354 15.918-9.261 9.235-4.609 14.064-7.219 16.56-9.577l6.619-6.269-5.752-7.07c-6.452-7.923-10.156-16.583-10.156-23.76 0-5.688 0-12.135 2.562-17.195 2.965-5.868 8.821-8.721 17.902-8.721 9.082 0 14.945 2.854 17.911 8.72 2.555 5.065 2.555 11.511 2.555 17.199 0 7.175-3.698 15.833-10.153 23.761l-5.756 7.075 6.628 6.268c2.483 2.35 7.316 4.951 16.551 9.568 7.802 3.909 13.519 6.859 15.926 9.266 4.173 4.176 5.395 12.259 5.455 16.374z" fill="#3e4b5b"/><path d="m56.924 0-.039 35.216-13.073.029 20.127 24.37 20.249-24.465-13.115-.004-.077-.001.006-35.145" fill="#4c9c8d"/></svg>