<?xml version="1.0" encoding="utf-8"?>
<!DOCTYPE svg PUBLIC "-//W3C//DTD SVG 1.1//EN" "http://www.w3.org/Graphics/SVG/1.1/DTD/svg11.dtd">
<svg version="1.1" id="Layer_1" xmlns="http://www.w3.org/2000/svg" xmlns:xlink="http://www.w3.org/1999/xlink" x="0px" y="0px"
	 width="128px" height="128px" viewBox="0 0 128 128" enable-background="new 0 0 128 128" xml:space="preserve">
<g>
	<path fill="#3E4B5B" d="M114.606,94.859c-3.483-3.478-9.306-6.512-18.479-11.104c-4.63-2.317-12.328-6.162-14.2-7.927
		c7.826-9.608,12.358-20.462,12.358-29.958c0-6.446,0-14.47-3.608-21.621c-3.251-6.442-10.52-14.122-26.681-14.122
		c-16.156,0-23.419,7.679-26.672,14.12c-3.611,7.152-3.611,15.175-3.611,21.621c0,9.501,4.532,20.351,12.353,29.957
		c-1.867,1.771-9.565,5.616-14.189,7.928c-9.172,4.59-15.001,7.625-18.48,11.104c-7.71,7.712-8.29,20.653-8.33,23.164
		c-0.043,2.635,0.975,5.171,2.819,7.041C9.732,126.94,12.253,128,14.888,128h98.226c2.633,0,5.147-1.06,6.998-2.936
		c1.85-1.868,2.871-4.408,2.822-7.041C122.895,115.511,122.316,102.57,114.606,94.859z M14.887,118.189
		c0.067-4.125,1.292-12.219,5.458-16.386c2.409-2.406,8.118-5.354,15.918-9.261c9.235-4.609,14.064-7.219,16.56-9.577l6.619-6.269
		l-5.752-7.07c-6.452-7.923-10.156-16.583-10.156-23.76c0-5.688,0-12.135,2.562-17.195c2.965-5.868,8.821-8.721,17.902-8.721
		c9.082,0,14.945,2.854,17.911,8.72c2.555,5.065,2.555,11.511,2.555,17.199c0,7.175-3.698,15.833-10.153,23.761l-5.756,7.075
		l6.628,6.268c2.483,2.35,7.316,4.951,16.551,9.568c7.802,3.909,13.519,6.859,15.926,9.266c4.173,4.176,5.395,12.259,5.455,16.374
		L14.887,118.189z"/>
	<polyline fill="#4C9C8D" points="56.924,0 56.885,35.216 43.812,35.245 63.939,59.615 84.188,35.15 71.073,35.146 70.996,35.145
		71.002,0 	"/>
</g>
</svg>
