<svg enable-background="new 0 0 128 128" height="128" viewBox="0 0 128 128" width="128" xmlns="http://www.w3.org/2000/svg"><g fill="#3e4b5b"><path d="m89.213 101.008c-2.837-2.832-7.579-5.305-15.049-9.043-3.773-1.887-10.041-5.02-11.564-6.457 6.373-7.824 10.063-16.664 10.063-24.398 0-5.25 0-11.785-2.938-17.609-2.648-5.247-8.567-11.501-21.729-11.501-13.158 0-19.073 6.254-21.722 11.5-2.942 5.824-2.942 12.359-2.942 17.609 0 7.739 3.692 16.575 10.06 24.398-1.52 1.441-7.79 4.574-11.556 6.457-7.47 3.738-12.217 6.211-15.051 9.043-6.278 6.281-6.751 16.82-6.784 18.867-.035 2.146.795 4.211 2.297 5.733 1.503 1.53 3.557 2.393 5.702 2.393h79.998c2.145 0 4.191-.863 5.699-2.391 1.505-1.523 2.337-3.59 2.298-5.734-.031-2.047-.504-12.586-6.782-18.867zm-81.214 19c.055-3.359 1.053-9.949 4.446-13.344 1.961-1.961 6.61-4.363 12.963-7.543 7.521-3.754 11.455-5.879 13.486-7.801l5.392-5.103-4.684-5.758c-5.255-6.453-8.271-13.508-8.271-19.352 0-4.633 0-9.883 2.086-14.004 2.414-4.779 7.184-7.103 14.579-7.103 7.399 0 12.173 2.324 14.588 7.102 2.082 4.125 2.082 9.375 2.082 14.008 0 5.844-3.012 12.895-8.271 19.352l-4.688 5.763 5.399 5.102c2.023 1.914 5.958 4.035 13.478 7.793 6.354 3.184 11.01 5.586 12.971 7.547 3.398 3.402 4.393 9.984 4.442 13.336z"/><path d="m121.213 69.008c-2.832-2.832-7.574-5.305-15.049-9.043-3.77-1.887-10.04-5.02-11.561-6.457 6.367-7.824 10.063-16.664 10.063-24.398 0-5.25 0-11.785-2.942-17.609-2.647-5.247-8.566-11.501-21.724-11.501-13.157 0-19.076 6.254-21.725 11.5-2.739 5.426-2.926 11.453-2.938 16.5h8.005c.016-4.352.156-9.094 2.074-12.895 2.411-4.781 7.186-7.105 14.584-7.105s12.17 2.324 14.584 7.102c2.083 4.125 2.083 9.375 2.083 14.008 0 5.844-3.017 12.895-8.267 19.352l-4.692 5.762 5.403 5.102c2.02 1.914 5.953 4.035 13.471 7.793 6.359 3.184 11.014 5.586 12.97 7.547 3.403 3.402 4.396 9.984 4.446 13.336h-35.997l11.998 8h23.999c2.145 0 4.195-.863 5.704-2.391 1.5-1.523 2.332-3.59 2.297-5.734-.031-2.049-.508-12.588-6.786-18.869z" opacity=".7"/></g></svg>