<?xml version="1.0" encoding="utf-8"?>

<!DOCTYPE svg PUBLIC "-//W3C//DTD SVG 1.1//EN" "http://www.w3.org/Graphics/SVG/1.1/DTD/svg11.dtd">
<svg version="1.1" id="Layer_1" xmlns="http://www.w3.org/2000/svg" x="0px" y="0px"
	 width="128px" height="128px" viewBox="0 0 128 128" enable-background="new 0 0 128 128" xml:space="preserve">
<g>
	<path fill="#3E4B5B" d="M118.955,92.012c-3.783-3.777-10.105-7.072-20.066-12.059c-5.029-2.516-13.388-6.691-15.42-8.607
		c8.498-10.434,13.42-22.221,13.42-32.532c0-7,0-15.713-3.918-23.479C89.439,8.339,81.547,0,63.997,0
		C46.452,0,38.565,8.339,35.033,15.333c-3.922,7.766-3.922,16.479-3.922,23.479c0,10.318,4.922,22.1,13.414,32.531
		c-2.027,1.923-10.387,6.099-15.409,8.608c-9.96,4.984-16.29,8.281-20.068,12.058c-8.372,8.375-9.002,22.429-9.046,25.155
		c-0.047,2.861,1.059,5.615,3.062,7.646C5.068,126.85,7.807,128,10.667,128h106.667c2.859,0,5.59-1.15,7.6-3.188
		c2.008-2.029,3.117-4.787,3.064-7.646C127.956,114.438,127.327,100.386,118.955,92.012z M10.666,117.346
		c0.073-4.479,1.403-13.268,5.927-17.793c2.615-2.613,8.815-5.816,17.286-10.057c10.029-5.006,15.273-7.84,17.982-10.4l7.189-6.807
		l-6.246-7.678c-7.007-8.604-11.029-18.009-11.029-25.802c0-6.177,0-13.177,2.782-18.672c3.219-6.372,9.579-9.471,19.439-9.471
		c9.863,0,16.23,3.1,19.451,9.47c2.775,5.5,2.775,12.5,2.775,18.677c0,7.792-4.017,17.193-11.027,25.803l-6.25,7.684l7.197,6.806
		c2.697,2.551,7.945,5.377,17.973,10.39c8.473,4.245,14.681,7.448,17.295,10.062c4.531,4.535,5.857,13.312,5.923,17.781
		L10.666,117.346z"/>
</g>
<g>
	<path id="check" fill="#4C9C8D" d="M59.126,94.87c0,0,13.569,15.276,16.28,21.519h11.669c4.877-14.926,23.878-50.555,40.161-63.036
		c3.371-4.337-5.103-6.122-11.949-3.254c-10.296,4.328-29.738,37.368-33.376,45.315c-5.156,1.355-10.574-8.68-10.574-8.68
		L59.126,94.87z"/>
</g>
</svg>
