<?xml version="1.0" encoding="utf-8"?>
<!DOCTYPE svg PUBLIC "-//W3C//DTD SVG 1.1//EN" "http://www.w3.org/Graphics/SVG/1.1/DTD/svg11.dtd">
<svg version="1.1" id="Layer_1" xmlns="http://www.w3.org/2000/svg" x="0px" y="0px"
	 width="128px" height="128px" viewBox="0 0 128 128" enable-background="new 0 0 128 128" xml:space="preserve">
<rect id="baixo" y="117" fill="#3E4B5B" width="59.338" height="11"/>
<rect id="baixo_1_" x="67.338" y="117" fill="#3E4B5B" width="60.662" height="11"/>
<rect y="104" fill="#3E4B5B" width="128" height="6"/>
<rect y="91" fill="#3E4B5B" width="128" height="6"/>
<rect y="78" fill="#3E4B5B" width="128" height="6"/>
<g id="imagem">
	<path fill="#FF931E" d="M0.002,62.245c0,3.262,2.361,5.94,5.247,5.94h57.69c2.884,0,5.246-2.678,5.246-5.94V5.944
		c0-3.27-2.361-5.944-5.246-5.944H5.249C2.366,0,0,2.674,0,5.944L0.002,62.245L0.002,62.245z"/>
	<path fill="#675F58" d="M60.459,23.057l5.429,6.148v25.769c0,7.321-4.137,9.831-9.191,9.831H42.514H26.337H12.153
		c-5.059,0-9.2-2.511-9.2-9.831v-5.845l16.083-16.738c2.979-3.099,4.876-4.25,6.363-4.217c1.533-0.042,3.534,1.223,6.661,4.233
		l18.949,19.72c0.277,0.285,0.621,0.428,0.971,0.428c0.39,0,0.777-0.179,1.066-0.532c0.538-0.657,0.499-1.698-0.091-2.309
		l-12.474-12.98l12.096-13.71c1.955-2.219,3.141-2.914,3.84-2.875C57.132,20.098,58.404,20.887,60.459,23.057z"/>
	<path fill="#F4F1F0" d="M27.232,17.718c0-4.926,3.52-8.917,7.87-8.917c4.339,0,7.863,3.992,7.863,8.917
		c0,4.916-3.525,8.917-7.863,8.917C30.752,26.636,27.232,22.634,27.232,17.718z"/>
</g>
<rect x="78.048" y="65" fill="#3E4B5B" width="49.952" height="6"/>
<rect x="78.048" y="52" fill="#3E4B5B" width="49.952" height="6"/>
<rect x="78.048" y="39" fill="#3E4B5B" width="49.952" height="6"/>
<rect x="78.048" y="26" fill="#3E4B5B" width="49.952" height="6"/>
<rect x="78.048" y="13" fill="#3E4B5B" width="49.952" height="6"/>
<rect x="78.048" fill="#3E4B5B" width="49.952" height="6"/>
</svg>
