<svg enable-background="new 0 0 50 50" viewBox="0 0 50 50" xmlns="http://www.w3.org/2000/svg"><path d="m24.43 40.153c.186.276.497.441.829.441.333 0 .644-.166.829-.441l9.436-14.018c1.128-1.799 1.725-3.865 1.725-5.976 0-6.376-5.383-11.564-12-11.564s-12 5.188-12 11.564c0 2.114.599 4.184 1.749 6.012zm.82-29.559c5.514 0 10 4.291 10 9.564 0 1.734-.491 3.433-1.402 4.886l-8.59 12.76-8.584-12.726c-.932-1.482-1.424-3.183-1.424-4.92 0-5.273 4.486-9.564 10-9.564z"/><path d="m25.25 25.616c3.135 0 5.686-2.467 5.686-5.5s-2.55-5.5-5.686-5.5-5.686 2.467-5.686 5.5 2.551 5.5 5.686 5.5zm0-9c2.032 0 3.686 1.57 3.686 3.5s-1.653 3.5-3.686 3.5-3.686-1.57-3.686-3.5 1.654-3.5 3.686-3.5z"/></svg>