<?xml version="1.0" encoding="utf-8"?>
<!DOCTYPE svg PUBLIC "-//W3C//DTD SVG 1.1//EN" "http://www.w3.org/Graphics/SVG/1.1/DTD/svg11.dtd">
<svg version="1.1" id="Layer_1" xmlns="http://www.w3.org/2000/svg"  x="0px" y="0px"
	 width="128px" height="128px" viewBox="0 0 128 128" enable-background="new 0 0 128 128" xml:space="preserve">
<g>
	<circle fill="#FBD303" cx="64" cy="64" r="64"/>
	<path fill="#74594E" d="M107.122,89.055v-6.816c0-6.479-5.54-11.762-12.356-11.762H33.236c-6.817,0-12.357,5.283-12.357,11.762
		v6.816H107.122z"/>
	<path fill="#F0BA7A" d="M76.527,80.959c-5.625,9.544-19.516,9.544-25.141,0c0-5.454,0-10.993,0-16.447c8.352,0,16.788,0,25.141,0
		C76.527,69.966,76.527,75.505,76.527,80.959z"/>
	<path fill="#F1F3F7" d="M110.104,90.333c-0.768-3.238-3.324-5.795-6.731-6.903l-23.521-7.072l-5.795,5.369l-20.197,0.084
		l-6.477-5.453L24.63,83.43c-3.409,1.108-5.88,3.75-6.731,6.903l-3.494,14.062C26.078,118.796,43.975,128,64,128
		c20.027,0,37.923-9.204,49.684-23.605L110.104,90.333z"/>
	<circle fill="#393D47" cx="63.66" cy="35.025" r="31.531"/>
	<path fill="#F7CFA2" d="M74.908,22.924c-8.948,18.663-30.424,16.362-36.9,15.169v9.8c0,14.146,11.506,25.651,25.651,25.651
		s25.651-11.505,25.651-25.651V36.218C77.465,35.281,74.908,22.924,74.908,22.924z"/>
	<g>
		<path fill="#886C60" d="M29.4,117.773c2.897,1.875,6.051,3.578,9.289,4.942V78.402H29.4V117.773z"/>
		<path fill="#886C60" d="M89.396,122.717c3.237-1.363,6.307-3.068,9.289-4.943V78.402h-9.289V122.717z"/>
	</g>
	<path fill="#4B5AA7" d="M66.216,81.896h-4.517l-6.051,7.242l4.942,7.158l-4.772,31.189C58.461,127.83,61.188,128,64,128
		s5.539-0.17,8.182-0.512l-4.857-31.19l4.941-7.157L66.216,81.896z"/>
	<g>
		<polygon fill="#FCFCFD" points="51.473,71.414 63.66,81.896 53.859,96.298 47.382,76.355 		"/>
		<polygon fill="#FCFCFD" points="76.188,71.414 64,81.896 73.8,96.298 80.277,76.355 		"/>
	</g>
</g>
</svg>
