<svg xmlns="http://www.w3.org/2000/svg"><defs><font horiz-adv-x="1024"><font-face ascent="896" descent="128" units-per-em="1024"/><missing-glyph horiz-adv-x="0"/><glyph d="M192 800 192-32 832-32 832 588.8124992 822.375008 598.3750016 630.375008 790.3750016 620.812512 800 192 800zM256 736 576 736 576 544 768 544 768 32 256 32 256 736zM640 691.1875008 723.187488 608 640 608 640 691.1875008zM320 608 320 544 512 544 512 608 320 608zM320 480 320 416 704 416 704 480 320 480zM432 384C403.2 384 380.8 364.775008 368 342.375008 355.2 319.975008 352 291.187488 352 259.187488 352 239.987488 358.424992 220.824992 361.624992 201.624992 348.824992 198.424992 336 188.812512 320 188.812512L320 124.812512C342.4 124.812512 364.8 127.975008 384 134.375008 387.2 127.975008 387.224992 124.775008 393.624992 118.375008 406.424992 105.575008 425.6 96 448 96 499.2 96 531.224992 131.212512 553.624992 156.812512 556.824992 163.212512 559.987488 166.424992 563.187488 169.624992 563.187488 166.424992 563.175008 163.2 566.375008 160 569.575008 153.6 572.787488 147.212512 579.187488 140.812512 585.587488 134.412512 598.4 128 608 128 627.2 128 639.975008 140.787488 646.375008 147.187488 652.775008 153.587488 659.224992 163.224992 665.624992 169.624992 678.424992 182.424992 688.012512 192 700.812512 192L700.812512 256C662.412512 256 633.624992 233.575008 617.624992 214.375008 617.624992 217.575008 617.575008 220.8 614.375008 224 611.175008 230.4 608.024992 236.775008 601.624992 246.375008 595.224992 255.975008 585.6 256 576 256 550.4 256 540.787488 239.975008 531.187488 230.375008 521.587488 220.775008 512.024992 207.987488 505.624992 195.187488 486.424992 172.787488 473.6 160 448 160 444.8 160 444.824992 163.187488 441.624992 163.187488 444.824992 163.187488 444.8 166.375008 448 166.375008 483.2 195.175008 512 233.612512 512 284.812512 512 310.412512 505.612512 332.8 492.812512 352 480.012512 371.2 457.6 384 432 384zM428.812512 320C438.412512 320 438.424992 320.024992 441.624992 313.624992 444.824992 307.224992 448 297.624992 448 281.624992 448 262.424992 438.375008 243.187488 422.375008 227.187488 422.375008 236.787488 416 249.6 416 256 416 281.6 419.224992 300.775008 425.624992 310.375008 428.824992 316.775008 428.812512 320 428.812512 320z" glyph-name="file-contract" horiz-adv-x="1024" unicode="&#xF56C;"/><glyph d="M320 768C267.36 768 224 724.64 224 672L224 224 128 224 128 96C128 43.36 171.36 0 224 0L672 0 673 0C725.128.512 768 43.744 768 96L768 544 896 544 896 672C896 724.64 852.64 768 800 768L320 768zM320 704 710 704C706.384 693.888 704 683.264 704 672L704 96C704 77.888 690.112 64 672 64 653.984 63.744 640.256 78.016 640 96L639 224 288 224 288 672C288 690.112 301.888 704 320 704zM800 704C818.112 704 832 690.112 832 672L832 608 768 608 768 672C768 690.112 781.888 704 800 704zM192 160 448 160 575 160 576 160 576 96 576 95C576.128 83.992 578.384 73.888 582 64L224 64C205.888 64 192 77.888 192 96L192 160z" glyph-name="scroll" horiz-adv-x="1024" unicode="&#xF70E;"/><glyph d="M696 768C644.750016 768 593 748 554 709L507 662C474.5 629.5 455.250016 588.249984 450 546L514 538C517.624992 567 529.875008 594.875008 552 617L599 664C652.5 717.5 738.5 717.5 792 664 845.5 610.5 845.5 524.5 792 471L745 424 744 424C721.875008 401.749984 694.875008 389.5 666 386L674 322C716.250016 327.249984 757.5 346.5 790 379L837 426C914.875008 503.875008 914.875008 631.124992 837 709 798 748 747.250016 768 696 768zM247 695 201 649 329 521 375 567zM350 446C307.750016 440.749984 266.5 421.5 234 389L187 342C109.124992 264.124992 109.124992 136.875008 187 59 264.875008-18.875008 392.124992-18.875008 470 59L517 106C549.5 138.5 568.750016 179.749984 574 222L510 230C506.375008 201 494.124992 173.124992 472 151L425 104C371.5 50.5 285.5 50.5 232 104 178.5 157.5 178.5 243.5 232 297L279 344 280 344C302.124992 366.249984 329.124992 378.5 358 382zM695 247 649 201 777 73 823 119z" glyph-name="unlink" horiz-adv-x="1024" unicode="&#xF127;"/><glyph d="M160 704C107.375008 704 64 660.624992 64 608L64 160C64 107.375008 107.375008 64 160 64L864 64C916.624992 64 960 107.375008 960 160L960 608C960 660.624992 916.624992 704 864 704zM160 640 864 640C881.750016 640 896 625.749984 896 608L896 160C896 142.249984 881.750016 128 864 128L160 128C142.250016 128 128 142.249984 128 160L128 608C128 625.749984 142.250016 640 160 640zM192 416C174.375008 416 160 401.624992 160 384 160 366.375008 174.375008 352 192 352 209.624992 352 224 366.375008 224 384 224 401.624992 209.624992 416 192 416z" glyph-name="tablet" horiz-adv-x="1024" unicode="&#xF10A;"/><glyph d="M512 768C408.736 768 319.128 695.752 295 597 255.128 581.512 222.024 550.008 205 511 93.128 519.288 0 430.24 0 320 0 214.112 86.112 128 192 128L288 128 288 192 192 192C121.376 192 64 249.376 64 320 64 390.624 121.376 448 192 448 200.864 448 209.888 447.272 220 445L252 438 258 469C265.872 504.36 294.64 532.488 330 541L351 546 354 567C365.52 644.888 433.376 704 512 704 572.64 704 627.608 670.24 655 616L667 591 694 600C708.976 605.248 722.624 608 736 608 806.624 608 864 550.624 864 480 864 478.752 864.128 477.12 864 476 863.744 473.888 863.256 472.272 863 470L861 447 882 438C929.264 417.904 960 371.36 960 320 960 249.376 902.624 192 832 192L768 192 768 128 832 128C937.888 128 1024 214.112 1024 320 1024 389.248 987.008 451.984 928 486 924.64 588.976 839.744 672 736 672 723.488 672 710.64 670.752 698 668 656.752 730.24 587.872 768 512 768zM672 480C651.616 480 635.124992 463.508992 635.124992 443.124992 635.124992 441.748992 635.747008 440.593984 635.875008 439.249984 621.379008 451.026016 600.316512 450.691488 586.812512 437.187488 573.308512 423.683488 572.973984 402.620992 584.750016 388.124992 583.405984 388.284992 582.251008 388.875008 580.875008 388.875008 560.523008 388.907008 544 372.384 544 352 544 331.616 560.491008 315.124992 580.875008 315.124992 582.251008 315.124992 583.405984 315.747008 584.750016 315.875008 572.974016 301.379008 573.308512 280.316512 586.812512 266.812512 600.316512 253.308512 621.379008 252.973984 635.875008 264.750016 635.715008 263.405984 635.124992 262.251008 635.124992 260.875008 635.092992 240.523008 651.616 224 672 224 692.384 224 708.875008 240.491008 708.875008 260.875008 708.875008 262.251008 708.252992 263.405984 708.124992 264.750016 722.620992 252.974016 743.683488 253.308512 757.187488 266.812512 770.691488 280.316512 771.025984 301.379008 759.249984 315.875008 760.594016 315.715008 761.748992 315.124992 763.124992 315.124992 783.476992 315.092992 800 331.616 800 352 800 372.384 783.508992 388.875008 763.124992 388.875008 761.748992 388.875008 760.593984 388.252992 759.249984 388.124992 771.025984 402.620992 770.691488 423.683488 757.187488 437.187488 743.683488 450.691488 722.620992 451.026016 708.124992 439.249984 708.284992 440.593984 708.875008 441.748992 708.875008 443.124992 708.907008 463.476992 692.384 480 672 480zM384 416A32 32 0 0 1 352 384 32 32 0 0 1 352 320 32 32 0 0 1 384 288 32 32 0 0 1 416 320 32 32 0 0 1 416 384 32 32 0 0 1 384 416zM480 224C459.616 224 443.124992 207.508992 443.124992 187.124992 443.124992 185.748992 443.747008 184.593984 443.875008 183.249984 429.379008 195.025984 408.316512 194.691488 394.812512 181.187488 381.308512 167.683488 380.973984 146.620992 392.750016 132.124992 391.406016 132.284992 390.251008 132.875008 388.875008 132.875008 368.523008 132.907008 352 116.384 352 96 352 75.616 368.491008 59.124992 388.875008 59.124992 390.251008 59.124992 391.406016 59.747008 392.750016 59.875008 380.973984 45.379008 381.308512 24.316512 394.812512 10.812512 408.316512-2.691488 429.379008-3.025984 443.875008 8.750016 443.715008 7.405984 443.124992 6.251008 443.124992 4.875008 443.092992-15.476992 459.616-32 480-32 500.384-32 516.875008-15.508992 516.875008 4.875008 516.875008 6.251008 516.252992 7.406016 516.124992 8.750016 530.620992-3.025984 551.683488-2.691488 565.187488 10.812512 578.691488 24.316512 579.026016 45.379008 567.249984 59.875008 568.594016 59.715008 569.748992 59.124992 571.124992 59.124992 591.476992 59.092992 608 75.616 608 96 608 116.384 591.508992 132.875008 571.124992 132.875008 569.748992 132.875008 568.594016 132.252992 567.249984 132.124992 579.025984 146.620992 578.691488 167.683488 565.187488 181.187488 551.683488 194.691488 530.620992 195.025984 516.124992 183.249984 516.284992 184.594016 516.875008 185.748992 516.875008 187.124992 516.907008 207.476992 500.384 224 480 224z" glyph-name="cloud-with--a-chance-of--meatball" horiz-adv-x="1024" unicode="&#xF73B;"/><glyph d="M128 800 128-32 480-32 480 96 544 96 544-32 896-32 896 800zM192 736 832 736 832 32 608 32 608 160 416 160 416 32 192 32zM256 672 256 608 384 608 384 672zM448 672 448 608 576 608 576 672zM640 672 640 608 768 608 768 672zM256 544 256 480 384 480 384 544zM448 544 448 480 576 480 576 544zM640 544 640 480 768 480 768 544zM256 416 256 352 384 352 384 416zM448 416 448 352 576 352 576 416zM640 416 640 352 768 352 768 416zM256 288 256 224 384 224 384 288zM448 288 448 224 576 224 576 288zM640 288 640 224 768 224 768 288zM256 160 256 96 384 96 384 160zM640 160 640 96 768 96 768 160z" glyph-name="building" horiz-adv-x="1024" unicode="&#xF1AD;"/><glyph d="M896 753 851 733 639 642 395 734 383 738 371 733 147 637 128 629 128 15 173 35 385 126 629 34 641 30 653 35 877 131 896 139zM416 658 608 586 608 110 416 182zM352 656 352 181 192 112 192 587zM832 656 832 181 672 112 672 587z" glyph-name="map" horiz-adv-x="1024" unicode="&#xF279;"/><glyph d="M495.937504 768C489.569504 768 484.443488 763.054 484.187488 756.75L467.249984 318.187488 422.5 348.562496C417.892 351.666496 411.844512 351.277504 407.812512 347.437504 403.812512 343.629504 402.964512 337.612512 405.812512 332.812512L435.375008 283.187488 373.5 270.375008C368.06 269.287008 364.124992 264.443008 364.124992 258.875008 364.124992 253.307008 368.06 248.432512 373.5 247.312512L435.375008 234.5 405.750016 184.812512C402.934016 180.076512 403.780512 174.027488 407.812512 170.187488 411.620512 166.571488 418.116 166.180992 422.5 169.124992L462.437504 196.312512 458.812512 100.312512C375.068512 117.432512 311.8750016 191.336992 311.8750016 279.624992 311.8750016 331.208992 333.397504 379.048512 372.437504 414.312512 377.909504 419.240512 380.852 426.237504 380.5 433.437504 380.148 440.637504 376.512992 447.240992 370.624992 451.624992 316.7049984 491.560992 285.8124992 552.569504 285.8124992 618.9375008 285.8124992 644.7615008 290.65 670.1204992 300.25 694.3124992 303.258 701.7684992 302.4175008 709.876 297.9375008 716.5 293.3935008 723.156 285.9664992 727.1249984 278.0624992 727.1249984 273.1984992 727.1249984 268.5015008 725.63 264.4375008 722.75 182.2615008 664.638 126.7450016 579.5109984 105.6249984 484.375008L166.5 423.5 97.0624992 423.5C96.1344992 408.908 95.6084992 394.253504 96.3124992 379.437504 97.2084992 359.693504 100.0364992 340.444 103.8124992 321.5L190 235.312512 131.3124992 235.312512C191.9844992 102.608512 324.166496 7.477504 477.062496.437504 483.398496.149504 489.665504 0 495.937504 0 658.209504 0 797.936992 96.816512 860.624992 235.312512L801.875008 235.312512 888.437504 321.875008C893.269504 346.579008 896 372.012992 896 398.124992 896 406.668992 894.981504 415.082496 894.437504 423.562496L825.437504 423.562496 886.062496 484.187488C864.750496 579.4515008 808.975008 665.1484992 727.375008 722.8124992 723.311008 725.6924992 718.644512 727.1875008 713.812512 727.1875008 705.908512 727.1875008 698.481504 723.2184992 693.937504 716.5624992 689.457504 709.9704992 688.586496 701.8629984 691.562496 694.3750016 701.194496 670.1829984 706.062496 644.7935008 706.062496 618.9375008 706.062496 552.569504 675.170016 491.592992 621.249984 451.624992 615.330016 447.240992 611.727008 440.637504 611.375008 433.437504 611.023008 426.205504 613.965504 419.210016 619.437504 414.249984 667.853504 370.506016 689.083488 306.126496 676.187488 242.062496 661.851488 170.958496 604.358496 114.011488 533.062496 100.187488L529.437504 196.249984 569.375008 169.062496C573.759008 166.022496 580.284992 166.570016 584.124992 170.249984 588.124992 174.057984 588.878496 180.139008 586.062496 184.875008L556.5 234.437504 618.375008 247.312512C623.815008 248.400512 627.750016 253.244512 627.750016 258.812512 627.750016 264.348512 623.783008 269.160512 618.375008 270.312512L556.5 283.187488 586.124992 332.812512C588.940992 337.548512 588.124992 343.567008 584.124992 347.375008 580.156992 351.119008 573.855008 351.634496 569.375008 348.562496L524.687488 318.187488 507.687488 756.6875008C507.463488 763.0235008 502.273504 768.032 495.937504 768z" glyph-name="jedi" horiz-adv-x="1024" unicode="&#xF669;"/><glyph d="M512 803C407.250016 803 322 717.749984 322 613 322 550.749984 351 506.624992 375 473 399 439.375008 416 416.249984 416 383L416 281 153 223 128 218 128 64 160 64 160 32C160 13.624992 168.124992-3.750016 181-15 193.875008-26.250016 210.375008-32 227-32L797-32C813.624992-32 830.124992-26.250016 843-15 855.875008-3.750016 864 13.624992 864 32L864 64 896 64 896 218 871 223 608 281 608 383C608 416.249984 625 439.375008 649 473 673 506.624992 702 550.749984 702 613 702 717.749984 616.750016 803 512 803zM512 739C582.250016 739 638 683.249984 638 613 638 569.749984 620.250016 542.624992 597 510 573.750016 477.375008 544 438.875008 544 383L544 288 480 288 480 383C480 438.875008 450.250016 477.375008 427 510 403.750016 542.624992 386 569.749984 386 613 386 683.249984 441.750016 739 512 739zM448 224 576 224 832 167 832 128 192 128 192 167zM224 64 800 64 800 33C799.624992 32.749984 799.124992 32 797 32L227 32C224.875008 32 224.375008 32.749984 224 33z" glyph-name="stamp" horiz-adv-x="1024" unicode="&#xF5BF;"/><glyph d="M864 768C582.304 768 441.553504 614.5724992 373.937504 540.812512L276.3750016 442.375008C221.9429984 388.007008 192 315.709984 192 238.750016L192 192 256.8750016 256.875008C261.0989984 309.867008 283.612 359.174496 321.5 397.062496L421.124992 497.562496C479.876992 561.626496 599.315488 691.89 831.187488 703.25 824.10112 558.568352 770.747616 457.702368 716.062496 388L608 352 685.375008 352C663.157024 327.794912 642.129728 308.318528 625.562496 293.124992L594.187488 262.062496 480 224 555.750016 224 525.124992 193.687488C482.820992 151.383488 426.589984 128.062496 366.750016 128.062496L301.3124992 128.062496 598.624992 425.375008 553.375008 470.624992 128 45.249984 173.25 0 237.3124992 64.062496 366.750016 64.062496C443.677984 64.062496 516.004 94.034496 570.5 148.562496L668.750016 246C742.509984 313.552 896 454.272 896 736L896 768 864 768z" glyph-name="alternate-feather" horiz-adv-x="1024" unicode="&#xF56B;"/><glyph d="M512 768C300.250016 768 128 595.749984 128 384 128 172.249984 300.250016 0 512 0 723.750016 0 896 172.249984 896 384 896 595.749984 723.750016 768 512 768zM512 704C689.124992 704 832 561.124992 832 384 832 206.875008 689.124992 64 512 64 334.875008 64 192 206.875008 192 384 192 561.124992 334.875008 704 512 704zM368 512C341.5 512 320 490.5 320 464 320 437.5 341.5 416 368 416 394.5 416 416 437.5 416 464 416 490.5 394.5 512 368 512zM656 512C629.5 512 608 490.5 608 464 608 437.5 629.5 416 656 416 682.5 416 704 437.5 704 464 704 490.5 682.5 512 656 512zM352 256 352 192 672 192 672 256z" glyph-name="neutral-face" horiz-adv-x="1024" unicode="&#xF11A;"/><glyph d="M119 823 73 777 271 580 686 165 905-55 951-9 748 194C879.124992 260.749984 976.875008 354.875008 983 361L1004 382 984 405C975.750016 414.624992 780.624992 640 512 640 448.250016 640 388.875008 626.624992 335 607zM512 576C581.250016 576 645.124992 558.249984 702 533 723.624992 497.749984 736 457.624992 736 416 736 357.875008 713.624992 305 677 265L586 356C599.250016 372.375008 608 393.249984 608 416 608 468.875008 564.875008 512 512 512 489.250016 512 468.375008 503.249984 452 490L386 556C425.624992 567.875008 467.5 576 512 576zM212 548C108.375008 484.375008 44.624992 410.5 40 405L20 382 41 361C50.124992 351.875008 259.124992 147.749984 482 130L484 130C493.250016 129.249984 502.750016 128 512 128 521.250016 128 530.750016 129.249984 540 130L542 130C567.5 132 593.124992 136.624992 618 143L563 198C555 196.124992 546.375008 194.875008 538 194L534 193C519 191.749984 504.875008 191.749984 490 193L487 194C373.750016 206.749984 288 301.875008 288 416 288 433.124992 290.124992 449.624992 294 466zM233 485C227.375008 462.5 224 439.624992 224 416 224 364.375008 238 316.124992 262 274 194.124992 314.375008 138.250016 360 109 386 132.875008 409.749984 176.250016 448.375008 233 485zM791 485C847.750016 448.375008 890.124992 408.749984 914 385 884.750016 359 829.875008 314.375008 762 274 786 316.124992 800 364.375008 800 416 800 439.5 796.5 462.5 791 485zM512 448C529.624992 448 544 433.624992 544 416 544 410.749984 542.250016 406.375008 540 402L498 444C502.375008 446.249984 506.750016 448 512 448z" glyph-name="eye-slash" horiz-adv-x="1024" unicode="&#xF070;"/><glyph d="M512 800C282.624 800 96 613.376 96 384 96 154.624 282.624-32 512-32 741.376-32 928 154.624 928 384 928 613.376 741.376 800 512 800zM480 734.3750016 480 399.437504 217.6249984 191.5C181.2909472 246.87344 160 312.972032 160 384 160 567.278848 300.8781376 718.131888 480 734.3750016zM544 734.3750016C723.121856 718.131888 864 567.278848 864 384 864 312.941376 842.675328 246.825472 806.312512 191.437504L544 399.437504 544 734.3750016zM480 317.750016 480 33.624992C392.784416 41.533888 314.8482144 81.454688 257.6249984 141.437504L480 317.750016zM544 317.750016 766.375008 141.437504C709.151776 81.454688 631.215584 41.533888 544 33.624992L544 317.750016z" glyph-name="peace" horiz-adv-x="1024" unicode="&#xF67C;"/><glyph d="M160 736 160 32 864 32 864 736zM224 672 800 672 800 96 224 96zM512 541 489 519 297 327 343 281 512 450 681 281 727 327 535 519z" glyph-name="caret-square-up" horiz-adv-x="1024" unicode="&#xF151;"/><glyph d="M160 512 160 448 864 448 864 512zM160 320 160 256 864 256 864 320z" glyph-name="equals" horiz-adv-x="1024" unicode="&#xF52C;"/><glyph d="M384 768C331.124992 768 288 724.875008 288 672L288 268 320 291 352 268 352 672C352 689.624992 366.375008 704 384 704L416 704 416 768zM768 768C715.124992 768 672 724.875008 672 672L672 640 384 640 384 576 672 576 672 512 384 512 384 448 672 448 672 384 384 384 384 320 672 320 672 268 704 291 736 268 736 672C736 689.624992 750.375008 704 768 704L800 704 800 768zM320 233 300 217C300 217 267.875008 192 225 192 182.124992 192 148 217 148 217L108 167C108 167 157.375008 128 225 128 271.750016 128 301.5 143.5 320 155 338.624992 143.624992 369.875008 128 417 128 463.750016 128 493.5 143.5 512 155 530.624992 143.624992 561.875008 128 609 128 655.750016 128 685.5 143.5 704 155 722.624992 143.624992 753.875008 128 801 128 868.624992 128 916 167 916 167L876 217C876 217 843.875008 192 801 192 758.124992 192 724 217 724 217L704 233 684 217C684 217 651.875008 192 609 192 566.124992 192 532 217 532 217L512 233 492 217C492 217 459.875008 192 417 192 374.124992 192 340 217 340 217zM320 105 300 89C300 89 267.875008 64 225 64 182.124992 64 148 89 148 89L108 39C108 39 157.375008 0 225 0 271.750016 0 301.5 15.5 320 27 338.624992 15.624992 369.875008 0 417 0 463.750016 0 493.5 15.5 512 27 530.624992 15.624992 561.875008 0 609 0 655.750016 0 685.5 15.5 704 27 722.624992 15.624992 753.875008 0 801 0 868.624992 0 916 39 916 39L876 89C876 89 843.875008 64 801 64 758.124992 64 724 89 724 89L704 105 684 89C684 89 651.875008 64 609 64 566.124992 64 532 89 532 89L512 105 492 89C492 89 459.875008 64 417 64 374.124992 64 340 89 340 89z" glyph-name="swimming-pool" horiz-adv-x="1024" unicode="&#xF5C5;"/><glyph d="M512 704C282.24 704 96 625.216 96 528L96 240C96 142.784 282.24 64 512 64 741.76 64 928 142.784 928 240L928 528C928 625.216 741.76 704 512 704zM512 640C540.58 640 567.495328 638.7370016 592.750016 636.5 598.007648 636.0342912 602.88832 635.3622304 608 634.8124992L608 620.8124992C608 578.5724992 564.8 544 512 544 459.2 544 416 578.5724992 416 620.8124992L416 634.8124992C445.665216 638.0028128 477.47008 640 512 640zM412.687488 634.4375008C401.976448 633.3122848 391.70864 631.9076832 381.624992 630.3750016 385.99856 631.0418144 390.127488 631.8324544 394.624992 632.4375008 400.43584 633.2192256 406.67072 633.765456 412.687488 634.4375008zM611.312512 634.4375008C617.32928 633.765456 623.56416 633.2192256 629.375008 632.4375008 633.872512 631.8324544 638.00144 631.0418144 642.375008 630.3750016 632.29136 631.9076832 622.023552 633.3122848 611.312512 634.4375008zM368.750016 628.3750016C363.126048 627.4080224 357.792864 626.2614848 352.375008 625.1875008 355.27216 625.7533056 357.602336 626.5235168 360.562496 627.0624992 363.19056 627.5410144 366.072384 627.9185408 368.750016 628.3750016zM655.249984 628.3750016C657.927616 627.9185408 660.80944 627.5410144 663.437504 627.0624992 666.397664 626.5235168 668.72784 625.7533056 671.624992 625.1875008 666.207136 626.2614848 660.873952 627.4080224 655.249984 628.3750016zM336.624992 621.5624992 369.937504 563.812512C384.017504 540.132512 387.54 512.317504 380.5 485.437504 374.478048 464.20224 362.088128 445.845792 345.375008 432.437504 224.68472 457.3888 160 504.637216 160 528 160 530.032 160.4781632 532.256864 161.4375008 534.624992 171.2304064 558.798848 232.0212768 598.422592 336.624992 621.5624992zM687.375008 621.5624992C802.225952 596.1557504 864 550.774656 864 528 864 504.633216 799.292864 457.385312 678.562496 432.437504 661.86832 445.836864 649.517472 463.901312 643.5 485.437504 636.46 512.317504 639.990016 540.132512 653.750016 563.812512L687.375008 621.5624992zM512 480C553.92 480 588.777504 455.06 600.937504 420.5 613.024032 421.598784 624.525984 422.992128 635.812512 424.562496 598.750144 419.248672 557.569664 416 512 416 466.430336 416 425.249856 419.248672 388.187488 424.562496 399.474016 422.992128 410.975968 421.598784 423.062496 420.5 435.222496 455.06 470.08 480 512 480zM160 434.5C233.6166016 384.99392 363.53824 352 512 352 660.46176 352 790.383392 384.99392 864 434.5L864 240C864 207.488 740.64 128 512 128 283.36 128 160 207.488 160 240L160 434.5zM355.624992 430.062496C360.922336 429.036608 366.328992 428.09424 371.812512 427.187488 366.27984 428.10688 360.94896 429.050784 355.624992 430.062496zM668.375008 430.062496C663.05104 429.050784 657.72016 428.10688 652.187488 427.187488 657.671008 428.09424 663.077664 429.036608 668.375008 430.062496z" glyph-name="drum-steelpan" horiz-adv-x="1024" unicode="&#xF56A;"/><glyph d="M128 768 128 128 352 128 352 192 192 192 192 704 576 704 576 672 640 672 640 768zM384 640 384 0 896 0 896 640zM448 576 832 576 832 64 448 64z" glyph-name="copy" horiz-adv-x="1024" unicode="&#xF0C5;"/><glyph d="M160 736 160 608C477.76 608 736 349.76 736 32L864 32C864 420.8 548.8 736 160 736zM160 512 160 384C354.24 384 512 226.24 512 32L640 32C640 296.96 424.96 512 160 512zM256 224A96 96 0 0 1 256 32 96 96 0 0 1 256 224z" glyph-name="rss" horiz-adv-x="1024" unicode="&#xF09E;"/><glyph d="M128 672 128 608 896 608 896 672zM128 416 128 352 896 352 896 416zM128 160 128 96 896 96 896 160z" glyph-name="bars" horiz-adv-x="1024" unicode="&#xF0C9;"/><glyph d="M191 800 181 789C181 789 156.750016 768 141 768L141 704C162.750016 704 177.750016 712.875008 192 721L192 576 256 576 256 800zM352 704 352 640 896 640 896 704zM208 512C163.750016 512 128 476.249984 128 432L128 416 192 416 192 432C192 438.875008 201.124992 448 208 448 214.875008 448 224 438.875008 224 432L221 429 138 349 128 340 128 288 288 288 288 352 233 352 261 380 265 383 264 384C280 397.124992 288 416.624992 288 432 288 476.249984 252.250016 512 208 512zM352 416 352 352 896 352 896 416zM128 224 128 160 172 160 164 147 160 140 160 96 208 96C214.875008 96 224 86.875008 224 80 224 73.124992 214.875008 64 208 64L128 64 128 0 208 0C252.250016 0 288 35.749984 288 80 288 112.124992 266.250016 134.249984 239 147L252 169 256 177 256 224zM352 128 352 64 896 64 896 128z" glyph-name="list-ol" horiz-adv-x="1024" unicode="&#xF0CB;"/><glyph d="M352 768 352 370C348.750016 369.124992 344.875008 367.875008 342 367 326.5 362.249984 315.750016 357.249984 308 352 304.124992 349.375008 300.5 346.624992 298 344 295.5 341.375008 292 336 292 336L288 329 288 256 320 256 320 0 384 0 384 256 640 256 640 0 704 0 704 256 736 256 736 329 732 336C732 336 728.5 341.375008 726 344 723.5 346.624992 719.875008 349.375008 716 352 708.250016 357.249984 697.5 362.249984 682 367 679.124992 367.875008 675.250016 369.124992 672 370L672 768 608 768 608 736 416 736 416 768zM416 672 480 672 480 383C455.750016 382.375008 434 381.749984 416 380zM544 672 608 672 608 380C590 381.749984 568.250016 382.375008 544 383z" glyph-name="chair" horiz-adv-x="1024" unicode="&#xF6C0;"/><glyph d="M512 768C300.250016 768 128 595.749984 128 384 128 172.249984 300.250016 0 512 0 723.750016 0 896 172.249984 896 384 896 595.749984 723.750016 768 512 768zM512 704C689.124992 704 832 561.124992 832 384 832 206.875008 689.124992 64 512 64 334.875008 64 192 206.875008 192 384 192 561.124992 334.875008 704 512 704zM512 480C459 480 416 437 416 384 416 331 459 288 512 288 565 288 608 331 608 384 608 437 565 480 512 480z" glyph-name="dot-circle" horiz-adv-x="1024" unicode="&#xF192;"/><glyph d="M512 800C282.624 800 96 613.376 96 384 96 154.624 282.624-32 512-32 741.376-32 928 154.624 928 384 928 613.376 741.376 800 512 800zM512 736C706.08 736 864 578.08 864 384 864 189.92 706.08 32 512 32 317.92 32 160 189.92 160 384 160 578.08 317.92 736 512 736zM368 512A48 48 0 0 1 368 416 48 48 0 0 1 368 512zM656 512A48 48 0 0 1 656 416 48 48 0 0 1 656 512zM288 288C288 288 339.36 128 512 128 684.64 128 736 288 736 288L288 288z" glyph-name="grinning-face-with-big-eyes" horiz-adv-x="1024" unicode="&#xF599;"/><glyph d="M192 736C192 639.249984 233 564 291 505 337 458.124992 392.875008 419.624992 450 384 316.624992 299.749984 192 207.624992 192 32L256 32C256 182.249984 377 264.249984 511 347 542.875008 327.375008 574 308.249984 603 288L486 288C454 268.749984 425.750016 246.375008 397 224L682 224C683.624992 222.375008 685.375008 220.624992 687 219 705.250016 200.5 721.375008 180.875008 734 160L339 160C323 140.749984 313.624992 118.375008 304 96L760 96C765 76.249984 768 55.249984 768 32L832 32C832 128.749984 791 204 733 263 675 322 601 367 529 411 457 455 387 498 337 549 287 600 256 656.749984 256 736zM768 736C768 713 764.250016 691.875008 759 672L304 672C313.624992 649.624992 323 627.249984 339 608L732 608C718 584.875008 700.250016 563.875008 680 544L397 544C425.750016 521.624992 454 499.249984 486 480L604 480C584.750016 466 564.5 451.875008 544 438 563.250016 425.249984 582.750016 415.749984 602 403 723.624992 483 832 576 832 736z" glyph-name="dna" horiz-adv-x="1024" unicode="&#xF471;"/><glyph d="M109 769 107 728 96 447 95 422 119 415 324 353 150 232 101 198 156 176 247 140 259 135 271 140 591 273 796 211C850 194.749984 907.750016 226.124992 924 280 940.250016 334 908.875008 391.749984 855 408L673 464 552 664 545 675 533 679 448 702 401 714 408 666 425 541 289 583 237 717 231 732 216 737 148 757zM169 684 183 680 234 546 239 531 254 527 836 347C856.875008 340.749984 868.250016 319.749984 862 299 855.750016 278.124992 834.750016 266.749984 814 273L598 338 587 341 577 337 259 204 235 214 415 338 470 376 406 395 161 469zM477 627 503 620 581 493 491 520zM656 224C629.5 224 608 202.5 608 176 608 149.5 629.5 128 656 128 682.5 128 704 149.5 704 176 704 202.5 682.5 224 656 224zM96 64 96 0 928 0 928 64z" glyph-name="plane-arrival" horiz-adv-x="1024" unicode="&#xF5AF;"/><glyph d="M160 736 160 32 864 32 864 589 855 599 727 727 717 736zM224 672 320 672 320 480 704 480 704 658 800 562 800 96 736 96 736 384 288 384 288 96 224 96zM384 672 512 672 512 608 576 608 576 672 640 672 640 544 384 544zM352 320 672 320 672 96 352 96z" glyph-name="save" horiz-adv-x="1024" unicode="&#xF0C7;"/><glyph d="M352 736C289 736 238.750016 689.875008 228 630 167.5 614.749984 115 575.375008 92 513L91 513 23 322C8.5 292.375008 0 259.124992 0 224 0 100.624992 100.624992 0 224 0 335.124992 0 427.750016 81.624992 445 188 462.375008 170.875008 486 160 512 160 538 160 561.624992 170.875008 579 188 596.250016 81.624992 688.875008 0 800 0 923.375008 0 1024 100.624992 1024 224 1024 255.124992 1017.624992 285 1006 312L933 516 932 517 932 518C908.624992 574.749984 856.875008 614.375008 796 630 785.250016 689.875008 735 736 672 736 612.624992 736 564.375008 694.875008 550 640L474 640C459.624992 694.875008 411.375008 736 352 736zM352 672C390.124992 672 416 646.124992 416 608L416 576 608 576 608 608C608 646.124992 633.875008 672 672 672 710.124992 672 736 646.124992 736 608L736 579 765 576C812.5 571 853.5 537.875008 872 495 872.250016 494.375008 872.750016 493.624992 873 493L897 425C867.624992 439.249984 834.750016 448 800 448 706.375008 448 626.375008 389.875008 593 308 575.875008 334.624992 545.624992 352 512 352 478.375008 352 448.124992 334.624992 431 308 397.624992 389.875008 317.624992 448 224 448 189.750016 448 157.124992 439.875008 128 426L152 491 152 492C170.624992 541.5 209.875008 570.875008 259 576L288 579 288 608C288 646.124992 313.875008 672 352 672zM224 384C312.750016 384 384 312.749984 384 224 384 135.249984 312.750016 64 224 64 135.250016 64 64 135.249984 64 224 64 246.624992 69.624992 267.5 78 287 78.5 288.249984 78.5 289.749984 79 291 104.250016 345.875008 159.375008 384 224 384zM800 384C888.750016 384 960 312.749984 960 224 960 135.249984 888.750016 64 800 64 711.250016 64 640 135.249984 640 224 640 312.749984 711.250016 384 800 384zM512 288C530 288 544 274 544 256 544 238 530 224 512 224 494 224 480 238 480 256 480 274 494 288 512 288z" glyph-name="binoculars" horiz-adv-x="1024" unicode="&#xF1E5;"/><glyph d="M128 768 128 192 320 192 320 0 896 0 896 576 704 576 704 768zM192 704 640 704 640 558 338 256 192 256zM352 640 352 608 256 608 256 544 414 544C409.875008 507.249984 398.624992 478.249984 380 458 369 461.624992 359.124992 466.124992 351 471 328.5 484.375008 320 498.624992 320 512L256 512C256 473.875008 279.5 442.124992 311 421 295.250016 417.624992 277 416 256 416L256 352C312.750016 352 360 365 396 389 412.750016 386.124992 429.750016 384 448 384L448 444C465.375008 473.124992 474.624992 507.124992 478 544L512 544 512 608 416 608 416 640zM686 512 832 512 832 64 384 64 384 210zM640 453 610 362 546 170 544 165 544 128 608 128 608 156 609 160 671 160 672 156 672 128 736 128 736 165 734 170 670 362zM640 252 649 224 631 224z" glyph-name="language" horiz-adv-x="1024" unicode="&#xF1AB;"/><glyph d="M376 736 374 706 368 610 366 576 430 576 402 192 338 192 336 162 330 66 327 32 648 32 650 62 656 158 658 192 594 192 622 576 686 576 688 606 694 702 697 736zM436 672 628 672 626 640 562 640 560 610 528 162 526 128 590 128 588 96 396 96 398 128 462 128 464 158 496 606 498 640 434 640z" glyph-name="italic" horiz-adv-x="1024" unicode="&#xF033;"/><glyph d="M480 768 480 126 263 343 217 297 489 25 512 3 535 25 807 297 761 343 544 126 544 768z" glyph-name="arrow-down" horiz-adv-x="1024" unicode="&#xF063;"/><glyph d="M512 736C505.152 736 498.310016 734.8955008 491.750016 732.6875008L160.8124992 622.3750016C141.1964992 615.8470016 128 597.5470016 128 576.8750016L128 163.5C128 141.484 142.9990016 122.281504 164.3750016 116.937504L496.5 33.937504C501.588 32.657504 506.784 32 512 32 517.216 32 522.412 32.657504 527.5 33.937504L859.624992 116.937504C881.000992 122.249504 896 141.452 896 163.5L896 576.8750016C896 597.5470016 882.803488 615.8470016 863.187488 622.3750016L532.249984 732.6875008C525.689984 734.8955008 518.848 736 512 736zM512 672 832 565.375008 832 483.937504 537.624992 572.187488C520.824992 577.2435008 503.175008 577.2435008 486.375008 572.187488L192 483.937504 192 565.375008 512 672zM512 523.750016C517.164 523.750016 522.365504 523.034496 527.437504 521.562496L832 430.124992 832 176 512 96 192 176 192 430.124992 496.812512 521.562496C501.740512 523.034496 506.836 523.750016 512 523.750016zM487.062496 479.812512C485.750016 480.082496 484.337504 480.079488 482.937504 479.687488L376.312512 450.624992C372.568512 449.536992 369.875008 446.062496 369.875008 442.062496L369.875008 423.437504C369.875008 417.549504 375.462496 413.531008 381.062496 414.875008L487.750016 443.937504C491.494016 444.993504 494.124992 448.750016 494.124992 452.750016L494.124992 471.124992C494.124992 475.516992 491 479.002496 487.062496 479.812512zM537 479.812512C533.062496 479.007008 529.875008 475.516992 529.875008 471.124992L529.875008 452.687488C529.875008 448.431488 532.568512 444.931008 536.312512 443.875008L642.937504 414.875008C648.537504 413.275008 654.124992 417.519008 654.124992 423.375008L654.124992 442.062496C654.124992 446.062496 651.461984 449.506496 647.750016 450.562496L541.062496 479.624992C539.662496 480.024992 538.312512 480.080992 537 479.812512zM327.062496 436.124992C325.750016 436.393504 324.337504 436.337504 322.937504 435.937504L234.1249984 411.687488C230.1249984 410.599488 227.5 407.124992 227.5 403.124992L227.5 384.750016C227.5 378.862016 233.0875008 374.587488 238.6875008 376.187488L327.750016 400.437504C331.494016 401.525504 334.124992 405 334.124992 409L334.124992 427.375008C334.124992 431.767008 331 435.319488 327.062496 436.124992zM697 436.124992C693.062496 435.319488 689.875008 431.767008 689.875008 427.375008L689.875008 409C689.875008 405 692.568512 401.493504 696.312512 400.437504L785.375008 376.187488C790.975008 374.587488 796.562496 378.894016 796.562496 384.750016L796.562496 403.124992C796.562496 407.124992 793.843008 410.599488 789.875008 411.687488L701.062496 435.937504C699.662496 436.337504 698.312512 436.393504 697 436.124992z" glyph-name="kaaba" horiz-adv-x="1024" unicode="&#xF66B;"/><glyph d="M416 768 395 704 304 704C261.750016 704 224.124992 676.5 212 636L168 489 106 510 86 450 149 429 129 361C128.250016 358.124992 127.875008 355 128 352L128 128C128 127 128 126 128 125L128 96C128 78.375008 142.375008 64 160 64L256 64 267 96 757 96 768 64 864 64C881.624992 64 896 78.375008 896 96L896 123C896.124992 124.624992 896.124992 126.375008 896 128L896 352C896.124992 355 895.750016 358.124992 895 361L875 429 938 450 918 510 856 489 812 636C799.875008 676.5 762.250016 704 720 704L629 704 608 768zM304 640 720 640C734.250016 640 746.875008 630.624992 751 617L792 480 232 480 273 617C277.124992 630.749984 289.750016 640 304 640zM213 416 811 416 832 346 832 160 192 160 192 346zM272 384C245.5 384 224 362.5 224 336 224 309.5 245.5 288 272 288 298.5 288 320 309.5 320 336 320 362.5 298.5 384 272 384zM752 384C725.5 384 704 362.5 704 336 704 309.5 725.5 288 752 288 778.5 288 800 309.5 800 336 800 362.5 778.5 384 752 384zM384 288 344 192 413 192 427 224 597 224 611 192 680 192 640 288z" glyph-name="taxi" horiz-adv-x="1024" unicode="&#xF1BA;"/><glyph d="M512 800C283.84 800 98.1395008 615.3064992 96.1875008 387.562496 114.5555008 394.922496 136.2884992 402.327488 161.3124992 409.687488 174.5284992 591.7995008 326.56 736 512 736 697.44 736 849.471488 591.7995008 862.687488 409.687488 887.711488 402.327488 909.444512 394.922496 927.812512 387.562496 925.860512 615.3064992 740.16 800 512 800zM288 448 288 384 448 384 448 448 288 448zM576 448 576 384 736 384 736 448 576 448zM192 352C192 352 96.9729984 325.285504 78.1249984 306.437504 59.2770016 287.589504 59.2770016 256.972992 78.1249984 238.124992 96.9729984 219.276992 127.5895008 219.276992 146.4375008 238.124992 165.2855008 256.972992 192 352 192 352zM832 352C832 352 858.714496 256.972992 877.562496 238.124992 896.410496 219.276992 927.027008 219.276992 945.875008 238.124992 964.723008 256.972992 964.723008 287.589504 945.875008 306.437504 927.027008 325.285504 832 352 832 352zM288 288C288 288 339.52 128 512 128 684.48 128 736 288 736 288L288 288zM205.6875008 211.187488C201.0155008 203.731488 196.2955008 197.483008 191.6875008 192.875008 181.4155008 182.603008 169.46 174.692992 156.5 169.124992 229.492 48.804992 361.312-32 512-32 662.688-32 794.508 48.804992 867.5 169.124992 854.54 174.692992 842.584512 182.571008 832.312512 192.875008 827.672512 197.515008 822.984512 203.763488 818.312512 211.187488 757.800512 104.371488 643.296 32 512 32 380.704 32 266.1995008 104.371488 205.6875008 211.187488z" glyph-name="face-with-tears-of-joy" horiz-adv-x="1024" unicode="&#xF588;"/><glyph d="M425 679 153 407 131 384 153 361 425 89 471 135 254 352 896 352 896 416 254 416 471 633z" glyph-name="arrow-left" horiz-adv-x="1024" unicode="&#xF060;"/><glyph d="M512 827.749984 378.750016 528.875008 53.250016 494.5 296.375008 275.375008 228.5-44.750016 512 118.749984z" glyph-name="star-half" horiz-adv-x="1024" unicode="&#xF089;"/><glyph d="M288 768C217.624992 768 160 710.375008 160 640 160 604.375008 175.250016 572.249984 199 549 156.375008 520.124992 128 470.875008 128 416L128 236 192 204 192 0 384 0 384 204 448 236 448 416C448 470.875008 419.624992 520.124992 377 549 400.750016 572.249984 416 604.375008 416 640 416 710.375008 358.375008 768 288 768zM704 768C633.624992 768 576 710.375008 576 640 576 603.124992 592.750016 570.375008 618 547 589 525.249984 567.875008 492.875008 561 454 561 453.624992 561 453.375008 561 453L513 198 505 160 608 160 608 0 800 0 800 160 903 160 895 198 847 453C847 453.375008 847 453.624992 847 454 840.124992 492.875008 819 525.249984 790 547 815.250016 570.375008 832 603.124992 832 640 832 710.375008 774.375008 768 704 768zM288 704C323.750016 704 352 675.749984 352 640 352 604.249984 323.750016 576 288 576 252.250016 576 224 604.249984 224 640 224 675.749984 252.250016 704 288 704zM704 704C739.750016 704 768 675.749984 768 640 768 604.249984 739.750016 576 704 576 668.250016 576 640 604.249984 640 640 640 675.749984 668.250016 704 704 704zM288 512C341 512 384 469 384 416L384 276 320 244 320 64 256 64 256 244 192 276 192 416C192 469 235 512 288 512zM704 512C743.375008 512 776.875008 485.875008 784 443L784 442 785 442 826 224 736 224 736 64 672 64 672 224 582 224 623 442 624 442 624 443C631.124992 485.875008 664.624992 512 704 512z" glyph-name="restroom" horiz-adv-x="1024" unicode="&#xF7BD;"/><glyph d="M801 768 768 753C666.250016 708.124992 519.250016 691.249984 394 647 331.375008 624.875008 273.375008 595.375008 230 548 186.624992 500.624992 160 435.375008 160 352 160 265.749984 210.750016 206.624992 258 173 278.124992 158.624992 297.624992 148.249984 314 141 294.250016 104.375008 279.624992 71.375008 270 43 252.5-8.124992 249.750016-48.124992 251-77 252.250016-105.875008 256-125.624992 256-125L320-131C322-107.875008 316-95.750016 315-74 314-52.250016 315.875008-22.375008 331 22 361.250016 110.624992 445.124992 256.5 663 490L617 534C486.375008 394 402 284.875008 347 197 333 202.624992 314.250016 211.249984 295 225 257.875008 251.375008 224 290 224 352 224 422.5 244.124992 469 277 505 309.875008 541 357.750016 566.749984 415 587 518.624992 623.624992 646.875008 642.124992 757 683 767.250016 644.124992 800 511 800 303 800 185 772.375008 117.375008 740 80 707.624992 42.624992 668.624992 32 634 32 599.5 32 562.250016 49.624992 530 72 497.750016 94.375008 475.5 117.749984 453 132L419 78C424.750016 74.375008 456.624992 44.875008 494 19 531.375008-6.875008 578.750016-32 634-32 683.250016-32 743.5-14.624992 789 38 834.5 90.624992 864 175.124992 864 303 864 553.249984 811 733 811 733z" glyph-name="leaf" horiz-adv-x="1024" unicode="&#xF06C;"/><glyph d="M320 768C232 768 160 696 160 608L160 224C160 146.375008 206.375008 79.249984 273 49L192-32 267-32 332 33C338.375008 32.375008 345.375008 32 352 32L672 32C678.624992 32 685.624992 32.375008 692 33L757-32 832-32 751 49C817.624992 79.249984 864 146.375008 864 224L864 608C864 696 792 768 704 768zM320 704 704 704C746.250016 704 782 677.5 795 640L229 640C242 677.5 277.750016 704 320 704zM224 576 480 576 480 384 224 384zM544 576 800 576 800 384 544 384zM224 320 800 320 800 224C800 153 743 96 672 96L352 96C281 96 224 153 224 224zM336 256C309.5 256 288 234.5 288 208 288 181.5 309.5 160 336 160 362.5 160 384 181.5 384 208 384 234.5 362.5 256 336 256zM688 256C661.5 256 640 234.5 640 208 640 181.5 661.5 160 688 160 714.5 160 736 181.5 736 208 736 234.5 714.5 256 688 256z" glyph-name="subway" horiz-adv-x="1024" unicode="&#xF239;"/><glyph d="M448 704C419.250016 704 398 688 379 667 360.124992 646.249984 344.750016 618 337 584 336.875008 583.624992 337.124992 583.375008 337 583 328.624992 551 316.750016 495.749984 307 448 284.624992 467.375008 256 480 224 480 153.250016 480 96 422.749984 96 352 96 284.624992 113.375008 208.749984 177 153 240.624992 97.249984 344.5 64 512 64 679.624992 64 784.5 97.875008 848 154 911.5 210.124992 928 286.124992 928 352 928 422.749984 870.750016 480 800 480 768.250016 480 739.375008 468.124992 717 449 716.624992 449.375008 716.375008 449.624992 716 450 716 450.124992 715 449.875008 715 450 703.624992 502.749984 694.5 547.124992 687 583 679.375008 619 663.250016 648.124992 644 669 624.750016 689.875008 603.5 704 576 704 549.875008 704 532.750016 690.624992 521 682 516.875008 679 514.624992 676.875008 512 675 509.375008 676.875008 507.124992 679 503 682 491.250016 690.624992 474.124992 704 448 704zM448 640C447.5 640 455.124992 637.375008 465 630 470 626.375008 475.124992 622.375008 482 618 488.875008 613.624992 497.375008 608 512 608 526.624992 608 535.124992 613.624992 542 618 548.875008 622.375008 554 626.375008 559 630 568.875008 637.375008 576.5 640 576 640 574.124992 640 585.875008 637 597 625 608.124992 613 619.750016 593.749984 625 569 633.875008 527 646.750016 467.249984 658 415 656.375008 413.875008 655 413.124992 653 412 631.375008 399.375008 589.375008 384 512 384 434.624992 384 392.624992 399.375008 371 412 368.5 413.375008 367 414.624992 365 416 376 469.124992 389.750016 533 399 568 399 568.375008 399 568.624992 399 569 404.124992 592.124992 415.624992 611.375008 427 624 438.375008 636.624992 451.250016 640 448 640zM224 416C261.124992 416 286.624992 391.375008 288 355 288 354.624992 288 354.375008 288 354 286.624992 348 287 341.749984 289 336 289.250016 335 289.624992 334 290 333 296.250016 270.624992 331.375008 228.875008 374 211 420.875008 191.249984 472 192 512 192 552.875008 192 604.624992 192.5 651 213 694.124992 232.124992 730.124992 275.249984 735 338 736.375008 342.5 736.750016 347.375008 736 352 736 352.375008 736 352.624992 736 353 736.124992 354.375008 736.124992 355.624992 736 357 738.124992 392.375008 763.624992 416 800 416 838.124992 416 864 390.124992 864 352 864 296.249984 851.875008 243.375008 805 202 758.124992 160.624992 670.750016 128 512 128 353.124992 128 265.750016 160 219 201 172.250016 242 160 294.5 160 352 160 390.124992 185.875008 416 224 416zM352 350C385.875008 333.5 435.750016 320 512 320 588.250016 320 638.124992 333.5 672 350 671.5 300.624992 654.124992 284.875008 625 272 595.375008 258.875008 551.124992 256 512 256 472 256 427.124992 256.749984 398 269 369.250016 281.124992 352.375008 297 352 350z" glyph-name="cowboy-hat" horiz-adv-x="1024" unicode="&#xF8C0;"/><glyph d="M224 832 224 576 480 576 480 832 224 832zM544 832 544 576 800 576 800 832 544 832zM288 768 416 768 416 640 288 640 288 768zM608 768 736 768 736 640 608 640 608 768zM224 512 224 256 480 256 480 512 224 512zM544 512 544 256 800 256 800 512 544 512zM288 448 416 448 416 320 288 320 288 448zM608 448 736 448 736 320 608 320 608 448zM224 192 224-64 480-64 480 192 224 192zM544 192 544-64 800-64 800 192 544 192zM288 128 416 128 416 0 288 0 288 128zM608 128 736 128 736 0 608 0 608 128z" glyph-name="grip-vertical" horiz-adv-x="1024" unicode="&#xF58E;"/><glyph d="M512 800C459.375008 800 416 756.624992 416 704L416 469 147 349 128 341 128 188 416 220 416 161 334 106 320 97 320-39 358-31 512 0 666-31 704-39 704 97 690 106 608 161 608 220 896 188 896 341 877 349 608 469 608 704C608 756.624992 564.624992 800 512 800zM512 736C530.124992 736 544 722.124992 544 704L544 427 563 419 832 299 832 260 544 292 544 126 558 117 640 62 640 39 518 63 512 65 506 63 384 39 384 62 466 117 480 126 480 292 192 260 192 299 461 419 480 427 480 704C480 722.124992 493.875008 736 512 736z" glyph-name="plane" horiz-adv-x="1024" unicode="&#xF072;"/><glyph d="M704 800C580.48 800 480 699.488 480 576 480 452.512 580.48 352 704 352 827.52 352 928 452.512 928 576 928 699.488 827.52 800 704 800zM704 736C792.224 736 864 664.224 864 576 864 543.444608 854.07952 513.233472 837.312512 487.937504L615.937504 709.3124992C641.233472 726.0795072 671.444608 736 704 736zM570.687488 664.0624992 792.062496 442.624992C766.77152 425.868096 736.544704 416 704 416 615.776 416 544 487.776 544 576 544 608.5553856 553.92048 638.7665216 570.687488 664.0624992zM320 448C196.48 448 96 347.488 96 224 96 100.512 196.48 0 320 0 443.52 0 544 100.512 544 224 544 347.488 443.52 448 320 448zM320 384C397.259616 384 461.875072 328.931072 476.750016 256L163.25 256C178.124928 328.931072 242.7403744 384 320 384zM163.25 192 476.750016 192C461.875072 119.068928 397.259616 64 320 64 242.7403744 64 178.124928 119.068928 163.25 192z" glyph-name="tablets" horiz-adv-x="1024" unicode="&#xF490;"/><glyph d="M512 800C416 800 329.6 726.4 265.6 633.6 201.6 540.8 160 425.6 160 320 160 208 198.4 118.4 262.4 57.6 329.6 0 416-32 512-32 608-32 694.4-3.2 761.6 57.6S864 208 864 320C864 425.6 822.4 540.8 758.4 633.6 694.4 726.4 608 800 512 800zM512 736C572.8 736 646.4 681.6 704 598.4 761.6 515.2 800 406.4 800 320 800 220.8 768 150.4 716.8 105.6 665.6 57.6 595.2 32 512 32 428.8 32 358.4 57.6 307.2 105.6 256 153.6 224 224 224 320 224 409.6 262.4 515.2 320 598.4 377.6 681.6 451.2 736 512 736z" glyph-name="egg" horiz-adv-x="1024" unicode="&#xF7FB;"/><glyph d="M416 768 416 704 608 704 608 768zM512 672C318 672 160 514 160 320 160 126 318-32 512-32 706-32 864 126 864 320 864 413.375008 827.624992 498.875008 768 562L823 617 777 663 719 605C661 647.249984 589.124992 672 512 672zM512 608C671.375008 608 800 479.375008 800 320 800 160.624992 671.375008 32 512 32 352.624992 32 224 160.624992 224 320 224 479.375008 352.624992 608 512 608zM480 544 480 375C460.875008 363.875008 448 343.624992 448 320 448 296.375008 460.875008 276.124992 480 265L480 224 544 224 544 265C563.124992 276.124992 576 296.375008 576 320 576 343.624992 563.124992 363.875008 544 375L544 544z" glyph-name="stopwatch" horiz-adv-x="1024" unicode="&#xF2F2;"/><glyph d="M288 813 288-5 341 39 470 147 535 18 549-11 578 4 677 55 705 69 691 98 632 214 794 234 859 242 813 288 343 759zM352 658 722 289 578 272 533 266 554 225 620 97 578 75 509 213 490 249 459 223 352 133z" glyph-name="mouse-pointer" horiz-adv-x="1024" unicode="&#xF245;"/><glyph d="M512 768C300.250016 768 128 595.749984 128 384 128 172.249984 300.250016 0 512 0 723.750016 0 896 172.249984 896 384 896 595.749984 723.750016 768 512 768zM512 704C689.124992 704 832 561.124992 832 384 832 206.875008 689.124992 64 512 64 334.875008 64 192 206.875008 192 384 192 561.124992 334.875008 704 512 704zM368 512C341.5 512 320 490.5 320 464 320 437.5 341.5 416 368 416 394.5 416 416 437.5 416 464 416 490.5 394.5 512 368 512zM656 512C629.5 512 608 490.5 608 464 608 437.5 629.5 416 656 416 682.5 416 704 437.5 704 464 704 490.5 682.5 512 656 512zM346 288 291 256C335.250016 179.624992 417.5 128 512 128 606.5 128 688.750016 179.624992 733 256L678 288C644.750016 230.624992 583.250016 192 512 192 440.750016 192 379.250016 230.624992 346 288z" glyph-name="smiling-face" horiz-adv-x="1024" unicode="&#xF118;"/><glyph d="M512 800C282.624 800 96 613.376 96 384 96 154.624 282.624-32 512-32 741.376-32 928 154.624 928 384 928 613.376 741.376 800 512 800zM512 736C706.08 736 864 578.08 864 384 864 189.92 706.08 32 512 32 317.92 32 160 189.92 160 384 160 578.08 317.92 736 512 736zM352 512C284.992 512 236.5 473.375008 236.5 473.375008L275.5 422.624992C275.5 422.624992 310.1744992 448 352.062496 448 393.950496 448 428.562496 422.624992 428.562496 422.624992L467.562496 473.375008C467.498496 473.375008 419.008 512 352 512zM672 512C604.992 512 556.5 473.375008 556.5 473.375008L595.5 422.624992C595.5 422.624992 630.174496 448 672.062496 448 713.950496 448 748.562496 422.624992 748.562496 422.624992L787.562496 473.375008C787.498496 473.375008 739.008 512 672 512zM288 288C288 288 339.36 128 512 128 684.64 128 736 288 736 288L288 288z" glyph-name="grinning-face-with-smiling-eyes" horiz-adv-x="1024" unicode="&#xF582;"/><glyph d="M512 800C282.624992 800 96 613.375008 96 384 96 154.624992 282.624992-32 512-32 741.375008-32 928 154.624992 928 384 928 613.375008 741.375008 800 512 800zM512 736C706.750016 736 864 578.749984 864 384 864 189.249984 706.750016 32 512 32 317.250016 32 160 189.249984 160 384 160 578.749984 317.250016 736 512 736zM320 416 320 352 704 352 704 416z" glyph-name="minus-circle" horiz-adv-x="1024" unicode="&#xF056;"/><glyph d="M192 800 192-32 832-32 832 800zM256 736 768 736 768 32 256 32zM512 585 512 378C501.875008 381.624992 491.250016 384 480 384 427.375008 384 384 340.624992 384 288 384 235.375008 427.375008 192 480 192 532.624992 192 576 235.375008 576 288L576 503 664 481 680 543zM480 320C498 320 512 306 512 288 512 270 498 256 480 256 462 256 448 270 448 288 448 306 462 320 480 320z" glyph-name="audio-file" horiz-adv-x="1024" unicode="&#xF1C7;"/><glyph d="M512 704C459.375008 704 416 660.624992 416 608 416 555.375008 459.375008 512 512 512 564.624992 512 608 555.375008 608 608 608 660.624992 564.624992 704 512 704zM512 640C530 640 544 626 544 608 544 590 530 576 512 576 494 576 480 590 480 608 480 626 494 640 512 640zM160 416 160 352 864 352 864 416zM512 256C459.375008 256 416 212.624992 416 160 416 107.375008 459.375008 64 512 64 564.624992 64 608 107.375008 608 160 608 212.624992 564.624992 256 512 256zM512 192C530 192 544 178 544 160 544 142 530 128 512 128 494 128 480 142 480 160 480 178 494 192 512 192z" glyph-name="divide" horiz-adv-x="1024" unicode="&#xF529;"/><glyph d="M464 800C402.5 800 352 749.5 352 688 352 626.5 402.5 576 464 576 525.5 576 576 626.5 576 688 576 749.5 525.5 800 464 800zM464 736C490.875008 736 512 714.875008 512 688 512 661.124992 490.875008 640 464 640 437.124992 640 416 661.124992 416 688 416 714.875008 437.124992 736 464 736zM346 568C329.5 566.624992 314.124992 558.749984 303 546L245 479C237.375008 470.249984 232 459.5 230 448L208 324 271 313 293 437 351 504 352 504 377 499 339 327C335.124992 309.124992 339.250016 290.749984 350 276L527 32 606 32 402 314 440 487 455 484 479 400C484.624992 380.749984 499.124992 365.124992 518 358L613 322 737 42 767 54 640 340 653 375 541 418 516 502C509.375008 525.124992 490.624992 542.5 467 547L363 567C357.5 568 351.5 568.5 346 568zM335 223 319 161 226 32 305 32 379 133 383 152z" glyph-name="blind" horiz-adv-x="1024" unicode="&#xF29D;"/><glyph d="M896 736 896 800C832.375008 800 782.750016 782.249984 748.624992 747.5 728.875008 727.375008 718.250016 705 712.124992 685.749984 695.875008 697 677 704 656 704 575.250016 704 544.750016 639.749984 544 596 544 589 543.750016 581.624992 543.250016 574 521.750016 510.375008 480 552.5 480 640 376.875008 530.5 488 490.124992 424.624992 426.749984 411.124992 413.249984 378.875008 408 358.750016 432.749984 332.124992 464.375008 386.250016 516.375008 335 555.249984 344.375008 496.749984 299.250016 508.875008 284 521.375008 264.124992 537.624992 228 573.375008 288 672 226.624992 644 189.624992 587.124992 192 544 198.375008 430.875008 373.250016 332.624992 302.624992 266.624992 267 233.249984 197 278.375008 224 352 190.375008 334.875008 150.875008 294.124992 163.5 230.749984 172.250016 186.875008 236 88 128 32 128 32 128.5 31.875008 129.375008 31.624992L126.624992-32C128.750016-32.124992 137.375008-32.375008 151.250016-32.375008 241.250016-32.375008 552.750016-18.5 744.5 165.124992 845 261.375008 896 388.875008 896 544 896 588.249984 875.875008 672 800 672 790.624992 672 781.875008 670.749984 773.624992 668.749984 777.250016 679.5 783.5 691.749984 794.250016 702.749984 816 724.749984 850.124992 736 896 736zM800 608C830.250016 608 832 544.5 832 544 832 407.124992 787.624992 295.249984 700.375008 211.5 558.750016 75.749984 335.624992 42.124992 214.5 34.124992 244 40.875008 279.5 54.624992 318.375008 80.875008 505.624992 183.5 604.124992 425.5 607.750016 586.624992L608 586.624992 608 595.375008C608.124992 602.875008 611.124992 640 656 640 683.375008 640 704 601.124992 704 576L768 576C768 589.749984 771.375008 608 800 608z" glyph-name="hot-pepper" horiz-adv-x="1024" unicode="&#xF816;"/><glyph d="M512 800C283.375008 800 96 612.624992 96 384 96 155.375008 283.375008-32 512-32 740.624992-32 928 155.375008 928 384 928 612.624992 740.624992 800 512 800zM512 736C587.375008 736 657.624992 711.749984 715 671 645.5 688.124992 580 690.875008 525 687 483.250016 684 447.250016 677.749984 420 671 411.250016 668.875008 405.624992 667 399 665 395.124992 686.749984 394 704.624992 394 715 431 728.249984 470.5 736 512 736zM332 685C333.750016 667.749984 337.375008 647.124992 343 624 342.875008 617.624992 344.624992 611.375008 348 606 358.5 568.875008 374.5 526.875008 400 483 400.624992 482 401.250016 481 402 480 421.624992 446.749984 445.875008 412.5 477 379 468.875008 351.375008 458.875008 325.875008 448 303 429.5 319.875008 406.124992 344.749984 381 381 338.5 442.249984 298 530.5 296 649 296 652.749984 295.250016 656.5 294 660 305.750016 669.249984 319.124992 677.249984 332 685zM558 625C628 626.5 712.375008 615.624992 797 575 800.875008 572.375008 805.375008 570.749984 810 570 820.250016 553.749984 829.5 537 837 519 737.375008 563.624992 645 572.249984 572 567 513.624992 562.875008 470 550.124992 442 540 431 562 422.624992 583.249984 416 603 422.250016 604.875008 428 607 436 609 460 615 491.5 621.375008 529 624 538.375008 624.624992 548 624.749984 558 625zM235 600C245.875008 490.875008 285.875008 405.749984 328 345 360.875008 297.5 394.5 264.624992 416 246 401.5 224 385.875008 205.5 371 189 351.250016 208.624992 323.250016 239.875008 296 282 252.624992 349.124992 213.124992 441.749984 217 553 217.624992 558.875008 216.5 564.749984 214 570 220.5 580.249984 227.5 590.5 235 600zM606 504C675.624992 504.875008 761 491.124992 853 440 854.875008 438.749984 856.875008 437.749984 859 437 861.375008 421.249984 863.750016 405.249984 864 389 822.124992 407.749984 754.875008 430.249984 667 432 661 434.624992 654.375008 435.249984 648 434 646 433.5 643.875008 432.875008 642 432 641.375008 432 640.624992 432 640 432 605.5 431 568.124992 426 529 417 507.875008 439.124992 490.124992 461.624992 475 484 498.875008 491.5 533.624992 499.875008 577 503 586.250016 503.624992 596 503.875008 606 504zM164 435C179.750016 361.124992 210 297.624992 242 248 272.875008 200.124992 303.375008 166.124992 326 144 310.375008 130.749984 297.250016 121.249984 287 114 209.375008 178.624992 160 275.5 160 384 160 401.249984 161.624992 418.375008 164 435zM683 367C708.124992 365.624992 731.250016 363.249984 752 359 751.250016 352.5 750.5 346.5 749 338 744.624992 313.749984 736.750016 281.749984 723 247 695.5 177.624992 645.5 97.375008 552 42 548.875008 39.875008 546.124992 37.124992 544 34 533.5 33 522.750016 32 512 32 496.750016 32 481.750016 33.124992 467 35 556.250016 98.124992 610.124992 175.375008 642 242 660.375008 280.375008 671.375008 315.249984 678 343 680.250016 352.5 681.624992 359.5 683 367zM614 366C615.375008 366.124992 616.750016 365.875008 618 366 617.375008 363 616.750016 361.249984 616 358 610.375008 334.249984 600.124992 303.749984 584 270 551.750016 202.624992 495 123.249984 392 63 388.624992 61.5 385.624992 59.5 383 57 368.624992 62.749984 355.375008 69.5 342 77 352.375008 85 365 95.249984 378 107 386.624992 106.749984 395 110 401.250016 116 407.5 122 411 130.375008 411 139 434.5 164.124992 458.624992 194.375008 481 232 483.750016 235.249984 485.750016 239 487 243 505.124992 275 521.124992 311.624992 534 353 562.124992 360 588.5 363.749984 614 366zM814 341C833 334.124992 847.624992 327.375008 858 322 840.624992 225.249984 784.250016 142.249984 705 90 741.124992 133.875008 766.250016 180.624992 783 223 798.624992 262.375008 807 298.249984 812 326 813.124992 332.124992 813.250016 335.875008 814 341z" glyph-name="volleyball-ball" horiz-adv-x="1024" unicode="&#xF45F;"/><glyph d="M512 800C477 800 448 771 448 736 448 724.5 451.5 713.375008 457 704L256 704 256 628 263 620 380 480C362.375008 478.875008 348.875008 463.624992 350 446 351.124992 428.375008 366.375008 414.875008 384 416L405 416 355 238 353 233 332 192 288 192C287 192 286 192 285 192 267.375008 191.124992 253.624992 176.124992 254.5 158.5 255.375008 140.875008 270.375008 127.124992 288 128L230 51 224 43 224-32 800-32 800 43 794 51 736 128C747.5 127.875008 758.250016 133.875008 764.124992 143.875008 769.875008 153.875008 769.875008 166.124992 764.124992 176.124992 758.250016 186.124992 747.5 192.124992 736 192L692 192 671 233 670 235 669 238 619 416 640 416C657.624992 414.624992 673.124992 427.875008 674.5 445.5 675.875008 463.124992 662.624992 478.624992 645 480L761 620 768 628 768 704 567 704C572.5 713.375008 576 724.5 576 736 576 771 547 800 512 800zM330 640 694 640 561 480 463 480zM472 416 552 416 609 215 610 212 620 192 404 192 414 212 415 215zM368 128 656 128 728 32 296 32z" glyph-name="chess-king" horiz-adv-x="1024" unicode="&#xF43F;"/><glyph d="M512 739 116 574 96 565 96 32 928 32 928 565 908 574zM512 669 864 522 864 96 160 96 160 522zM480 480 480 384 384 384 384 320 480 320 480 224 544 224 544 320 640 320 640 384 544 384 544 480z" glyph-name="alternate-hospital" horiz-adv-x="1024" unicode="&#xF47D;"/><glyph d="M96 640 96 128 864 128 864 288 928 288 928 480 864 480 864 640zM160 576 800 576 800 192 160 192zM224 512 224 256 736 256 736 512z" glyph-name="battery-full" horiz-adv-x="1024" unicode="&#xF240;"/><glyph d="M160 736 160 32 864 32 864 736zM224 672 800 672 800 96 224 96zM288 576 288 192 736 192 736 576zM352 512 672 512 672 448 352 448zM352 384 672 384 672 256 352 256z" glyph-name="window-maximize" horiz-adv-x="1024" unicode="&#xF2D0;"/><glyph d="M512 768C300.250016 768 128 595.749984 128 384 128 172.249984 300.250016 0 512 0 723.750016 0 896 172.249984 896 384 896 595.749984 723.750016 768 512 768zM512 704C689.124992 704 832 561.124992 832 384 832 206.875008 689.124992 64 512 64 334.875008 64 192 206.875008 192 384 192 561.124992 334.875008 704 512 704zM384 576C344.375008 576 314.250016 553.875008 294 535 273.750016 516.124992 261 498 261 498L315 462C315 462 322.875008 475.875008 337 489 351.124992 502.124992 369.5 512 384 512L480 512 480 576zM544 576 544 512 640 512C654.5 512 672.875008 502.124992 687 489 701.124992 475.875008 709 462 709 462L763 498C763 498 750.250016 516.124992 730 535 709.750016 553.875008 679.624992 576 640 576zM272 448C272 448 224 362.5 224 336 224 309.5 245.5 288 272 288 298.5 288 320 309.5 320 336 320 362.5 272 448 272 448zM512 384C437.250016 384 386.124992 344.5 358 307 329.875008 269.5 321 232 321 232L311 192 713 192 703 232C703 232 694.124992 269.5 666 307 637.875008 344.5 586.750016 384 512 384zM512 320C565.5 320 594.124992 295.5 614 269 618.875008 262.375008 617.624992 262.124992 621 256L403 256C406.375008 262.124992 405.124992 262.375008 410 269 429.875008 295.5 458.5 320 512 320z" glyph-name="loudly-crying-face" horiz-adv-x="1024" unicode="&#xF5B4;"/><glyph d="M160 736 160 32 653 32 663 41 855 233 864 243 864 736zM224 672 800 672 800 288 608 288 608 96 224 96zM672 224 754 224 672 142z" glyph-name="sticky-note" horiz-adv-x="1024" unicode="&#xF249;"/><glyph d="M128 768 128 544 192 544 192 659 290 560 233 503 279 457 336 514 378 472C361.124992 446.624992 352 416.5 352 384 352 307 407.250016 242 480 227L480 160 384 160 384 96 480 96 480 0 544 0 544 96 640 96 640 160 544 160 544 227C616.750016 242 672 307 672 384 672 416.5 662.875008 446.624992 646 472L832 659 832 544 896 544 896 768 672 768 672 704 787 704 600 518C574.624992 534.875008 544.5 544 512 544 479.5 544 449.375008 534.875008 424 518L382 560 439 617 393 663 336 606 237 704 352 704 352 768zM512 480C565.375008 480 608 437.375008 608 384 608 330.624992 565.375008 288 512 288 458.624992 288 416 330.624992 416 384 416 437.375008 458.624992 480 512 480z" glyph-name="alternate-transgender" horiz-adv-x="1024" unicode="&#xF225;"/><glyph d="M480 749 425 695 274 544 128 544 128 224 274 224 425 73 480 19zM416 594 416 174 311 279 301 288 192 288 192 480 301 480 311 489zM647 519 601 473 690 384 601 295 647 249 736 338 825 249 871 295 782 384 871 473 825 519 736 430z" glyph-name="volume-off" horiz-adv-x="1024" unicode="&#xF026;"/><glyph d="M512 800 96 672 195.375008 641.5 288 613 288 527.749984C284 522.875008 281 518.124992 278.624992 513.124992 272.875008 501 269.250016 487.5 266 471.5 259.875008 441.124992 256.624992 401.875008 256.250016 358.875008 236.750016 341.375008 224 316.249984 224 288 224 247.124992 253 217.624992 289.124992 203.875008 303.624992 162.124992 327.750016 116.249984 362.5 77.375008 400.5 35 451.250016 0 512 0 572.750016 0 623.5 35 661.5 77.375008 696.250016 116.249984 720.375008 162.124992 734.875008 203.875008 771 217.624992 800 247.124992 800 288 800 316.249984 787.375008 341.749984 767.624992 359.375008 767.250016 402.249984 764 441.249984 758 471.5 754.750016 487.5 751.124992 501 745.375008 513.124992 743 518.124992 740 522.875008 736 527.749984L736 613 928 672zM512 733 710.5 672 512 611 313.5 672zM352 593.249984 512 544 521.5 546.875008 672 593.249984 672 519C671.624992 518.5 672 518.375008 670.5 517.375008 665.5 513.124992 655.124992 507 640.875008 501.249984 612.250016 489.875008 567.875008 480 512 480 456.124992 480 411.750016 489.875008 383.124992 501.249984 368.875008 507 358.5 513.124992 353.5 517.375008 352 518.375008 352.375008 518.5 352 519zM328.5 457.375008C337.750016 451.749984 347.750016 446.5 359.5 441.875008 397.124992 426.875008 448.750016 416 512 416 575.250016 416 626.875008 426.875008 664.5 441.875008 676.250016 446.5 686.250016 451.749984 695.5 457.375008 700.5 431.5 704 393.749984 704 352L704 324.875008 720 315.5C729.750016 310 736 300.124992 736 288 736 270.875008 723.250016 257.749984 706.5 256.375008L685 254.624992 678.624992 234C668 199.375008 644.250016 154.124992 613.624992 120 583.124992 85.875008 547.5 64 512 64 476.5 64 440.875008 85.875008 410.375008 120 379.750016 154.124992 356 199.375008 345.375008 234L339 254.624992 317.5 256.375008C300.750016 257.749984 288 270.875008 288 288 288 300 294.375008 309.875008 304.250016 315.5L320.624992 325 320 352 320 352.375008C320 393.875008 323.5 431.5 328.5 457.375008zM261.5 352 288.124992 352 261.250016 351.375008zM416 320C398.375008 320 384 305.624992 384 288 384 270.375008 398.375008 256 416 256 433.624992 256 448 270.375008 448 288 448 305.624992 433.624992 320 416 320zM608 320C590.375008 320 576 305.624992 576 288 576 270.375008 590.375008 256 608 256 625.624992 256 640 270.375008 640 288 640 305.624992 625.624992 320 608 320z" glyph-name="user-graduate" horiz-adv-x="1024" unicode="&#xF501;"/><glyph d="M512 768C388.624992 768 288 667.375008 288 544 288 467.875008 326.750016 400.5 385 360 253.624992 308.749984 160 180.749984 160 32L224 32C224 172.749984 326.124992 290.375008 460 315L480 256 544 256 564 315C697.875008 290.375008 800 172.749984 800 32L864 32C864 180.749984 770.375008 308.749984 639 360 697.250016 400.5 736 467.875008 736 544 736 667.375008 635.375008 768 512 768zM512 704C600.750016 704 672 632.749984 672 544 672 455.249984 600.750016 384 512 384 423.250016 384 352 455.249984 352 544 352 632.749984 423.250016 704 512 704zM480 224 448 32 576 32 544 224z" glyph-name="user-tie" horiz-adv-x="1024" unicode="&#xF508;"/><glyph d="M336 704C293.250016 704 255.750016 675.124992 244 634L202 489 138 510 118 450 165 434 156 425C138 407 128 383.5 128 358L128 288 102 288 97 262 65 102 57 64 967 64 959 102 927 262 922 288 896 288 896 358C896 383.5 886 407 868 425L859 434 906 450 886 510 822 489 780 634C768.250016 675.124992 730.750016 704 688 704zM336 640 688 640C702.375008 640 714 630.875008 718 617L757 480 267 480 306 617C310 630.875008 321.624992 640 336 640zM238 416 786 416 823 380C829 374 832 366.5 832 358L832 288 768 288 768 352 640 352 640 288 384 288 384 352 256 352 256 288 192 288 192 358C192 366.5 195 374 201 380zM154 224 870 224 889 128 135 128z" glyph-name="snowplow" horiz-adv-x="1024" unicode="&#xF7D2;"/><glyph d="M160 736 160 32 864 32 864 736 160 736zM224 672 800 672 800 96 224 96 224 672zM640 576A64 64 0 0 1 576.249984 507L426.249984 432A64 64 0 0 1 384 448 64 64 0 0 1 384 320 64 64 0 0 1 426.249984 336L576.249984 261A64 64 0 0 1 640 192 64 64 0 0 1 640 320 64 64 0 0 1 597.750016 304L447.750016 379A64 64 0 0 1 447.750016 389L597.750016 464A64 64 0 0 1 640 448 64 64 0 0 1 640 576z" glyph-name="alternate-share-square" horiz-adv-x="1024" unicode="&#xF1E1;"/><glyph d="M96 672 96 608 928 608 928 672zM352 544 352 480 928 480 928 544zM96 416 96 352 928 352 928 416zM352 288 352 224 928 224 928 288zM96 160 96 96 928 96 928 160z" glyph-name="align-right" horiz-adv-x="1024" unicode="&#xF038;"/><glyph d="M384 768 384 401C328 360.375008 288 298.375008 288 224 288 100.624992 388.624992 0 512 0 635.375008 0 736 100.624992 736 224 736 298.375008 696 360.375008 640 401L640 448 704 448 704 512 640 512 640 576 704 576 704 640 640 640 640 704 704 704 704 768zM448 704 576 704 576 371 592 362C639.875008 334.249984 672 283.249984 672 224 672 135.249984 600.750016 64 512 64 423.250016 64 352 135.249984 352 224 352 283.249984 384.124992 334.249984 432 362L448 371zM480 640 480 314C442.875008 300.749984 416 265.624992 416 224 416 171 459 128 512 128 565 128 608 171 608 224 608 265.624992 581.124992 300.749984 544 314L544 640z" glyph-name="thermometer-full" horiz-adv-x="1024" unicode="&#xF2C7;"/><glyph d="M192 800 192-32 832-32 832 588.8124992 822.375008 598.3750016 630.375008 790.3750016 620.812512 800 192 800zM256 736 576 736 576 544 768 544 768 32 256 32 256 736zM640 691.1875008 723.187488 608 640 608 640 691.1875008zM480 448 480 352 384 352 384 288 480 288 480 192 544 192 544 288 640 288 640 352 544 352 544 448 480 448z" glyph-name="medical-file" horiz-adv-x="1024" unicode="&#xF477;"/><glyph d="M512 800C282.624 800 96 613.376 96 384 96 154.624 282.624-32 512-32 741.376-32 928 154.624 928 384 928 613.376 741.376 800 512 800zM512 736C579.296 736 642.026496 716.646 695.562496 683.75L688 665.6249984 725.624992 628 690.375008 592.8124992 640 640 576 640 512 560 544 489.624992 576 512 576 544 608 544 643.187488 515.187488 608 480 480 416 448 416 448 352 480 352 544 384 576 352 640 352 640 384 665.624992 422.375008 736 448 736 384 672 384 672 352 736 352 800 256 832 288 832 320 800 320 800 352 832 352 862.750016 358.624992C858.077984 293.280992 835.616 232.937984 800 182.249984L800 192 764.812512 192 688 320 608 288 512 320 416 288 384 192 416 128 480 128 512 160 544 128 544 33.624992C533.44 32.664992 522.816 32 512 32 317.92 32 160 189.92 160 384 160 413.664 164.1184992 442.323008 171.0624992 469.875008L188.8124992 480 224 480 224 585.75C229.344 593.334 234.7995008 600.864 240.6875008 608L269.4375008 608 283.4375008 651.1875008C303.5335008 668.4035008 325.508992 683.366 349.124992 695.75L320 608 384 608 448 672 448 704 416 704 384 672 384 711.5624992C423.744 727.1464992 466.816 736 512 736zM448 544 448 480 480 480 480 544 448 544z" glyph-name="globe-with-europe-shown" horiz-adv-x="1024" unicode="&#xF7A2;"/><glyph d="M512 768 352 640 672 640zM272 736 160 587 160 32 864 32 864 587 752 736 592 736 672 672 720 672 768 608 256 608 304 672 352 672 432 736zM224 544 800 544 800 96 224 96zM410 480C392.375008 478.375008 379.375008 462.624992 381 445 382.624992 427.375008 398.375008 414.375008 416 416L608 416C619.5 415.875008 630.250016 421.875008 636.124992 431.875008 641.875008 441.875008 641.875008 454.124992 636.124992 464.124992 630.250016 474.124992 619.5 480.124992 608 480L416 480C415 480 414 480 413 480 412 480 411 480 410 480z" glyph-name="box-open" horiz-adv-x="1024" unicode="&#xF49E;"/><glyph d="M752 544C690.5 544 640 493.5 640 432 640 370.5 690.5 320 752 320 813.5 320 864 370.5 864 432 864 493.5 813.5 544 752 544zM439 543C427.375008 542.249984 416.124992 538.375008 406 531L237 410 275 358 443 479 516 395 279 194C292 192.875008 305.875008 192 320 192 341.624992 192 362.375008 194.249984 383 198L557 347 622 272C645.624992 278.124992 669.875008 283.375008 695 286L491 521C477.375008 536.875008 458.375008 544.249984 439 543zM752 480C778.875008 480 800 458.875008 800 432 800 405 778.875008 384 752 384 725 384 704 405 704 432 704 458.875008 725 480 752 480zM736 256C658 256 589.624992 229.875008 523 206 456.375008 182.124992 391.5 160 320 160 144.124992 160 54 247 54 247L10 201C10 201 122.124992 96 320 96 404.624992 96 477 121.875008 544 146 611 170.124992 672.5 192 736 192 863 192 971 103 971 103L1013 153C1013 153 892 256 736 256z" glyph-name="swimmer" horiz-adv-x="1024" unicode="&#xF5C4;"/><glyph d="M128.5624992 672C92.8824992 672 64 643.1175008 64 607.4375008L64 160.562496C64 124.882496 92.8824992 96 128.5624992 96L863.437504 96C899.117504 96 928 124.882496 928 160.562496L928 607.4375008C928 643.1175008 899.117504 672 863.437504 672L128.5624992 672zM128 608 863.437504 608 864 608 864 160 128 160 128 608zM192 544 192 480 512 480 512 544 192 544zM192 416 192 352 256 352 256 416 192 416zM320 416 320 352 384 352 384 416 320 416zM448 416 448 352 512 352 512 416 448 416zM192 288 192 224 512 224 512 288 192 288zM576 288 576 224 800 224 800 288 576 288z" glyph-name="digital-tachograph" horiz-adv-x="1024" unicode="&#xF566;"/><glyph d="M710 823 665 777 802 640 128 640 128 576 802 576 665 439 710 393 925 608zM314 375 99 160 314-55 359-9 222 128 896 128 896 192 222 192 359 329z" glyph-name="alternate-exchange" horiz-adv-x="1024" unicode="&#xF362;"/><glyph d="M160 416 160 352 864 352 864 416z" glyph-name="minus" horiz-adv-x="1024" unicode="&#xF068;"/><glyph d="M352 736 352 544 160 544 160 480 352 480 352 288 160 288 160 224 352 224 352 32 416 32 416 224 608 224 608 32 672 32 672 224 864 224 864 288 672 288 672 480 864 480 864 544 672 544 672 736 608 736 608 544 416 544 416 736zM416 480 608 480 608 288 416 288z" glyph-name="hashtag" horiz-adv-x="1024" unicode="&#xF292;"/><glyph d="M480 800 480 736 352 736 352 640 224 640 224 451 197 445 197 444C139.250016 431.5 110.624992 364.624992 141 314L192 228 192 69C166.124992 76.249984 148 89 148 89L108 39C108 39 157.375008 0 225 0 271.750016 0 301.5 15.5 320 27 338.624992 15.624992 369.875008 0 417 0 463.750016 0 493.5 15.5 512 27 530.624992 15.624992 561.875008 0 609 0 655.750016 0 685.5 15.5 704 27 722.624992 15.624992 753.875008 0 801 0 868.624992 0 916 39 916 39L876 89C876 89 858.624992 75.124992 832 68L832 228 883 314C913.375008 364.624992 884.750016 431.5 827 444L800 450 800 640 672 640 672 736 544 736 544 800zM416 672 608 672 608 576 736 576 736 464 519 511 512 512 505 511 288 464 288 576 416 576zM512 446 813 382C829.750016 378.375008 837.875008 361.624992 829 347L773 253 768 246 768 69C742.124992 76.249984 724 89 724 89L704 105 684 89C684 89 651.875008 64 609 64 566.124992 64 532 89 532 89L512 105 492 89C492 89 459.875008 64 417 64 374.124992 64 340 89 340 89L320 105 300 89C300 89 282.624992 75.124992 256 68L256 246 251 253 195 347C186.124992 361.749984 194.250016 378.375008 211 382zM352 384C332.750016 384 320 361.624992 320 336 320 310.375008 332.750016 288 352 288 371.250016 288 384 310.375008 384 336 384 361.624992 371.250016 384 352 384zM672 384C652.750016 384 640 361.624992 640 336 640 310.375008 652.750016 288 672 288 691.250016 288 704 310.375008 704 336 704 361.624992 691.250016 384 672 384z" glyph-name="ship" horiz-adv-x="1024" unicode="&#xF21A;"/><glyph d="M262.0624992 736 255.0624992 714.8750016 192.9375008 544 192 544 192 542.062496 161.9375008 458.875008 160 454.062496 160 416 224 416 224 442.875008 237.1249984 480 338.875008 480 352 442.875008 352 416 416 416 416 454.062496 414.062496 458.875008 384 542.062496 384 544 383.062496 544 320.937504 714.8750016 313.9375008 736 262.0624992 736zM736 720 712.937504 697.9375008 576 560 621.124992 514.875008 704 598.0624992 704 0 768 0 768 598.0624992 850.875008 514.875008 896 560 759.062496 697.9375008 736 720zM288 618.8750016 314.8750016 544 261.1249984 544 288 618.8750016zM160 352 160 288 337.937504 288 168.9375008 119.062496 160 109.124992 160 32 416 32 416 96 238.0624992 96 407.062496 264.937504 416 274.875008 416 352 160 352z" glyph-name="sort-alphabetical-up" horiz-adv-x="1024" unicode="&#xF15E;"/><glyph d="M512 672C601.624992 672 672 601.624992 672 512 672 470.375008 656 435.249984 630.375008 406.375008 691.250016 384 736 326.375008 736 256 736 166.375008 665.624992 96 576 96L224 96 224 672 512 672M288 416 512 416C566.375008 416 608 457.624992 608 512 608 566.375008 566.375008 608 512 608L288 608 288 416M288 160 576 160C630.375008 160 672 201.624992 672 256 672 310.375008 630.375008 352 576 352L288 352 288 160M512 736 160 736 160 32 576 32C700.750016 32 800 131.249984 800 256 800 323.249984 768 387.249984 720 428.749984 729.624992 454.375008 736 483.249984 736 512 736 636.749984 636.750016 736 512 736zM352 544 512 544C531.250016 544 544 531.249984 544 512 544 492.749984 531.250016 480 512 480L352 480zM352 288 576 288C595.250016 288 608 275.249984 608 256 608 236.749984 595.250016 224 576 224L352 224z" glyph-name="bold" horiz-adv-x="1024" unicode="&#xF032;"/><glyph d="M676 768 623 748C563.375008 725.5 524.624992 702.249984 499 678 473.375008 653.749984 461.250016 627.124992 455 607 448.750016 586.875008 446.250016 575.124992 442 569 438.250016 563.624992 431.750016 557.124992 411 551 410.624992 551.249984 408.124992 552.875008 408 553L407 553C391 563.5 372.750016 570 355 573 301.750016 582 246 558.749984 215 509L214 508C195 475.749984 184.624992 434.875008 190 392 191.624992 379 194.875008 365.749984 200 353 153.124992 350.249984 109.124992 323.875008 84 281L83 281C44 212.124992 67.750016 123.249984 137 84L138 84 138 83C141.624992 81.249984 184.250016 58.749984 248 39 311.750016 19.249984 401 0 512 0 623 0 712.124992 18.5 776 38 839.124992 57.375008 874.624992 76.375008 887 84 887.124992 84.124992 887.875008 84.875008 888 85 956.250016 124.624992 979.250016 211.875008 940 279L941 279C922.624992 311.5 893.875008 333.624992 861 344 861 344.124992 860 343.875008 860 344 849.875008 380.5 825.875008 411.749984 793 430 797.375008 444 800 460.249984 800 480 800 517.124992 786.750016 548.375008 769 571 751.250016 593.624992 729.875008 608.749984 712 623 694.124992 637.249984 679.750016 650.375008 672 663 664.250016 675.624992 660.375008 687.624992 665 712zM604 666C607 652.624992 611.5 639.624992 618 629 633.124992 604.375008 653.375008 588.749984 672 574 690.624992 559.249984 708 545.124992 719 531 730 516.875008 736 503.375008 736 480 736 464.624992 734.250016 455.249984 732 448 644.750016 460.749984 568.375008 482.749984 512 504 500.750016 508.249984 490.875008 512.749984 481 517 486.375008 521.749984 491.124992 527.375008 495 533 509.375008 553.875008 511.375008 574.124992 516 589 520.624992 603.875008 525.875008 615.749984 543 632 553.250016 641.749984 581.750016 654.375008 604 666zM330 513C344.124992 513.124992 358.624992 508.749984 372 500 389.624992 487.749984 427.375008 468.5 490 445 553.250016 421.249984 637.875008 396 737 383L738 383C760.250016 380.249984 778.624992 367.124992 790 348 778.624992 345.875008 766.875008 342.875008 756 338 754.375008 337.249984 752.624992 337.749984 751 337 749.750016 336.624992 749.5 336.249984 749 336 748 335.5 747 335.5 746 335 745.124992 334.624992 744.124992 333.5 743 333 740.250016 331.749984 736.250016 330.124992 731 328 720.624992 323.624992 705.124992 318 685 312 644.750016 300.124992 586.250016 288 512 288 456.875008 288 409.750016 294.249984 373 302 361.5 304.749984 350.375008 307.749984 340 311 319.124992 317.624992 299.750016 327.124992 300 327 269 347.875008 256.375008 373 253 400 249.624992 427 257.124992 455.749984 269 476 284 500.124992 306.5 512.749984 330 513zM201 290C216.250016 291.124992 232.250016 287.375008 247 279 247.250016 278.875008 247.750016 278.124992 248 278 249.750016 277 252 276 254 275 258 272.875008 262.624992 270.749984 269 268 281.750016 262.5 299.375008 256.5 322 250 330 247.749984 339.750016 245.249984 349 243 352.375008 242.124992 355.5 240.875008 359 240 359.375008 239.875008 359.624992 240.124992 360 240 372.750016 236.749984 385.375008 233.875008 398 232L398 233C431.375008 227.5 469.250016 224 512 224 593.124992 224 657.875008 237.624992 703 251 725.624992 257.749984 743.750016 264.875008 756 270 760.5 271.875008 763 273.624992 766 275L769 275 770 276 776 279C815.750016 300.249984 863.5 287.624992 886 248L886 247C907.875008 209.624992 895.250016 161.249984 856 139L855 139 855 138C852.5 136.5 816.5 116.875008 758 99 699.5 81.124992 616 64 512 64 408 64 324.624992 80.875008 266 99 208.124992 117 179.124992 133.375008 168 139 167.5 139.249984 167.375008 139.749984 167 140 128.750016 162.624992 116.875008 209.875008 139 249 150.124992 267.624992 166.750016 281.5 186 287 190.875008 288.375008 195.875008 289.624992 201 290z" glyph-name="poop" horiz-adv-x="1024" unicode="&#xF619;"/><glyph d="M234.6249984 736 96 320 163.4375008 320 195.4375008 416 341.375008 416 373.375008 320 440.812512 320 302.1249984 736 234.6249984 736zM480 736 480 576 480 512 480 320 672 320C742.592 320 800 377.408 800 448 800 501.700832 766.66256 547.589344 719.687488 566.562496 729.846976 583.4146624 736 602.9276224 736 624 736 685.76 685.76 736 624 736L480 736zM544 672 624 672C650.464 672 672 650.464 672 624 672 597.536 650.464 576 624 576L544 576 544 672zM268.4375008 634.8124992 320.062496 480 216.8124992 480 268.4375008 634.8124992zM544 512 624 512 672 512C707.296 512 736 483.296 736 448 736 412.704 707.296 384 672 384L544 384 544 512zM889.875008 327.124992 611.750016 60.375008 486.187488 181.249984 441.812512 135.187488 611.624992-28.375008 934.124992 280.875008 889.875008 327.124992z" glyph-name="spell-check" horiz-adv-x="1024" unicode="&#xF891;"/><glyph d="M135 551 89 505 489 105 512 83 535 105 935 505 889 551 512 174z" glyph-name="angle-down" horiz-adv-x="1024" unicode="&#xF107;"/><glyph d="M480 768 480 702C287.624992 685.875008 136.124992 529 129 364 128.875008 360 128 356 128 352L192 352C192 354.5 194.875008 360.875008 209 369 223.124992 377.124992 246 384 272 384 298 384 320.875008 377.124992 335 369 349.124992 360.875008 352 354.5 352 352L416 352C416 352.375008 418.624992 360.375008 436 369 453.375008 377.624992 481 384 512 384 543 384 570.624992 377.624992 588 369 605.375008 360.375008 608 352.375008 608 352L672 352C672 354.5 674.875008 360.875008 689 369 703.124992 377.124992 726 384 752 384 778 384 800.875008 377.124992 815 369 829.124992 360.875008 832 354.5 832 352L896 352C896 356.124992 895.624992 360.124992 895 364 887.875008 529 736.375008 685.875008 544 702L544 768zM512 640C651.124992 640 770 545.5 814 439 795 444.875008 774.124992 448 752 448 716.124992 448 683.375008 440 657 425 650.624992 421.375008 644.624992 416.749984 639 412 632.124992 417.249984 624.624992 422.124992 617 426 588 440.5 551.624992 448 512 448 472.375008 448 436 440.5 407 426 399.5 422.249984 392.624992 417.124992 386 412 385.750016 412.124992 385.250016 411.875008 385 412 379.375008 416.749984 373.375008 421.375008 367 425 340.624992 440 307.875008 448 272 448 249.875008 448 229 444.875008 210 439 254 545.5 372.875008 640 512 640zM480 352 480 96C480 77.875008 466.124992 64 448 64 429.875008 64 416 77.875008 416 96L416 128 352 128 352 96C352 43.375008 395.375008 0 448 0 500.624992 0 544 43.375008 544 96L544 352z" glyph-name="umbrella" horiz-adv-x="1024" unicode="&#xF0E9;"/><glyph d="M512 800C282.624992 800 96 613.375008 96 384 96 154.624992 282.624992-32 512-32 741.375008-32 928 154.624992 928 384 928 613.375008 741.375008 800 512 800zM512 736C706.750016 736 864 578.749984 864 384 864 189.249984 706.750016 32 512 32 317.250016 32 160 189.249984 160 384 160 578.749984 317.250016 736 512 736zM455 599 409 553 578 384 409 215 455 169 647 361 669 384 647 407z" glyph-name="chevron-circle-right" horiz-adv-x="1024" unicode="&#xF138;"/><glyph d="M128 768 128 0 896 0 896 768zM192 704 256 704 256 672 320 672 320 704 704 704 704 672 768 672 768 704 832 704 832 64 768 64 768 96 704 96 704 64 320 64 320 96 256 96 256 64 192 64zM256 608 256 544 320 544 320 608zM704 608 704 544 768 544 768 608zM256 480 256 416 320 416 320 480zM704 480 704 416 768 416 768 480zM256 352 256 288 320 288 320 352zM704 352 704 288 768 288 768 352zM256 224 256 160 320 160 320 224zM704 224 704 160 768 160 768 224z" glyph-name="film" horiz-adv-x="1024" unicode="&#xF008;"/><glyph d="M288 672C182.375008 672 96 585.624992 96 480 96 416.5 127.250016 360 175 325 90.624992 283.124992 32 196.375008 32 96L96 96C96 202.375008 181.624992 288 288 288 394.375008 288 480 202.375008 480 96L544 96C544 202.375008 629.624992 288 736 288 842.375008 288 928 202.375008 928 96L992 96C992 196.375008 933.375008 283.124992 849 325 896.750016 360 928 416.5 928 480 928 585.624992 841.624992 672 736 672 630.375008 672 544 585.624992 544 480 544 416.5 575.250016 360 623 325 576.375008 301.875008 537.250016 265.375008 512 220 486.750016 265.375008 447.624992 301.875008 401 325 448.750016 360 480 416.5 480 480 480 585.624992 393.624992 672 288 672zM288 608C359.124992 608 416 551.124992 416 480 416 408.875008 359.124992 352 288 352 216.875008 352 160 408.875008 160 480 160 551.124992 216.875008 608 288 608zM736 608C807.124992 608 864 551.124992 864 480 864 408.875008 807.124992 352 736 352 664.875008 352 608 408.875008 608 480 608 551.124992 664.875008 608 736 608z" glyph-name="user-friends" horiz-adv-x="1024" unicode="&#xF500;"/><glyph d="M317.6875008 800C287.1915008 800 259.7570016 783.014 246.1249984 755.75L236.25 736 224 736C188.704 736 160 707.296 160 672L160 544 192 544 192 32C192-3.296 220.704-32 256-32L768-32C803.296-32 832-3.296 832 32L832 544 864 544 864 672C864 707.296 835.296 736 800 736L787.750016 736 777.875008 755.75C764.275008 783.014 736.840512 800 706.312512 800L317.6875008 800zM317.6875008 736 706.312512 736C712.424512 736 717.904992 732.6275008 720.624992 727.1875008L748.249984 672 800 672 800 608 224 608 224 672 275.75 672 303.3750016 727.1875008C306.0949984 732.6275008 311.5755008 736 317.6875008 736zM256 544 768 544 768 32 256 32 256 128 448 128 448 192 256 192 256 256 448 256 448 320 256 320 256 384 448 384 448 448 256 448 256 544z" glyph-name="prescription-bottle" horiz-adv-x="1024" unicode="&#xF485;"/><glyph d="M192 800 192 448 235.75 448 256 498.562496 256 736 576 736 576 544 768 544 768 32 256 32 256 216.124992 254.3124992 217.812512 216.1875008 256 192 256 192-32 832-32 832 589 823 599 631 791 621 800 192 800zM640 690 722 608 640 608 640 690zM351 563.624992 276.25 377 269.25 384 64 384 64 320 242.75 320 299.6249984 263 353 396.375008 449 172.375008 515.249984 338 524.249984 320 584.624992 320C596.112992 300.256 617.152 288 640 288 675.36 288 704 316.64 704 352 704 387.36 675.36 416 640 416 617.12 416 595.984992 403.744 584.624992 384L563.750016 384 508.750016 494 447 339.624992 351 563.624992z" glyph-name="alternate-medical-file" horiz-adv-x="1024" unicode="&#xF478;"/><glyph d="M512 768C300.250016 768 128 595.749984 128 384 128 172.249984 300.250016 0 512 0 723.750016 0 896 172.249984 896 384 896 595.749984 723.750016 768 512 768zM512 704C689.124992 704 832 561.124992 832 384 832 206.875008 689.124992 64 512 64 334.875008 64 192 206.875008 192 384 192 561.124992 334.875008 704 512 704zM342 512C328.5 498.375008 320 479.749984 320 459 320 417.624992 353.624992 384 395 384 415.624992 384 434.5 392.375008 448 406zM682 512 576 406C589.5 392.375008 608.375008 384 629 384 670.375008 384 704 417.624992 704 459 704 479.624992 695.624992 498.5 682 512zM594 325C589.375008 324.875008 584.5 324.624992 580 324 544.124992 318.624992 517 299 493 283 469 267 447.875008 254.5 432 252 416.124992 249.5 401.875008 252 375 279L329 233C365.250016 196.5 406.5 183.375008 442 189 477.5 194.624992 504.124992 214.124992 528 230 551.875008 245.875008 572.375008 257.5 589 260 605.624992 262.5 622 260.375008 650 233L694 279C661.250016 311 626.375008 325.5 594 325z" glyph-name="angry-face" horiz-adv-x="1024" unicode="&#xF556;"/><glyph d="M480 800C427.375008 800 384 756.624992 384 704L384.5 709.249984 353 520.124992 292.5 354.624992C291.375008 353.124992 290 352 288 352L256 352 256 384 96 384 96-32 256-32 256 64 381.624992 64C434.250016 64 481.624992 89.5 512 129.124992 542.375008 89.5 589.750016 64 642.375008 64L768 64 768-32 928-32 928 384 768 384 768 352 736 352C734 352 732.624992 353.124992 731.5 354.624992L671 520.124992 639.5 709.249984 640 704C640 756.624992 596.624992 800 544 800 533.124992 800 522 797.875008 512 792.749984 502 797.875008 490.875008 800 480 800zM478.875008 735.5C479.5 730.875008 480 720.375008 480 704L480 210C471.124992 162.5 430.250016 128 381.624992 128L256 128 256 288 288 288C313.124992 288 336.5 301.624992 348.875008 323.5L350.124992 325.875008 415 503.875008 448 701.375008 448 704C448 721.624992 461.5 734.875008 478.875008 735.5zM545.124992 735.5C562.5 734.875008 576 721.624992 576 704L576 701.375008 609 503.875008 673.875008 325.875008 675.124992 323.5C687.5 301.624992 710.875008 288 736 288L768 288 768 128 642.375008 128C593.750016 128 552.875008 162.5 544 210L544 704C544 720.375008 544.5 730.875008 545.124992 735.5zM160 320 192 320 192 32 160 32zM832 320 864 320 864 32 832 32z" glyph-name="praying-hands" horiz-adv-x="1024" unicode="&#xF684;"/><glyph d="M160 736 160 32 864 32 864 736zM224 672 800 672 800 96 224 96zM480 640 480 608 384 608 384 544 480 544 480 512 320 512 320 448 480 448 480 416 352 416 352 352 480 352 480 270C463.250016 278.624992 444.375008 288 432 288 405.5 288 384 266.5 384 240 384 213.5 405.5 192 432 192 444.124992 192 485.5 160 512 160 538.5 160 579.875008 192 592 192 618.5 192 640 213.5 640 240 640 266.5 618.5 288 592 288 579.624992 288 560.750016 278.624992 544 270L544 640zM576 608 576 544 640 544 640 608zM576 512 576 448 704 448 704 512zM576 416 576 352 672 352 672 416z" glyph-name="x-ray" horiz-adv-x="1024" unicode="&#xF497;"/><glyph d="M256 768 256 640 128 640 128 576 256 576 256 128 704 128 704 0 768 0 768 128 896 128 896 192 704 192 366 192 320 192 320 238 320 576 320 768 256 768zM384 640 384 576 704 576 704 256 768 256 768 640 384 640z" glyph-name="alternate-crop" horiz-adv-x="1024" unicode="&#xF565;"/><glyph d="M272 768C174.875008 768 96 689.124992 96 592 96 494.875008 174.875008 416 272 416 298 416 322.5 422.5 345 433L512 213 512 32 384 32 384-32 704-32 704 32 576 32 576 213 858 585 864 594 864 640 440 640C420.624992 714.249984 351.5 768 272 768zM272 704C316.5 704 354.875008 677.124992 372 640L224 640 224 594 230 585 305 486C294 482.124992 282.750016 480 272 480 209.124992 480 160 529.124992 160 592 160 654.875008 209.124992 704 272 704zM318 576 770 576 722 512 432 512 480 448 673 448 544 277z" glyph-name="cocktail" horiz-adv-x="1024" unicode="&#xF561;"/><glyph d="M160 736 160 32 864 32 864 736zM224 672 800 672 800 96 224 96zM384 608 384 480 288 480 288 160 640 160 640 288 736 288 736 608zM448 544 672 544 672 512 448 512zM448 448 672 448 672 352 448 352zM352 416 384 416 384 383 352 383zM352 319 384 319 384 288 576 288 576 224 352 224z" glyph-name="window-restore" horiz-adv-x="1024" unicode="&#xF2D2;"/><glyph d="M832 704 192 409 192 359 832 64 832 133 303 384 832 635z" glyph-name="less-than" horiz-adv-x="1024" unicode="&#xF536;"/><glyph d="M119 823 73 777 905-55 951-9 750 192C780.750016 226 800 270.624992 800 320L800 448 736 448 736 320C736 288.249984 724.375008 259.249984 705 237L660 282C667.624992 292.5 672 306 672 320L672 704C672 739.249984 643.250016 768 608 768L416 768C380.750016 768 352 739.249984 352 704L352 590zM416 704 608 704 608 334 416 526zM224 448 224 320C224 214.124992 310.124992 128 416 128L480 128 480 64 352 64 352 0 672 0 672 64 544 64 544 128 608 128C616.124992 128 624.124992 129 632 130L570 192 416 192C345.375008 192 288 249.375008 288 320L288 448zM352 410 352 320C352 284.749984 380.750016 256 416 256L506 256 442 320 416 320 416 346z" glyph-name="microphone-slash" horiz-adv-x="1024" unicode="&#xF131;"/><glyph d="M416 768C354.875008 768 305.375008 723.624992 293 666 218.375008 652.624992 160 590.375008 160 512 160 504.124992 160.875008 497.124992 162 490 141.375008 459.624992 128 423.875008 128 384 128 326.5 156.624992 278.124992 197 243 194.124992 231.624992 192 220.249984 192 208 192 128.875008 256.875008 64 336 64 336.875008 64 337.250016 64 338 64 356.624992 27.875008 388.875008 0 432 0 463.250016 0 491.624992 13.124992 512 34 532.375008 13.124992 560.750016 0 592 0 635.124992 0 667.375008 27.875008 686 64 686.750016 64 687.124992 64 688 64 763.124992 64 824.750016 122.5 831 196L832 196C832 198 831.124992 200 831 202 831.124992 204 832 206 832 208 832 219.875008 827.750016 230 825 241 866.5 276.249984 896 325.5 896 384 896 423.875008 882.624992 459.624992 862 490 863.124992 497.124992 864 504.124992 864 512 864 590.375008 805.624992 652.624992 731 666 718.624992 723.624992 669.124992 768 608 768 569.624992 768 535.5 750.124992 512 723 488.5 750.124992 454.375008 768 416 768zM416 704C451.750016 704 480 675.749984 480 640L480 576C480 522.624992 437.375008 480 384 480L384 416C420.250016 416 453.124992 428.5 480 449L480 112C480 85.124992 458.875008 64 432 64 408.124992 64 389 80.5 385 103L379 134 348 129C342.375008 128.124992 338.875008 128 336 128 291.5 128 256 163.5 256 208 256 217.875008 257.624992 227.124992 261 236 261.250016 236.749984 261.750016 237.249984 262 238 271.875008 262.624992 293.375008 280.624992 320 286L307 349C273.624992 342.249984 244.624992 324.5 224 299 203.875008 321.5 192 351.249984 192 384 192 414 202.250016 440.749984 220 463L230 475 227 491C225.250016 498.5 224 505.124992 224 512 224 565.375008 266.624992 608 320 608L352 608 352 640C352 675.749984 380.250016 704 416 704zM608 704C643.750016 704 672 675.749984 672 640L672 608 704 608C757.375008 608 800 565.375008 800 512 800 505.124992 798.750016 498.5 797 491L794 475 804 463C821.750016 440.749984 832 414 832 384 832 345.624992 815.624992 311.375008 789 288 767.124992 307.375008 739.250016 320 708 320 677.750016 320 650.5 309.249984 629 291L670 242C680.375008 250.749984 693.124992 256 708 256 738.875008 256 763.5 232.875008 767 203 764.375008 160.875008 730.750016 128 688 128 685.124992 128 681.624992 128.124992 676 129L645 134 639 103C635 80.5 615.875008 64 592 64 565.124992 64 544 85.124992 544 112L544 449C570.875008 428.5 603.750016 416 640 416L640 480C586.624992 480 544 522.624992 544 576L544 640C544 675.749984 572.250016 704 608 704z" glyph-name="brain" horiz-adv-x="1024" unicode="&#xF5DC;"/><glyph d="M970.750016 494.5 645.250016 528.875008 512 827.749984 378.750016 528.875008 53.250016 494.5 296.375008 275.375008 228.5-44.750016 512 118.749984 795.5-44.750016 727.624992 275.375008z" glyph-name="star" horiz-adv-x="1024" unicode="&#xF005;"/><glyph d="M518 768C282.375008 771.5 93.250016 560.5 133 319 160 155.124992 294.5 26.249984 459 4 569.875008-11 673.5 21 752 84L712 134C646.5 81.5 560.375008 54.375008 467 67 330.875008 85.375008 219.250016 193.5 197 329 163.5 532.875008 319.750016 706.875008 517 704 685.124992 701.5 826.875008 562.124992 832 394 832.124992 390.375008 832 386.875008 832 383 831.750016 312.5 774.624992 256 704 256 668.250016 256 640 284.249984 640 320L640 576 576 576 576 551C553 566.624992 525.624992 576 496 576 416.875008 576 352 511.124992 352 432L352 336C352 256.875008 416.875008 192 496 192 539.124992 192 577.5 211.624992 604 242 627.5 212.124992 663.375008 192 704 192 809.124992 192 895.624992 277.749984 896 383 896 387.249984 896.124992 391.375008 896 396 889.875008 598.749984 720.750016 765 518 768zM496 512C540.5 512 576 476.5 576 432L576 336C576 291.5 540.5 256 496 256 451.5 256 416 291.5 416 336L416 432C416 476.5 451.5 512 496 512z" glyph-name="at" horiz-adv-x="1024" unicode="&#xF1FA;"/><glyph d="M96 640 96 128 864 128 864 288 928 288 928 480 864 480 864 640zM160 576 800 576 800 192 160 192zM224 512 224 256 352 256 352 512z" glyph-name="battery-1-4-full" horiz-adv-x="1024" unicode="&#xF243;"/><glyph d="M96 704 96 64 928 64 928 704zM160 640 864 640 864 128 755 128C752.5 132.375008 753.624992 138.375008 750 142 737.875008 154.124992 720.750016 160 704 160 687.250016 160 670.124992 154.124992 658 142 654.375008 138.375008 655.5 132.375008 653 128L371 128C368.5 132.375008 369.624992 138.375008 366 142 353.875008 154.124992 336.750016 160 320 160 303.250016 160 286.124992 154.124992 274 142 270.375008 138.375008 271.5 132.375008 269 128L160 128zM384 576C313.624992 576 256 518.375008 256 448 256 412.375008 271.250016 380.249984 295 357 252.375008 328.124992 224 278.875008 224 224L288 224C288 277 331 320 384 320 437 320 480 277 480 224L544 224C544 278.875008 515.624992 328.124992 473 357 496.750016 380.249984 512 412.375008 512 448 512 518.375008 454.375008 576 384 576zM384 512C419.750016 512 448 483.749984 448 448 448 412.249984 419.750016 384 384 384 348.250016 384 320 412.249984 320 448 320 483.749984 348.250016 512 384 512zM608 480 608 416 800 416 800 480zM608 352 608 288 800 288 800 352z" glyph-name="address-card" horiz-adv-x="1024" unicode="&#xF2BB;"/><glyph d="M96 704 96 64 402.750016 64 512-45.250016 621.250016 64 928 64 928 704zM160 640 864 640 864 128 594.750016 128 512 45.249984 429.250016 128 160 128zM288 544 288 480 736 480 736 544zM288 416 288 352 736 352 736 416zM288 288 288 224 608 224 608 288z" glyph-name="comment" horiz-adv-x="1024" unicode="&#xF075;"/><glyph d="M160 736 160 608 192 608 192 288 160 288 160 160 288 160 288 192 352 192 352 128 320 128 320 0 448 0 448 32 768 32 768 0 896 0 896 128 864 128 864 448 896 448 896 576 768 576 768 544 704 544 704 608 736 608 736 736 608 736 608 704 288 704 288 736zM288 640 608 640 608 608 640 608 640 288 608 288 608 256 288 256 288 288 256 288 256 608 288 608zM704 480 768 480 768 448 800 448 800 128 768 128 768 96 448 96 448 128 416 128 416 192 608 192 608 160 736 160 736 288 704 288z" glyph-name="object-ungroup" horiz-adv-x="1024" unicode="&#xF248;"/><glyph d="M160 736 160 672 337.937504 672 168.9375008 503.062496 160 493.124992 160 416 416 416 416 480 238.0624992 480 407.062496 648.9375008 416 658.8750016 416 736 160 736zM736 720 712.937504 697.9375008 576 560 621.124992 514.875008 704 598.0624992 704 0 768 0 768 598.0624992 850.875008 514.875008 896 560 759.062496 697.9375008 736 720zM262.0624992 352 255.0624992 330.875008 192.9375008 160 192 160 192 158.062496 161.9375008 74.875008 160 70.062496 160 32 224 32 224 58.875008 237.1249984 96 338.875008 96 352 58.875008 352 32 416 32 416 70.062496 414.062496 74.875008 384 158.062496 384 160 383.062496 160 320.937504 330.875008 313.9375008 352 262.0624992 352zM288 234.875008 314.8750016 160 261.1249984 160 288 234.875008z" glyph-name="alternate-sort-alphabetical-up" horiz-adv-x="1024" unicode="&#xF882;"/><glyph d="M160 768 160 693 167 684 416 373 416 0 467 38 595 134 608 144 608 373 857 684 864 693 864 768zM233 704 791 704 561 416 463 416zM480 352 544 352 544 176 480 128z" glyph-name="filter" horiz-adv-x="1024" unicode="&#xF0B0;"/><glyph d="M576 768 576 480 310 480C302.624992 497.375008 290.875008 520.624992 271 547 237.250016 591.875008 179.375008 640 96 640L96 576C155.375008 576 193.5 544.124992 220 509 245.250016 475.5 255 444 256 441 258.624992 332.5 322.624992 238.749984 414 192 362.250016 190.875008 320 148 320 96 320 43.375008 363.375008 0 416 0 468.624992 0 512 43.375008 512 96 512 124.375008 499.750016 150.375008 480 168 500.624992 163.249984 522 160 544 160L640 160C662 160 683.375008 163.249984 704 168 684.250016 150.375008 672 124.375008 672 96 672 43.375008 715.375008 0 768 0 820.624992 0 864 43.375008 864 96 864 148 821.750016 190.875008 770 192 854.250016 235.124992 914.875008 318.249984 926 416 927 425.249984 927.875008 434.5 928 444 928 444.624992 928 445.375008 928 446 928 446 928.250016 451.249984 928 460L928 480 926 480C923.624992 510.624992 917.250016 557 894 606 855.875008 686.249984 769.5 768 608 768zM640 700C755.624992 690.5 809.375008 636.124992 837 578 855.875008 538.124992 860.124992 504.624992 862 480L640 480zM327 416 857 416C840.750016 308.375008 752 224 640 224L544 224C432 224 343.250016 308.375008 327 416zM416 128C434 128 448 114 448 96 448 78 434 64 416 64 398 64 384 78 384 96 384 114 398 128 416 128zM768 128C786 128 800 114 800 96 800 78 786 64 768 64 750 64 736 78 736 96 736 114 750 128 768 128z" glyph-name="baby-carriage" horiz-adv-x="1024" unicode="&#xF77D;"/><glyph d="M512 768C300.250016 768 128 595.749984 128 384 128 172.249984 300.250016 0 512 0 723.750016 0 896 172.249984 896 384 896 595.749984 723.750016 768 512 768zM512 704C689.124992 704 832 561.124992 832 384 832 206.875008 689.124992 64 512 64 334.875008 64 192 206.875008 192 384 192 561.124992 334.875008 704 512 704zM368 512C341.5 512 320 490.5 320 464 320 437.5 341.5 416 368 416 394.5 416 416 437.5 416 464 416 490.5 394.5 512 368 512zM576 480 576 416 736 416 736 480zM671 351C671 297.124992 649.375008 259.749984 618 233 586.624992 206.249984 545.124992 192 512 192 444.124992 192 398 219.5 362 255L317 209C361.624992 165.124992 426.250016 128 512 128 561.750016 128 616.375008 146.749984 660 184 703.624992 221.249984 735 278.749984 735 351z" glyph-name="winking-face" horiz-adv-x="1024" unicode="&#xF4DA;"/><glyph d="M192 800 192-32 832-32 832 588.8124992 822.375008 598.3750016 630.375008 790.3750016 620.812512 800 192 800zM256 736 576 736 576 544 768 544 768 32 256 32 256 736zM640 691.1875008 723.187488 608 640 608 640 691.1875008zM320 480 320 416 704 416 704 480 320 480zM320 320 320 256 544 256 544 320 320 320zM608 320 608 256 704 256 704 320 608 320zM320 192 320 128 544 128 544 192 320 192zM608 192 608 128 704 128 704 192 608 192z" glyph-name="file-invoice" horiz-adv-x="1024" unicode="&#xF570;"/><glyph d="M160 736 160 32 864 32 864 736zM224 672 800 672 800 96 224 96zM374 566 329 521 466 384 327 245 372 200 511 339 649 201 694 246 556 384 692 520 647 565 511 429z" glyph-name="window-close" horiz-adv-x="1024" unicode="&#xF410;"/><glyph d="M640 800C587.375008 800 544 756.624992 544 704 544 651.375008 587.375008 608 640 608 692.624992 608 736 651.375008 736 704 736 756.624992 692.624992 800 640 800zM640 736C658 736 672 722 672 704 672 686 658 672 640 672 622 672 608 686 608 704 608 722 622 736 640 736zM465 647 350 634C331 631.875008 314.375008 621.124992 304 605L224 481 278 447 358 570 431 578 384 445C275.750016 429.375008 192 336.5 192 224 192 100.624992 292.624992 0 416 0 539.375008 0 640 100.624992 640 224 640 234.875008 638.5 245.5 637 256L678 256 721 61 783 75 741 270C734.624992 299.249984 707.875008 320 678 320L618 320C605.250016 346.875008 586.875008 370.249984 565 390L602 493C618.124992 537.624992 598.750016 587.624992 557 610L503 640 503 639C491.5 645.124992 477.875008 648.5 465 647zM497 570 527 554C541.250016 546.375008 547.5 530.124992 542 515L510 427C491.5 435.624992 471.750016 441.749984 451 445zM416 384C504.750016 384 576 312.749984 576 224 576 135.249984 504.750016 64 416 64 327.250016 64 256 135.249984 256 224 256 312.749984 327.250016 384 416 384z" glyph-name="wheelchair" horiz-adv-x="1024" unicode="&#xF193;"/><glyph d="M512 736C470.624992 736 435.375008 709 422 672L192 672 192 608 237 608 228 592 100 368 96 360 96 352C96 264 168 192 256 192 344 192 416 264 416 352L416 360 412 368 284 592 275 608 422 608C431.750016 581 453 559.749984 480 550L480 128 352 128 352 64 672 64 672 128 544 128 544 550C570.875008 559.749984 592.250016 581.124992 602 608L749 608 740 592 612 368 608 360 608 352C608 264 680 192 768 192 856 192 928 264 928 352L928 360 924 368 796 592 787 608 832 608 832 672 602 672C588.624992 709 553.375008 736 512 736zM512 672C530 672 544 658 544 640 544 622 530 608 512 608 494 608 480 622 480 640 480 658 494 672 512 672zM256 511 329 384 183 384zM768 511 841 384 695 384zM168 320 344 320C331.124992 282.875008 297.750016 256 256 256 214.250016 256 180.875008 282.875008 168 320zM680 320 856 320C843.124992 282.875008 809.750016 256 768 256 726.250016 256 692.875008 282.875008 680 320z" glyph-name="balance-scale" horiz-adv-x="1024" unicode="&#xF24E;"/></font>
</defs>
</svg>
