<svg enable-background="new 86 86 128 128" height="128" viewBox="86 86 128 128" width="128" xmlns="http://www.w3.org/2000/svg"><circle cx="150" cy="150" fill="#b7ce0f" r="64"/><path d="m203.03 133.971-49.935-21.059c-1.13-.497-2.35-.588-3.163-.588-.814 0-2.035.091-3.164.588l-49.934 21.059c-1.583.632-2.486 1.852-2.486 3.254 0 1.399.903 2.62 2.486 3.253l17.803 7.5v21.104c0 .679.272 1.31.768 1.808.499.497 1.13.769 1.808.769.18 0 17.082.179 31.814 15.184.497.496 1.13.768 1.809.768h.225c.767-.046 1.444-.452 1.897-1.085.136-.181 13.828-19.161 36.061-19.883 1.401-.047 2.487-1.175 2.487-2.577v-18.662l11.658-4.881c1.536-.632 2.484-1.852 2.484-3.254-.131-1.447-1.036-2.666-2.618-3.298zm-16.765 27.655c-9.398.812-18.663 4.655-26.933 11.161-4.066 3.21-7.051 6.372-8.767 8.406-12.292-11.389-25.396-13.963-30.82-14.506v-16.54l27.024 11.388c1.129.498 2.349.587 3.164.587.813 0 2.033-.089 3.163-.587l33.169-13.963zm-35.158-4.836c-.18.091-.632.181-1.174.181-.543 0-.996-.09-1.175-.181l-46.501-19.565 46.501-19.567c.18-.092.632-.182 1.175-.182.542 0 .995.09 1.174.182l46.5 19.567z" fill="#2e3192"/><path d="m147.221 131.756 24.808 20.29.725 47.63 4.699-14.462 5.107 5.648-.046-43.742z" fill="#4c9c8d"/></svg>