<svg enable-background="new 0 0 128 128" height="128" viewBox="0 0 128 128" width="128" xmlns="http://www.w3.org/2000/svg"><circle cx="64" cy="64" fill="#fbd303" r="64"/><path d="m107.122 101.055v-4.816c0-6.479-5.54-11.762-12.356-11.762h-61.53c-6.817 0-12.357 5.283-12.357 11.762v4.816z" fill="#74594e"/><path d="m76.527 94.959c-5.625 9.544-19.516 9.544-25.141 0 0-5.454 0-10.993 0-16.447h25.141z" fill="#f0ba7a"/><path d="m109.638 101.055c-2.858-2.517-2.858-2.517-6.266-3.625l-23.521-7.072-5.795 5.369-20.197.084-6.477-5.453-22.752 7.072c-3.409 1.108-3.108 2.311-6.731 4.903l-3.494 2.062c11.673 14.401 29.57 23.605 49.595 23.605 20.027 0 37.923-9.204 49.684-23.605z" fill="#f1f3f7"/><path d="m29.4 117.773c2.897 1.875 6.051 3.578 9.289 4.942v-30.313h-9.289z" fill="#886c60"/><path d="m89.396 122.717c3.237-1.363 6.307-3.068 9.289-4.943v-25.372h-9.289z" fill="#886c60"/><path d="m66.216 95.896h-4.517l-6.051 5.242 4.942 5.158-4.772 21.189c2.643.345 5.37.515 8.182.515s5.539-.17 8.182-.512l-4.857-21.19 4.941-5.157z" fill="#4b5aa7"/><path d="m51.473 85.414 12.187 10.482-9.801 8.402-6.477-13.943z" fill="#fcfcfd"/><path d="m76.188 85.414-12.188 10.482 9.8 8.402 6.477-13.943z" fill="#fcfcfd"/><path d="m101.749 41.243c0-20.848-16.9-37.749-37.749-37.749-20.848 0-37.749 16.901-37.749 37.749 0 8.806 3.023 16.9 8.078 23.321 3.5 13.11 15.472 22.794 29.67 22.794 14.196 0 26.167-9.681 29.669-22.788 5.056-6.422 8.081-14.518 8.081-23.327z" fill="#f2c18f"/><path d="m36.748 30.236c.106-15.972 13.597-23.096 28.814-23.096 15.218 0 29.246 6.583 28.924 22.772 0 15.648-14.354 17.268-20.612 21.478-2.917 1.942-4.103 4.964-4.103 10.036v.541h-14.245v-.647c.107-14.787 6.152-18.131 11.871-21.154 5.721-3.022 12.304-3.885 12.304-10.361 0-8.309-7.664-10.252-14.353-10.252-6.908 0-14.032 3.885-14.139 10.685h-14.461zm34.427 44.788c0 11.331-17.267 11.331-17.267 0 0-11.439 17.267-11.439 17.267 0z"/></svg>