<svg enable-background="new 64 28 128 128" height="128" viewBox="64 28 128 128" width="128" xmlns="http://www.w3.org/2000/svg" xmlns:xlink="http://www.w3.org/1999/xlink"><defs><circle id="a" cx="128" cy="92" r="64"/><clipPath id="b"><use xlink:href="#a"/></clipPath></defs><use fill="#a715b7" xlink:href="#a"/><g clip-path="url(#b)"><path d="m175.519 107.735s5.941 4.731 10.316 6.19c6.19 2.063 6.19 10.315 6.19 10.315v4.126l-19.441 10.466-25.951-10.466v-4.126s0-8.252 6.19-10.315c4.378-1.459 10.316-6.19 10.316-6.19" fill="#acf0f2"/><path d="m179.646 94.325c0 7.221-4.049 13.41-10.316 13.41-6.266 0-10.315-6.189-10.315-13.41 0-7.222 2.063-11.348 10.315-11.348 8.253 0 10.316 4.127 10.316 11.348z" fill="#ffb957"/><path d="m179.646 94.325c0 7.221-4.049 13.41-10.316 13.41-6.266 0-10.315-6.189-10.315-13.41 0-7.222 2.063-11.348 10.315-11.348 8.253 0 10.316 4.127 10.316 11.348z" fill="none" stroke="#657889" stroke-miterlimit="10"/><path d="m175.519 107.735s5.941 4.731 10.316 6.19c6.19 2.063 6.19 10.315 6.19 10.315v4.126l-19.191 11.383-26.201-11.383v-4.126s0-8.252 6.19-10.315c4.378-1.459 10.316-6.19 10.316-6.19" fill="none" stroke="#657889" stroke-linecap="round" stroke-miterlimit="10"/><path d="m92.99 107.735s5.94 4.731 10.315 6.19c6.189 2.063 6.189 10.315 6.189 10.315v4.126l-26.161 11.3-19.231-11.3v-4.126s0-8.252 6.19-10.315c4.376-1.459 10.315-6.19 10.315-6.19" fill="#acf0f2"/><path d="m97.116 94.325c0 7.221-4.05 13.41-10.316 13.41s-10.316-6.189-10.316-13.41c0-7.222 2.063-11.348 10.316-11.348 8.252 0 10.316 4.127 10.316 11.348z" fill="#ffb957"/><path d="m97.116 94.325c0 7.221-4.05 13.41-10.316 13.41s-10.316-6.189-10.316-13.41c0-7.222 2.063-11.348 10.316-11.348 8.252 0 10.316 4.127 10.316 11.348z" fill="none" stroke="#657889" stroke-miterlimit="10"/><path d="m92.99 107.735s5.94 4.731 10.315 6.19c6.189 2.063 6.189 10.315 6.189 10.315v4.126l-27.244 12.05-18.147-12.05v-4.126s0-8.252 6.19-10.315c4.376-1.459 10.315-6.19 10.315-6.19" fill="none" stroke="#657889" stroke-linecap="round" stroke-miterlimit="10"/><path d="m144.57 113.926c14.443 8.253 28.885 6.191 28.885 26.823v4.126l-44.372 19.873-46.41-19.873v-4.126c0-20.632 14.443-18.57 28.885-26.823z" fill="#67dde0"/><path d="m136.317 122.179-8.253-4.126-8.252 4.126-8.254-8.253 4.128-6.191h2.063v-8.252l10.315 2.063 10.318-2.063v8.252h2.062l4.126 6.191z" fill="#fff"/><g fill="none" stroke="#657889" stroke-miterlimit="10"><path d="m144.57 113.926c14.443 8.253 28.885 6.191 28.885 26.823v4.126l-45.872 17.54-44.91-17.54v-4.126c0-20.632 14.443-18.57 28.885-26.823"/><path d="m136.317 122.179-8.253-4.126-8.252 4.126-8.254-8.253 4.128-6.191 12.378 2.064 12.38-2.064 4.126 6.191z"/><path d="m138.382 99.483v8.252"/><path d="m117.749 107.735v-8.252"/><path d="m126.001 136.622h4.127"/><path d="m126.001 128.367h4.127"/></g><path d="m146.633 72.661v8.251c-2.062 14.444-8.251 18.571-8.251 18.571-4.127 2.062-10.318 2.062-10.318 2.062s-6.189 0-10.315-2.062c0 0-6.19-4.127-8.254-18.571v-8.251l8.254-4.127 20.633 8.253z" fill="#fff"/><path d="m109.495 72.661c0-12.535 6.036-18.57 18.569-18.57 12.536 0 18.569 6.035 18.569 18.57l-8.251 4.126-10.318-4.126-10.315-4.127z" fill="#ffb957"/><g fill="none" stroke="#657889" stroke-miterlimit="10"><path d="m146.633 72.661v8.251c-2.062 14.444-8.251 18.571-8.251 18.571-4.127 2.062-10.318 2.062-10.318 2.062s-6.189 0-10.315-2.062c0 0-6.19-4.127-8.254-18.571v-8.251"/><path d="m109.495 72.661c0-12.535 6.036-18.57 18.569-18.57 12.536 0 18.569 6.035 18.569 18.57"/><path d="m109.495 72.661 8.254-4.127 10.315 4.127 10.318 4.127 8.251-4.127"/></g></g></svg>