<svg enable-background="new 192 192 128 128" height="128" viewBox="192 192 128 128" width="128" xmlns="http://www.w3.org/2000/svg"><circle cx="256" cy="256" fill="#82d0d8" r="64"/><path d="m289.167 234.58c-1.826 0-3.567.343-5.186.94-1.516-12.917-12.491-22.94-25.814-22.94-9.916 0-18.532 5.552-22.918 13.715-.024-.011-.05-.021-.075-.031-1.955 3.656-3.066 7.83-3.066 12.265 0 1.122.079 2.226.217 3.31-.708-2.312-1.092-4.766-1.092-7.31 0-3.207.612-6.268 1.715-9.083-1.831-.557-3.769-.866-5.781-.866-11.046 0-20 8.987-20 20.033 0 11.045 8.954 20.032 20 20.032h64.271c7.203-1.25 12.729-7.521 12.729-15.032 0-8.285-6.716-15.033-15-15.033z" fill="#fff"/><path d="m267.413 239.292.077.205 1.339 3.538c.304-.014.603-.046.911-.046.594 0 1.178.039 1.758.09l1.386-3.661c.18-.474.732-.776 1.229-.671l4.745 1.343c.478.172.801.722.719 1.221l-.647 3.925c.749.389 1.469.818 2.158 1.294l3.041-2.484c.393-.321 1.023-.307 1.402.03l3.469 3.552c.328.386.334 1.022.012 1.414l-2.516 3.063c.434.667.82 1.366 1.172 2.085l3.928-.644c.5-.082 1.043.244 1.205.723l1.256 4.815c.094.497-.218 1.05-.692 1.229l-3.728 1.402c.022.39.06.775.06 1.172 0 .395-.037.781-.06 1.17l3.728 1.402c.475.18.786.732.692 1.23l-1.256 4.815c-.156.462-.664.771-1.148.722-.002.004-.003.007-.004.01l-3.98-.652c-.352.721-.738 1.42-1.172 2.088l2.516 3.062.074.091c-.004.006-.01.012-.015.019.246.394.229.95-.071 1.304l-3.469 3.553c-.333.296-.852.326-1.241.116-.01.007-.019.016-.027.022l-3.175-2.594c-.689.477-1.409.906-2.158 1.294 0 0 .653 4.125.642 4.131-.02.437-.3.867-.713 1.016l-4.745 1.343c-.42.089-.862-.113-1.099-.453-.016.002-1.516-3.877-1.516-3.877-.58.05-1.164.088-1.758.088-.309 0-.607-.031-.91-.046 0 0-1.52 3.949-1.531 3.948-.221.351-.68.57-1.119.491l-4.74-1.181c-.447-.146-.756-.562-.745-.955-.007-.003.656-4.12.656-4.12-.86-.399-1.692-.849-2.481-1.362l-3.206 2.619-.034.028c-.003-.002-.006-.005-.009-.007-.322.225-.862.167-1.234-.148l-3.474-3.371c-.339-.377-.409-.938-.156-1.246.002-.002.005-.002.007-.004 0-.001-.001-.002-.001-.002l2.61-3.178c-.562-.803-1.056-1.652-1.497-2.535l-4.059.664c-.002-.004-.003-.007-.004-.01-.014.003-.023.014-.038.016-.411.067-.881-.27-1.046-.748l-1.251-4.643c-.099-.497.155-1.029.563-1.183.014-.005.041-.012.041-.016l3.777-1.42c-.037-.494-.076-.989-.076-1.492s.039-.997.076-1.491c0 0-3.724-1.406-3.724-1.41-.014-.004-.026 0-.04-.005-.438-.165-.716-.706-.618-1.202l1.251-4.645c.165-.479.709-.804 1.21-.722l.058.009 3.878.635c.441-.883.935-1.732 1.497-2.535l-2.439-2.969-.052-.064c-.322-.391-.308-1.02.032-1.396l3.474-3.373c.387-.328 1.025-.333 1.417-.013l.105.086 2.961 2.418c.79-.512 1.62-.963 2.48-1.362l-.61-3.711-.027-.168c-.082-.5.245-1.038.728-1.195l4.738-1.179c.499-.089 1.053.225 1.233.698z" fill="#1b7c96"/><circle cx="269.761" cy="262.528" fill="#fff" r="11.685"/><circle cx="269.761" cy="262.528" fill="#ff5f5f" r="9"/><path d="m248.594 278.392-2.236 1.905c.084.286.17.572.234.868.079.364.134.728.179 1.09l2.798.802c.333.096.594.457.581.804l-.33 3.068c-.062.341-.395.642-.74.669l-2.933.227c-.218.609-.481 1.198-.791 1.762l1.796 2.3c.213.272.213.72 0 .993l-2.082 2.309c-.25.24-.695.289-.99.107l-2.495-1.533c-.516.354-1.065.664-1.64.938l.103 2.925c.012.346-.247.719-.576.828 0 0-.771.256-1.491.411-.732.159-1.562.246-1.562.246-.345.036-.734-.196-.867-.517l-1.118-2.709c-.632-.014-1.258-.069-1.87-.179l-1.636 2.425c-.193.287-.619.427-.945.311l-2.854-1.249c-.307-.161-.491-.568-.41-.905l.685-2.839c-.507-.382-.982-.804-1.426-1.262l-2.763 1.006c-.326.118-.753-.018-.951-.302l-1.573-2.67c-.155-.309-.066-.746.198-.971l2.217-1.89c-.107-.343-.206-.69-.283-1.049-.063-.291-.102-.581-.143-.87l-2.826-.811c-.333-.096-.599-.456-.59-.803l.283-3.061c.057-.342.386-.644.731-.67l2.914-.226c.218-.646.482-1.271.802-1.868l-1.802-2.307c-.213-.273-.216-.723-.005-.997l2.02-2.288c.247-.244.689-.295.985-.113l2.479 1.523c.562-.4 1.169-.746 1.804-1.048l-.102-2.924c-.012-.347.247-.719.576-.827 0 0 .768-.256 1.487-.411.707-.153 1.489-.237 1.489-.237.345-.037.734.194.867.515l1.114 2.7c.708.011 1.406.073 2.088.204l1.627-2.413c.194-.287.618-.424.943-.305l2.781 1.239c.306.163.489.571.408.908l-.687 2.844c.547.415 1.054.88 1.526 1.385l2.747-1c.326-.118.75.021.943.308l1.519 2.658c.148.313.056.751-.207.976z" fill="#004259"/><circle cx="234.554" cy="283.753" fill="#30a2b5" r="7.101"/></svg>