<svg enable-background="new 0 0 128 128" height="128" viewBox="0 0 128 128" width="128" xmlns="http://www.w3.org/2000/svg"><circle cx="64" cy="64" fill="#fbd303" r="64"/><path d="m107.122 89.055v-6.816c0-6.479-5.54-11.762-12.356-11.762h-61.53c-6.817 0-12.357 5.283-12.357 11.762v6.816z" fill="#74594e"/><path d="m76.527 80.959c-5.625 9.544-19.516 9.544-25.141 0 0-5.454 0-10.993 0-16.447h25.141z" fill="#f0ba7a"/><path d="m110.104 90.333c-.768-3.238-3.324-5.795-6.731-6.903l-23.521-7.072-5.795 5.369-20.197.084-6.477-5.453-22.753 7.072c-3.409 1.108-5.88 3.75-6.731 6.903l-3.494 14.062c11.673 14.401 29.57 23.605 49.595 23.605 20.027 0 37.923-9.204 49.684-23.605z" fill="#f1f3f7"/><circle cx="63.66" cy="35.025" fill="#393d47" r="31.531"/><path d="m74.908 22.924c-8.948 18.663-30.424 16.362-36.9 15.169v9.8c0 14.146 11.506 25.651 25.651 25.651s25.651-11.505 25.651-25.651v-11.675c-11.845-.937-14.402-13.294-14.402-13.294z" fill="#f7cfa2"/><path d="m29.4 117.773c2.897 1.875 6.051 3.578 9.289 4.942v-44.313h-9.289z" fill="#886c60"/><path d="m89.396 122.717c3.237-1.363 6.307-3.068 9.289-4.943v-39.372h-9.289z" fill="#886c60"/><path d="m66.216 81.896h-4.517l-6.051 7.242 4.942 7.158-4.772 31.189c2.643.345 5.37.515 8.182.515s5.539-.17 8.182-.512l-4.857-31.19 4.941-7.157z" fill="#4b5aa7"/><g fill="#fcfcfd"><path d="m51.473 71.414 12.187 10.482-9.801 14.402-6.477-19.943z"/><path d="m76.188 71.414-12.188 10.482 9.8 14.402 6.477-19.943z"/></g></svg>