<svg height="142.39598mm" viewBox="0 0 582.74218 504.55268" width="164.46278mm" xmlns="http://www.w3.org/2000/svg"><g transform="translate(-70.885489 -14.238365)"><path d="m494.20923 481.2624c-4.6854-2.50327-4.4316-2.11736-24.10388-36.64404l-3.07088-5.38967-7.66263 7.59102c-8.13374 8.05773-13.76404 10.75814-19.45333 9.33021-2.87277-.72102-9.20193-5.82536-10.70453-8.63299-.50535-.94425-3.42336-16.07004-6.48446-33.61287-3.0611-17.54282-5.81619-33.13353-6.12242-34.64603l-.55679-2.75h-129.87134c-90.95044 0-131.45945-.33118-135.17056-1.10508-17.73365-3.69813-34.95224-19.30464-41.88038-37.95936l-2.39009-6.43557-.29823-80.19822c-.33269-89.46525-.46937-87.3458 6.48631-100.58248 7.10143-13.51406 21.51272-24.67588 36.38628-28.18188 5.59245-1.31826 32.30232-1.50788 212.39691-1.50788 180.09462 0 206.80442.18962 212.39692 1.50788 20.5408 4.84188 38.8697 23.27981 43.0061 43.26179.7416 3.58214 1.0922 30.31426 1.0822 82.5-.016 85.87755.1158 83.97342-6.7422 97.09769-4.9252 9.42539-15.4162 19.91854-24.8352 24.84037-10.8995 5.69541-16.4344 6.75842-35.3679 6.79258l-16.5399.0298 4.2315 3.72016c13.4089 11.78837 7.5867 28.09936-10.9815 30.76527-2.6125.37509-4.75.95136-4.75 1.28062 0 .32925 4.7957 6.90478 10.657 14.61227 6.8974 9.06976 10.9578 15.35205 11.5095 17.80746 1.0597 4.71633-.5174 11.47299-3.492 14.96055-1.196 1.40227-9.0737 7.18309-17.506 12.84627-13.6584 9.17309-15.8954 10.34087-20.5 10.7015-4.0696.31874-6.1253-.10637-9.6685-1.99941zm19.2893-27.18065c4.8658-3.28081 8.5848-6.45933 8.3312-7.12039-.2521-.65676-6.7948-9.57166-14.5394-19.81089-14.9828-19.80897-15.7561-21.50261-12.6024-27.60126 1.6973-3.28229 6.4453-5.28645 16.8142-7.09742 3.7361-.65252 6.6611-1.51115 6.5-1.90806-.5607-1.38137-90.98982-82.17213-91.45484-81.70711-.25755.25754 1.7678 13.22647 4.50078 28.81984 2.73297 15.59336 7.29376 41.85157 10.13508 58.35157 2.84133 16.5 5.36722 30.61928 5.61309 31.37617.28927.89049 3.60499-1.66813 9.3953-7.25 8.3125-8.01329 9.24329-8.62617 13.10062-8.62617 6.12167 0 9.52267 4.20169 22.91307 28.30737 6.3227 11.38243 11.7227 20.58222 12 20.44398.2772-.13823 4.4592-2.91817 9.2933-6.17763zm-101.28931-99.52143c0-.52124-2.25-13.73134-5-29.35578-2.75-15.62443-5-30.06589-5-32.09213 0-4.95342 3.36286-11.24517 7.29034-13.63988 4.19527-2.55799 12.14153-2.6135 16.20966-.11324 1.65 1.01409 21.60199 18.56241 44.33776 38.99626l41.33775 37.15248h25.7286c14.2119 0 28.3846-.48638 31.6622-1.08658 11.8373-2.16767 21.1926-9.74167 25.6504-20.76634l2.2833-5.64709v-80.50001-80.5l-2.9127-6.30823c-3.4972-7.57413-9.4554-13.17986-17.4402-16.40843l-5.6471-2.28335-205.00002-.28093c-146.5729-.20086-206.90217.035-211.674.82753-12.26064 2.03632-21.6278 9.99579-25.06243 21.29607-.97267 3.20016-1.2636 22.46132-1.2636 83.65734 0 74.50822.11557 79.8518 1.84055 85.10268 3.62286 11.02805 13.09994 19.71811 23.7969 21.82071 6.13704 1.20629 258.86259 1.33216 258.86259.12892z"/><text font-family="sans-serif" font-size="40" letter-spacing="0" word-spacing="0" x="180.2063" y="273.24332"><tspan font-family="Arial" font-size="90.000008" font-weight="bold" x="180.2063" y="273.24332">BUTTON</tspan></text></g></svg>