<svg height="99.326332mm" viewBox="0 0 407.95651 351.94366" width="115.13439mm" xmlns="http://www.w3.org/2000/svg"><g transform="translate(-1617.6138 -751.42706)"><path d="m1581.8502 992.8822h417.69809v307.08636h-417.69809z" fill="#fff" opacity="0"/><path d="m1523.015 981.98187h582.14288v339.28571h-582.14288z" fill="#fff" opacity="0"/><path d="m1723.1028 862.41603c-27.017.35882-54.0866-.65166-81.0725.93033-6.9744 1.60465-11.9244 8.99661-14.4206 16.01258.3319 30.57965-.7937 61.2448 1.1291 91.76869.3178 4.34369 2.1899 8.59877 5.5861 10.52987l3.2442 1.79272c9.1525 3.81437 14.4569 2.03643 21.6145 2.8806 46.6375.47501 93.1712.0238 139.656.32331 26.7805-.44965 54.1279.11037 81.0478-.46865 6.8123-3.54839 14.0039-10.26589 13.6297-19.56492 1.1614-29.21436.4281-58.47845.6458-87.71285-3.2357-8.2027-9.7637-16.73607-18.5067-15.92895-50.8365-1.07725-101.7081-.34129-152.5534-.56273zm119.4344 11.15008c12.1934.45556 24.6003-.89846 36.5669 1.01745 6.5876 3.45071 4.5107 12.48147 5.0226 18.94798-.083 25.16036.7881 50.68422-.9103 75.5612-1.7616 6.80415-9.1229 5.38798-13.9257 5.72571-20.3166.45534-40.639.31997-60.9582.39465.0003-33.88465-.0005-67.7693 0-101.65395 11.4021.003 22.8042.004 34.2063.007zm-129.1187 53.0692v48.57779c-23.4989-.37579-47.1267.67048-70.5278-1.06623-6.2383-2.45364-4.5041-11.10187-5.0594-16.75087-.2683-25.46781-.8436-51.19885.3108-76.48999.866-6.15538 7.1829-7.7607 11.8539-7.14666 21.0671-.36946 42.2962-.11665 63.4225-.19846zm47.4562-53.07442h37.9649v101.65744c-25.31.02-50.6199.02-75.93 0v-101.65744z"/><path d="m1977.4773 863.34738c-26.6662.35883-19.2213-.70797-46.2072.87402-6.9744 1.60465-11.9243 8.99661-14.4205 16.01257.3319 30.57965-.7937 61.2448 1.1291 91.76868.3177 4.34372 2.1899 8.59877 5.5861 10.52987l3.2441 1.79276c9.1527 3.81431 14.4571 2.03636 21.6146 2.88056 46.6375.47499-.1651.0241 46.3196.32335 26.7805-.44966-23.6523.11034 3.2676-.46866 6.8123-3.5484 14.0039-10.26593 13.6296-19.56492 1.1615-29.21437.4281-58.47846.6458-87.71287-3.2356-8.20269-9.6233-14.99025-18.5067-15.92894-50.8364-1.07725 34.5431-.28498-16.3021-.50642zm25.4067 11.09376c12.1934.45556-18.8159-4.4464-5.6565 1.01745 6.5874 3.45072 4.5106 12.48147 5.0225 18.94798-.083 25.16036.788 50.68423-.9103 75.56123-1.7616 6.80414-9.1229 5.38799-13.9258 5.72571-20.3164.45528 41.5859.31996 21.2667.39462.0003-33.88467-.0005-67.7693 0-101.65395 11.4021.003-17.197.004-5.7948.007zm-.2256 53.0692v48.57779c-23.4989-.3758-47.1266.67052-70.5277-1.06622-6.2385-2.45364-4.5042-11.10191-5.0594-16.75091-.2685-25.46778-.8438-51.19881.3106-76.48996.866-6.15538 7.1829-7.7607 11.854-7.14666 21.0671-.36946 42.2963-.11665 63.4225-.19845zm-39.2133-53.07441h37.9649v101.65746c-25.3099.0196 33.8273.0196 8.5172 0v-101.65746z"/></g></svg>