<svg height="109.32118mm" viewBox="0 0 407.95651 387.35848" width="115.13439mm" xmlns="http://www.w3.org/2000/svg"><g transform="translate(-1617.6138 -733.71057)"><path d="m1581.8502 992.8822h417.69809v307.08636h-417.69809z" fill="#fff" opacity="0"/><path d="m1523.015 981.98187h582.14288v339.28571h-582.14288z" fill="#fff" opacity="0"/><path d="m1773.8216 857.77397c-34.1582.40227-68.383-.73055-102.5019 1.04297-8.8181 1.79892-15.0763 10.08581-18.2324 17.95118.4197 34.28185-1.0035 68.65955 1.4277 102.8789.4016 4.86956 2.7687 9.6398 7.0625 11.80469l4.1016 2.00976c11.5719 4.27617 18.2784 2.28297 27.3279 3.22935 58.965.53252 117.7987.0267 176.5705.36245 33.8593-.50409 68.4353.12373 102.4707-.52539 8.613-3.97798 17.7055-11.50875 17.2324-21.93359 1.4684-32.75127.5413-65.55829.8164-98.33203-4.0908-9.19578-12.3444-18.76226-23.3984-17.85743-64.2737-1.20767-128.5921-.38261-192.877-.63086zm151.0039 12.5c15.4164.51071 31.1027-1.00724 46.2325 1.14063 8.3287 3.86848 5.703 13.99257 6.3501 21.24196-.1059 28.20646.9964 56.82043-1.1509 84.70921-2.2273 7.62791-11.5343 6.04029-17.6068 6.4189-25.6865.51047-51.3807.35871-77.0709.44243.0004-37.98698-.0005-75.97396 0-113.96094 14.416.003 28.832.005 43.248.008zm-163.248 59.49415v54.45898c-29.7102-.42128-59.5834.75166-89.1699-1.19531-7.8875-2.7507-5.6947-12.44595-6.3968-18.77886-.3394-28.55113-1.0666-57.39736.3929-85.75044 1.0949-6.9006 9.0814-8.70027 14.9872-8.01189 26.6357-.41419 53.4761-.13077 80.1866-.22248zm60-59.5h48v113.96484c-32 .0224-64 .0224-96 0v-113.96484z"/></g></svg>