<svg viewBox="0 0 32 32" xmlns="http://www.w3.org/2000/svg"><g transform="translate(1.15 2.637)"><path d="m8.446 12.38c0 .96-1.16 1.441-1.84.762-.678-.679-.198-1.84.763-1.84.595 0 1.077.483 1.077 1.078zm-1.077 5.485c-.96 0-1.441 1.16-.762 1.84.678.679 1.84.198 1.84-.762 0-.596-.483-1.079-1.078-1.078zm0-13.293c-.96 0-1.441 1.16-.762 1.84.678.679 1.84.198 1.84-.762 0-.596-.483-1.078-1.078-1.078z" fill="none" stroke="#000" stroke-linecap="round" stroke-linejoin="round" stroke-width=".722499"/><path d="m23.098 11.763h-12.12c-.826 0-.826 1.238 0 1.238h12.12c.825 0 .825-1.238 0-1.238zm-.027 6.667h-12.12c-.826 0-.826 1.237 0 1.237h12.12c.826 0 .826-1.238 0-1.238zm-12.121-12.095h12.121c.826 0 .826-1.238 0-1.238h-12.12c-.826 0-.826 1.238 0 1.238z"/></g></svg>