<svg height="451.54492" viewBox="0 0 511.99999 451.54493" width="512" xmlns="http://www.w3.org/2000/svg"><path d="m0 50v143.54492 208h256 256v-208-143.54492zm16 15.544922h240 240v159.999998 160h-240-240v-160zm267.80078 56.244138c-13.25249.19801-26.45038 7.40757-33.08984 21.53125-2.7168 5.77928-3.16394 7.84939-3.17774 14.72461-.0102 5.07292.62171 9.82942 1.72852 13 3.53364 10.12244 13.38298 19.71767 23.60156 22.99219 2.96211.9492 7.52615 1.37807 12.63672 1.1875 14.22491-.53043 25.48789-7.81501 31.75-20.53516 2.97829-6.04977 3.25-7.40003 3.25-16.14453 0-8.76642-.26753-10.08511-3.28711-16.21875-6.85381-13.92208-20.15962-20.73511-33.41211-20.53711zm.1875 15.7168c6.6457-.15748 13.29519 2.85463 17.61719 9.24218 6.15816 9.10125 5.21659 19.08475-2.5293 26.79688-2.74616 2.73419-6.22091 5.04368-8.6914 5.77734-5.15867 1.53195-7.89226 1.48796-12.625-.20117-5.59382-1.99646-8.47064-4.18042-11.47266-8.71679-3.70345-5.59628-4.37288-14.82342-1.48438-20.44141 4.12728-8.02732 11.65375-12.27855 19.18555-12.45703zm-92.09766 39.03906c-.54728 0-110.24906 140.21601-116.552729 148.97266-.97653 1.35654-.25696 2.35733 4.5 6.25781 3.114319 2.5536 5.887109 4.65301 6.162109 4.66601s24.28502-30.60094 53.35547-68.03125c29.07045-37.4303 53.17985-67.67353 53.57617-67.20898.39631.46455 11.51611 13.89375 24.71094 29.84375 53.94027 65.20334 83.6797 101.07108 84.8164 102.29492.96951 1.04385 2.30083.38945 6.8711-3.37304 3.11817-2.56705 5.66615-4.94979 5.66015-5.29493s-5.40586-7.14804-12-15.11914c-6.59413-7.97111-11.99023-14.7237-11.99023-15.00586 0-.28217 14.17477-14.68327 31.5-32.00195l31.5-31.48828 36.26953 36.25781 36.26953 36.25977 5.46289-5.53125 5.46289-5.53125-41.73046-41.73047-41.73047-41.73047-36.75196 36.74219-36.75195 36.74023-43.93945-52.99414c-24.16717-29.1466-44.26868-52.99414-44.66993-52.99414z"/><g fill="none" stroke-linecap="round" stroke-linejoin="round"><path d="m261.53406 19.341523v414.372897" stroke="#fff" stroke-width="30"/><path d="m236.47458 19.070337v414.372893" stroke="#000" stroke-width="20"/></g></svg>