<svg enable-background="new 0 0 512 512" height="396" viewBox="0 0 396 396" width="396" xmlns="http://www.w3.org/2000/svg"><g transform="translate(-58 -58)"><path d="m394.9302 137.18461c7.07316 0 12.828-5.75484 12.828-12.828 0-7.07317-5.75484-12.82801-12.828-12.82801-7.07317 0-12.82801 5.75484-12.82801 12.82801 0 7.07316 5.75484 12.828 12.82801 12.828z" stroke-width="1.973539"/><path d="m416 58h-320c-20.953 0-38 17.047-38 38v320c0 20.953 17.047 38 38 38h320c20.953 0 38-17.047 38-38v-320c0-20.953-17.047-38-38-38zm26 38v90h-111.883c-18.607-19.691-44.95-32-74.117-32s-55.51 12.309-74.117 32h-15.883v-116h250c14.337 0 26 11.664 26 26zm-186 70c49.626 0 90 40.374 90 90s-40.374 90-90 90-90-40.374-90-90 40.374-90 90-90zm-138 20v-116h36v116zm-22-116h10v116h-36v-90c0-14.336 11.663-26 26-26zm320 372h-320c-14.337 0-26-11.664-26-26v-218h102.145c-11.433 16.479-18.145 36.469-18.145 58 0 56.243 45.757 102 102 102s102-45.757 102-102c0-21.531-6.712-41.521-18.145-58h102.145v218c0 14.336-11.663 26-26 26z"/><path d="m256 310c29.775 0 54-24.224 54-54s-24.225-54-54-54-54 24.224-54 54 24.225 54 54 54zm0-96c23.159 0 42 18.841 42 42s-18.841 42-42 42-42-18.841-42-42 18.841-42 42-42z"/></g></svg>