<svg height="170.57832mm" viewBox="0 0 321.78665 604.41139" width="90.815338mm" xmlns="http://www.w3.org/2000/svg"><path d="m134.6999 1084.1985c-1.61905-1.619-2-3.3333-2-9 0-12.3121-14.91031-11 125.00001-11 139.9103 0 125-1.3121 125 11s14.9103 11-125 11c-119.66668 0-121.02205-.022-123.00001-2zm2.31537-116.00064c-3.24458-1.31666-4.31537-4.1357-4.31537-11.36102 0-5.82359.2717-6.70688 2.63486-8.56574 2.63229-2.07056 2.75143-2.07258 122.36515-2.07258 119.6137 0 119.7329.002 122.3652 2.07258 2.386 1.8769 2.6348 2.71617 2.6348 8.88922 0 5.22146-.4473 7.36908-1.9115 9.17742l-1.9116 2.36078-119.8384.19293c-67.86627.10926-120.78595-.19154-122.02314-.69359zm-2.12681-112.03831c-1.84654-1.72031-2.18856-3.1268-2.18856-9 0-12.26619-14.88402-10.96104 125.00001-10.96104 119.6667 0 121.0221.022 123 2 1.6093 1.60932 2 3.33333 2 8.82569 0 5.84184-.3336 7.13908-2.3144 9l-2.3145 2.17431h-120.497c-119.88212 0-120.50815-.0104-122.68555-2.03896z" transform="translate(-96.80657 -658.99298)"/></svg>