<svg enable-background="new 0 0 60 60" viewBox="0 0 60 60" xmlns="http://www.w3.org/2000/svg"><path d="m45.563 29.174-22-15c-.307-.208-.703-.231-1.031-.058-.327.173-.532.513-.532.884v30c0 .371.205.711.533.884.146.078.307.116.467.116.197 0 .394-.059.563-.174l22-15c.273-.186.437-.495.437-.826s-.164-.64-.437-.826zm-21.563 13.933v-26.214l19.225 13.107z"/><path d="m30 0c-16.542 0-30 13.458-30 30s13.458 30 30 30 30-13.458 30-30-13.458-30-30-30zm0 58c-15.439 0-28-12.561-28-28s12.561-28 28-28 28 12.561 28 28-12.561 28-28 28z"/></svg>