<svg height="522.03394" viewBox="0 0 512 522.03394" width="512" xmlns="http://www.w3.org/2000/svg"><path d="m214.4 468.6c-4.6134-4.61342-4.6134-8.58658 0-13.2 5.6497-5.64969 13.1313-4.15942 16.2191 3.23069 1.2103 2.89685 1.2103 3.84177 0 6.73862-3.0878 7.39011-10.5694 8.88038-16.2191 3.23069zm36.7101 2.00449c-8.7678-4.85958-5.1551-18.60449 4.8899-18.60449 2.9615 0 4.5539.70769 6.9231 3.07692 8.1287 8.12874-1.7453 21.10767-11.813 15.52757zm34.0068-.23518c-1.2805-.89688-2.9617-3.14688-3.7359-5-2.6267-6.28635 2.3754-13.36931 9.4415-13.36931 4.6274 0 10.1775 5.4533 10.1775 10s-5.5501 10-10.1775 10c-1.8576 0-4.4251-.73381-5.7056-1.63069zm-285.1169-228.86931v-191.5h256 255.99999v191.5 191.5h-255.99999-256zm496 0v-175.5h-240-240v175.5 175.5h240 240zm-451.5 16.5-16.9779-17 16.978-17.00008 16.978-17.00008 5.493 5.49298 5.493 5.49297-7.457 7.50711-7.457 7.5071h76.767 76.767l-.292 7.75-.2921 7.75-75.9687.25634-75.9686.25634 7.439 7.48905 7.4391 7.48905-5.4362 5.50461c-2.99 3.02754-5.6816 5.50461-5.9815 5.50461-.2998 0-8.1852-7.65-17.5231-17zm401.4955 11.49539-5.4363-5.50461 7.439-7.48901 7.4391-7.48901-75.4687-.25638-75.4686-.25638-.2921-7.75-.292-7.75h75.267 75.267l-7.457-7.5071-7.457-7.50711 5.4929-5.49282 5.4928-5.49282 17.4782 17.4996 17.4781 17.4996-16.4776 16.50032c-9.0626 9.07518-16.7231 16.50033-17.0231 16.50033s-2.9918-2.47707-5.9817-5.50461z"/></svg>