<svg height="32" width="32" xmlns="http://www.w3.org/2000/svg"><path d="m3.55 17.707c-.232 0-.417-.293-.419-.656l-.022-5.874c-.002-.363.187-.659.42-.656l3.966.044c.346-.263-.138-1.966-1.404-2.621-1.075-.557-.049-1.667-.101-1.856 1.766.433 2.426 1.117 2.882 1.447.726.592 1.856 2.14 2.138 3.29.042.103.03.222.03.352l.023 5.874c.002.363-.187.656-.419.656zm9.94 0c-.231 0-.417-.293-.418-.656l-.022-5.874c-.002-.363.187-.659.419-.656l3.967.044c.346-.263-.138-1.966-1.404-2.621-1.075-.557-.05-1.667-.102-1.856 1.767.433 2.426 1.117 2.883 1.447.725.592 1.855 2.14 2.138 3.29.041.103.03.222.03.352l.022 5.874c.002.363-.186.656-.419.656z" fill="none" stroke="#333" stroke-linecap="round" stroke-linejoin="round" stroke-width=".831204" transform="matrix(1.33333 0 0 -1.33333 0 32)"/></svg>