<svg height="559.89838" viewBox="0 0 399.99996 559.89838" width="399.99997" xmlns="http://www.w3.org/2000/svg"><path d="m0 468.5043c0-38.97714 9.497-72.51672 27.6877-97.7813 7.4638-10.36639 23.7152-25.97863 34.3943-33.04164 14.1626-9.36699 31.6128-17.38503 48.4645-22.26846l8.2726-2.39729 11.6587 5.91334c12.8389 6.51195 28.1919 11.85075 42.0222 14.61259 12.6224 2.52064 42.3776 2.52064 55 0 13.8197-2.75973 29.1805-8.09922 41.9877-14.59507l11.6241-5.89582 8.573 2.48541c17.0002 4.92853 33.7318 12.62579 48.3152 22.22713 11.0659 7.2855 30.0648 26.14402 36.9078 36.63516 16.67737 25.5685 25.09217 57.12726 25.09217 94.10595v11.39405h-199.99997-200v-11.39405zm383.5465-14.85595c-4.2138-60.73215-34.2271-100.68385-90.2268-120.10374l-10.1804-3.5304-9.8196 4.84586c-45.6668 22.53591-100.3741 22.5409-146.7115.0134l-9.8918-4.80902-10.1082 3.50528c-47.7151 16.54646-77.6966 49.57175-86.9965 95.82862-1.6955 8.43328-3.5652 24.4284-3.5944 30.75l-.017 3.75h184.1288 184.1288l-.7111-10.25zm-194.5465-166.32967c-1.375-.244-5.2-.9119-8.5-1.48421-18.7547-3.2526-36.8771-12.64566-51.7627-26.82916-33.6847-32.09607-42.1509-80.03418-21.4766-121.60696 5.0176-10.08962 9.322-16.08181 18.2007-25.33762 31.804-33.154959 79.7273-41.431959 121.0386-20.905029 28.2913 14.057479 48.773 41.012989 55.6524 73.242649 1.6517 7.73816 1.6517 31.26184 0 39-4.3287 20.28002-12.981 36.9599-26.6524 51.38036-15.2381 16.0731-32.9658 26.16553-54 30.74247-6.926 1.50706-27.6711 2.65442-32.5 1.7975zm28.5-17.31346c17.3347-3.5957 31.9802-11.51004 44.5385-24.06838 21.0679-21.06786 30.0439-50.73085 24.0684-79.53849-3.5957-17.33469-11.5101-31.98016-24.0684-44.5385-34.475-34.474949-89.703-34.503849-124.1419-.0649-34.4389 34.4389-34.41 89.66698.065 124.14194 21.0689 21.06891 50.7294 30.04419 79.5384 24.06838z"/></svg>