<svg height="76.074524mm" viewBox="0 0 332.53409 269.55537" width="93.848511mm" xmlns="http://www.w3.org/2000/svg"><g transform="translate(-2222.1699 -1136.8864)"><path d="m2371.0967 1243.1898c-2.3701.099-4.3103 1.9236-4.3103 4.5676 0 1.8187.3813 2.4054 6.6781 10.2658 3.673 4.5851 10.2397 12.8924 10.2397 13.0196v.9565c0 .1555-5.8292 7.5636-8.6006 11.0206-8.2638 10.308-8.3172 10.3868-8.3172 12.2952 0 2.012 1.5903 4.1962 3.3826 4.6461 2.7984.7023 3.6371-.071 13.8439-12.7658 5.3394-6.6407 10.0693-12.6894 10.511-13.4414 1.5124-2.5743 1.0724-3.3335-9.7858-16.8924-5.5885-6.9785-10.6207-12.9019-11.1831-13.1623-.8297-.3839-1.6681-.5425-2.4583-.5095z"/><g fill="none" stroke="#000" stroke-linecap="round" stroke-linejoin="round" stroke-width="10"><path d="m2335.8239 1271.5233-43.7167-.5464"/><path d="m2478.7666 1273.0753-43.7167-.5464"/></g></g></svg>