<svg height="24mm" viewBox="0 0 85.039372 85.039372" width="24mm" xmlns="http://www.w3.org/2000/svg"><path d="m2352.4841 1341.7154c-.099-2.3701-1.9236-4.3103-4.5676-4.3103-1.8187 0-2.4054.3813-10.2658 6.6781-4.5851 3.673-12.8924 10.2397-13.0196 10.2397h-.9565c-.1555 0-7.5636-5.8292-11.0206-8.6006-10.308-8.2638-10.3868-8.3172-12.2952-8.3172-2.012 0-4.1962 1.5903-4.6461 3.3826-.7023 2.7984.071 3.6371 12.7658 13.8439 6.6407 5.3394 12.6894 10.0693 13.4414 10.511 2.5743 1.5124 3.3335 1.0724 16.8924-9.7858 6.9785-5.5885 12.9019-10.6207 13.1623-11.1831.3839-.8297.5425-1.6681.5095-2.4583z" transform="translate(-2281.6285 -1307.1106)"/></svg>