<svg height="60" viewBox="0 0 60 60" width="60" xmlns="http://www.w3.org/2000/svg"><g fill="none" fill-rule="evenodd" stroke="#000" stroke-width="2" transform="translate(1 1)"><path d="m39.0432 58v-22.304h7.203l1.074-8.693h-8.277v-5.549c0-2.514.67-4.229 4.144-4.229l4.427-.006v-7.769c-.767-.108-3.394-.348-6.453-.348-6.383 0-10.753 4.055-10.753 11.494v6.407h-7.226v8.693h7.226v22.304z"/><path d="m54 58h-50c-2.209 0-4-1.791-4-4v-50c0-2.209 1.791-4 4-4h50c2.209 0 4 1.791 4 4v50c0 2.209-1.791 4-4 4z" stroke-linejoin="round"/></g></svg>