<svg height="135.4117mm" viewBox="0 0 582.68474 479.80519" width="164.44658mm" xmlns="http://www.w3.org/2000/svg"><path d="m695.99753 702.79586c-3.29033-1.01058-6.42025-3.05298-9.6911-6.32383-8.67255-8.67254-8.00984 8.43585-7.71213-199.09539l.26316-183.44881 2.97438-5.37025c3.26844-5.90119 7.52011-9.64979 13.27359-11.703 3.0929-1.10375 45.17225-1.34668 239.53411-1.38286 209.50556-.039 236.19046.12672 239.44616 1.48705 5.8648 2.45046 9.611 5.84578 12.7973 11.59881l2.9744 5.37025.2632 183.44881c.2976 207.50369.9581 190.42511-7.6992 199.08249-8.7173 8.71722 14.5485 7.97766-248.49546 7.89905-203.69032-.0609-233.68107-.2578-237.92841-1.56232zm474.72357-18.00439 2.6363-2.63637v-182.30787-182.30787l-2.4134-2.80577-2.4134-2.80576h-234.17316-234.17315l-2.41341 2.80576-2.41342 2.80577v182.49198 182.49199l2.64602 2.45225 2.64603 2.45225h233.71763 233.71756zm-424.859-118.9667c-5.33966-1.9541-12.08777-8.74985-14.24953-14.35014-1.59912-4.14269-1.75511-9.5684-1.75511-61.0468v-56.5l2.37298-4.77734c3.03756-6.11529 9.18859-11.36649 15.51484-13.24519 7.50743-2.22947 365.71692-2.22947 373.22432 0 6.3262 1.8787 12.4773 7.1299 15.5148 13.24519l2.373 4.77734v56.5c0 52.26633-.1365 56.85384-1.822 61.22212-2.2133 5.73583-9.7925 12.8964-15.4422 14.58908-3.0067.90083-48.5105 1.17173-187.85176 1.11834-158.72511-.0608-184.43062-.27051-187.87934-1.5326zm374.0819-17.7027 2.4134-2.80577v-53.50998c0-54.88046-.084-56.15702-3.9133-59.09669-2.315-1.77734-365.85837-1.77734-368.1733 0-3.82813 2.93915-3.91334 4.22231-3.91334 58.92995 0 57.76408-.10743 56.58493 5.357 58.80091 1.19219.48346 82.82067.78437 183.97968.67819l181.83656-.19085zm-338.58654-22.6538v-7.95956l8.25-.29044 8.25-.29044.26688-25.75.26688-25.75h-8.51688-8.51688v-8.5-8.5h25 25v8.5 8.5h-8.51688-8.51688l.26688 25.75.26688 25.75 8.25.29044 8.25.29044v7.95956 7.95956h-25-25z" transform="translate(-653.01497 -260.03377)"/></svg>