<svg height="128.23308mm" viewBox="0 0 582.92154 454.36916" width="164.51341mm" xmlns="http://www.w3.org/2000/svg"><path d="m1416.7259 942.41828c-1.9305-1.9305-2.0068-3.8223-.2142-5.31.9939-.8249 34.6537-1.0584 125.75-.8725l124.3928.2539.3268 2.3051c.7797 5.5003 8.1493 5.1949-125.3778 5.1949-110.7632 0-123.466-.1598-124.8776-1.5714zm0-36c-1.9946-1.9946-1.9946-3.8626 0-5.8572 1.4203-1.4202 25.8918-1.5714 254.4286-1.5714s253.0083.1512 254.4286 1.5715c.8643.8642 1.5714 2.1821 1.5714 2.9285 0 .7465-.7071 2.0643-1.5714 2.9286-1.4203 1.4203-25.8918 1.5714-254.4286 1.5714s-253.0083-.1511-254.4286-1.5714zm-.596-35.9582c-.9707-1.1696-1.0045-2.111-.1439-4l1.1256-2.4704h254.0429 254.0429l1.1256 2.4704c.8606 1.889.8268 2.8304-.1439 4-1.1333 1.3655-28.501 1.5296-255.0246 1.5296s-253.8913-.1641-255.0246-1.5296zm.2265-35.6684c-1.597-1.5971-1.5246-4.2893.1529-5.6815.9971-.8274 68.3721-1.0578 255.141-.8724 240.4567.2387 253.8442.3438 254.8901 2.0019.8052 1.2765.8052 2.2236 0 3.5-1.0459 1.6581-14.4407 1.7633-255.0429 2.002-196.6823.1951-254.2101-.019-255.1411-.95zm1.3731-61.8952-2.6027-3.0931.2639-102.3793.2638-102.3792 2.2778-2.2776 2.2778-2.2776h250.9444 250.9444l2.2778 2.2776 2.2778 2.2776.2638 102.3792.2639 102.3793-2.6027 3.0931-2.6028 3.0932h-250.8222-250.8222zm491.1803-104.6568-.2553-89.75h-237.5-237.5l-.2553 89.75-.2554 89.75h238.0107 238.0107z" transform="translate(-1379.6937 -525.05662)"/></svg>