<svg height="184.47113mm" viewBox="0 0 582.67186 653.63784" width="164.44295mm" xmlns="http://www.w3.org/2000/svg"><path d="m745.69471 1129.0745c-19.3659-4.1098-36.2739-17.8223-44.7352-36.2804-6.125-13.3616-5.823-1.2803-5.5315-221.33686l.2667-201.23411 2.3321-6.5c6.2373-17.38463 17.3545-30.41714 32.2323-37.78531 15.5524-7.70227-.5198-7.17996 220.9356-7.17996 221.25699 0 205.53259-.50545 220.96619 7.1028 14.8268 7.30921 25.8983 20.32832 32.1984 37.86247l2.3354 6.5.2781 200.5c.3088 222.62587.6914 209.05167-6.299 223.49997-8.8383 18.2678-24.9271 30.8264-44.7327 34.9174-6.8458 1.414-28.7349 1.5739-205.45419 1.5011-170.9354-.071-198.7427-.2832-204.7922-1.5671zm410.99999-33.3275c6.3748-3.157 12.3669-9.1491 15.5239-15.5239l2.4761-5 .284-52.25.2839-52.24997h-224.03389-224.034v50.46507c0 55.391-.01 55.3001 6.1527 64.2565 3.3749 4.9056 10.3805 10.023 16.2436 11.8653 3.301 1.0372 43.031 1.2526 203.1037 1.1013l198.99999-.1882zm18.5-221.02387v-64h-223.99999-224v64 64h224 223.99999zm-.216-148.25-.284-52.25-2.4476-4.97392c-3.1218-6.34409-9.2344-12.45663-15.5785-15.57848l-4.9739-2.4476h-200.49999-200.5l-4.9739 2.4476c-6.3441 3.12185-12.4566 9.23439-15.5785 15.57848l-2.4476 4.97392-.284 52.25-.2839 52.25h224.0679 224.06789z" transform="translate(-659.86944 -547.8843)"/></svg>