<svg height="180" width="180" xmlns="http://www.w3.org/2000/svg" xmlns:xlink="http://www.w3.org/1999/xlink"><linearGradient id="a" x1=".003" x2=".954" y1=".103" y2=".725"><stop offset="0" stop-color="#2beaed"/><stop offset="1" stop-color="#0fccce"/></linearGradient><g fill="none" fill-rule="evenodd" stroke="#000" stroke-width="5" transform="translate(13.637 13.58)"><rect fill="url(#a)" height="156.644" rx="12.688" width="156.235"/><path d="m119.052 30.826c4.285.634 7.243 4.628 6.61 8.918-.632 4.292-4.618 7.26-8.905 6.624-7.591-1.124-18.963 10.697-31.695 35.003-16.254 31.03-31.382 45.815-47.31 44.635-4.32-.32-7.562-4.088-7.243-8.413.319-4.326 4.079-7.576 8.4-7.256 7.865.583 19.418-11.742 32.264-36.266 16.357-31.229 31.691-45.644 47.879-43.245z" fill="none"/></g></svg>