<svg viewBox="0 0 48 48" xmlns="http://www.w3.org/2000/svg"><path clip-rule="evenodd" d="m6 47v-27a4 4 0 0 1 4-4v-4a2 2 0 0 1 2-2h2v-8a1 1 0 1 1 2 0v8h2a2 2 0 0 1 2 2v4a4 4 0 0 1 4 4v8h7v-6h4v-3h6v3h1v25zm12-34a1 1 0 0 0 -1-1h-4a1 1 0 0 0 -1 1v3h6zm4 7a2 2 0 0 0 -2-2h-10a2 2 0 0 0 -2 2v25h14zm9 10h-7v15h7zm9-6h-7v21h7zm-4 3h1a1 1 0 0 1 1 1v1a1 1 0 0 1 -1 1h-1a1 1 0 0 1 -1-1v-1a1 1 0 0 1 1-1zm0 6h1a1 1 0 0 1 1 1v1a1 1 0 0 1 -1 1h-1a1 1 0 0 1 -1-1v-1a1 1 0 0 1 1-1zm0 6h1a1 1 0 0 1 1 1v1a1 1 0 0 1 -1 1h-1a1 1 0 0 1 -1-1v-1a1 1 0 0 1 1-1zm-9-6h1a1 1 0 0 1 1 1v1a1 1 0 0 1 -1 1h-1a1 1 0 0 1 -1-1v-1a1 1 0 0 1 1-1zm0 6h1a1 1 0 0 1 1 1v1a1 1 0 0 1 -1 1h-1a1 1 0 0 1 -1-1v-1a1 1 0 0 1 1-1zm-9 3h-1a1 1 0 0 1 -1-1v-1a1 1 0 0 1 1-1h1a1 1 0 0 1 1 1v1a1 1 0 0 1 -1 1zm0-6h-1a1 1 0 0 1 -1-1v-1a1 1 0 0 1 1-1h1a1 1 0 0 1 1 1v1a1 1 0 0 1 -1 1zm0-6h-1a1 1 0 0 1 -1-1v-1a1 1 0 0 1 1-1h1a1 1 0 0 1 1 1v1a1 1 0 0 1 -1 1zm0-6h-1a1 1 0 0 1 -1-1v-1a1 1 0 0 1 1-1h1a1 1 0 0 1 1 1v1a1 1 0 0 1 -1 1zm-5 18h-1a1 1 0 0 1 -1-1v-1a1 1 0 0 1 1-1h1a1 1 0 0 1 1 1v1a1 1 0 0 1 -1 1zm0-6h-1a1 1 0 0 1 -1-1v-1a1 1 0 0 1 1-1h1a1 1 0 0 1 1 1v1a1 1 0 0 1 -1 1zm0-6h-1a1 1 0 0 1 -1-1v-1a1 1 0 0 1 1-1h1a1 1 0 0 1 1 1v1a1 1 0 0 1 -1 1zm0-6h-1a1 1 0 0 1 -1-1v-1a1 1 0 0 1 1-1h1a1 1 0 0 1 1 1v1a1 1 0 0 1 -1 1z" fill-rule="evenodd"/></svg>