<svg height="48mm" viewBox="0 0 48 48" width="48mm" xmlns="http://www.w3.org/2000/svg"><g fill="none" transform="translate(0 -249)"><rect height="21.334726" ry=".246959" stroke="#000009" stroke-width="1.155138" width="13.185587" x="1.660618" y="263.00998"/><rect height="27.927393" ry=".323273" stroke="#000009" stroke-width="1.313649" width="13.027077" x="17.454111" y="259.49722"/><rect height="21.334726" ry=".246959" stroke="#000009" stroke-width="1.155138" width="13.185587" x="33.21283" y="263.01865"/><g stroke="#000" stroke-linecap="round" stroke-linejoin="round" stroke-width="1.057006"><path d="m3.7013752 270.56043c7.8779588.0395 9.1843548 0 9.1843548 0"/><path d="m3.7013752 273.83103c7.8779588.0395 9.1843548 0 9.1843548 0"/><path d="m3.7013752 277.51456c7.8779578.0395 9.1843538 0 9.1843538 0"/><path d="m19.649219 270.38291c7.877959.0395 9.184354 0 9.184354 0"/><path d="m19.649219 273.65352c7.877959.0395 9.184354 0 9.184354 0"/><path d="m19.649219 277.33704c7.877958.0395 9.184353 0 9.184353 0"/><path d="m35.540148 270.5948c7.877959.0395 9.184355 0 9.184355 0"/><path d="m35.540148 273.86541c7.877959.0395 9.184355 0 9.184355 0"/><path d="m35.540148 277.54893c7.877958.0395 9.184353 0 9.184353 0"/></g></g></svg>