<svg viewBox="0 0 256 256" xmlns="http://www.w3.org/2000/svg"><g fill="none"><path d="m0 0h256v256h-256z"/><g stroke="#000" stroke-linecap="round" stroke-linejoin="round" stroke-width="8"><path d="m224 177.3v-98.6a8.1 8.1 0 0 0 -4.1-7l-88-49.5a7.8 7.8 0 0 0 -7.8 0l-88 49.5a8.1 8.1 0 0 0 -4.1 7v98.6a8.1 8.1 0 0 0 4.1 7l88 49.5a7.8 7.8 0 0 0 7.8 0l88-49.5a8.1 8.1 0 0 0 4.1-7z"/><path d="m177 152.5v-52l-97-53.5"/><path d="m222.9 74.6-94 53.4-95.8-53.4"/><path d="m128.9 128-.9 106.8"/></g></g></svg>