<svg height="114.06055mm" viewBox="0 0 697.74116 404.15151" width="196.91806mm" xmlns="http://www.w3.org/2000/svg"><path d="m1559.4312 904.16099c-6.2252-5.50885-7.2993-9.66672-7.2993-28.25443 0-18.78254 1.2362-23.0676 8.1219-28.15435 3.4717-2.56457 18.1459-2.7175 261.1538-2.71974 247.3154 0 257.6198.10941 261.1305 2.83748 5.8101 4.51421 7.5754 11.03523 7.5754 27.98377 0 16.15468-1.3948 22.32795-6.2037 27.45647-2.8933 3.0854-4.8146 3.11113-261.9825 3.49644-255.3031.38244-259.1177.34402-262.4961-2.64564zm517.5948-15.92591c.7411-1.07385 1.2873-6.21654 1.2873-12.12226 0-5.90571-.5462-11.04853-1.2873-12.12226-.9702-1.40556-15.9005-1.86496-60.6101-1.86496h-59.3228v13.98722 13.98722h59.3228c44.7096 0 59.6399-.4594 60.6101-1.86496z" transform="translate(-1472.2521 -673.92805)"/></svg>