<svg height="32" viewBox="0 0 32 32" width="32" xmlns="http://www.w3.org/2000/svg"><path d="m19.4271164 20.4271164c-1.3898669.9903639-3.0904642 1.5728836-4.9271164 1.5728836-4.69442061 0-8.5-3.8055794-8.5-8.5 0-4.69442061 3.80557939-8.5 8.5-8.5 4.6944206 0 8.5 3.80557939 8.5 8.5 0 2.3472103-.9513948 4.4722103-2.4895923 6.0104077l5.9973659 5.9973659c.2750544.2750544.2683688.716084-.0077736.9922264-.2780676.2780676-.7203773.2796227-.9922264.0077736zm-4.9271164.5728836c4.1421358 0 7.5-3.3578642 7.5-7.5 0-4.14213583-3.3578642-7.5-7.5-7.5s-7.5 3.35786417-7.5 7.5c0 4.1421358 3.3578642 7.5 7.5 7.5z" fill-rule="evenodd"/></svg>