<svg viewBox="0 0 256 256" xmlns="http://www.w3.org/2000/svg"><g fill="none"><path d="m0 0h256v256h-256z"/><path d="m132.4 190.7 50.4 32c6.5 4.1 14.5-2 12.6-9.5l-14.6-57.4a8.7 8.7 0 0 1 2.9-8.8l45.2-37.7c5.9-4.9 2.9-14.8-4.8-15.3l-59-3.8a8.3 8.3 0 0 1 -7.3-5.4l-22-55.4a8.3 8.3 0 0 0 -15.6 0l-22 55.4a8.3 8.3 0 0 1 -7.3 5.4l-59 3.8c-7.7.5-10.7 10.4-4.8 15.3l45.2 37.7a8.7 8.7 0 0 1 2.9 8.8l-13.5 53.2c-2.3 9 7.3 16.3 15 11.4l46.9-29.7a8.2 8.2 0 0 1 8.8 0z" stroke="#000" stroke-linecap="round" stroke-linejoin="round" stroke-width="8"/></g></svg>