<svg enable-background="new 0 0 32 32" height="32" viewBox="0 0 32 32" width="32" xmlns="http://www.w3.org/2000/svg" xmlns:xlink="http://www.w3.org/1999/xlink"><linearGradient id="a"><stop offset="0" stop-color="#fff"/><stop offset=".2545" stop-color="#87d5f5"/><stop offset=".5818" stop-color="#00b8ee"/><stop offset="1" stop-color="#006ab5"/></linearGradient><linearGradient id="b" gradientTransform="matrix(1 0 -.2322 -1 141.462 -293.0303)" gradientUnits="userSpaceOnUse" x1="-195.5464" x2="-195.641" xlink:href="#a" y1="-299.8809" y2="-310.9539"/><radialGradient id="c" cx="1477.7998" cy="-2398.8911" gradientTransform="matrix(.0671 0 -.0269 -.0667 -137.9406 -142.2766)" gradientUnits="userSpaceOnUse" r="83.595" xlink:href="#a"/><linearGradient id="d" gradientTransform="matrix(1 0 -.2322 -1 141.462 -293.0303)" gradientUnits="userSpaceOnUse" x1="-201.3594" x2="-198.3356" xlink:href="#a" y1="-300.6104" y2="-309.2094"/><radialGradient id="e" cx="1212.126" cy="-2376.7202" gradientTransform="matrix(.0671 0 -.0269 -.0667 -137.9406 -142.2766)" gradientUnits="userSpaceOnUse" r="87.5044" xlink:href="#a"/><path d="m20.57 17.062c-.026.019-.041.028-.037.029.013-.009.026-.019.037-.029z" fill="#e6e7e8"/><path d="m11.432 19.229c.027-.019.041-.029.037-.029-.012.009-.026.018-.037.029z" fill="#e6e7e8"/><path d="m25.396 11.453c.352-.087.709-.155 1.067-.207-1.597-.996-3.315-1.449-4.833-.932-4.099 1.4-7.109 13.408-12.396 12.724.002.001.004.003.006.004 2.835 1.586 5.352.812 7-1.366 1.81-2.394 2.82-5.414 4.292-7.123-.057-.002 2.182-2.503 4.864-3.1z" fill="url(#b)"/><path d="m20.57 14.512c-.026.026-.041.041-.037.041.013-.014.026-.028.037-.041z" fill="#808080"/><path d="m31.802 18.23c-.144-.561-.358-1.136-.636-1.707-.938-1.938-2.566-3.848-4.387-5.074-.104-.07-.209-.139-.314-.203-.359.052-.714.128-1.066.207-2.685.597-4.924 3.098-4.864 3.1-.004 0 .01-.015.037-.041.567-.65 1.151-1.137 1.764-1.383.083-.034.166-.062.251-.088.133-.039.275-.057.428-.057.875-.002 2.025.617 3.082 1.541.985.865 1.889 1.994 2.408 3.136.578 1.267.641 2.524-.131 3.472-1.236 1.516-6.889-.945-7.364-1.158-.002.002-.002.002-.003.004.44.285 3.838 2.834 6.908 3.119.595.055 1.193.033 1.729-.119.47-.136.914-.356 1.297-.703 1.077-.971 1.27-2.448.861-4.046z" fill="url(#c)"/><path d="m6.605 20.547c-.353.088-.709.155-1.068.207 1.597.995 3.316 1.449 4.833.932 4.099-1.4 7.11-13.408 12.397-12.724-.004-.001-.004-.003-.007-.004-2.836-1.586-5.353-.812-7 1.366-1.81 2.394-2.819 5.414-4.293 7.121.06.004-2.178 2.504-4.862 3.102z" fill="url(#d)"/><path d="m11.432 17.486c.027-.024.041-.041.037-.041-.012.016-.026.03-.037.041z" fill="#808080"/><path d="m.201 13.77c.144.561.359 1.135.636 1.707.938 1.938 2.565 3.849 4.388 5.074.104.07.207.139.312.203.359-.052.714-.128 1.068-.207 2.684-.598 4.922-3.098 4.863-3.102.004 0-.01.017-.037.041-.566.65-1.151 1.139-1.763 1.385-.083.033-.167.062-.25.088-.133.038-.276.057-.427.057-.877.002-2.027-.615-3.083-1.541-.984-.864-1.887-1.995-2.408-3.135-.578-1.267-.686-2.547.086-3.492 1.237-1.516 6.946.971 7.32 1.137 0-.002.001-.004.002-.004-.272-.205-3.793-2.814-6.863-3.099-.595-.055-1.172-.023-1.707.13-.468.134-.902.362-1.285.707-1.078.97-1.261 2.452-.852 4.051z" fill="url(#e)"/></svg>