<?xml version="1.0" encoding="utf-8"?>
<!-- Generator: Adobe Illustrator 16.0.0, SVG Export Plug-In . SVG Version: 6.00 Build 0)  -->
<!DOCTYPE svg PUBLIC "-//W3C//DTD SVG 1.1//EN" "http://www.w3.org/Graphics/SVG/1.1/DTD/svg11.dtd">
<svg version="1.1" id="Layer_1" xmlns="http://www.w3.org/2000/svg" xmlns:xlink="http://www.w3.org/1999/xlink" x="0px" y="0px"
	 width="32px" height="32px" viewBox="0 0 32 32" enable-background="new 0 0 32 32" xml:space="preserve">
<g>
	<g id="logo">
		<path fill="#E6E7E8" d="M20.57,17.062c-0.026,0.019-0.041,0.028-0.037,0.029C20.546,17.082,20.559,17.072,20.57,17.062z"/>
		<path fill="#E6E7E8" d="M11.432,19.229c0.027-0.019,0.041-0.029,0.037-0.029C11.457,19.209,11.443,19.218,11.432,19.229z"/>
		
			<linearGradient id="SVGID_1_" gradientUnits="userSpaceOnUse" x1="-195.5464" y1="-299.8809" x2="-195.641" y2="-310.9539" gradientTransform="matrix(1 0 -0.2322 -1 141.462 -293.0303)">
			<stop  offset="0" style="stop-color:#FFFFFF"/>
			<stop  offset="0.2545" style="stop-color:#87D5F5"/>
			<stop  offset="0.5818" style="stop-color:#00B8EE"/>
			<stop  offset="1" style="stop-color:#006AB5"/>
		</linearGradient>
		<path fill="url(#SVGID_1_)" d="M25.396,11.453c0.352-0.087,0.709-0.155,1.067-0.207c-1.597-0.996-3.315-1.449-4.833-0.932
			c-4.099,1.4-7.109,13.408-12.396,12.724c0.002,0.001,0.004,0.003,0.006,0.004c2.835,1.586,5.352,0.812,7-1.366
			c1.81-2.394,2.82-5.414,4.292-7.123C20.475,14.551,22.714,12.05,25.396,11.453z"/>
		<path fill="#808080" d="M20.57,14.512c-0.026,0.026-0.041,0.041-0.037,0.041C20.546,14.539,20.559,14.525,20.57,14.512z"/>
		
			<radialGradient id="SVGID_2_" cx="1477.7998" cy="-2398.8911" r="83.595" gradientTransform="matrix(0.0671 0 -0.0269 -0.0667 -137.9406 -142.2766)" gradientUnits="userSpaceOnUse">
			<stop  offset="0" style="stop-color:#FFFFFF"/>
			<stop  offset="0.2545" style="stop-color:#87D5F5"/>
			<stop  offset="0.5818" style="stop-color:#00B8EE"/>
			<stop  offset="1" style="stop-color:#006AB5"/>
		</radialGradient>
		<path fill="url(#SVGID_2_)" d="M31.802,18.23c-0.144-0.561-0.358-1.136-0.636-1.707c-0.938-1.938-2.566-3.848-4.387-5.074
			c-0.104-0.07-0.209-0.139-0.314-0.203c-0.359,0.052-0.714,0.128-1.066,0.207c-2.685,0.597-4.924,3.098-4.864,3.1
			c-0.004,0,0.01-0.015,0.037-0.041c0.567-0.65,1.151-1.137,1.764-1.383c0.083-0.034,0.166-0.062,0.251-0.088
			c0.133-0.039,0.275-0.057,0.428-0.057c0.875-0.002,2.025,0.617,3.082,1.541c0.985,0.865,1.889,1.994,2.408,3.136
			c0.578,1.267,0.641,2.524-0.131,3.472c-1.236,1.516-6.889-0.945-7.364-1.158c-0.002,0.002-0.002,0.002-0.003,0.004
			c0.44,0.285,3.838,2.834,6.908,3.119c0.595,0.055,1.193,0.033,1.729-0.119c0.47-0.136,0.914-0.356,1.297-0.703
			C32.018,21.305,32.211,19.828,31.802,18.23z"/>
		
			<linearGradient id="SVGID_3_" gradientUnits="userSpaceOnUse" x1="-201.3594" y1="-300.6104" x2="-198.3356" y2="-309.2094" gradientTransform="matrix(1 0 -0.2322 -1 141.462 -293.0303)">
			<stop  offset="0" style="stop-color:#FFFFFF"/>
			<stop  offset="0.2545" style="stop-color:#87D5F5"/>
			<stop  offset="0.5818" style="stop-color:#00B8EE"/>
			<stop  offset="1" style="stop-color:#006AB5"/>
		</linearGradient>
		<path fill="url(#SVGID_3_)" d="M6.605,20.547c-0.353,0.088-0.709,0.155-1.068,0.207c1.597,0.995,3.316,1.449,4.833,0.932
			c4.099-1.4,7.11-13.408,12.397-12.724c-0.004-0.001-0.004-0.003-0.007-0.004c-2.836-1.586-5.353-0.812-7,1.366
			c-1.81,2.394-2.819,5.414-4.293,7.121C11.527,17.449,9.289,19.949,6.605,20.547z"/>
		<path fill="#808080" d="M11.432,17.486c0.027-0.024,0.041-0.041,0.037-0.041C11.457,17.461,11.443,17.475,11.432,17.486z"/>
		
			<radialGradient id="SVGID_4_" cx="1212.126" cy="-2376.7202" r="87.5044" gradientTransform="matrix(0.0671 0 -0.0269 -0.0667 -137.9406 -142.2766)" gradientUnits="userSpaceOnUse">
			<stop  offset="0" style="stop-color:#FFFFFF"/>
			<stop  offset="0.2545" style="stop-color:#87D5F5"/>
			<stop  offset="0.5818" style="stop-color:#00B8EE"/>
			<stop  offset="1" style="stop-color:#006AB5"/>
		</radialGradient>
		<path fill="url(#SVGID_4_)" d="M0.201,13.77c0.144,0.561,0.359,1.135,0.636,1.707c0.938,1.938,2.565,3.849,4.388,5.074
			c0.104,0.07,0.207,0.139,0.312,0.203c0.359-0.052,0.714-0.128,1.068-0.207c2.684-0.598,4.922-3.098,4.863-3.102
			c0.004,0-0.01,0.017-0.037,0.041c-0.566,0.65-1.151,1.139-1.763,1.385c-0.083,0.033-0.167,0.062-0.25,0.088
			c-0.133,0.038-0.276,0.057-0.427,0.057c-0.877,0.002-2.027-0.615-3.083-1.541C4.924,16.611,4.021,15.48,3.5,14.34
			c-0.578-1.267-0.686-2.547,0.086-3.492c1.237-1.516,6.946,0.971,7.32,1.137c0-0.002,0.001-0.004,0.002-0.004
			c-0.272-0.205-3.793-2.814-6.863-3.099C3.45,8.827,2.873,8.859,2.338,9.012C1.87,9.146,1.436,9.374,1.053,9.719
			C-0.025,10.689-0.208,12.171,0.201,13.77z"/>
	</g>
</g>
</svg>
