<?xml version="1.0" encoding="utf-8"?>
<!DOCTYPE svg PUBLIC "-//W3C//DTD SVG 1.1//EN" "http://www.w3.org/Graphics/SVG/1.1/DTD/svg11.dtd">
<svg version="1.1" id="Layer_1" xmlns="http://www.w3.org/2000/svg" x="0px" y="0px"
	 width="32px" height="32px" viewBox="224 134 32 32" enable-background="new 224 134 32 32" xml:space="preserve">
<g>
	<g id="logo">
		<path fill="#E6E7E8" d="M244.57,151.062c-0.026,0.019-0.041,0.029-0.037,0.03C244.546,151.082,244.559,151.072,244.57,151.062z"/>
		<path fill="#E6E7E8" d="M235.432,153.229c0.027-0.019,0.041-0.03,0.037-0.03C235.457,153.209,235.444,153.218,235.432,153.229z"/>
		
			<linearGradient id="SVGID_1_" gradientUnits="userSpaceOnUse" x1="449.5859" y1="767.8506" x2="449.4913" y2="778.9244" gradientTransform="matrix(1 0 0.2322 1 -388.3318 -627)">
			<stop  offset="0" style="stop-color:#FFFFFF"/>
			<stop  offset="0.2545" style="stop-color:#87D5F5"/>
			<stop  offset="0.5818" style="stop-color:#00B8EE"/>
			<stop  offset="1" style="stop-color:#006AB5"/>
		</linearGradient>
		<path fill="url(#SVGID_1_)" d="M249.397,145.453c0.351-0.087,0.708-0.155,1.067-0.207c-1.597-0.996-3.316-1.449-4.833-0.931
			c-4.099,1.4-7.109,13.407-12.397,12.723c0.002,0.001,0.004,0.003,0.006,0.004c2.835,1.586,5.352,0.812,7-1.366
			c1.81-2.394,2.82-5.414,4.292-7.123C244.475,148.551,246.714,146.05,249.397,145.453z"/>
		<path fill="#808080" d="M244.57,148.512c-0.026,0.026-0.041,0.041-0.037,0.041C244.546,148.539,244.559,148.526,244.57,148.512z"
			/>
		
			<radialGradient id="SVGID_2_" cx="464.1367" cy="802.5439" r="83.5975" gradientTransform="matrix(0.0671 0 0.0269 0.0667 197.0179 98.2001)" gradientUnits="userSpaceOnUse">
			<stop  offset="0" style="stop-color:#FFFFFF"/>
			<stop  offset="0.2545" style="stop-color:#87D5F5"/>
			<stop  offset="0.5818" style="stop-color:#00B8EE"/>
			<stop  offset="1" style="stop-color:#006AB5"/>
		</radialGradient>
		<path fill="url(#SVGID_2_)" d="M255.802,152.23c-0.144-0.56-0.359-1.135-0.636-1.707c-0.938-1.938-2.566-3.847-4.387-5.074
			c-0.104-0.07-0.209-0.138-0.314-0.203c-0.359,0.052-0.714,0.128-1.067,0.207c-2.684,0.597-4.923,3.098-4.864,3.1
			c-0.004,0,0.01-0.015,0.037-0.041c0.568-0.65,1.151-1.137,1.764-1.383c0.083-0.034,0.166-0.063,0.251-0.088
			c0.133-0.039,0.275-0.056,0.427-0.056c0.876-0.002,2.026,0.616,3.082,1.541c0.986,0.864,1.889,1.993,2.409,3.135
			c0.578,1.267,0.641,2.525-0.131,3.472c-1.237,1.515-6.889-0.945-7.364-1.159c-0.002,0.002-0.002,0.003-0.003,0.005
			c0.44,0.284,3.838,2.834,6.908,3.119c0.595,0.055,1.194,0.033,1.729-0.12c0.469-0.135,0.914-0.356,1.297-0.702
			C256.017,155.304,256.211,153.828,255.802,152.23z"/>
		
			<linearGradient id="SVGID_3_" gradientUnits="userSpaceOnUse" x1="443.7705" y1="768.5811" x2="446.7943" y2="777.1801" gradientTransform="matrix(1 0 0.2322 1 -388.3318 -627)">
			<stop  offset="0" style="stop-color:#FFFFFF"/>
			<stop  offset="0.2545" style="stop-color:#87D5F5"/>
			<stop  offset="0.5818" style="stop-color:#00B8EE"/>
			<stop  offset="1" style="stop-color:#006AB5"/>
		</linearGradient>
		<path fill="url(#SVGID_3_)" d="M230.605,154.547c-0.352,0.088-0.708,0.155-1.068,0.207c1.597,0.995,3.317,1.449,4.833,0.931
			c4.099-1.4,7.11-13.408,12.397-12.723c-0.003-0.001-0.004-0.003-0.006-0.004c-2.836-1.586-5.353-0.812-7,1.366
			c-1.81,2.394-2.82,5.414-4.293,7.122C235.528,151.449,233.289,153.949,230.605,154.547z"/>
		<path fill="#808080" d="M235.432,151.487c0.027-0.025,0.041-0.041,0.037-0.041C235.457,151.461,235.444,151.474,235.432,151.487z"
			/>
		
			<radialGradient id="SVGID_4_" cx="198.4688" cy="780.376" r="87.5053" gradientTransform="matrix(0.0671 0 0.0269 0.0667 197.0179 98.2001)" gradientUnits="userSpaceOnUse">
			<stop  offset="0" style="stop-color:#FFFFFF"/>
			<stop  offset="0.2545" style="stop-color:#87D5F5"/>
			<stop  offset="0.5818" style="stop-color:#00B8EE"/>
			<stop  offset="1" style="stop-color:#006AB5"/>
		</radialGradient>
		<path fill="url(#SVGID_4_)" d="M224.201,147.769c0.144,0.561,0.359,1.135,0.636,1.708c0.938,1.938,2.566,3.848,4.387,5.074
			c0.104,0.07,0.208,0.138,0.313,0.203c0.36-0.052,0.714-0.128,1.068-0.207c2.684-0.598,4.922-3.098,4.864-3.101
			c0.004,0-0.01,0.016-0.037,0.041c-0.567,0.65-1.152,1.138-1.763,1.384c-0.083,0.033-0.167,0.063-0.25,0.088
			c-0.133,0.038-0.276,0.056-0.427,0.056c-0.877,0.002-2.027-0.615-3.083-1.54c-0.985-0.863-1.888-1.994-2.409-3.135
			c-0.578-1.267-0.686-2.547,0.086-3.493c1.237-1.515,6.946,0.972,7.32,1.137c0-0.001,0.001-0.003,0.002-0.004
			c-0.272-0.205-3.793-2.814-6.863-3.098c-0.595-0.055-1.172-0.023-1.707,0.13c-0.468,0.135-0.903,0.362-1.285,0.707
			C223.975,144.69,223.792,146.171,224.201,147.769z"/>
	</g>
</g>
</svg>
