<svg enable-background="new 0 0 128 128" height="128" viewBox="0 0 128 128" width="128" xmlns="http://www.w3.org/2000/svg"><g fill="#fff" opacity=".7"><path d="m0 117h59.338v11h-59.338z"/><path d="m67.338 117h60.662v11h-60.662z"/><path d="m0 104h128v6h-128z"/><path d="m0 91h128v6h-128z"/><path d="m0 78h128v6h-128z"/></g><path d="m.002 62.245c0 3.262 2.361 5.94 5.247 5.94h57.69c2.883 0 5.247-2.679 5.247-5.94v-56.301c0-3.27-2.361-5.944-5.247-5.944h-57.69c-2.883 0-5.249 2.674-5.249 5.944z" fill="#ff931e"/><path d="m60.459 23.057 5.43 6.148v25.769c0 7.321-4.138 9.831-9.192 9.831h-14.183-16.177-14.184c-5.059 0-9.2-2.511-9.2-9.831v-5.845l16.083-16.738c2.979-3.099 4.876-4.25 6.363-4.217 1.533-.042 3.534 1.223 6.661 4.233l18.949 19.72c.277.285.621.428.971.428.39 0 .777-.179 1.066-.532.538-.657.499-1.698-.091-2.309l-12.474-12.98 12.096-13.71c1.955-2.219 3.141-2.914 3.84-2.875.715-.051 1.987.738 4.042 2.908z" fill="#f4f4f4"/><path d="m27.232 17.718c0-4.926 3.52-8.917 7.87-8.917 4.339 0 7.863 3.992 7.863 8.917 0 4.916-3.525 8.917-7.863 8.917-4.35.001-7.87-4.001-7.87-8.917z" fill="#f4f1f0"/><g fill="#fff" opacity=".7"><path d="m78.048 65h49.952v6h-49.952z"/><path d="m78.048 52h49.952v6h-49.952z"/><path d="m78.048 39h49.952v6h-49.952z"/><path d="m78.048 26h49.952v6h-49.952z"/><path d="m78.048 13h49.952v6h-49.952z"/><path d="m78.048 0h49.952v6h-49.952z"/></g></svg>