<svg enable-background="new 0 0 50 50" viewBox="0 0 50 50" xmlns="http://www.w3.org/2000/svg"><path d="m41.941 12.909-6 1.161c-.47.091-.81.502-.81.981v4.037h-23c-.371 0-.712.206-.885.534s-.149.726.061 1.031l5.528 8.055c.187.272.495.435.824.435h16.284l.006 2.219h-13.817c-.016 0-.029.008-.045.009-.03-.001-.057-.009-.087-.009-1.755 0-3.183 1.464-3.183 3.264s1.428 3.265 3.183 3.265c1.754 0 3.182-1.465 3.182-3.265 0-.448-.089-.875-.249-1.264h8.221c-.16.389-.249.816-.249 1.264 0 1.8 1.428 3.265 3.182 3.265s3.182-1.465 3.182-3.265c0-1.083-.523-2.038-1.317-2.632l-.007-2.85h.188c.553 0 1-.447 1-1v-8.055c0-.028-.014-.051-.016-.079.002-.027.016-.051.016-.079v-4.055l5.19-1.005c.542-.104.896-.629.791-1.172-.105-.541-.627-.9-1.173-.79zm-21.941 22.982c-.652 0-1.183-.567-1.183-1.265s.53-1.264 1.183-1.264c.651 0 1.182.566 1.182 1.264s-.531 1.265-1.182 1.265zm14.087 0c-.651 0-1.182-.567-1.182-1.265s.53-1.264 1.182-1.264 1.182.566 1.182 1.264-.531 1.265-1.182 1.265zm-20.056-14.802h21.101v6.055h-16.945z"/></svg>