<svg enable-background="new 0 0 50 50" viewBox="0 0 50 50" xmlns="http://www.w3.org/2000/svg"><path d="m41.798 33.763v-18c0-.513-.39-.919-.887-.977-.009-.002-.017-.004-.025-.005-.03-.003-.057-.018-.088-.018h-30c-.032 0-.06.015-.091.018-.065.006-.126.019-.189.038-.065.019-.125.041-.183.072-.053.028-.1.062-.147.099-.056.044-.105.09-.151.145-.019.023-.045.035-.062.06-.019.027-.022.06-.038.088-.034.06-.059.12-.08.187-.02.065-.033.129-.039.196-.003.033-.019.062-.019.096v18c0 .553.447 1 1 1h30c.552.001.999-.447.999-.999zm-4.296-17-11.745 8.092-11.745-8.092zm-25.704 16v-15.097l13.392 9.227c.171.118.369.177.567.177s.396-.059.567-.177l13.474-9.283v15.153z"/></svg>