<svg enable-background="new 0 0 128 128" height="128" viewBox="0 0 128 128" width="128" xmlns="http://www.w3.org/2000/svg"><path d="m124 32h-88c-2.208 0-4 1.792-4 4v20h-12c-11.044 0-20 8.956-20 20v8c0 11.044 8.956 20 20 20h12v8h.404c1.852 9.128 9.92 16 19.596 16h56c11.044 0 20-8.956 20-20v-72c0-2.208-1.792-4-4-4zm-92 64h-12c-6.628 0-12-5.372-12-12v-8c0-6.628 5.372-12 12-12h12zm88 12c0 6.628-5.372 12-12 12h-56c-6.628 0-12-5.372-12-12v-68h80zm-60-108h-8v24h8zm24 0h-8v24h8zm24 0h-8v24h8z" fill="#308af4"/></svg>