<?xml version="1.0" encoding="utf-8"?>
<!DOCTYPE svg PUBLIC "-//W3C//DTD SVG 1.1//EN" "http://www.w3.org/Graphics/SVG/1.1/DTD/svg11.dtd">
<svg version="1.1" id="Layer_1" xmlns="http://www.w3.org/2000/svg" xmlns:xlink="http://www.w3.org/1999/xlink" x="0px" y="0px"
	 width="128px" height="128px" viewBox="0 0 128 128" enable-background="new 0 0 128 128" xml:space="preserve">
<g>
	<path fill="#308AF4" d="M124.987,38.836L67.56,14.78c-1.298-0.567-2.704-0.671-3.636-0.671c-0.936,0-2.339,0.104-3.638,0.671
		L2.858,38.836C1.039,39.559,0,40.951,0,42.552s1.039,2.994,2.858,3.717l20.476,8.569v24.107c0,0.771,0.312,1.496,0.883,2.062
		c0.571,0.565,1.299,0.877,2.078,0.877c0.208,0,19.645,0.207,36.588,17.347c0.572,0.566,1.3,0.879,2.077,0.879
		c0.104,0,0.157,0,0.261,0c0.884-0.054,1.662-0.519,2.184-1.238c0.222-0.295,13.15-21.801,41.471-22.715
		c1.612-0.051,2.859-1.34,2.859-2.941v-21.32l13.408-5.575c1.768-0.723,2.857-2.116,2.857-3.717
		C127.847,40.951,126.807,39.559,124.987,38.836z M103.693,69.426c-10.81,0.932-18.442,3.318-27.954,10.751
		c-4.678,3.666-9.114,8.278-11.09,10.603C50.513,77.771,38.462,75.828,32.226,75.21V58.314l28.059,12.008
		c1.3,0.566,2.702,0.672,3.638,0.672c0.935,0,2.339-0.104,3.637-0.672L104.7,55.373v13.053L103.693,69.426z M64.268,61.903
		c0.798,0.104,0.279,0.205-0.344,0.205s-1.144-0.104-1.351-0.205L12.115,42.552l50.458-20.353c0.207-0.103,0.728-0.207,1.351-0.207
		s1.142,0.104,1.351,0.207l49.448,20.353L64.268,61.903z"/>
	<polygon fill="#4C9C8D" points="60.805,36.306 89.337,59.482 90.167,113.891 95.572,97.371 101.446,103.824 101.393,53.856 	"/>
</g>
</svg>
