<svg enable-background="new 0 0 128 128" height="128" viewBox="0 0 128 128" width="128" xmlns="http://www.w3.org/2000/svg"><path d="m124.987 38.836-57.427-24.056c-1.298-.567-2.704-.671-3.636-.671-.936 0-2.339.104-3.638.671l-57.428 24.056c-1.819.723-2.858 2.115-2.858 3.716s1.039 2.994 2.858 3.717l20.476 8.569v24.107c0 .771.312 1.496.883 2.062.571.565 1.299.877 2.078.877.208 0 19.645.207 36.588 17.347.572.566 1.3.879 2.077.879h.261c.884-.054 1.662-.519 2.184-1.238.222-.295 13.15-21.801 41.471-22.715 1.612-.051 2.859-1.34 2.859-2.941v-21.32l13.408-5.575c1.768-.723 2.857-2.116 2.857-3.717-.153-1.653-1.193-3.045-3.013-3.768zm-21.294 30.59c-10.81.932-18.442 3.318-27.954 10.751-4.678 3.666-9.114 8.278-11.09 10.603-14.136-13.009-26.187-14.952-32.423-15.57v-16.896l28.059 12.008c1.3.566 2.702.672 3.638.672.935 0 2.339-.104 3.637-.672l37.14-14.949v13.053zm-39.425-7.523c.798.104.279.205-.344.205s-1.144-.104-1.351-.205l-50.458-19.351 50.458-20.353c.207-.103.728-.207 1.351-.207s1.142.104 1.351.207l49.448 20.353z" fill="#308af4"/><path d="m60.805 36.306 28.532 23.176.83 54.409 5.405-16.52 5.874 6.453-.053-49.968z" fill="#4c9c8d"/></svg>