<svg enable-background="new 0 0 128 128" height="128" viewBox="0 0 128 128" width="128" xmlns="http://www.w3.org/2000/svg"><path d="m125.648 117.434c1.567-1.561 2.353-3.432 2.353-5.608v-95.647c0-2.177-.785-4.048-2.353-5.608-1.569-1.562-3.445-2.344-5.633-2.344h-112.028c-2.188 0-4.067.781-5.635 2.344-1.569 1.559-2.352 3.43-2.352 5.608v95.646c0 2.178.783 4.049 2.351 5.608 1.569 1.562 3.447 2.342 5.635 2.342h112.03c2.186 0 4.063-.78 5.632-2.341zm-117.662-5.61v-71.68h112.028v71.68zm0-95.644h112.028v15.904h-112.028zm32.164 11.983c1.094 0 2.025-.399 2.789-1.199.765-.798 1.148-1.743 1.148-2.831 0-1.09-.382-2.016-1.148-2.777-.766-.764-1.696-1.146-2.79-1.146h-.109c-1.094 0-2.024.382-2.79 1.146-.765.761-1.148 1.688-1.148 2.777 0 1.088.401 2.033 1.203 2.831.803.8 1.751 1.199 2.845 1.199zm-12.034 0c1.094 0 2.042-.399 2.845-1.199.802-.798 1.203-1.743 1.203-2.831 0-1.09-.401-2.016-1.203-2.777-.803-.764-1.751-1.146-2.845-1.146s-2.042.382-2.845 1.146c-.802.761-1.203 1.688-1.203 2.777 0 1.088.401 2.033 1.203 2.831.803.8 1.751 1.199 2.845 1.199zm-12.034 0c1.167 0 2.134-.399 2.899-1.199.765-.798 1.148-1.743 1.148-2.831 0-1.09-.382-2.016-1.148-2.777-.765-.764-1.732-1.146-2.899-1.146-1.094 0-2.024.382-2.79 1.146-.765.761-1.148 1.688-1.148 2.777 0 1.088.382 2.033 1.148 2.831.766.8 1.696 1.199 2.79 1.199zm90.748 50.599c.766-.762 1.148-1.688 1.148-2.777 0-1.088-.381-2.032-1.148-2.832-.766-.801-1.695-1.197-2.79-1.197h-32.056c-1.092 0-2.021.396-2.789 1.197-.764.8-1.146 1.742-1.146 2.832 0 1.091.381 2.016 1.146 2.777.768.764 1.697 1.146 2.789 1.146h32.056c1.095-.002 2.024-.383 2.79-1.146zm0-15.905c.766-.763 1.148-1.725 1.148-2.887 0-1.09-.381-2.015-1.148-2.777-.766-.764-1.695-1.146-2.79-1.146h-32.056c-1.092 0-2.021.382-2.789 1.146-.764.762-1.146 1.688-1.146 2.777 0 1.162.381 2.124 1.146 2.887.768.763 1.697 1.145 2.789 1.145h32.056c1.095 0 2.024-.382 2.79-1.145zm-50.816 36.985c1.093 0 2.043-.382 2.844-1.145.803-.762 1.204-1.688 1.204-2.777v-39.871c0-1.088-.401-2.033-1.204-2.831-.801-.799-1.75-1.198-2.844-1.198h-32.055c-1.094 0-2.024.399-2.79 1.198-.765.798-1.148 1.743-1.148 2.831v39.871c0 1.089.382 2.016 1.148 2.777.766.763 1.696 1.145 2.79 1.145zm-4.048-7.953h-23.959v-31.916h23.959zm20.018-4.032c-1.092 0-2.021.399-2.789 1.199-.764.799-1.146 1.741-1.146 2.83 0 1.092.381 2.034 1.146 2.834.768.799 1.697 1.197 2.789 1.197h16.082c1.096 0 2.023-.398 2.791-1.197.766-.8 1.147-1.742 1.147-2.834 0-1.089-.382-2.031-1.147-2.83-.768-.801-1.695-1.199-2.791-1.199z" fill="#308af4"/></svg>