<?xml version="1.0" encoding="utf-8"?>

<!DOCTYPE svg PUBLIC "-//W3C//DTD SVG 1.1//EN" "http://www.w3.org/Graphics/SVG/1.1/DTD/svg11.dtd">
<svg version="1.1" id="Layer_1" xmlns="http://www.w3.org/2000/svg" x="0px" y="0px"
	 width="128px" height="128px" viewBox="0 0 128 128" enable-background="new 0 0 128 128" xml:space="preserve">
<path id="uniE908" fill="#308AF4" d="M117.537,74.999c1.514,0,2.796-0.521,3.847-1.562c1.052-1.042,1.577-2.27,1.577-3.688V21
	c0-0.167-0.021-0.313-0.063-0.438c-0.042-0.125-0.062-0.229-0.062-0.312c-0.42-3.5-2.418-6.521-5.991-9.062
	s-8.135-4.646-13.684-6.312c-5.549-1.667-11.75-2.896-18.603-3.688C77.705,0.396,70.832,0,63.938,0
	c-6.896,0-13.769,0.396-20.621,1.188c-6.853,0.791-13.032,2.021-18.539,3.688c-5.508,1.667-10.069,3.771-13.685,6.312
	S5.502,16.75,5.166,20.25c0,0.083-0.021,0.188-0.063,0.312C5.061,20.687,5.039,20.833,5.039,21v80.75
	c0,0.083,0.021,0.188,0.063,0.312c0.042,0.126,0.063,0.23,0.063,0.313c0.336,3.5,2.29,6.521,5.864,9.063
	c3.573,2.54,8.135,4.645,13.684,6.312c5.549,1.666,11.75,2.896,18.603,3.688s13.726,1.188,20.621,1.188
	c1.513,0,2.796-0.521,3.846-1.562c1.052-1.043,1.577-2.271,1.577-3.688c0-1.5-0.525-2.771-1.577-3.813
	c-1.05-1.041-2.333-1.562-3.846-1.562c-7.82,0-14.693-0.416-20.621-1.25c-5.928-0.833-10.889-1.833-14.882-2.999
	c-3.994-1.167-7.062-2.355-9.207-3.563c-2.144-1.208-3.3-2.188-3.468-2.937V87.625c2.858,1.417,6.116,2.646,9.774,3.688
	c3.657,1.043,7.587,1.918,11.792,2.627c4.204,0.706,8.575,1.228,13.116,1.56c4.54,0.335,9.038,0.502,13.495,0.502
	c1.513,0,2.796-0.522,3.846-1.562c1.052-1.043,1.577-2.313,1.577-3.813c0-1.417-0.525-2.646-1.577-3.688
	c-1.05-1.042-2.333-1.562-3.846-1.562c-7.82,0-14.693-0.416-20.621-1.25c-5.928-0.833-10.889-1.834-14.882-2.999
	c-3.994-1.167-7.062-2.355-9.207-3.563c-2.144-1.208-3.3-2.188-3.468-2.937V61c2.858,1.417,6.116,2.646,9.774,3.687
	c3.657,1.042,7.587,1.918,11.792,2.625c4.204,0.708,8.575,1.229,13.116,1.563c4.54,0.333,9.038,0.5,13.495,0.5
	c4.624,0,9.228-0.188,13.81-0.563c4.582-0.376,8.976-0.916,13.18-1.624c4.203-0.709,8.177-1.605,11.918-2.688s7.041-2.375,9.9-3.875
	v8.751c0,1.417,0.441,2.708,1.324,3.875C114.952,74.417,116.108,74.999,117.537,74.999L117.537,74.999z M63.938,10.625
	c7.819,0,14.713,0.417,20.684,1.25c5.969,0.833,10.951,1.833,14.944,3c3.994,1.167,7.042,2.354,9.144,3.562
	c2.103,1.208,3.279,2.146,3.531,2.812c-0.252,0.75-1.429,1.73-3.531,2.938c-2.102,1.208-5.171,2.396-9.206,3.562
	c-4.036,1.167-9.018,2.167-14.945,3C78.631,31.583,71.757,32,63.938,32c-7.82,0-14.693-0.417-20.621-1.25
	c-5.928-0.833-10.909-1.833-14.945-3c-4.035-1.167-7.104-2.333-9.206-3.5c-2.103-1.166-3.237-2.125-3.405-2.875l0,0
	c0.168-0.75,1.303-1.729,3.405-2.938c2.102-1.208,5.171-2.375,9.206-3.5c4.036-1.125,9.018-2.125,14.945-3
	S56.117,10.625,63.938,10.625L63.938,10.625z M112.745,34v11.75c-0.168,0.333-0.294,0.688-0.379,1.062
	c-0.084,0.375-0.126,0.729-0.126,1.062c-0.252,0.75-1.429,1.729-3.531,2.938c-2.102,1.208-5.171,2.396-9.206,3.562
	c-4.036,1.167-9.018,2.167-14.945,3c-5.927,0.833-12.801,1.25-20.62,1.25c-7.82,0-14.693-0.417-20.621-1.25
	s-10.889-1.812-14.882-2.938c-3.994-1.125-7.062-2.292-9.207-3.5c-2.144-1.208-3.3-2.188-3.468-2.938V34.25
	c2.858,1.417,6.116,2.667,9.774,3.75c3.657,1.083,7.587,1.958,11.792,2.625c4.204,0.667,8.575,1.167,13.116,1.5
	c4.54,0.333,9.038,0.5,13.495,0.5c4.624,0,9.228-0.167,13.81-0.5c4.582-0.334,8.976-0.855,13.18-1.563
	c4.203-0.708,8.177-1.604,11.918-2.688S109.886,35.5,112.745,34L112.745,34z M81.594,86.875c-1.009,1.083-1.513,2.354-1.513,3.812
	c0,1.459,0.504,2.688,1.513,3.688l12.233,12.25l-12.233,12.251c-1.009,1.082-1.513,2.353-1.513,3.812
	c0,1.458,0.504,2.688,1.513,3.688c0.505,0.582,1.093,0.998,1.766,1.25c0.673,0.25,1.345,0.374,2.019,0.374
	c0.672,0,1.345-0.124,2.018-0.374c0.673-0.252,1.261-0.668,1.765-1.25l12.234-12.126l12.359,12.126
	c0.505,0.582,1.094,0.998,1.766,1.25c0.673,0.25,1.346,0.374,2.018,0.374c0.673,0,1.346-0.124,2.019-0.374
	c0.672-0.252,1.262-0.668,1.766-1.25c1.009-1.001,1.514-2.23,1.514-3.688c0-1.459-0.505-2.729-1.514-3.812l-12.233-12.251
	l12.233-12.25c1.009-0.999,1.514-2.229,1.514-3.688c0-1.458-0.505-2.729-1.514-3.812c-1.009-1-2.271-1.5-3.784-1.5
	c-1.513,0-2.774,0.5-3.783,1.5l-12.359,12.25L89.16,86.875c-1.008-1-2.269-1.5-3.782-1.5S82.603,85.875,81.594,86.875L81.594,86.875
	z"/>
</svg>
