<svg enable-background="new 0 0 128 128" height="128" viewBox="0 0 128 128" width="128" xmlns="http://www.w3.org/2000/svg"><g fill="#308af4"><path d="m52.034 32c10.507 0 20.267-.969 28.444-2.613 1.859-.646 3.773-1.083 5.723-1.345 10.928-2.936 17.865-7.237 17.865-12.04 0-8.832-23.293-16.002-52.032-16.002s-52.034 7.17-52.034 16.002c.001 8.825 23.295 15.998 52.034 15.998z"/><path d="m51.337 63.986v-8.165h7.964c.973-6.215 3.479-11.882 7.244-16.52-7.141.632-12.769.7-14.511.7-4.675 0-37.176-.44-52.034-11.192v19.189c.001 8.755 22.92 15.875 51.337 15.988z"/><path d="m52.034 95.998c10.518 0 20.294-.969 28.478-2.617-6.107-2.131-11.574-6.201-15.479-11.828-2.07-2.986-3.604-6.279-4.638-9.812-4.108.225-7.158.258-8.361.258-4.675 0-37.176-.438-52.034-11.186v19.186c.001 8.825 23.295 15.999 52.034 15.999z"/><path d="m102.951 93.523c-15.297 10.027-46.354 10.475-50.917 10.475-4.675 0-37.176-.436-52.034-11.188v19.182c0 8.83 23.294 16.008 52.034 16.008 28.739 0 52.032-7.178 52.032-16.008v-14.666l-.029-.043c-.781-1.123-1.121-2.455-1.086-3.76z"/></g><g fill="#4c9c8d" transform="translate(218 118)"><path d="m-90.26-11.691-12.502-18.021c-.439-.623-1.254-.754-1.834-.287l-1.488 1.201-1.043-1.498-1.289-1.861.615-.494c.396-.324.48-.934.186-1.357l-1.332-1.926c9.449-10.029 10.811-26.263 2.652-38.028-8.92-12.847-25.832-15.48-37.764-5.885-6.09 4.89-9.689 12.02-10.604 19.533h5.336c.877-5.774 3.725-11.199 8.428-14.979 4.801-3.854 10.6-5.26 16.094-4.406 5.5.858 10.686 3.979 14.279 9.145 3.578 5.166 4.877 11.401 4.086 17.32-.797 5.916-3.695 11.5-8.494 15.359-4.801 3.857-10.596 5.258-16.092 4.4-5.5-.855-10.688-3.969-14.273-9.135-1.85-2.664-3.078-5.613-3.742-8.656h-5.371c.729 4.236 2.322 8.369 4.879 12.057 8.312 11.982 23.574 15.076 35.271 7.664l1.186 1.709.1.133c.293.432.857.521 1.258.199l.621-.494 1.172 1.688 1.156 1.668-1.492 1.205c-.572.465-.697 1.338-.264 1.961l12.505 18.025c.422.613 1.246.734 1.822.283l5.672-4.568c.581-.463.696-1.338.266-1.955z"/><path d="m-116.9-70.149c-.254-.676-.848-1.114-1.562-1.114-.686.017-1.299.492-1.521 1.185l-4.711 14.287-2.34-5.426c-.266-.622-.85-1.022-1.555-1.022-.662.034-1.236.478-1.465 1.137l-3.957 11.155-1.611-6.318c-.207-.762-.854-1.298-1.598-1.298h-25.156v3.539h23.906l2.621 10.236c.195.74.795 1.252 1.334 1.268l.244.025c.688 0 1.301-.461 1.537-1.137l4.363-12.293 2.395 5.559c.275.619.855 1.023 1.572 1.023.666-.041 1.242-.502 1.469-1.178l4.594-13.93 5.457 14.844 1.646-.34v-4.631z"/></g></svg>