<?xml version="1.0" encoding="utf-8"?>
<!DOCTYPE svg PUBLIC "-//W3C//DTD SVG 1.1//EN" "http://www.w3.org/Graphics/SVG/1.1/DTD/svg11.dtd">
<svg version="1.1" id="Layer_1" xmlns="http://www.w3.org/2000/svg" xmlns:xlink="http://www.w3.org/1999/xlink" x="0px" y="0px"
	 width="128px" height="128px" viewBox="0 0 128 128" enable-background="new 0 0 128 128" xml:space="preserve">
<g>
	<g id="Group">
		<path id="Shape" fill="#308AF4" d="M52.034,32c10.507,0,20.267-0.969,28.444-2.613c1.859-0.646,3.773-1.083,5.723-1.345
			c10.928-2.936,17.865-7.237,17.865-12.04C104.066,7.17,80.773,0,52.034,0S0,7.17,0,16.002C0.001,24.827,23.295,32,52.034,32
			L52.034,32z"/>
		<path id="Shape_1_" fill="#308AF4" d="M51.337,63.986v-8.165h7.964c0.973-6.215,3.479-11.882,7.244-16.52
			c-7.141,0.632-12.769,0.7-14.511,0.7c-4.675,0-37.176-0.44-52.034-11.192v19.189C0.001,56.753,22.92,63.873,51.337,63.986
			L51.337,63.986z"/>
		<path id="Shape_2_" fill="#308AF4" d="M52.034,95.998c10.518,0,20.294-0.969,28.478-2.617
			c-6.107-2.131-11.574-6.201-15.479-11.828c-2.07-2.986-3.604-6.279-4.638-9.812c-4.108,0.225-7.158,0.258-8.361,0.258
			c-4.675,0-37.176-0.438-52.034-11.186v19.186C0.001,88.824,23.295,95.998,52.034,95.998L52.034,95.998z"/>
		<path id="Shape_3_" fill="#308AF4" d="M102.951,93.523c-15.297,10.027-46.354,10.475-50.917,10.475
			c-4.675,0-37.176-0.436-52.034-11.188v19.182C0,120.822,23.294,128,52.034,128c28.739,0,52.032-7.178,52.032-16.008V97.326
			l-0.029-0.043C103.256,96.16,102.916,94.828,102.951,93.523L102.951,93.523z"/>
	</g>
	<g id="_x33_0_2_" transform="translate(218.000000, 118.000000)">
		<path id="Shape_4_" fill="#4C9C8D" d="M-90.26-11.691l-12.502-18.021c-0.439-0.623-1.254-0.754-1.834-0.287l-1.488,1.201
			l-1.043-1.498l-1.289-1.861l0.615-0.494c0.396-0.324,0.48-0.934,0.186-1.357l-1.332-1.926
			c9.449-10.029,10.811-26.263,2.652-38.028c-8.92-12.847-25.832-15.48-37.764-5.885c-6.09,4.89-9.689,12.02-10.604,19.533h5.336
			c0.877-5.774,3.725-11.199,8.428-14.979c4.801-3.854,10.6-5.26,16.094-4.406c5.5,0.858,10.686,3.979,14.279,9.145
			c3.578,5.166,4.877,11.401,4.086,17.32c-0.797,5.916-3.695,11.5-8.494,15.359c-4.801,3.857-10.596,5.258-16.092,4.4
			c-5.5-0.855-10.688-3.969-14.273-9.135c-1.85-2.664-3.078-5.613-3.742-8.656h-5.371c0.729,4.236,2.322,8.369,4.879,12.057
			c8.312,11.982,23.574,15.076,35.271,7.664l1.186,1.709l0.1,0.133c0.293,0.432,0.857,0.521,1.258,0.199l0.621-0.494l1.172,1.688
			l1.156,1.668l-1.492,1.205c-0.572,0.465-0.697,1.338-0.264,1.961L-98.02-5.451c0.422,0.613,1.246,0.734,1.822,0.283l5.672-4.568
			C-89.945-10.199-89.83-11.074-90.26-11.691L-90.26-11.691z"/>
		<path id="Shape_5_" fill="#4C9C8D" d="M-116.9-70.149c-0.254-0.676-0.848-1.114-1.562-1.114c-0.686,0.017-1.299,0.492-1.521,1.185
			l-4.711,14.287l-2.34-5.426c-0.266-0.622-0.85-1.022-1.555-1.022l0,0c-0.662,0.034-1.236,0.478-1.465,1.137l-3.957,11.155
			l-1.611-6.318c-0.207-0.762-0.854-1.298-1.598-1.298h-25.156v3.539h23.906l2.621,10.236c0.195,0.74,0.795,1.252,1.334,1.268
			l0.244,0.025c0.688,0,1.301-0.461,1.537-1.137l4.363-12.293l2.395,5.559c0.275,0.619,0.855,1.023,1.572,1.023l0,0
			c0.666-0.041,1.242-0.502,1.469-1.178l4.594-13.93l5.457,14.844l1.646-0.34v-4.631L-116.9-70.149L-116.9-70.149z"/>
	</g>
</g>
</svg>
