<svg enable-background="new 0 0 128 128" height="128" viewBox="0 0 128 128" width="128" xmlns="http://www.w3.org/2000/svg"><path d="m126.434 105.066c1.027-1.055 1.541-2.305 1.541-3.748s-.514-2.693-1.541-3.748-2.291-1.584-3.791-1.584h-111.955v-69.304c0-1.444-.513-2.693-1.541-3.748-1.027-1.056-2.291-1.583-3.79-1.583s-2.763.527-3.79 1.583c-1.028 1.055-1.541 2.304-1.541 3.748v74.636c0 1.443.513 2.693 1.541 3.748 1.027 1.055 2.291 1.582 3.79 1.582h117.286c1.5 0 2.763-.527 3.791-1.582zm-14.704-63.393c-.277-1.056-.805-1.93-1.582-2.624-.777-.695-1.777-1.042-3-1.042h-15.992c-1.445 0-2.693.527-3.75 1.583-1.055 1.055-1.582 2.304-1.582 3.748s.527 2.693 1.582 3.749c1.057 1.055 2.305 1.583 3.75 1.583h1.082l-22.656 19.408-12.496-12.495c-.944-.999-2.096-1.526-3.457-1.583-1.36-.056-2.568.334-3.624 1.167l-26.655 21.325c-1.166.943-1.833 2.139-1.999 3.58-.167 1.445.222 2.75 1.166 3.918.944 1.164 2.138 1.83 3.582 1.998 1.444.166 2.749-.223 3.915-1.166l22.908-18.326 12.661 12.578c.945.998 2.125 1.527 3.541 1.582 1.416.057 2.652-.359 3.707-1.25l28.987-24.906v4.831c0 1.444.527 2.693 1.582 3.749s2.305 1.582 3.748 1.582c1.5 0 2.68-.526 3.541-1.582s1.291-2.305 1.291-3.749v-15.993c0-.222-.027-.444-.084-.666l-.166-.667v-.167z" fill="#308af4"/></svg>