<?xml version="1.0" encoding="utf-8"?>

<!DOCTYPE svg PUBLIC "-//W3C//DTD SVG 1.1//EN" "http://www.w3.org/Graphics/SVG/1.1/DTD/svg11.dtd">
<svg version="1.1" id="Layer_1" xmlns="http://www.w3.org/2000/svg" x="0px" y="0px"
	 width="128px" height="128px" viewBox="0 0 128 128" enable-background="new 0 0 128 128" xml:space="preserve">
<path id="uniE923" fill="#308AF4" d="M126.434,105.066c1.027-1.055,1.541-2.305,1.541-3.748s-0.514-2.693-1.541-3.748
	s-2.291-1.584-3.791-1.584H10.688V26.682c0-1.444-0.513-2.693-1.541-3.748c-1.027-1.056-2.291-1.583-3.79-1.583
	s-2.763,0.527-3.79,1.583c-1.028,1.055-1.541,2.304-1.541,3.748v74.636c0,1.443,0.513,2.693,1.541,3.748
	c1.027,1.055,2.291,1.582,3.79,1.582h117.286C124.143,106.648,125.406,106.121,126.434,105.066z M111.73,41.673
	c-0.277-1.056-0.805-1.93-1.582-2.624c-0.777-0.695-1.777-1.042-3-1.042H91.156c-1.445,0-2.693,0.527-3.75,1.583
	c-1.055,1.055-1.582,2.304-1.582,3.748s0.527,2.693,1.582,3.749c1.057,1.055,2.305,1.583,3.75,1.583h1.082L69.582,68.078
	L57.086,55.583c-0.944-0.999-2.096-1.526-3.457-1.583c-1.36-0.056-2.568,0.334-3.624,1.167L23.35,76.492
	c-1.166,0.943-1.833,2.139-1.999,3.58c-0.167,1.445,0.222,2.75,1.166,3.918c0.944,1.164,2.138,1.83,3.582,1.998
	c1.444,0.166,2.749-0.223,3.915-1.166l22.908-18.326l12.661,12.578c0.945,0.998,2.125,1.527,3.541,1.582
	c1.416,0.057,2.652-0.359,3.707-1.25L101.818,54.5v4.831c0,1.444,0.527,2.693,1.582,3.749s2.305,1.582,3.748,1.582
	c1.5,0,2.68-0.526,3.541-1.582s1.291-2.305,1.291-3.749V43.338c0-0.222-0.027-0.444-0.084-0.666l-0.166-0.667v-0.167V41.673
	L111.73,41.673z"/>
</svg>
