<?xml version="1.0" encoding="utf-8"?>

<!DOCTYPE svg PUBLIC "-//W3C//DTD SVG 1.1//EN" "http://www.w3.org/Graphics/SVG/1.1/DTD/svg11.dtd">
<svg version="1.1" id="Layer_1" xmlns="http://www.w3.org/2000/svg" x="0px" y="0px"
	 width="128px" height="128px" viewBox="0 0 128 128" enable-background="new 0 0 128 128" xml:space="preserve">
<path id="uniE907" fill="#308AF4" d="M122.557,66.678c1.52,0,2.793-0.529,3.817-1.587s1.537-2.313,1.537-3.767V29.293
	c0-4.43-1.552-8.213-4.66-11.354c-3.108-3.142-6.875-4.711-11.306-4.711h-95.89c-4.363,0-8.115,1.569-11.255,4.711
	c-3.14,3.141-4.71,6.924-4.71,11.354v64.061c0,4.429,1.569,8.213,4.71,11.354c3.14,3.141,6.892,4.71,11.255,4.71h42.64
	c1.455,0,2.711-0.513,3.768-1.537c1.059-1.024,1.587-2.297,1.587-3.817c0-1.455-0.528-2.711-1.587-3.769
	c-1.058-1.058-2.313-1.587-3.768-1.587h-42.64c-1.454,0-2.694-0.512-3.719-1.537c-1.025-1.023-1.537-2.297-1.537-3.816V32.27
	l49.68,43.729c0.53,0.463,1.091,0.81,1.686,1.041c0.595,0.231,1.223,0.349,1.884,0.349c0.596,0,1.191-0.117,1.785-0.349
	c0.596-0.231,1.159-0.578,1.686-1.041l49.781-43.729v29.056c0,1.452,0.512,2.709,1.537,3.767
	C119.861,66.15,121.102,66.678,122.557,66.678L122.557,66.678z M17.443,23.938h93.114L64.049,64.895L17.443,23.938L17.443,23.938z
	 M80.014,88.098c-1.453,0-2.709,0.512-3.765,1.535c-1.058,1.025-1.586,2.264-1.586,3.719c0,1.521,0.528,2.793,1.586,3.817
	c1.06,1.024,2.315,1.537,3.769,1.537h29.75l-6.941,6.942c-0.99,1.058-1.486,2.313-1.486,3.769c0,1.454,0.496,2.71,1.486,3.769
	c0.529,0.527,1.123,0.924,1.785,1.189c0.66,0.264,1.322,0.396,1.981,0.396c0.726,0,1.406-0.131,2.033-0.396
	c0.629-0.266,1.207-0.662,1.735-1.189l15.966-15.965l0,0c0.528-0.529,0.925-1.109,1.188-1.736s0.396-1.338,0.396-2.131
	c0-0.729-0.133-1.405-0.396-2.033c-0.264-0.629-0.629-1.174-1.09-1.637c-0.066-0.033-0.1-0.05-0.1-0.05v-0.05l-15.965-15.965
	c-1.06-1.057-2.314-1.586-3.771-1.586s-2.709,0.527-3.768,1.586c-0.99,0.992-1.486,2.232-1.486,3.719
	c0,1.487,0.496,2.76,1.486,3.816l6.94,6.943H80.014L80.014,88.098z"/>
</svg>
