<?xml version="1.0" encoding="utf-8"?>

<!DOCTYPE svg PUBLIC "-//W3C//DTD SVG 1.1//EN" "http://www.w3.org/Graphics/SVG/1.1/DTD/svg11.dtd">
<svg version="1.1" id="Layer_1" xmlns="http://www.w3.org/2000/svg" x="0px" y="0px"
	 width="128px" height="128px" viewBox="0 0 128 128" enable-background="new 0 0 128 128" xml:space="preserve">
<g>
	<path fill="#308AF4" d="M41.714,92.402l18.847,8.765L93.189,7.08L41.714,92.402z M70.354,90.676
		c8.902-2.707,15.386-10.951,15.386-20.708c0-4.604-1.452-8.864-3.914-12.372L70.354,90.676L70.354,90.676z M61.425,48.479
		C50.634,49.75,42.26,58.878,42.26,69.968c0,2.759,0.54,5.392,1.484,7.817L61.425,48.479z"/>
		<path fill="#308AF4" d="M11.637,69.968c0-28.805,23.444-52.157,52.363-52.157c5.096,0,10.011,0.738,14.667,2.092l6.159-10.213
			C78.126,7.391,71.087,6.218,64,6.22c-35.348,0-64,28.54-64,63.748c0,21.354,10.553,40.244,26.734,51.812l5.848-10.088
			C19.861,102.178,11.637,87.032,11.637,69.968L11.637,69.968z M96.564,15.093l-3.896,11.236
			c14.266,9.317,23.694,25.378,23.694,43.639c0,17.063-8.229,32.209-20.945,41.726l5.847,10.087
			C117.446,110.212,128,91.325,128,69.968C128,46.607,115.378,26.193,96.564,15.093z"/>
</g>
</svg>
