<svg enable-background="new 0 0 200 200" height="200" viewBox="0 0 200 200" width="200" xmlns="http://www.w3.org/2000/svg"><path d="m200 100c0 55.229-44.771 100-100 100-55.222 0-100-44.771-100-100 0-55.222 44.778-100 100-100 55.229 0 100 44.778 100 100" fill="#ffcc4d"/><g fill="#664500"><path d="m77.608 94.443c0 10.745-6.217 19.446-13.89 19.446-7.671 0-13.888-8.701-13.888-19.446.002-10.737 6.217-19.443 13.888-19.443 7.673 0 13.89 8.706 13.89 19.443"/><path d="m150 94.443c0 10.745-6.217 19.446-13.889 19.446s-13.889-8.701-13.889-19.446c0-10.738 6.217-19.443 13.889-19.443s13.889 8.706 13.889 19.443"/><path d="m33.328 75c-1.155 0-2.328-.361-3.326-1.111-2.457-1.839-2.95-5.322-1.111-7.778 18.12-24.167 42.309-24.444 43.331-24.444 3.067 0 5.556 2.489 5.556 5.557 0 3.061-2.474 5.543-5.534 5.556-.861.012-19.827.479-34.467 20-1.092 1.452-2.759 2.22-4.449 2.22"/><path d="m166.672 75c-1.693 0-3.359-.768-4.449-2.222-14.666-19.561-33.674-19.994-34.479-20-3.055-.033-5.521-2.534-5.505-5.583.02-3.061 2.485-5.528 5.538-5.528 1.022 0 25.207.279 43.336 24.445 1.843 2.456 1.343 5.939-1.112 7.778-1.001.749-2.168 1.11-3.329 1.11"/><path d="m130.475 157.66c-.066-.244-6.365-24.327-30.471-24.327-24.117 0-30.418 24.083-30.472 24.327-.294 1.184.239 2.396 1.282 3.021 1.044.623 2.406.479 3.311-.334.057-.037 5.633-4.793 25.878-4.793 19.937 0 25.652 4.609 25.867 4.793.528.5 1.217.764 1.91.764.469 0 .938-.117 1.367-.358 1.088-.621 1.633-1.882 1.328-3.093"/></g><path d="m91.497 172.223c0 15.346-12.433 27.777-27.776 27.777-15.344 0-27.777-12.434-27.777-27.777s22.221-55.557 27.775-55.557 27.778 40.213 27.778 55.557" fill="#5dadec"/></svg>