<?xml version="1.0" encoding="utf-8"?>
<!DOCTYPE svg PUBLIC "-//W3C//DTD SVG 1.1//EN" "http://www.w3.org/Graphics/SVG/1.1/DTD/svg11.dtd">
<svg version="1.1" id="svg2" xmlns="http://www.w3.org/2000/svg" x="0px" y="0px"
	 width="200px" height="200px" viewBox="0 0 200 200" enable-background="new 0 0 200 200" xml:space="preserve">
<g>
	<path id="path22" fill="#FFCC4D" d="M200,100c0,55.229-44.771,100-100,100C44.778,200,0,155.229,0,100C0,44.778,44.778,0,100,0
		C155.229,0,200,44.778,200,100"/>
	<path id="path26" fill="#664500" d="M77.608,94.443c0,10.745-6.217,19.446-13.89,19.446c-7.671,0-13.888-8.701-13.888-19.446
		C49.832,83.706,56.047,75,63.718,75C71.391,75,77.608,83.706,77.608,94.443"/>
	<path id="path30" fill="#664500" d="M150,94.443c0,10.745-6.217,19.446-13.889,19.446s-13.889-8.701-13.889-19.446
		c0-10.738,6.217-19.443,13.889-19.443S150,83.706,150,94.443"/>
	<path id="path34" fill="#664500" d="M33.328,75c-1.155,0-2.328-0.361-3.326-1.111c-2.457-1.839-2.95-5.322-1.111-7.778
		C47.011,41.944,71.2,41.667,72.222,41.667c3.067,0,5.556,2.489,5.556,5.557c0,3.061-2.474,5.543-5.534,5.556
		c-0.861,0.012-19.827,0.479-34.467,20C36.685,74.232,35.018,75,33.328,75"/>
	<path id="path38" fill="#664500" d="M166.672,75c-1.693,0-3.359-0.768-4.449-2.222c-14.666-19.561-33.674-19.994-34.479-20
		c-3.055-0.033-5.521-2.534-5.505-5.583c0.02-3.061,2.485-5.528,5.538-5.528c1.022,0,25.207,0.279,43.336,24.445
		c1.843,2.456,1.343,5.939-1.112,7.778C169,74.639,167.833,75,166.672,75"/>
	<path id="path42" fill="#664500" d="M130.475,157.66c-0.066-0.244-6.365-24.327-30.471-24.327
		c-24.117,0-30.418,24.083-30.472,24.327c-0.294,1.184,0.239,2.396,1.282,3.021c1.044,0.623,2.406,0.479,3.311-0.334
		c0.057-0.037,5.633-4.793,25.878-4.793c19.937,0,25.652,4.609,25.867,4.793c0.528,0.5,1.217,0.764,1.91,0.764
		c0.469,0,0.938-0.117,1.367-0.358C130.235,160.132,130.78,158.871,130.475,157.66"/>
	<path id="path46" fill="#5DADEC" d="M91.497,172.223c0,15.346-12.433,27.777-27.776,27.777c-15.344,0-27.777-12.434-27.777-27.777
		s22.221-55.557,27.775-55.557C69.273,116.666,91.497,156.879,91.497,172.223"/>
</g>
</svg>
