<?xml version="1.0" encoding="utf-8"?>
<!DOCTYPE svg PUBLIC "-//W3C//DTD SVG 1.1//EN" "http://www.w3.org/Graphics/SVG/1.1/DTD/svg11.dtd">
<svg version="1.1" xmlns="http://www.w3.org/2000/svg" xmlns:xlink="http://www.w3.org/1999/xlink" x="0px" y="0px" width="59px"
	 height="75px" viewBox="-0.229 -0.201 59 75" xml:space="preserve">
<path fill="#2177E0" d="M-0.229,22.76c0-16.494,14.806-22.871,29.389-22.871c14.805,0,29.722,5.718,29.61,22.76
	c0,15.395-11.49,18.143-18.23,21.221c-7.623,2.859-9.28,5.389-9.28,15.283h-9.612c0-14.731,4.861-19.24,14.915-22.759
	c6.076-2.418,12.596-4.947,12.596-13.964c0-11.766-11.491-14.075-20.441-14.075c-8.727,0-19.555,3.738-19.667,14.404H-0.229z
	 M33.249,68.622c0,8.355-12.706,8.355-12.706,0C20.542,60.266,33.249,60.266,33.249,68.622z"/>
</svg>
