<svg height="75" viewBox="-.229 -.201 59 75" width="59" xmlns="http://www.w3.org/2000/svg"><path d="m-.229 22.76c0-16.494 14.806-22.871 29.389-22.871 14.805 0 29.722 5.718 29.61 22.76 0 15.395-11.49 18.143-18.23 21.221-7.623 2.859-9.28 5.389-9.28 15.283h-9.612c0-14.731 4.861-19.24 14.915-22.759 6.076-2.418 12.596-4.947 12.596-13.964 0-11.766-11.491-14.075-20.441-14.075-8.727 0-19.555 3.738-19.667 14.404h-9.28zm33.478 45.862c0 8.355-12.706 8.355-12.706 0-.001-8.356 12.706-8.356 12.706 0z" fill="#2177e0"/></svg>