<?xml version="1.0" encoding="utf-8"?>
<!DOCTYPE svg PUBLIC "-//W3C//DTD SVG 1.1//EN" "http://www.w3.org/Graphics/SVG/1.1/DTD/svg11.dtd">
<svg version="1.1" id="Layer_1" xmlns="http://www.w3.org/2000/svg" x="0px" y="0px"
	 width="480px" height="300px" viewBox="0 0 480 300" enable-background="new 0 0 480 300" xml:space="preserve">
<g id="texto">
	<g id="KOPERE">
		<polygon id="E_1_" fill="#333333" points="180.058,269.434 181.171,263.941 158.104,263.941 150.91,299.488 174.026,299.488 
			175.14,293.994 159.143,293.994 161.195,283.863 174.843,283.863 175.954,278.369 162.307,278.369 164.111,269.434 		"/>
		<path id="R" fill="#333333" d="M139.488,263.941h-12.782l-7.194,35.547h7.145l2.868-14.209h6.105c1.599,0,2.724,0.466,3.375,1.404
			c0.651,0.936,0.787,2.34,0.408,4.211l-0.494,2.514c-0.247,1.141-0.4,2.309-0.458,3.504c-0.059,1.197,0.168,2.055,0.679,2.576
			h7.343l0.1-0.514c-0.512-0.521-0.787-1.315-0.829-2.381c-0.042-1.066,0.044-2.113,0.259-3.14l0.544-2.61
			c0.396-2.018,0.275-3.753-0.358-5.199c-0.635-1.447-1.834-2.507-3.597-3.176c1.96-0.779,3.518-1.816,4.672-3.109
			c1.154-1.295,1.937-2.937,2.348-4.92c0.659-3.256,0.034-5.818-1.878-7.691C145.833,264.877,143.081,263.941,139.488,263.941z
			 M142.479,274.755c-0.345,1.612-1.071,2.854-2.175,3.726c-1.104,0.869-2.481,1.307-4.128,1.307h-5.539l2.103-10.354h5.636
			c1.731,0,2.934,0.457,3.609,1.366C142.66,271.712,142.825,273.029,142.479,274.755z"/>
		<polygon id="E" fill="#333333" points="116.15,283.863 117.262,278.369 103.614,278.369 105.419,269.434 121.365,269.434 
			122.478,263.941 99.412,263.941 92.218,299.488 115.334,299.488 116.447,293.994 100.451,293.994 102.502,283.863 		"/>
		<path id="P" fill="#333333" d="M90.178,267.128c-1.936-2.124-4.71-3.187-8.319-3.187H68.311l-7.194,35.547h7.12l2.595-12.891
			h6.453c3.939,0,7.202-0.979,9.79-2.94c2.588-1.964,4.253-4.75,4.995-8.363C92.745,271.975,92.114,269.253,90.178,267.128z
			 M84.974,275.342c-0.347,1.629-1.113,2.997-2.3,4.102c-1.187,1.107-2.612,1.66-4.277,1.66h-6.453l2.374-11.67h6.428
			c1.813,0,3.061,0.533,3.746,1.602C85.176,272.1,85.337,273.535,84.974,275.342z"/>
		<path id="O" fill="#333333" d="M48.062,263.43c-4.153,0-7.643,1.331-10.47,3.991c-2.826,2.662-4.718,6.335-5.674,11.022
			l-1.286,6.396c-0.858,4.233-0.117,7.815,2.225,10.754c2.34,2.938,5.464,4.407,9.371,4.407c4.203,0,7.767-1.326,10.691-3.979
			c2.926-2.652,4.867-6.323,5.823-11.014l1.286-6.396c0.84-4.197,0.044-7.777-2.386-10.74
			C55.212,264.911,52.019,263.43,48.062,263.43z M52.908,278.584l-1.286,6.457c-0.576,2.805-1.599,5.084-3.065,6.836
			c-1.466,1.754-3.206,2.631-5.216,2.631c-2.258,0-3.907-0.877-4.945-2.631c-1.038-1.752-1.261-4.088-0.667-7.008l1.31-6.457
			c0.561-2.82,1.524-5.096,2.893-6.824c1.368-1.729,3.041-2.594,5.019-2.594c2.291,0,4.001,0.877,5.13,2.631
			C53.209,273.377,53.484,275.697,52.908,278.584z"/>
		<polygon id="K" fill="#333333" points="33.451,263.941 24.155,263.941 14.265,278.466 11.421,278.466 14.364,263.941 
			7.194,263.941 0,299.488 7.17,299.488 10.136,284.742 12.955,284.742 18.493,299.488 26.676,299.488 19.383,281.666 		"/>
	</g>
	<g id="DASHBOARD">
		<path id="D_1_" fill="#333333" d="M475.698,268.287c-2.868-2.896-6.503-4.346-10.904-4.346h-10.456v35.545h10.456
			c4.401,0,8.036-1.44,10.904-4.321S480,288.566,480,284.009v-4.565C480,274.902,478.566,271.184,475.698,268.287z M477.033,283.996
			c0,3.756-1.153,6.861-3.449,9.318c-2.302,2.455-5.229,3.684-8.79,3.684h-7.516v-30.566h7.516c3.545,0,6.47,1.229,8.778,3.686
			c2.303,2.453,3.461,5.535,3.461,9.242V283.996z"/>
		<path id="R_1_" fill="#333333" d="M445.042,293.775v-3.346c0-2.147-0.488-3.935-1.469-5.356c-0.984-1.427-2.586-2.414-4.809-2.968
			c2.007-0.686,3.565-1.771,4.669-3.26c1.106-1.488,1.66-3.179,1.66-5.066c0-3.205-1.033-5.645-3.094-7.312
			c-2.059-1.67-5.017-2.504-8.875-2.504h-12.189v35.521h2.943v-16.062h10.087c2.553,0,4.544,0.633,5.969,1.895
			c1.426,1.261,2.141,2.98,2.141,5.162v3.248c0,1.14,0.122,2.236,0.369,3.295c0.248,1.06,0.677,1.881,1.286,2.467h3.017v-0.586
			c-0.611-0.551-1.046-1.271-1.309-2.147C445.173,295.876,445.042,294.883,445.042,293.775z M432.753,280.934h-8.874v-14.478h9.246
			c3.018,0,5.269,0.631,6.761,1.894c1.494,1.262,2.238,3.063,2.238,5.407c0,2.197-0.749,3.943-2.251,5.236
			C438.374,280.288,436.001,280.934,432.753,280.934z"/>
		<path id="A_1_" fill="#333333" d="M399.131,263.941l-13.672,35.547h3.065l3.709-9.912h16.489l3.71,9.912h3.062l-13.569-35.547
			H399.131z M393.221,286.963l7.22-19.238h0.148l7.17,19.238H393.221z"/>
		<path id="O_1_" fill="#333333" d="M368.029,263.428c-4.22,0-7.579,1.426-10.087,4.273c-2.505,2.848-3.758,6.559-3.758,11.133
			v5.785c0,4.59,1.257,8.301,3.772,11.133c2.511,2.832,5.879,4.248,10.099,4.248c4.282,0,7.7-1.416,10.247-4.248
			s3.818-6.543,3.818-11.133h0.001v-5.785c0-4.574-1.277-8.285-3.832-11.133S372.314,263.428,368.029,263.428z M379.18,284.648
			c0,3.896-0.979,7.015-2.933,9.354c-1.952,2.338-4.685,3.508-8.195,3.508c-3.428,0-6.103-1.174-8.022-3.52
			c-1.92-2.35-2.881-5.465-2.881-9.344v-5.844c0-3.849,0.955-6.943,2.866-9.291c1.915-2.348,4.582-3.521,8.011-3.521
			c3.493,0,6.226,1.173,8.197,3.521c1.967,2.348,2.952,5.442,2.952,9.291v5.846H379.18L379.18,284.648z"/>
		<path id="B" fill="#333333" d="M341.007,280.869c1.793-0.521,3.217-1.457,4.264-2.809c1.047-1.354,1.57-2.94,1.57-4.767
			c0-3.127-1.043-5.466-3.127-7.021c-2.085-1.558-5-2.332-8.739-2.332h-10.508v35.547h12.436c3.491,0,6.282-0.854,8.368-2.562
			c2.084-1.709,3.128-4.148,3.128-7.32c0-2.146-0.684-4.043-2.053-5.686C344.979,282.277,343.199,281.26,341.007,280.869z
			 M327.409,266.434h7.565c2.9,0,5.108,0.563,6.625,1.696c1.517,1.13,2.275,2.818,2.275,5.063c0,2.197-0.714,3.861-2.14,4.994
			c-1.426,1.131-3.438,1.693-6.044,1.693h-8.282V266.434L327.409,266.434z M343.157,295.062c-1.517,1.291-3.604,1.936-6.255,1.936
			h-9.493v-14.625h9.963c2.62,0,4.618,0.682,5.995,2.045c1.374,1.361,2.065,3.105,2.065,5.23
			C345.433,291.968,344.674,293.773,343.157,295.062z"/>
		<polygon id="H" fill="#333333" points="312.08,280.641 291.609,280.641 291.609,263.941 288.667,263.941 288.667,299.488 
			291.609,299.488 291.609,283.131 312.08,283.131 312.08,299.488 315.021,299.488 315.021,263.941 312.08,263.941 		"/>
		<path id="S" fill="#333333" d="M278.764,284.154c-2.019-1.659-4.964-2.979-8.84-3.954c-3.676-0.912-6.263-1.966-7.763-3.162
			c-1.499-1.195-2.25-2.688-2.25-4.479c0-1.887,0.811-3.467,2.433-4.734c1.625-1.27,3.877-1.904,6.765-1.904
			c2.917,0,5.228,0.768,6.934,2.295c1.709,1.531,2.56,3.484,2.56,5.859h2.722l0.072-0.146c0.064-2.93-1.035-5.41-3.312-7.445
			c-2.274-2.033-5.265-3.053-8.973-3.053c-3.561,0-6.474,0.854-8.739,2.563c-2.267,1.709-3.4,3.922-3.4,6.641
			c0,2.652,1.014,4.761,3.043,6.322c2.027,1.562,5.009,2.832,8.95,3.81c3.642,0.942,6.196,2.026,7.662,3.254
			c1.467,1.228,2.2,2.81,2.2,4.739c0,2.031-0.875,3.665-2.632,4.9c-1.756,1.233-4.061,1.852-6.91,1.852
			c-2.835,0-5.299-0.663-7.393-1.995c-2.094-1.33-3.142-3.375-3.142-6.134h-2.721l-0.049,0.146c-0.084,3.418,1.213,6.02,3.893,7.803
			c2.681,1.779,5.815,2.672,9.408,2.672c3.644,0,6.639-0.839,8.986-2.518c2.348-1.676,3.522-3.932,3.522-6.764
			C281.794,288.005,280.783,285.814,278.764,284.154z"/>
		<path id="A" fill="#333333" d="M236.354,263.941l-13.672,35.547h3.065l3.708-9.912h16.49l3.71,9.912h3.065l-13.573-35.547H236.354
			z M230.444,286.963l7.219-19.238h0.148l7.17,19.238H230.444z"/>
		<path id="D" fill="#333333" d="M204.362,263.941h-10.458v35.545h10.458c4.4,0,8.035-1.44,10.903-4.321
			c2.867-2.881,4.301-6.599,4.301-11.156v-4.565c0-4.541-1.434-8.26-4.301-11.154C212.397,265.391,208.762,263.941,204.362,263.941z
			 M216.6,283.996c0,3.756-1.149,6.861-3.449,9.318c-2.299,2.455-5.228,3.684-8.789,3.684h-7.517v-30.566h7.517
			c3.543,0,6.468,1.229,8.776,3.686c2.307,2.453,3.461,5.535,3.461,9.242V283.996z"/>
	</g>
</g>
<g id="logo">
	<g id="fundo">
		<path fill="#E6E7E8" d="M477.021,174.76c-2.157-6.115-5.382-12.39-9.538-18.638c-14.071-21.162-38.497-42.003-65.796-55.396
			c-1.562-0.767-3.133-1.506-4.712-2.219c-0.001,0-0.001,0-0.002,0c-23.954-10.867-49.753-15.819-72.504-10.16
			C263,103.638,217.836,234.721,138.522,227.244c0.031,0.012,0.064,0.027,0.094,0.038c42.529,17.312,80.274,8.868,104.987-14.912
			c27.151-26.132,42.305-59.108,64.396-77.757c-0.012,0,0.007-0.025,0.008-0.035c0.055-0.062,0.246-0.207,0.546-0.416
			c8.521-7.099,17.275-12.413,26.452-15.102c1.247-0.366,2.494-0.691,3.765-0.958c1.989-0.419,4.133-0.613,6.4-0.613
			c13.149-0.019,30.397,6.724,46.237,16.82c14.787,9.427,28.321,21.761,36.133,34.222c8.669,13.822,9.609,27.566-1.968,37.895
			c-18.549,16.547-103.32-10.314-110.464-12.648c-0.021,0.02-0.029,0.033-0.037,0.052c6.604,3.104,57.563,30.946,103.626,34.056
			c8.918,0.604,17.917,0.365,25.927-1.312c7.022-1.471,13.712-3.887,19.445-7.653C480.253,208.312,483.166,192.203,477.021,174.76z
			 M381.046,100.752c5.146-0.929,10.376-1.651,15.646-2.212C391.423,99.104,386.232,99.912,381.046,100.752z"/>
		<path fill="#E6E7E8" d="M341.419,73.53c-42.53-17.314-80.276-8.864-104.986,14.915c-27.154,26.131-42.307,59.107-64.401,77.755
			c0.013,0-0.006,0.024-0.008,0.036c-0.057,0.064-0.246,0.209-0.545,0.412c-8.51,7.1-17.274,12.412-26.448,15.104
			c-1.248,0.365-2.495,0.693-3.759,0.958c-1.988,0.42-4.137,0.612-6.399,0.614c-13.153,0.019-30.405-6.725-46.245-16.822
			c-14.783-9.425-28.318-21.759-36.131-34.22c-8.666-13.824-10.284-27.8,1.292-38.128c18.552-16.544,104.188,10.614,109.794,12.415
			c0.011-0.017,0.021-0.033,0.04-0.046c-4.085-2.238-56.893-30.715-102.953-33.821c-8.92-0.603-17.584-0.251-25.595,1.425
			c-7.023,1.472-13.542,3.952-19.28,7.714C-0.376,92.445-3.126,108.61,3.018,126.053c2.157,6.118,5.386,12.391,9.537,18.641
			c14.069,21.16,38.492,42,65.796,55.395c1.559,0.765,3.131,1.503,4.704,2.216c0,0,0,0-0.001,0
			c23.958,10.868,49.758,15.821,72.506,10.162c61.479-15.289,106.645-146.373,185.955-138.895
			C341.475,73.557,341.449,73.542,341.419,73.53z M99.066,200.049c-5.254,0.951-10.587,1.686-15.976,2.252
			C88.48,201.734,93.771,200.906,99.066,200.049z"/>
	</g>
	<g id="azul">
			<linearGradient id="SVGID_1_" gradientUnits="userSpaceOnUse" x1="565.0723" y1="-577.9629" x2="563.6525" y2="-744.0801" gradientTransform="matrix(1 0 -0.2322 -1 -466.0559 -597)">
			<stop  offset="0" style="stop-color:#FFFFFF"/>
			<stop  offset="0.2545" style="stop-color:#87D5F5"/>
			<stop  offset="0.5818" style="stop-color:#00B8EE"/>
			<stop  offset="1" style="stop-color:#006AB5"/>
		</linearGradient>
		<path fill="url(#SVGID_1_)" d="M380.954,50.023c5.269-1.31,10.625-2.324,16.021-3.105c-23.954-14.932-49.754-21.736-72.506-13.962
			C263,53.966,217.836,234.073,138.522,223.797c0.031,0.018,0.064,0.041,0.094,0.059c42.529,23.787,80.274,12.184,104.987-20.49
			c27.151-35.904,42.305-81.214,64.396-106.838C307.116,96.491,340.705,58.984,380.954,50.023z"/>
			<radialGradient id="SVGID_2_" cx="508.7314" cy="-740.7695" r="83.5964" gradientTransform="matrix(1.0062 0 -0.4029 -1 -424.7211 -597)" gradientUnits="userSpaceOnUse">
			<stop  offset="0" style="stop-color:#FFFFFF"/>
			<stop  offset="0.2545" style="stop-color:#87D5F5"/>
			<stop  offset="0.5818" style="stop-color:#00B8EE"/>
			<stop  offset="1" style="stop-color:#006AB5"/>
		</radialGradient>
		<path fill="url(#SVGID_2_)" d="M477.021,151.688c-2.157-8.403-5.382-17.021-9.538-25.606
			c-14.071-29.075-38.497-57.711-65.796-76.114c-1.562-1.052-3.133-2.067-4.712-3.047c-5.396,0.781-10.712,1.922-16.021,3.105
			c-40.249,8.961-73.838,46.467-72.955,46.502c-0.058-0.001,0.15-0.231,0.555-0.617c8.521-9.754,17.275-17.055,26.452-20.749
			c1.247-0.503,2.494-0.95,3.766-1.317c1.988-0.577,4.132-0.842,6.399-0.844c13.149-0.025,30.397,9.239,46.237,23.112
			c14.787,12.951,28.322,29.898,36.133,47.021c8.669,18.992,9.609,37.875-1.968,52.067c-18.549,22.729-103.32-14.177-110.464-17.38
			c-0.021,0.021-0.029,0.048-0.037,0.063c6.604,4.269,57.563,42.521,103.626,46.792c8.918,0.826,17.917,0.502,25.927-1.807
			c7.022-2.018,13.712-5.346,19.445-10.52C480.253,197.788,483.166,175.654,477.021,151.688z"/>
			<linearGradient id="SVGID_3_" gradientUnits="userSpaceOnUse" x1="477.8613" y1="-588.9492" x2="523.21" y2="-717.9102" gradientTransform="matrix(1 0 -0.2322 -1 -466.0559 -597)">
			<stop  offset="0" style="stop-color:#FFFFFF"/>
			<stop  offset="0.2545" style="stop-color:#87D5F5"/>
			<stop  offset="0.5818" style="stop-color:#00B8EE"/>
			<stop  offset="1" style="stop-color:#006AB5"/>
		</linearGradient>
		<path fill="url(#SVGID_3_)" d="M99.081,186.432c-5.271,1.312-10.62,2.324-16.027,3.104c23.958,14.931,49.758,21.733,72.506,13.959
			C217.039,182.488,262.205,2.383,341.515,12.657c-0.04-0.021-0.064-0.042-0.096-0.058c-42.53-23.79-80.276-12.18-104.986,20.493
			c-27.154,35.902-42.307,81.211-64.401,106.834C172.918,139.963,139.332,177.469,99.081,186.432z"/>
			<radialGradient id="SVGID_4_" cx="243.0645" cy="-718.6055" r="87.5064" gradientTransform="matrix(1.0062 0 -0.4029 -1 -424.7211 -597)" gradientUnits="userSpaceOnUse">
			<stop  offset="0" style="stop-color:#FFFFFF"/>
			<stop  offset="0.2545" style="stop-color:#87D5F5"/>
			<stop  offset="0.5818" style="stop-color:#00B8EE"/>
			<stop  offset="1" style="stop-color:#006AB5"/>
		</radialGradient>
		<path fill="url(#SVGID_4_)" d="M3.018,84.764c2.157,8.406,5.386,17.025,9.537,25.611c14.069,29.073,38.492,57.708,65.796,76.113
			c1.559,1.05,3.131,2.066,4.704,3.047c5.408-0.779,10.714-1.924,16.027-3.104c40.251-8.965,73.837-46.471,72.952-46.507
			c0.062,0.001-0.147,0.233-0.555,0.617c-8.51,9.754-17.274,17.058-26.448,20.751c-1.248,0.502-2.495,0.951-3.759,1.312
			c-1.988,0.578-4.137,0.845-6.399,0.847c-13.153,0.022-30.405-9.239-46.245-23.113C73.845,127.39,60.31,110.443,52.497,93.322
			c-8.666-18.996-10.284-38.198,1.292-52.387C72.34,18.205,157.977,55.52,163.582,57.993c0.011-0.022,0.021-0.045,0.04-0.062
			c-4.085-3.076-56.893-42.203-102.953-46.47c-8.92-0.828-17.584-0.344-25.595,1.959c-7.023,2.02-13.542,5.429-19.28,10.599
			C-0.376,38.587-3.126,60.799,3.018,84.764z"/>
	</g>
</g>
</svg>
