<svg enable-background="new 0 0 480 300" height="300" viewBox="0 0 480 300" width="480" xmlns="http://www.w3.org/2000/svg" xmlns:xlink="http://www.w3.org/1999/xlink"><linearGradient id="a"><stop offset="0" stop-color="#fff"/><stop offset=".2545" stop-color="#87d5f5"/><stop offset=".5818" stop-color="#00b8ee"/><stop offset="1" stop-color="#006ab5"/></linearGradient><linearGradient id="b" gradientTransform="matrix(1 0 -.2322 -1 -466.0559 -597)" gradientUnits="userSpaceOnUse" x1="565.0723" x2="563.6525" xlink:href="#a" y1="-577.9629" y2="-744.0801"/><radialGradient id="c" cx="508.7314" cy="-740.7695" gradientTransform="matrix(1.0062 0 -.4029 -1 -424.7211 -597)" gradientUnits="userSpaceOnUse" r="83.5964" xlink:href="#a"/><linearGradient id="d" gradientTransform="matrix(1 0 -.2322 -1 -466.0559 -597)" gradientUnits="userSpaceOnUse" x1="477.8613" x2="523.21" xlink:href="#a" y1="-588.9492" y2="-717.9102"/><radialGradient id="e" cx="243.0645" cy="-718.6055" gradientTransform="matrix(1.0062 0 -.4029 -1 -424.7211 -597)" gradientUnits="userSpaceOnUse" r="87.5064" xlink:href="#a"/><g fill="#333"><path d="m180.058 269.434 1.113-5.493h-23.067l-7.194 35.547h23.116l1.114-5.494h-15.997l2.052-10.131h13.648l1.111-5.494h-13.647l1.804-8.935z"/><path d="m139.488 263.941h-12.782l-7.194 35.547h7.145l2.868-14.209h6.105c1.599 0 2.724.466 3.375 1.404.651.936.787 2.34.408 4.211l-.494 2.514c-.247 1.141-.4 2.309-.458 3.504-.059 1.197.168 2.055.679 2.576h7.343l.1-.514c-.512-.521-.787-1.315-.829-2.381s.044-2.113.259-3.14l.544-2.61c.396-2.018.275-3.753-.358-5.199-.635-1.447-1.834-2.507-3.597-3.176 1.96-.779 3.518-1.816 4.672-3.109 1.154-1.295 1.937-2.937 2.348-4.92.659-3.256.034-5.818-1.878-7.691-1.911-1.871-4.663-2.807-8.256-2.807zm2.991 10.814c-.345 1.612-1.071 2.854-2.175 3.726-1.104.869-2.481 1.307-4.128 1.307h-5.539l2.103-10.354h5.636c1.731 0 2.934.457 3.609 1.366.675.912.84 2.229.494 3.955z"/><path d="m116.15 283.863 1.112-5.494h-13.648l1.805-8.935h15.946l1.113-5.493h-23.066l-7.194 35.547h23.116l1.113-5.494h-15.996l2.051-10.131z"/><path d="m90.178 267.128c-1.936-2.124-4.71-3.187-8.319-3.187h-13.548l-7.194 35.547h7.12l2.595-12.891h6.453c3.939 0 7.202-.979 9.79-2.94 2.588-1.964 4.253-4.75 4.995-8.363.675-3.319.044-6.041-1.892-8.166zm-5.204 8.214c-.347 1.629-1.113 2.997-2.3 4.102-1.187 1.107-2.612 1.66-4.277 1.66h-6.453l2.374-11.67h6.428c1.813 0 3.061.533 3.746 1.602.684 1.064.845 2.499.482 4.306z"/><path d="m48.062 263.43c-4.153 0-7.643 1.331-10.47 3.991-2.826 2.662-4.718 6.335-5.674 11.022l-1.286 6.396c-.858 4.233-.117 7.815 2.225 10.754 2.34 2.938 5.464 4.407 9.371 4.407 4.203 0 7.767-1.326 10.691-3.979 2.926-2.652 4.867-6.323 5.823-11.014l1.286-6.396c.84-4.197.044-7.777-2.386-10.74-2.43-2.96-5.623-4.441-9.58-4.441zm4.846 15.154-1.286 6.457c-.576 2.805-1.599 5.084-3.065 6.836-1.466 1.754-3.206 2.631-5.216 2.631-2.258 0-3.907-.877-4.945-2.631-1.038-1.752-1.261-4.088-.667-7.008l1.31-6.457c.561-2.82 1.524-5.096 2.893-6.824 1.368-1.729 3.041-2.594 5.019-2.594 2.291 0 4.001.877 5.13 2.631 1.128 1.752 1.403 4.072.827 6.959z"/><path d="m33.451 263.941h-9.296l-9.89 14.525h-2.844l2.943-14.525h-7.17l-7.194 35.547h7.17l2.966-14.746h2.819l5.538 14.746h8.183l-7.293-17.822z"/><path d="m475.698 268.287c-2.868-2.896-6.503-4.346-10.904-4.346h-10.456v35.545h10.456c4.401 0 8.036-1.44 10.904-4.321s4.302-6.599 4.302-11.156v-4.565c0-4.542-1.434-8.26-4.302-11.157zm1.335 15.709c0 3.756-1.153 6.861-3.449 9.318-2.302 2.455-5.229 3.684-8.79 3.684h-7.516v-30.566h7.516c3.545 0 6.47 1.229 8.778 3.686 2.303 2.453 3.461 5.535 3.461 9.242z"/><path d="m445.042 293.775v-3.346c0-2.147-.488-3.935-1.469-5.356-.984-1.427-2.586-2.414-4.809-2.968 2.007-.686 3.565-1.771 4.669-3.26 1.106-1.488 1.66-3.179 1.66-5.066 0-3.205-1.033-5.645-3.094-7.312-2.059-1.67-5.017-2.504-8.875-2.504h-12.189v35.521h2.943v-16.062h10.087c2.553 0 4.544.633 5.969 1.895 1.426 1.261 2.141 2.98 2.141 5.162v3.248c0 1.14.122 2.236.369 3.295.248 1.06.677 1.881 1.286 2.467h3.017v-.586c-.611-.551-1.046-1.271-1.309-2.147-.265-.88-.396-1.873-.396-2.981zm-12.289-12.841h-8.874v-14.478h9.246c3.018 0 5.269.631 6.761 1.894 1.494 1.262 2.238 3.063 2.238 5.407 0 2.197-.749 3.943-2.251 5.236-1.499 1.295-3.872 1.941-7.12 1.941z"/><path d="m399.131 263.941-13.672 35.547h3.065l3.709-9.912h16.489l3.71 9.912h3.062l-13.569-35.547zm-5.91 23.022 7.22-19.238h.148l7.17 19.238z"/><path d="m368.029 263.428c-4.22 0-7.579 1.426-10.087 4.273-2.505 2.848-3.758 6.559-3.758 11.133v5.785c0 4.59 1.257 8.301 3.772 11.133 2.511 2.832 5.879 4.248 10.099 4.248 4.282 0 7.7-1.416 10.247-4.248s3.818-6.543 3.818-11.133h.001v-5.785c0-4.574-1.277-8.285-3.832-11.133s-5.975-4.273-10.26-4.273zm11.151 21.22c0 3.896-.979 7.015-2.933 9.354-1.952 2.338-4.685 3.508-8.195 3.508-3.428 0-6.103-1.174-8.022-3.52-1.92-2.35-2.881-5.465-2.881-9.344v-5.844c0-3.849.955-6.943 2.866-9.291 1.915-2.348 4.582-3.521 8.011-3.521 3.493 0 6.226 1.173 8.197 3.521 1.967 2.348 2.952 5.442 2.952 9.291v5.846z"/><path d="m341.007 280.869c1.793-.521 3.217-1.457 4.264-2.809 1.047-1.354 1.57-2.94 1.57-4.767 0-3.127-1.043-5.466-3.127-7.021-2.085-1.558-5-2.332-8.739-2.332h-10.508v35.547h12.436c3.491 0 6.282-.854 8.368-2.562 2.084-1.709 3.128-4.148 3.128-7.32 0-2.146-.684-4.043-2.053-5.686-1.367-1.642-3.147-2.659-5.339-3.05zm-13.598-14.435h7.565c2.9 0 5.108.563 6.625 1.696 1.517 1.13 2.275 2.818 2.275 5.063 0 2.197-.714 3.861-2.14 4.994-1.426 1.131-3.438 1.693-6.044 1.693h-8.282v-13.446zm15.748 28.628c-1.517 1.291-3.604 1.936-6.255 1.936h-9.493v-14.625h9.963c2.62 0 4.618.682 5.995 2.045 1.374 1.361 2.065 3.105 2.065 5.23.001 2.32-.758 4.125-2.275 5.414z"/><path d="m312.08 280.641h-20.471v-16.7h-2.942v35.547h2.942v-16.357h20.471v16.357h2.941v-35.547h-2.941z"/><path d="m278.764 284.154c-2.019-1.659-4.964-2.979-8.84-3.954-3.676-.912-6.263-1.966-7.763-3.162-1.499-1.195-2.25-2.688-2.25-4.479 0-1.887.811-3.467 2.433-4.734 1.625-1.27 3.877-1.904 6.765-1.904 2.917 0 5.228.768 6.934 2.295 1.709 1.531 2.56 3.484 2.56 5.859h2.722l.072-.146c.064-2.93-1.035-5.41-3.312-7.445-2.274-2.033-5.265-3.053-8.973-3.053-3.561 0-6.474.854-8.739 2.563-2.267 1.709-3.4 3.922-3.4 6.641 0 2.652 1.014 4.761 3.043 6.322 2.027 1.562 5.009 2.832 8.95 3.81 3.642.942 6.196 2.026 7.662 3.254 1.467 1.228 2.2 2.81 2.2 4.739 0 2.031-.875 3.665-2.632 4.9-1.756 1.233-4.061 1.852-6.91 1.852-2.835 0-5.299-.663-7.393-1.995-2.094-1.33-3.142-3.375-3.142-6.134h-2.721l-.049.146c-.084 3.418 1.213 6.02 3.893 7.803 2.681 1.779 5.815 2.672 9.408 2.672 3.644 0 6.639-.839 8.986-2.518 2.348-1.676 3.522-3.932 3.522-6.764.004-2.717-1.007-4.908-3.026-6.568z"/><path d="m236.354 263.941-13.672 35.547h3.065l3.708-9.912h16.49l3.71 9.912h3.065l-13.573-35.547zm-5.91 23.022 7.219-19.238h.148l7.17 19.238z"/><path d="m204.362 263.941h-10.458v35.545h10.458c4.4 0 8.035-1.44 10.903-4.321 2.867-2.881 4.301-6.599 4.301-11.156v-4.565c0-4.541-1.434-8.26-4.301-11.154-2.868-2.899-6.503-4.349-10.903-4.349zm12.238 20.055c0 3.756-1.149 6.861-3.449 9.318-2.299 2.455-5.228 3.684-8.789 3.684h-7.517v-30.566h7.517c3.543 0 6.468 1.229 8.776 3.686 2.307 2.453 3.461 5.535 3.461 9.242v4.636z"/></g><path d="m477.021 174.76c-2.157-6.115-5.382-12.39-9.538-18.638-14.071-21.162-38.497-42.003-65.796-55.396-1.562-.767-3.133-1.506-4.712-2.219-.001 0-.001 0-.002 0-23.954-10.867-49.753-15.819-72.504-10.16-61.469 15.291-106.633 146.374-185.947 138.897.031.012.064.027.094.038 42.529 17.312 80.274 8.868 104.987-14.912 27.151-26.132 42.305-59.108 64.396-77.757-.012 0 .007-.025.008-.035.055-.062.246-.207.546-.416 8.521-7.099 17.275-12.413 26.452-15.102 1.247-.366 2.494-.691 3.765-.958 1.989-.419 4.133-.613 6.4-.613 13.149-.019 30.397 6.724 46.237 16.82 14.787 9.427 28.321 21.761 36.133 34.222 8.669 13.822 9.609 27.566-1.968 37.895-18.549 16.547-103.32-10.314-110.464-12.648-.021.02-.029.033-.037.052 6.604 3.104 57.563 30.946 103.626 34.056 8.918.604 17.917.365 25.927-1.312 7.022-1.471 13.712-3.887 19.445-7.653 16.184-10.609 19.097-26.718 12.952-44.161zm-95.975-74.008c5.146-.929 10.376-1.651 15.646-2.212-5.269.564-10.46 1.372-15.646 2.212z" fill="#e6e7e8"/><path d="m341.419 73.53c-42.53-17.314-80.276-8.864-104.986 14.915-27.154 26.131-42.307 59.107-64.401 77.755.013 0-.006.024-.008.036-.057.064-.246.209-.545.412-8.51 7.1-17.274 12.412-26.448 15.104-1.248.365-2.495.693-3.759.958-1.988.42-4.137.612-6.399.614-13.153.019-30.405-6.725-46.245-16.822-14.783-9.425-28.318-21.759-36.131-34.22-8.666-13.824-10.284-27.8 1.292-38.128 18.552-16.544 104.188 10.614 109.794 12.415.011-.017.021-.033.04-.046-4.085-2.238-56.893-30.715-102.953-33.821-8.92-.603-17.584-.251-25.595 1.425-7.023 1.472-13.542 3.952-19.28 7.714-16.171 10.604-18.921 26.769-12.777 44.212 2.157 6.118 5.386 12.391 9.537 18.641 14.069 21.16 38.492 42 65.796 55.395 1.559.765 3.131 1.503 4.704 2.216 0 0 0 0-.001 0 23.958 10.868 49.758 15.821 72.506 10.162 61.479-15.289 106.645-146.373 185.955-138.895-.04-.015-.066-.03-.096-.042zm-242.353 126.519c-5.254.951-10.587 1.686-15.976 2.252 5.39-.567 10.681-1.395 15.976-2.252z" fill="#e6e7e8"/><path d="m380.954 50.023c5.269-1.31 10.625-2.324 16.021-3.105-23.954-14.932-49.754-21.736-72.506-13.962-61.469 21.01-106.633 201.117-185.947 190.841.031.018.064.041.094.059 42.529 23.787 80.274 12.184 104.987-20.49 27.151-35.904 42.305-81.214 64.396-106.838-.883-.037 32.706-37.544 72.955-46.505z" fill="url(#b)"/><path d="m477.021 151.688c-2.157-8.403-5.382-17.021-9.538-25.606-14.071-29.075-38.497-57.711-65.796-76.114-1.562-1.052-3.133-2.067-4.712-3.047-5.396.781-10.712 1.922-16.021 3.105-40.249 8.961-73.838 46.467-72.955 46.502-.058-.001.15-.231.555-.617 8.521-9.754 17.275-17.055 26.452-20.749 1.247-.503 2.494-.95 3.766-1.317 1.988-.577 4.132-.842 6.399-.844 13.149-.025 30.397 9.239 46.237 23.112 14.787 12.951 28.322 29.898 36.133 47.021 8.669 18.992 9.609 37.875-1.968 52.067-18.549 22.729-103.32-14.177-110.464-17.38-.021.021-.029.048-.037.063 6.604 4.269 57.563 42.521 103.626 46.792 8.918.826 17.917.502 25.927-1.807 7.022-2.018 13.712-5.346 19.445-10.52 16.183-14.561 19.096-36.695 12.951-60.661z" fill="url(#c)"/><path d="m99.081 186.432c-5.271 1.312-10.62 2.324-16.027 3.104 23.958 14.931 49.758 21.733 72.506 13.959 61.479-21.007 106.645-201.112 185.955-190.838-.04-.021-.064-.042-.096-.058-42.53-23.79-80.276-12.18-104.986 20.493-27.154 35.902-42.307 81.211-64.401 106.834.886.037-32.7 37.543-72.951 46.506z" fill="url(#d)"/><path d="m3.018 84.764c2.157 8.406 5.386 17.025 9.537 25.611 14.069 29.073 38.492 57.708 65.796 76.113 1.559 1.05 3.131 2.066 4.704 3.047 5.408-.779 10.714-1.924 16.027-3.104 40.251-8.965 73.837-46.471 72.952-46.507.062.001-.147.233-.555.617-8.51 9.754-17.274 17.058-26.448 20.751-1.248.502-2.495.951-3.759 1.312-1.988.578-4.137.845-6.399.847-13.153.022-30.405-9.239-46.245-23.113-14.783-12.948-28.318-29.895-36.131-47.016-8.666-18.996-10.284-38.198 1.292-52.387 18.551-22.73 104.188 14.585 109.793 17.058.011-.022.021-.045.04-.062-4.085-3.076-56.893-42.203-102.953-46.47-8.92-.828-17.584-.344-25.595 1.959-7.023 2.02-13.542 5.429-19.28 10.599-16.17 14.568-18.92 36.78-12.776 60.745z" fill="url(#e)"/></svg>