<?xml version="1.0" encoding="utf-8"?>

<!DOCTYPE svg PUBLIC "-//W3C//DTD SVG 1.1//EN" "http://www.w3.org/Graphics/SVG/1.1/DTD/svg11.dtd">
<svg version="1.1" id="Layer_1" xmlns="http://www.w3.org/2000/svg" x="0px" y="0px"
	 width="480px" height="300px" viewBox="-0.5 0 480 300" enable-background="new -0.5 0 480 300" xml:space="preserve">
<g id="texto">
	<g id="KOPERE">
		<polygon id="E_1_" fill="#333333" points="180.307,269.434 181.406,263.941 158.628,263.941 151.524,299.488 174.351,299.488 
			175.45,293.994 159.654,293.994 161.68,283.863 175.157,283.863 176.255,278.369 162.778,278.369 164.56,269.434 		"/>
		<path id="R" fill="#333333" d="M140.244,263.941h-12.622l-7.104,35.547h7.056l2.832-14.209h6.029c1.579,0,2.69,0.466,3.333,1.404
			c0.643,0.936,0.777,2.34,0.403,4.211l-0.488,2.514c-0.244,1.141-0.395,2.309-0.452,3.504c-0.058,1.197,0.166,2.055,0.671,2.576
			h7.251l0.098-0.514c-0.505-0.521-0.777-1.315-0.818-2.379c-0.041-1.068,0.044-2.115,0.256-3.14l0.537-2.61
			c0.391-2.018,0.272-3.753-0.354-5.201c-0.627-1.447-1.811-2.506-3.552-3.174c1.936-0.781,3.474-1.818,4.614-3.111
			c1.139-1.295,1.912-2.935,2.319-4.92c0.651-3.256,0.033-5.818-1.855-7.691C146.51,264.877,143.792,263.941,140.244,263.941z
			 M143.198,274.755c-0.341,1.612-1.058,2.854-2.148,3.726c-1.091,0.869-2.45,1.305-4.077,1.305h-5.469l2.076-10.352h5.566
			c1.709,0,2.897,0.457,3.564,1.366C143.377,271.712,143.54,273.029,143.198,274.755z"/>
		<polygon id="E" fill="#333333" points="117.198,283.863 118.296,278.369 104.819,278.369 106.601,269.434 122.348,269.434 
			123.447,263.941 100.669,263.941 93.565,299.488 116.392,299.488 117.491,293.994 101.695,293.994 103.721,283.863 		"/>
		<path id="P" fill="#333333" d="M91.551,267.128c-1.912-2.124-4.651-3.187-8.215-3.187H69.957l-7.104,35.547h7.031l2.563-12.891
			h6.372c3.89,0,7.112-0.979,9.668-2.94c2.556-1.964,4.2-4.75,4.932-8.363C94.086,271.975,93.463,269.253,91.551,267.128z
			 M86.412,275.342c-0.342,1.629-1.099,2.997-2.271,4.102c-1.172,1.107-2.58,1.66-4.224,1.66h-6.372l2.344-11.67h6.348
			c1.79,0,3.023,0.533,3.699,1.6C86.611,272.1,86.77,273.535,86.412,275.342z"/>
		<path id="O" fill="#333333" d="M49.962,263.43c-4.101,0-7.548,1.331-10.339,3.991c-2.791,2.662-4.659,6.335-5.603,11.022
			l-1.27,6.396c-0.847,4.233-0.115,7.816,2.197,10.754C37.258,298.531,40.343,300,44.2,300c4.15,0,7.67-1.326,10.558-3.979
			c2.889-2.652,4.806-6.323,5.75-11.012l1.27-6.396c0.83-4.198,0.044-7.778-2.356-10.741
			C57.022,264.911,53.868,263.43,49.962,263.43z M54.747,278.584l-1.27,6.457c-0.569,2.805-1.579,5.084-3.027,6.836
			c-1.448,1.754-3.166,2.631-5.151,2.631c-2.23,0-3.858-0.877-4.883-2.631c-1.025-1.752-1.245-4.088-0.659-7.008l1.294-6.457
			c0.553-2.82,1.505-5.096,2.856-6.824c1.351-1.729,3.003-2.594,4.956-2.594c2.262,0,3.951,0.877,5.066,2.631
			C55.044,273.377,55.316,275.697,54.747,278.584z"/>
		<polygon id="K" fill="#333333" points="35.533,263.941 26.353,263.941 16.587,278.466 13.779,278.466 16.684,263.941 
			9.604,263.941 2.5,299.488 9.58,299.488 12.51,284.742 15.293,284.742 20.762,299.488 28.843,299.488 21.641,281.666 		"/>
	</g>
	<g id="DASHBOARD">
		<path id="D_1_" fill="#333333" d="M472.252,268.287c-2.832-2.896-6.422-4.346-10.768-4.346h-10.326v35.545h10.326
			c4.346,0,7.936-1.44,10.768-4.321s4.248-6.599,4.248-11.156v-4.565C476.5,274.902,475.084,271.184,472.252,268.287z
			 M473.57,283.996c0,3.756-1.137,6.861-3.406,9.318c-2.272,2.455-5.164,3.684-8.68,3.684h-7.422v-30.566h7.422
			c3.5,0,6.389,1.227,8.668,3.684c2.276,2.455,3.418,5.537,3.418,9.244V283.996z"/>
		<path id="R_1_" fill="#333333" d="M441.979,293.775v-3.346c0-2.147-0.483-3.933-1.452-5.356c-0.97-1.427-2.552-2.414-4.748-2.968
			c1.983-0.684,3.522-1.77,4.612-3.26c1.091-1.488,1.638-3.177,1.638-5.066c0-3.205-1.019-5.643-3.054-7.311
			c-2.034-1.67-4.955-2.504-8.764-2.504h-12.037v35.523h2.906v-16.064h9.961c2.521,0,4.487,0.631,5.895,1.893
			c1.408,1.261,2.113,2.982,2.113,5.162v3.248c0,1.14,0.121,2.238,0.365,3.295c0.245,1.06,0.668,1.881,1.27,2.468h2.979v-0.587
			c-0.603-0.551-1.033-1.269-1.293-2.147C442.108,295.876,441.979,294.883,441.979,293.775z M429.844,280.934h-8.764v-14.478h9.131
			c2.979,0,5.203,0.631,6.676,1.894c1.474,1.262,2.211,3.063,2.211,5.407c0,2.197-0.742,3.943-2.223,5.236
			C435.395,280.288,433.051,280.934,429.844,280.934z"/>
		<path id="A_1_" fill="#333333" d="M396.642,263.941l-13.501,35.547h3.027l3.662-9.912h16.283l3.664,9.912h3.026l-13.402-35.547
			H396.642z M390.806,286.963l7.129-19.238h0.146l7.081,19.238H390.806z"/>
		<path id="O_1_" fill="#333333" d="M365.929,263.428c-4.167,0-7.486,1.426-9.961,4.273c-2.474,2.848-3.711,6.559-3.711,11.133
			v5.785c0,4.59,1.241,8.301,3.724,11.133c2.481,2.832,5.806,4.248,9.973,4.248c4.23,0,7.604-1.416,10.119-4.248
			c2.515-2.832,3.771-6.543,3.771-11.133h0.001v-5.785c0-4.574-1.262-8.285-3.784-11.133S370.16,263.428,365.929,263.428z
			 M376.939,284.648c0,3.897-0.965,7.015-2.894,9.354c-1.928,2.338-4.626,3.508-8.093,3.508c-3.385,0-6.026-1.174-7.922-3.52
			c-1.896-2.349-2.844-5.464-2.844-9.343v-5.844c0-3.848,0.943-6.943,2.831-9.291c1.889-2.347,4.524-3.521,7.91-3.521
			c3.45,0,6.148,1.173,8.094,3.521c1.943,2.348,2.917,5.443,2.917,9.291V284.648z"/>
		<path id="B" fill="#333333" d="M339.244,280.869c1.772-0.521,3.177-1.457,4.211-2.809c1.033-1.353,1.55-2.94,1.55-4.765
			c0-3.127-1.029-5.466-3.088-7.022c-2.059-1.556-4.936-2.332-8.63-2.332h-10.376v35.547h12.28c3.449,0,6.205-0.854,8.264-2.562
			c2.058-1.709,3.088-4.148,3.088-7.32c0-2.146-0.675-4.043-2.026-5.686C343.166,282.277,341.409,281.26,339.244,280.869z
			 M325.816,266.434h7.471c2.864,0,5.045,0.563,6.543,1.696c1.497,1.13,2.246,2.818,2.246,5.063c0,2.197-0.704,3.861-2.112,4.994
			c-1.408,1.131-3.397,1.695-5.969,1.695h-8.179V266.434z M341.368,295.062c-1.498,1.291-3.558,1.936-6.177,1.936h-9.375v-14.625
			h9.839c2.587,0,4.561,0.682,5.92,2.045c1.358,1.361,2.039,3.105,2.039,5.23C343.614,291.968,342.865,293.773,341.368,295.062z"/>
		<polygon id="H" fill="#333333" points="310.679,280.641 290.464,280.641 290.464,263.941 287.559,263.941 287.559,299.488 
			290.464,299.488 290.464,283.131 310.679,283.131 310.679,299.488 313.584,299.488 313.584,263.941 310.679,263.941 		"/>
		<path id="S" fill="#333333" d="M277.779,284.154c-1.993-1.659-4.902-2.978-8.728-3.954c-3.63-0.912-6.185-1.966-7.666-3.162
			c-1.481-1.195-2.222-2.688-2.222-4.479c0-1.887,0.801-3.467,2.404-4.736s3.828-1.904,6.678-1.904c2.881,0,5.163,0.766,6.848,2.295
			c1.686,1.531,2.527,3.484,2.527,5.859h2.686l0.073-0.146c0.065-2.929-1.024-5.41-3.271-7.445c-2.246-2.034-5.2-3.053-8.862-3.053
			c-3.515,0-6.392,0.855-8.63,2.564s-3.357,3.922-3.357,6.641c0,2.652,1.001,4.76,3.004,6.322c2.002,1.562,4.947,2.832,8.838,3.809
			c3.596,0.943,6.119,2.027,7.567,3.254s2.173,2.809,2.173,4.74c0,2.031-0.865,3.665-2.599,4.9
			c-1.734,1.234-4.009,1.852-6.824,1.852c-2.8,0-5.233-0.664-7.3-1.996c-2.068-1.33-3.102-3.375-3.102-6.133h-2.686l-0.049,0.146
			c-0.082,3.418,1.199,6.018,3.845,7.801c2.646,1.781,5.742,2.672,9.29,2.672c3.598,0,6.555-0.839,8.874-2.516
			c2.319-1.676,3.479-3.932,3.479-6.764C280.771,288.005,279.773,285.814,277.779,284.154z"/>
		<path id="A" fill="#333333" d="M235.9,263.941l-13.501,35.547h3.027l3.662-9.912h16.284l3.663,9.912h3.027l-13.403-35.547H235.9z
			 M230.064,286.963l7.129-19.238h0.146l7.08,19.238H230.064z"/>
		<path id="D" fill="#333333" d="M204.307,263.941H193.98v35.545h10.327c4.346,0,7.935-1.44,10.767-4.321
			c2.832-2.881,4.248-6.599,4.248-11.156v-4.565c0-4.541-1.416-8.26-4.248-11.156C212.242,265.391,208.653,263.941,204.307,263.941z
			 M216.392,283.996c0,3.756-1.135,6.861-3.406,9.318c-2.27,2.455-5.163,3.684-8.679,3.684h-7.422v-30.566h7.422
			c3.499,0,6.388,1.227,8.667,3.684c2.278,2.455,3.418,5.537,3.418,9.244V283.996z"/>
	</g>
</g>
<g id="logo">
	<path fill="#E6E7E8" d="M380.454,100.768c5.269-0.954,10.625-1.692,16.023-2.26c-23.956-10.868-49.754-15.82-72.506-10.161
		c-61.47,15.291-106.634,146.374-185.948,138.897c0.031,0.012,0.064,0.027,0.094,0.038c42.529,17.313,80.274,8.868,104.989-14.912
		c27.151-26.132,42.303-59.108,64.394-77.757C306.616,134.588,340.205,107.29,380.454,100.768z"/>
	<path fill="#E6E7E8" d="M308.053,134.163c-0.403,0.28-0.612,0.448-0.555,0.45C307.687,134.458,307.874,134.317,308.053,134.163z"/>
	<path fill="#E6E7E8" d="M476.521,174.76c-2.157-6.115-5.38-12.39-9.538-18.638c-14.071-21.162-38.497-42.003-65.795-55.396
		c-1.561-0.767-3.132-1.506-4.711-2.219c-5.398,0.568-10.712,1.399-16.023,2.26c-40.249,6.521-73.838,33.82-72.955,33.845
		c-0.058-0.002,0.15-0.169,0.555-0.45c8.52-7.099,17.275-12.413,26.452-15.102c1.247-0.366,2.494-0.691,3.765-0.958
		c1.989-0.419,4.131-0.613,6.4-0.613c13.149-0.019,30.397,6.724,46.237,16.82c14.787,9.427,28.323,21.761,36.133,34.222
		c8.669,13.822,9.609,27.566-1.968,37.895c-18.549,16.547-103.32-10.314-110.464-12.648c-0.021,0.018-0.029,0.033-0.037,0.05
		c6.604,3.104,57.565,30.948,103.626,34.056c8.918,0.602,17.917,0.365,25.927-1.314c7.022-1.471,13.712-3.887,19.445-7.653
		C479.753,208.312,482.666,192.203,476.521,174.76z"/>
	<path fill="#E6E7E8" d="M98.581,200.046c-5.271,0.955-10.62,1.69-16.027,2.259c23.958,10.868,49.758,15.821,72.506,10.162
		c61.479-15.289,106.645-146.373,185.955-138.895c-0.04-0.015-0.066-0.03-0.096-0.042c-42.53-17.314-80.276-8.864-104.986,14.915
		c-27.154,26.131-42.307,59.107-64.401,77.755C172.418,166.227,138.832,193.523,98.581,200.046z"/>
	<path fill="#E6E7E8" d="M170.978,166.648c0.408-0.277,0.617-0.447,0.555-0.448C171.347,166.355,171.165,166.495,170.978,166.648z"
		/>
	<path fill="#E6E7E8" d="M2.518,126.053c2.157,6.118,5.386,12.391,9.537,18.641c14.069,21.16,38.492,42,65.796,55.395
		c1.559,0.765,3.131,1.503,4.704,2.216c5.408-0.566,10.714-1.399,16.027-2.259c40.251-6.522,73.837-33.819,72.952-33.846
		c0.062,0.001-0.147,0.171-0.555,0.448c-8.51,7.1-17.274,12.412-26.448,15.104c-1.248,0.365-2.495,0.693-3.759,0.958
		c-1.988,0.42-4.137,0.612-6.399,0.614c-13.153,0.019-30.405-6.725-46.245-16.822c-14.783-9.425-28.318-21.759-36.131-34.22
		c-8.666-13.824-10.284-27.8,1.292-38.128c18.552-16.544,104.188,10.614,109.794,12.415c0.011-0.017,0.021-0.033,0.04-0.046
		c-4.085-2.238-56.893-30.715-102.953-33.821c-8.92-0.603-17.584-0.251-25.595,1.425c-7.023,1.472-13.542,3.952-19.28,7.714
		C-0.876,92.445-3.626,108.61,2.518,126.053z"/>
	
		<linearGradient id="SVGID_1_" gradientUnits="userSpaceOnUse" x1="395.1934" y1="-36.9624" x2="393.7736" y2="-203.0792" gradientTransform="matrix(1 0 -0.2322 -1 -171.0559 -56)">
		<stop  offset="0" style="stop-color:#FFFFFF"/>
		<stop  offset="0.2545" style="stop-color:#87D5F5"/>
		<stop  offset="0.5818" style="stop-color:#00B8EE"/>
		<stop  offset="1" style="stop-color:#006AB5"/>
	</linearGradient>
	<path fill="url(#SVGID_1_)" d="M380.454,50.023c5.269-1.31,10.625-2.324,16.023-3.105c-23.956-14.932-49.754-21.736-72.506-13.962
		c-61.47,21.01-106.634,201.117-185.948,190.841c0.031,0.018,0.064,0.041,0.094,0.059c42.529,23.787,80.274,12.182,104.989-20.492
		c27.151-35.904,42.303-81.214,64.394-106.838C306.616,96.491,340.205,58.984,380.454,50.023z"/>
	<path fill="#808080" d="M308.053,95.909c-0.403,0.386-0.612,0.615-0.555,0.617C307.687,96.315,307.874,96.12,308.053,95.909z"/>
	
		<radialGradient id="SVGID_2_" cx="430.5635" cy="-199.7695" r="83.596" gradientTransform="matrix(1.0062 0 -0.4029 -1 -128.5984 -56)" gradientUnits="userSpaceOnUse">
		<stop  offset="0" style="stop-color:#FFFFFF"/>
		<stop  offset="0.2545" style="stop-color:#87D5F5"/>
		<stop  offset="0.5818" style="stop-color:#00B8EE"/>
		<stop  offset="1" style="stop-color:#006AB5"/>
	</radialGradient>
	<path fill="url(#SVGID_2_)" d="M476.521,151.688c-2.157-8.405-5.38-17.022-9.538-25.608
		c-14.071-29.075-38.497-57.711-65.795-76.114c-1.561-1.052-3.132-2.067-4.711-3.047c-5.398,0.781-10.712,1.922-16.023,3.105
		c-40.249,8.961-73.838,46.467-72.955,46.502c-0.058-0.001,0.15-0.231,0.555-0.617c8.52-9.754,17.275-17.055,26.452-20.749
		c1.247-0.503,2.494-0.95,3.765-1.317c1.989-0.577,4.131-0.842,6.4-0.844c13.149-0.025,30.397,9.239,46.237,23.112
		c14.787,12.951,28.323,29.898,36.133,47.021c8.669,18.992,9.609,37.875-1.968,52.067c-18.549,22.731-103.32-14.175-110.464-17.378
		c-0.021,0.021-0.029,0.046-0.037,0.063c6.604,4.269,57.565,42.521,103.626,46.792c8.918,0.826,17.917,0.502,25.927-1.807
		c7.022-2.018,13.712-5.346,19.445-10.52C479.753,197.788,482.666,175.654,476.521,151.688z"/>
	
		<linearGradient id="SVGID_3_" gradientUnits="userSpaceOnUse" x1="307.9814" y1="-47.9502" x2="353.33" y2="-176.9107" gradientTransform="matrix(1 0 -0.2322 -1 -171.0559 -56)">
		<stop  offset="0" style="stop-color:#FFFFFF"/>
		<stop  offset="0.2545" style="stop-color:#87D5F5"/>
		<stop  offset="0.5818" style="stop-color:#00B8EE"/>
		<stop  offset="1" style="stop-color:#006AB5"/>
	</linearGradient>
	<path fill="url(#SVGID_3_)" d="M98.581,186.432c-5.271,1.31-10.62,2.324-16.027,3.104c23.958,14.931,49.758,21.734,72.506,13.959
		C216.539,182.488,261.705,2.383,341.015,12.657c-0.04-0.021-0.066-0.042-0.096-0.058c-42.53-23.79-80.276-12.18-104.986,20.493
		c-27.154,35.902-42.307,81.211-64.401,106.834C172.418,139.963,138.832,177.469,98.581,186.432z"/>
	<path fill="#808080" d="M170.978,140.543c0.408-0.384,0.617-0.615,0.555-0.617C171.347,140.139,171.165,140.331,170.978,140.543z"
		/>
	
		<radialGradient id="SVGID_4_" cx="164.8945" cy="-177.6055" r="87.5071" gradientTransform="matrix(1.0062 0 -0.4029 -1 -128.5984 -56)" gradientUnits="userSpaceOnUse">
		<stop  offset="0" style="stop-color:#FFFFFF"/>
		<stop  offset="0.2545" style="stop-color:#87D5F5"/>
		<stop  offset="0.5818" style="stop-color:#00B8EE"/>
		<stop  offset="1" style="stop-color:#006AB5"/>
	</radialGradient>
	<path fill="url(#SVGID_4_)" d="M2.518,84.764c2.157,8.406,5.386,17.025,9.537,25.611c14.069,29.073,38.492,57.708,65.796,76.113
		c1.559,1.05,3.131,2.066,4.704,3.047c5.408-0.779,10.714-1.924,16.027-3.104c40.251-8.963,73.837-46.469,72.952-46.505
		c0.062,0.001-0.147,0.233-0.555,0.617c-8.51,9.754-17.274,17.056-26.448,20.751c-1.248,0.502-2.495,0.951-3.759,1.314
		c-1.988,0.578-4.137,0.843-6.399,0.845c-13.153,0.024-30.405-9.239-46.245-23.113c-14.783-12.949-28.318-29.896-36.131-47.017
		c-8.666-18.996-10.284-38.198,1.292-52.387C71.84,18.205,157.477,55.52,163.082,57.993c0.011-0.022,0.021-0.045,0.04-0.062
		c-4.085-3.076-56.893-42.203-102.953-46.47c-8.92-0.828-17.584-0.344-25.595,1.959c-7.023,2.02-13.542,5.429-19.28,10.599
		C-0.876,38.587-3.626,60.799,2.518,84.764z"/>
</g>
</svg>
