<?xml version="1.0" encoding="utf-8"?>

<!DOCTYPE svg PUBLIC "-//W3C//DTD SVG 1.1//EN" "http://www.w3.org/Graphics/SVG/1.1/DTD/svg11.dtd">
<svg version="1.1" id="Layer_1" xmlns="http://www.w3.org/2000/svg" x="0px" y="0px"
	 width="480px" height="236.454px" viewBox="0 0 480 236.454" enable-background="new 0 0 480 236.454" xml:space="preserve">
<g id="logo">
	<path fill="#E6E7E8" d="M380.454,100.768c5.269-0.954,10.625-1.692,16.022-2.26c-23.955-10.868-49.754-15.82-72.506-10.161
		c-61.47,15.291-106.634,146.374-185.948,138.897c0.031,0.012,0.064,0.027,0.094,0.038c42.529,17.313,80.274,8.868,104.988-14.912
		c27.151-26.132,42.304-59.108,64.395-77.757C306.616,134.588,340.205,107.29,380.454,100.768z"/>
	<path fill="#E6E7E8" d="M308.053,134.163c-0.402,0.28-0.611,0.448-0.555,0.45C307.688,134.458,307.874,134.317,308.053,134.163z"/>
	<path fill="#E6E7E8" d="M476.521,174.76c-2.157-6.115-5.381-12.39-9.538-18.638c-14.071-21.162-38.497-42.003-65.796-55.396
		c-1.561-0.767-3.132-1.506-4.711-2.219c-5.397,0.568-10.712,1.399-16.022,2.26c-40.249,6.521-73.838,33.82-72.955,33.845
		c-0.058-0.002,0.15-0.169,0.555-0.45c8.521-7.099,17.275-12.413,26.452-15.102c1.247-0.366,2.494-0.691,3.765-0.958
		c1.989-0.419,4.132-0.613,6.4-0.613c13.149-0.019,30.397,6.724,46.237,16.82c14.787,9.427,28.322,21.761,36.133,34.222
		c8.669,13.822,9.609,27.566-1.968,37.895c-18.549,16.547-103.32-10.314-110.464-12.648c-0.021,0.019-0.029,0.033-0.037,0.051
		c6.604,3.104,57.564,30.947,103.626,34.056c8.918,0.603,17.917,0.365,25.927-1.313c7.022-1.471,13.712-3.887,19.445-7.653
		C479.753,208.312,482.666,192.203,476.521,174.76z"/>
	<path fill="#E6E7E8" d="M98.581,200.046c-5.271,0.955-10.62,1.69-16.027,2.259c23.958,10.868,49.758,15.821,72.506,10.162
		c61.479-15.289,106.645-146.373,185.955-138.895c-0.04-0.015-0.065-0.03-0.096-0.042c-42.53-17.314-80.276-8.864-104.986,14.915
		c-27.154,26.131-42.307,59.107-64.401,77.755C172.418,166.227,138.832,193.523,98.581,200.046z"/>
	<path fill="#E6E7E8" d="M170.978,166.648c0.408-0.277,0.617-0.447,0.555-0.448C171.347,166.355,171.165,166.495,170.978,166.648z"
		/>
	<path fill="#E6E7E8" d="M2.518,126.053c2.157,6.118,5.386,12.391,9.537,18.641c14.069,21.16,38.492,42,65.796,55.395
		c1.559,0.765,3.131,1.503,4.704,2.216c5.408-0.565,10.714-1.398,16.027-2.259c40.251-6.522,73.837-33.819,72.952-33.846
		c0.062,0.001-0.147,0.171-0.555,0.448c-8.51,7.1-17.274,12.412-26.448,15.104c-1.248,0.365-2.495,0.693-3.759,0.958
		c-1.988,0.42-4.137,0.612-6.399,0.614c-13.153,0.019-30.405-6.725-46.245-16.822c-14.783-9.425-28.318-21.759-36.131-34.22
		c-8.666-13.824-10.284-27.8,1.292-38.128c18.552-16.544,104.188,10.614,109.794,12.415c0.011-0.017,0.021-0.033,0.04-0.046
		c-4.085-2.238-56.893-30.715-102.953-33.821c-8.92-0.603-17.584-0.251-25.595,1.425c-7.023,1.472-13.542,3.952-19.28,7.714
		C-0.876,92.445-3.626,108.61,2.518,126.053z"/>
	
		<linearGradient id="SVGID_1_" gradientUnits="userSpaceOnUse" x1="565.8818" y1="521.9619" x2="564.462" y2="688.0787" gradientTransform="matrix(1 0 0.2322 1 -454.3625 -541)">
		<stop  offset="0" style="stop-color:#FFFFFF"/>
		<stop  offset="0.2545" style="stop-color:#87D5F5"/>
		<stop  offset="0.5818" style="stop-color:#00B8EE"/>
		<stop  offset="1" style="stop-color:#006AB5"/>
	</linearGradient>
	<path fill="url(#SVGID_1_)" d="M380.454,50.023c5.269-1.31,10.625-2.324,16.022-3.105c-23.955-14.932-49.754-21.736-72.506-13.962
		c-61.47,21.01-106.634,201.117-185.948,190.841c0.031,0.018,0.064,0.041,0.094,0.059c42.529,23.787,80.274,12.183,104.988-20.491
		c27.151-35.904,42.304-81.214,64.395-106.838C306.616,96.491,340.205,58.984,380.454,50.023z"/>
	<path fill="#808080" d="M308.053,95.909c-0.402,0.386-0.611,0.615-0.555,0.617C307.688,96.315,307.874,96.12,308.053,95.909z"/>
	
		<radialGradient id="SVGID_2_" cx="555.3994" cy="684.7695" r="83.596" gradientTransform="matrix(1.0062 0 0.4029 1 -449.615 -541)" gradientUnits="userSpaceOnUse">
		<stop  offset="0" style="stop-color:#FFFFFF"/>
		<stop  offset="0.2545" style="stop-color:#87D5F5"/>
		<stop  offset="0.5818" style="stop-color:#00B8EE"/>
		<stop  offset="1" style="stop-color:#006AB5"/>
	</radialGradient>
	<path fill="url(#SVGID_2_)" d="M476.521,151.688c-2.157-8.404-5.381-17.021-9.538-25.607
		c-14.071-29.075-38.497-57.711-65.796-76.114c-1.561-1.052-3.132-2.067-4.711-3.047c-5.397,0.781-10.712,1.922-16.022,3.105
		c-40.249,8.961-73.838,46.467-72.955,46.502c-0.058-0.001,0.15-0.231,0.555-0.617c8.521-9.754,17.275-17.055,26.452-20.749
		c1.247-0.503,2.494-0.95,3.765-1.317c1.989-0.577,4.132-0.842,6.4-0.844c13.149-0.025,30.397,9.239,46.237,23.112
		c14.787,12.951,28.322,29.898,36.133,47.021c8.669,18.992,9.609,37.875-1.968,52.067c-18.549,22.73-103.32-14.176-110.464-17.379
		c-0.021,0.021-0.029,0.047-0.037,0.063c6.604,4.269,57.564,42.521,103.626,46.792c8.918,0.826,17.917,0.502,25.927-1.807
		c7.022-2.018,13.712-5.346,19.445-10.52C479.753,197.788,482.666,175.654,476.521,151.688z"/>
	
		<linearGradient id="SVGID_3_" gradientUnits="userSpaceOnUse" x1="478.6709" y1="532.9512" x2="524.0195" y2="661.9117" gradientTransform="matrix(1 0 0.2322 1 -454.3625 -541)">
		<stop  offset="0" style="stop-color:#FFFFFF"/>
		<stop  offset="0.2545" style="stop-color:#87D5F5"/>
		<stop  offset="0.5818" style="stop-color:#00B8EE"/>
		<stop  offset="1" style="stop-color:#006AB5"/>
	</linearGradient>
	<path fill="url(#SVGID_3_)" d="M98.581,186.432c-5.271,1.311-10.62,2.324-16.027,3.104c23.958,14.931,49.758,21.733,72.506,13.959
		C216.539,182.488,261.705,2.383,341.015,12.657c-0.04-0.021-0.065-0.042-0.096-0.058c-42.53-23.79-80.276-12.18-104.986,20.493
		c-27.154,35.902-42.307,81.211-64.401,106.834C172.418,139.963,138.832,177.469,98.581,186.432z"/>
	<path fill="#808080" d="M170.978,140.543c0.408-0.384,0.617-0.615,0.555-0.617C171.347,140.139,171.165,140.331,170.978,140.543z"
		/>
	
		<radialGradient id="SVGID_4_" cx="289.7305" cy="662.6055" r="87.5071" gradientTransform="matrix(1.0062 0 0.4029 1 -449.615 -541)" gradientUnits="userSpaceOnUse">
		<stop  offset="0" style="stop-color:#FFFFFF"/>
		<stop  offset="0.2545" style="stop-color:#87D5F5"/>
		<stop  offset="0.5818" style="stop-color:#00B8EE"/>
		<stop  offset="1" style="stop-color:#006AB5"/>
	</radialGradient>
	<path fill="url(#SVGID_4_)" d="M2.518,84.764c2.157,8.406,5.386,17.025,9.537,25.611c14.069,29.073,38.492,57.708,65.796,76.113
		c1.559,1.05,3.131,2.066,4.704,3.047c5.408-0.779,10.714-1.924,16.027-3.104c40.251-8.964,73.837-46.47,72.952-46.506
		c0.062,0.001-0.147,0.233-0.555,0.617c-8.51,9.754-17.274,17.057-26.448,20.751c-1.248,0.502-2.495,0.951-3.759,1.313
		c-1.988,0.578-4.137,0.844-6.399,0.846c-13.153,0.023-30.405-9.239-46.245-23.113c-14.783-12.949-28.318-29.896-36.131-47.017
		c-8.666-18.996-10.284-38.198,1.292-52.387C71.84,18.205,157.477,55.52,163.082,57.993c0.011-0.022,0.021-0.045,0.04-0.062
		c-4.085-3.076-56.893-42.203-102.953-46.47c-8.92-0.828-17.584-0.344-25.595,1.959c-7.023,2.02-13.542,5.429-19.28,10.599
		C-0.876,38.587-3.626,60.799,2.518,84.764z"/>
</g>
</svg>
