<svg enable-background="new 0 0 480 236.454" height="236.454" viewBox="0 0 480 236.454" width="480" xmlns="http://www.w3.org/2000/svg" xmlns:xlink="http://www.w3.org/1999/xlink"><linearGradient id="a"><stop offset="0" stop-color="#fff"/><stop offset=".2545" stop-color="#87d5f5"/><stop offset=".5818" stop-color="#00b8ee"/><stop offset="1" stop-color="#006ab5"/></linearGradient><linearGradient id="b" gradientTransform="matrix(1 0 .2322 1 -454.3625 -541)" gradientUnits="userSpaceOnUse" x1="565.8818" x2="564.462" xlink:href="#a" y1="521.9619" y2="688.0787"/><radialGradient id="c" cx="555.3994" cy="684.7695" gradientTransform="matrix(1.0062 0 .4029 1 -449.615 -541)" gradientUnits="userSpaceOnUse" r="83.596" xlink:href="#a"/><linearGradient id="d" gradientTransform="matrix(1 0 .2322 1 -454.3625 -541)" gradientUnits="userSpaceOnUse" x1="478.6709" x2="524.0195" xlink:href="#a" y1="532.9512" y2="661.9117"/><radialGradient id="e" cx="289.7305" cy="662.6055" gradientTransform="matrix(1.0062 0 .4029 1 -449.615 -541)" gradientUnits="userSpaceOnUse" r="87.5071" xlink:href="#a"/><g fill="#e6e7e8"><path d="m380.454 100.768c5.269-.954 10.625-1.692 16.022-2.26-23.955-10.868-49.754-15.82-72.506-10.161-61.47 15.291-106.634 146.374-185.948 138.897.031.012.064.027.094.038 42.529 17.313 80.274 8.868 104.988-14.912 27.151-26.132 42.304-59.108 64.395-77.757-.883-.025 32.706-27.323 72.955-33.845z"/><path d="m308.053 134.163c-.402.28-.611.448-.555.45.19-.155.376-.296.555-.45z"/><path d="m476.521 174.76c-2.157-6.115-5.381-12.39-9.538-18.638-14.071-21.162-38.497-42.003-65.796-55.396-1.561-.767-3.132-1.506-4.711-2.219-5.397.568-10.712 1.399-16.022 2.26-40.249 6.521-73.838 33.82-72.955 33.845-.058-.002.15-.169.555-.45 8.521-7.099 17.275-12.413 26.452-15.102 1.247-.366 2.494-.691 3.765-.958 1.989-.419 4.132-.613 6.4-.613 13.149-.019 30.397 6.724 46.237 16.82 14.787 9.427 28.322 21.761 36.133 34.222 8.669 13.822 9.609 27.566-1.968 37.895-18.549 16.547-103.32-10.314-110.464-12.648-.021.019-.029.033-.037.051 6.604 3.104 57.564 30.947 103.626 34.056 8.918.603 17.917.365 25.927-1.313 7.022-1.471 13.712-3.887 19.445-7.653 16.183-10.607 19.096-26.716 12.951-44.159z"/><path d="m98.581 200.046c-5.271.955-10.62 1.69-16.027 2.259 23.958 10.868 49.758 15.821 72.506 10.162 61.479-15.289 106.645-146.373 185.955-138.895-.04-.015-.065-.03-.096-.042-42.53-17.314-80.276-8.864-104.986 14.915-27.154 26.131-42.307 59.107-64.401 77.755.886.027-32.7 27.323-72.951 33.846z"/><path d="m170.978 166.648c.408-.277.617-.447.555-.448-.186.155-.368.295-.555.448z"/><path d="m2.518 126.053c2.157 6.118 5.386 12.391 9.537 18.641 14.069 21.16 38.492 42 65.796 55.395 1.559.765 3.131 1.503 4.704 2.216 5.408-.565 10.714-1.398 16.027-2.259 40.251-6.522 73.837-33.819 72.952-33.846.062.001-.147.171-.555.448-8.51 7.1-17.274 12.412-26.448 15.104-1.248.365-2.495.693-3.759.958-1.988.42-4.137.612-6.399.614-13.153.019-30.405-6.725-46.245-16.822-14.783-9.425-28.318-21.759-36.131-34.22-8.666-13.824-10.284-27.8 1.292-38.128 18.552-16.544 104.188 10.614 109.794 12.415.011-.017.021-.033.04-.046-4.085-2.238-56.893-30.715-102.953-33.821-8.92-.603-17.584-.251-25.595 1.425-7.023 1.472-13.542 3.952-19.28 7.714-16.171 10.604-18.921 26.769-12.777 44.212z"/></g><path d="m380.454 50.023c5.269-1.31 10.625-2.324 16.022-3.105-23.955-14.932-49.754-21.736-72.506-13.962-61.47 21.01-106.634 201.117-185.948 190.841.031.018.064.041.094.059 42.529 23.787 80.274 12.183 104.988-20.491 27.151-35.904 42.304-81.214 64.395-106.838-.883-.036 32.706-37.543 72.955-46.504z" fill="url(#b)"/><path d="m308.053 95.909c-.402.386-.611.615-.555.617.19-.211.376-.406.555-.617z" fill="#808080"/><path d="m476.521 151.688c-2.157-8.404-5.381-17.021-9.538-25.607-14.071-29.075-38.497-57.711-65.796-76.114-1.561-1.052-3.132-2.067-4.711-3.047-5.397.781-10.712 1.922-16.022 3.105-40.249 8.961-73.838 46.467-72.955 46.502-.058-.001.15-.231.555-.617 8.521-9.754 17.275-17.055 26.452-20.749 1.247-.503 2.494-.95 3.765-1.317 1.989-.577 4.132-.842 6.4-.844 13.149-.025 30.397 9.239 46.237 23.112 14.787 12.951 28.322 29.898 36.133 47.021 8.669 18.992 9.609 37.875-1.968 52.067-18.549 22.73-103.32-14.176-110.464-17.379-.021.021-.029.047-.037.063 6.604 4.269 57.564 42.521 103.626 46.792 8.918.826 17.917.502 25.927-1.807 7.022-2.018 13.712-5.346 19.445-10.52 16.183-14.561 19.096-36.695 12.951-60.661z" fill="url(#c)"/><path d="m98.581 186.432c-5.271 1.311-10.62 2.324-16.027 3.104 23.958 14.931 49.758 21.733 72.506 13.959 61.479-21.007 106.645-201.112 185.955-190.838-.04-.021-.065-.042-.096-.058-42.53-23.79-80.276-12.18-104.986 20.493-27.154 35.902-42.307 81.211-64.401 106.834.886.037-32.7 37.543-72.951 46.506z" fill="url(#d)"/><path d="m170.978 140.543c.408-.384.617-.615.555-.617-.186.213-.368.405-.555.617z" fill="#808080"/><path d="m2.518 84.764c2.157 8.406 5.386 17.025 9.537 25.611 14.069 29.073 38.492 57.708 65.796 76.113 1.559 1.05 3.131 2.066 4.704 3.047 5.408-.779 10.714-1.924 16.027-3.104 40.251-8.964 73.837-46.47 72.952-46.506.062.001-.147.233-.555.617-8.51 9.754-17.274 17.057-26.448 20.751-1.248.502-2.495.951-3.759 1.313-1.988.578-4.137.844-6.399.846-13.153.023-30.405-9.239-46.245-23.113-14.783-12.949-28.318-29.896-36.131-47.017-8.666-18.996-10.284-38.198 1.292-52.387 18.551-22.73 104.188 14.585 109.793 17.058.011-.022.021-.045.04-.062-4.085-3.076-56.893-42.203-102.953-46.47-8.92-.828-17.584-.344-25.595 1.959-7.023 2.02-13.542 5.429-19.28 10.599-16.17 14.568-18.92 36.78-12.776 60.745z" fill="url(#e)"/></svg>