<svg enable-background="new 86 86 128 128" height="128" viewBox="86 86 128 128" width="128" xmlns="http://www.w3.org/2000/svg"><path d="m121.769 127.514c-4.994 0-9.101 3.978-9.101 8.856v27.262c0 4.877 4.107 8.855 9.101 8.855h3.128c4.994 0 9.103-3.979 9.103-8.855v-27.262c0-4.878-4.109-8.856-9.103-8.856zm53.334 41.514c-4.995 0-9.102 3.976-9.102 8.855v27.261c0 4.88 4.107 8.855 9.102 8.855h3.13c4.994 0 9.104-3.976 9.104-8.855v-27.261c0-4.88-4.109-8.855-9.104-8.855zm0-83.028c-4.995 0-9.102 3.979-9.102 8.855v27.262c0 4.878 4.107 8.857 9.102 8.857h3.13c5.014 0 9.104-3.979 9.104-8.857v-27.262c0-4.876-4.09-8.855-9.104-8.855zm-14.435 19.027h-74.668v6.919h74.668zm53.332 6.919v-6.919h-21.333v6.919zm-106.667 34.596h-21.333v6.917h21.333zm106.667 6.916v-6.917h-74.666v6.917zm-53.332 34.596h-74.668v6.921h74.668zm53.332 6.921v-6.921h-21.333v6.921z" fill="#3e4b5b"/></svg>